<svg id="Layer_1" height="512" viewBox="0 0 512 512" width="512" xmlns="http://www.w3.org/2000/svg" data-name="Layer 1"><path d="m301.114 254a6.164 6.164 0 0 0 4.243-1.916l21.068-21.331a6.026 6.026 0 0 0 1.575-4.322v-100.186c0-3.313-2.321-6.245-5.635-6.245h-111.479a6.126 6.126 0 0 0 -4.243 1.88l-21.068 21.312a5.984 5.984 0 0 0 -1.575 4.308v100.182c0 3.318 2.321 6.318 5.635 6.318zm-47.114-12h-17v-22.635l17 8.332zm62-18.054-9 9.251v-83.216l9-9.251zm-46.889-91.946h38.769l-9.251 9h-38.769zm-55.74 0h38.769l-9.251 9h-38.769zm41.629 21v8h-20v-8zm-59 0h27v14.11c0 3.313 3.161 5.89 6.475 5.89h31.925a5.576 5.576 0 0 0 5.6-5.89v-14.11h28v89h-29v-18.122a5.845 5.845 0 0 0 -3.283-5.436l-29.74-13.942a5.459 5.459 0 0 0 -5.48.374 5.751 5.751 0 0 0 -2.5 5.061v32.065h-28.997z"/><path d="m151.271 89.394a6 6 0 0 0 -8.472.491 150.736 150.736 0 0 0 -38.185 100.357 6 6 0 0 0 12 0 138.749 138.749 0 0 1 35.147-92.377 6 6 0 0 0 -.49-8.471z"/><path d="m163.808 84.021a5.976 5.976 0 0 0 3.8-1.357c1.319-1.08 2.677-2.151 4.036-3.183a6 6 0 1 0 -7.255-9.558c-1.476 1.12-2.951 2.283-4.384 3.456a6 6 0 0 0 3.805 10.642z"/><path d="m411.579 402.784c-20.511-8.525-47.8-15.109-79.447-19.222l55.441-55.441a187.26 187.26 0 0 0 55.443-132.721 185.008 185.008 0 0 0 -54.6-132.114c-73.016-73.012-191.816-73.011-264.835.003a184.78 184.78 0 0 0 -52.867 106.495 190.465 190.465 0 0 0 20.766 114.985c9.465 17.036 19.965 31.217 32.1 43.352l55.538 55.538c-31.434 4.134-58.524 10.71-78.886 19.2-17.707 7.385-38.815 20.018-38.815 38.263 0 18.18 20.582 33.932 59.519 45.555 36.164 10.797 84.127 16.742 135.064 16.742s98.9-5.945 135.063-16.739c38.937-11.623 59.519-27.375 59.519-45.555 0-18.291-21.21-30.946-39.003-38.341zm-279.513-83.148c-11.336-11.336-21.18-24.647-30.053-40.618a178.3 178.3 0 0 1 -19.413-107.611 172.877 172.877 0 0 1 49.462-99.633 174.969 174.969 0 1 1 247.025 247.862l-123.51 123.51zm159.464 104.527c32.366 4.565 43.364 13.484 43.364 16.962 0 2.423-5.481 7.663-20.581 12.17-15.493 4.625-36.2 7.172-58.313 7.172s-42.82-2.547-58.313-7.172c-15.1-4.507-20.581-9.747-20.581-12.17 0-3.437 10.814-12.257 42.621-16.858l31.607 31.608a6 6 0 0 0 8.485 0zm-35.53 67.256c-107.6 0-182.582-26.5-182.582-50.294 0-16.787 39.994-38.064 116.47-46.7l19.43 19.431c-18.741 3.584-44.212 11.379-44.212 27.266 0 12.372 15.851 19.7 29.148 23.669 16.577 4.948 38.5 7.673 61.746 7.673s45.169-2.725 61.746-7.673c13.3-3.969 29.148-11.3 29.148-23.669 0-16.07-26-23.862-44.923-27.4l19.38-19.38c76.974 8.574 117.231 29.915 117.231 46.782 0 23.79-74.982 50.295-182.582 50.295z"/><path d="m381.488 194.5a126.112 126.112 0 0 0 -132.906-130.049c-64.323 3.5-115.992 55.726-118.86 120.079a125.846 125.846 0 0 0 4.807 40.645 5.986 5.986 0 0 0 8.585 3.576l.016-.009a6 6 0 0 0 2.9-6.967 113.8 113.8 0 0 1 -4.388-34.973c1.838-61.989 53.743-111.5 115.75-110.527a114.108 114.108 0 0 1 112.1 117.79c-1.948 59.335-49.834 107.635-109.15 110.061a113.906 113.906 0 0 1 -97.82-48.126 5.995 5.995 0 0 0 -9.729 7 125.9 125.9 0 0 0 104.652 53.207c66.896-.971 121.828-54.842 124.043-121.707z"/></svg>