<?xml version="1.0" encoding="UTF-8"?>
<svg xmlns="http://www.w3.org/2000/svg" id="Layer_1" data-name="Layer 1" viewBox="0 0 512 512" width="512" height="512"><path d="M446.57,317.7a6.177,6.177,0,0,0-5.978-5.7H421v-5.116a25.5,25.5,0,1,0-51,0V312H350.691a6.179,6.179,0,0,0-5.973,5.641l-7.991,85.17a6.229,6.229,0,0,0,.353,2.713l7.371,19.648a5.938,5.938,0,0,0,5.62,3.828h91.14a5.914,5.914,0,0,0,5.692-4.007l6.573-19.67a6.41,6.41,0,0,0,.286-2.48ZM382,306.884a13.5,13.5,0,1,1,27,0V312H382ZM436.887,417H354.234l-2.885-8h88.11Zm-87.6-20,6.864-73H370v16.429a6,6,0,0,0,12,0V324h27v16.429a6,6,0,0,0,12,0V324h14.077l6.177,73Z"/><path d="M419,358H372a6,6,0,0,0-6,6v17a6,6,0,0,0,6,6h47a6,6,0,0,0,6-6V364A6,6,0,0,0,419,358Zm-6,17H378v-5h35Z"/><path d="M147.5,232h-70a35.5,35.5,0,0,0,0,71h70a35.5,35.5,0,0,0,0-71Zm0,59h-70a23.5,23.5,0,0,1,0-47h70a23.5,23.5,0,0,1,0,47Z"/><path d="M52.007,138.1l-6.295-.1h-.058a6.1,6.1,0,0,0-6,6.055,5.928,5.928,0,0,0,5.944,5.971l6.3-.026h.057a5.882,5.882,0,0,0,6-5.8A6.035,6.035,0,0,0,52.007,138.1Z"/><path d="M226.947,151a5.888,5.888,0,0,0,6-5.837,6.142,6.142,0,0,0-5.968-6.194L70.98,138h-.032a6.2,6.2,0,0,0-6,6.2,5.986,5.986,0,0,0,5.969,6.014l156,.788Z"/><path d="M468,276.727V81.75A35.827,35.827,0,0,0,432,46H44A35.827,35.827,0,0,0,8,81.75v237A36.255,36.255,0,0,0,44,355H286.515c-.019.829-.032,1.659-.032,2.492A108.759,108.759,0,1,0,468,276.727ZM20,81.75A23.815,23.815,0,0,1,44,58H432a23.815,23.815,0,0,1,24,23.75V112H20ZM44,343a24.242,24.242,0,0,1-24-24.25V184H72a6,6,0,0,0,0-12H20V124H456v48H112a6,6,0,0,0,0,12H456v83.328A108.709,108.709,0,0,0,287.451,343ZM395.242,454.25A96.759,96.759,0,1,1,492,357.492,96.869,96.869,0,0,1,395.242,454.25Z"/></svg>
