<?xml version="1.0" encoding="UTF-8"?>
<svg xmlns="http://www.w3.org/2000/svg" id="Layer_1" data-name="Layer 1" viewBox="0 0 512 512" width="512" height="512"><path d="M368,272.392a6,6,0,0,0,6-6v-6.3a6,6,0,0,0-12,0v6.3A6,6,0,0,0,368,272.392Z"/><path d="M368,330.392a6,6,0,0,0,6-6v-39a6,6,0,0,0-12,0v39A6,6,0,0,0,368,330.392Z"/><path d="M503.671,233.473,452.152,177.38A26.025,26.025,0,0,0,433,169H340.729A5.707,5.707,0,0,0,335,174.921V270H317V139.905A35.933,35.933,0,0,0,281.03,104H42.75A35.746,35.746,0,0,0,7,139.905V367.1a5.905,5.905,0,0,0,5.9,5.9H52.681a41,41,0,0,0,81.126,0H378.693a41,41,0,0,0,81.114,0H479.25A25.735,25.735,0,0,0,505,347.1V237.53a5.873,5.873,0,0,0-1.459-4.052ZM256,116h25.03A23.92,23.92,0,0,1,305,139.905V270H256Zm-60,0h48V270H196Zm-60,0h48V270H136Zm-60,0h48V270H76ZM19,139.905A23.734,23.734,0,0,1,42.75,116H64V270H19ZM93.25,396.1a29,29,0,1,1,29-29A29.033,29.033,0,0,1,93.25,396.1ZM335,305H280a6,6,0,0,0,0,12h55v44H133.807a41,41,0,0,0-81.1,0H19V317H240a6,6,0,0,0,0-12H19V282H335Zm86-124h12a14.23,14.23,0,0,1,10.314,4.729L485.6,232H421Zm-24,0h12v51H397Zm-50,0h38v51H347Zm72.25,215.1a29,29,0,1,1,29-29A29.033,29.033,0,0,1,419.25,396.1ZM493,290H476V271h17Zm0-31H474.421A10.67,10.67,0,0,0,464,269.335v22.187A10.8,10.8,0,0,0,474.421,302H493v45.1A13.723,13.723,0,0,1,479.25,361H459.807a41,41,0,0,0-81.114,0H347V244H493Z"/></svg>
