<?xml version="1.0" encoding="UTF-8"?>
<svg xmlns="http://www.w3.org/2000/svg" id="Layer_1" data-name="Layer 1" viewBox="0 0 512 512" width="512" height="512"><path d="M239,197.1a6,6,0,0,0-6,6v6.3a6,6,0,0,0,12,0v-6.3A6,6,0,0,0,239,197.1Z"/><path d="M239,222.391a6,6,0,0,0-6,6v76a6,6,0,1,0,12,0v-76A6,6,0,0,0,239,222.391Z"/><path d="M493.613,351H444V180.541a5.95,5.95,0,0,0-.41-2.624l-21.05-52.385A5.792,5.792,0,0,0,416.969,122H231.031a5.792,5.792,0,0,0-5.571,3.532l-21.05,52.505a5.443,5.443,0,0,0-.41,2.5V351H164V88.759A36.76,36.76,0,0,0,127.24,52H116V38.621c0-3.313-2.9-5.621-6.21-5.621h-92A5.512,5.512,0,0,0,12,38.621V76.335A5.546,5.546,0,0,0,17.79,82h92c3.314,0,6.21-2.351,6.21-5.665V64h11.306A24.694,24.694,0,0,1,152,88.694V417.387A5.613,5.613,0,0,0,157.613,423h29.6a35.389,35.389,0,1,0,47.8,0H406.464a35.389,35.389,0,1,0,47.8,0h39.578A6.172,6.172,0,0,0,500,416.846V357.387A6.406,6.406,0,0,0,493.613,351ZM104,70H24V45h80Zm226,64h82.906L429.1,174H330Zm-6,52.146a6.015,6.015,0,0,0,1.3-.146H353v28H297V186h25.7A6.015,6.015,0,0,0,324,186.146ZM235.094,134H318v40H218.9ZM211.113,472.459A23.389,23.389,0,1,1,234.5,449.071,23.415,23.415,0,0,1,211.113,472.459Zm219.253,0a23.389,23.389,0,1,1,23.389-23.388A23.415,23.415,0,0,1,430.366,472.459ZM488,411H164V363h72a6,6,0,0,0,0-12H216V186h69v33.741A6.658,6.658,0,0,0,291.485,226H359.46c3.313,0,5.54-2.946,5.54-6.259V186h67V351H363V298.9a5.881,5.881,0,0,0-10.184-4.131l-6.083,6.437-6.369-6.458A5.92,5.92,0,0,0,336.1,293h-.017a5.934,5.934,0,0,0-4.289,1.773l-6.316,6.484-6.317-6.472A5.949,5.949,0,0,0,314.867,293h-.016a5.953,5.953,0,0,0-4.284,1.75l-6.383,6.483-6.112-6.449a5.783,5.783,0,0,0-6.435-1.448A5.866,5.866,0,0,0,288,298.9V351H276a6,6,0,0,0,0,12H488ZM351,314.125V351H300V314.075a5.866,5.866,0,0,0,8.431-.025l6.414-6.556,6.331,6.533a5.99,5.99,0,0,0,8.6,0l6.339-6.533,6.432,6.632A6.072,6.072,0,0,0,346.833,316h.049A5.742,5.742,0,0,0,351,314.125Z"/></svg>
