<?xml version="1.0" encoding="UTF-8"?>
<svg xmlns="http://www.w3.org/2000/svg" id="Layer_1" data-name="Layer 1" viewBox="0 0 512 512" width="512" height="512"><path d="M103,257.1a6,6,0,0,0-6,6v6.3a6,6,0,0,0,12,0v-6.3A6,6,0,0,0,103,257.1Z"/><path d="M103,282.391a6,6,0,0,0-6,6v66a6,6,0,0,0,12,0v-66A6,6,0,0,0,103,282.391Z"/><path d="M40.27,244H64V447.3c0,25.365,20.951,45.7,46.315,45.7H402.224A45.605,45.605,0,0,0,448,447.3V244h23.9a6.114,6.114,0,0,0,6.1-6.1V191.96A45.96,45.96,0,0,0,432.039,146H357.56A69.283,69.283,0,1,0,255.921,60.9,69.29,69.29,0,1,0,154.126,146H80.1A46.231,46.231,0,0,0,34,192.1V237.73A6.288,6.288,0,0,0,40.27,244ZM294,481H218V420.868a67.336,67.336,0,0,0,76-.384Zm-38-60.576a55.5,55.5,0,1,1,55.5-55.5A55.559,55.559,0,0,1,256,420.424ZM218,308.987V244h76v65.371a67.336,67.336,0,0,0-76-.384ZM436,447.3A33.592,33.592,0,0,1,402.224,481H306V409.909a67.336,67.336,0,0,0,0-89.963V244H436ZM262,88.113a59.5,59.5,0,0,1,2.58-16.356,57.432,57.432,0,0,1,112.48,16.2C377.06,119.5,351.244,145,319.472,145H262Zm-127.093,0c0-31.657,25.993-57.413,57.651-57.413A57.681,57.681,0,0,1,250,88.322V146H192.32a59.8,59.8,0,0,1-16.355-2.684A57.467,57.467,0,0,1,134.907,88.114ZM46,191.96A33.961,33.961,0,0,1,79.961,158H431.9A34.2,34.2,0,0,1,466,192.1V232H167a6,6,0,0,0,0,12h39v75.347a67.352,67.352,0,0,0,0,91.162V481H110.315C91.567,481,76,466.048,76,447.3V244h51a6,6,0,0,0,0-12H46Z"/></svg>
