<?xml version="1.0" encoding="UTF-8"?>
<svg xmlns="http://www.w3.org/2000/svg" id="Layer_1" data-name="Layer 1" viewBox="0 0 512 512" width="512" height="512"><path d="M12,131.145a6,6,0,0,0,6-6V78H65.145a6,6,0,0,0,0-12H12.367A6.647,6.647,0,0,0,6,72.367v52.778A6,6,0,0,0,12,131.145Z"/><path d="M446.855,78H494v47.145a6,6,0,1,0,12,0V72.367A6.647,6.647,0,0,0,499.633,66H446.855a6,6,0,0,0,0,12Z"/><path d="M446.855,446h52.778A6.647,6.647,0,0,0,506,439.633V386.855a6,6,0,0,0-12,0V434H446.855a6,6,0,0,0,0,12Z"/><path d="M12.367,446H65.145a6,6,0,0,0,0-12H18V386.855a6,6,0,0,0-12,0v52.778A6.647,6.647,0,0,0,12.367,446Z"/><path d="M49,389H463a6.011,6.011,0,0,0,6-6.012V258h14a6,6,0,0,0,6-6V224a6,6,0,0,0-6-6H469V129.012A6.011,6.011,0,0,0,463,123H49a6.011,6.011,0,0,0-6,6.012V218H29a6,6,0,0,0-6,6v28a6,6,0,0,0,6,6H43V382.988A6.011,6.011,0,0,0,49,389Zm408-12H55V258h8V362.988A6.011,6.011,0,0,0,69,369H443a6.011,6.011,0,0,0,6-6.012V258h8ZM97,344a6,6,0,0,0,6-6V258h11v50a6,6,0,0,0,12,0V258h11v56a6,6,0,0,0,12,0V258h10v80a6,6,0,0,0,12,0V258h11v40a6,6,0,0,0,12,0V258h11v80a6,6,0,0,0,12,0V258h10v60a6,6,0,0,0,12,0V258h11v80a6,6,0,0,0,12,0V258h11v70a6,6,0,0,0,12,0V258h10v70a6,6,0,0,0,12,0V258h11v80a6,6,0,0,0,12,0V258h11v20a6,6,0,0,0,12,0V258h10v80a6,6,0,0,0,12,0V258h11v60a6,6,0,0,0,12,0V258h10v70a6,6,0,0,0,12,0V258h17v99H75V258H91v80A6,6,0,0,0,97,344ZM55,135H457v83h-8V149.012A6.011,6.011,0,0,0,443,143H69a6.011,6.011,0,0,0-6,6.012V218H55Zm359,33a6,6,0,0,0-6,6v44H398V174a6,6,0,0,0-12,0v44H375V174a6,6,0,0,0-12,0v44H353V174a6,6,0,0,0-12,0v44H330V174a6,6,0,0,0-12,0v44H307V174a6,6,0,0,0-12,0v44H285V174a6,6,0,0,0-12,0v44H262V174a6,6,0,0,0-12,0v44H239V174a6,6,0,0,0-12,0v44H217V174a6,6,0,0,0-12,0v44H194V174a6,6,0,0,0-12,0v44H171V174a6,6,0,0,0-12,0v44H149V174a6,6,0,0,0-12,0v44H126V174a6,6,0,0,0-12,0v44H103V174a6,6,0,0,0-12,0v44H75V155H437v63H420V174A6,6,0,0,0,414,168ZM35,246V230H477v16Z"/></svg>
