<?xml version="1.0" encoding="UTF-8"?>
<svg xmlns="http://www.w3.org/2000/svg" id="Layer_1" data-name="Layer 1" viewBox="0 0 512 512" width="512" height="512"><path d="M200.306,143h8a5.3,5.3,0,0,1,5.115,4.456l10.127,59.729a17.172,17.172,0,0,0,11.611,13.489,14.408,14.408,0,0,0,9.154,25.525,14.224,14.224,0,0,0,14.4-14.174c0-4.008-1.649-8.025-4.3-10.025H279.33c-2.651,2-4.3,6.022-4.3,10.029a14.4,14.4,0,0,0,28.792.054c0-4.007-1.649-8.083-4.3-10.083h.593a6,6,0,1,0,0-12H240.493a5.365,5.365,0,0,1-5.115-4.53l-.384-2.47h54.67a19.926,19.926,0,0,0,19.027-13.884l8.716-27.161a6.124,6.124,0,0,0-.865-5.43A6.061,6.061,0,0,0,311.694,154H226.7l-1.448-8.611A17.21,17.21,0,0,0,208.307,131h-8a6,6,0,0,0,0,12Zm89.12,86.416a2.4,2.4,0,1,1-2.4,2.4A2.4,2.4,0,0,1,289.426,229.416Zm-45.113,0a2.4,2.4,0,1,1-2.4,2.4A2.4,2.4,0,0,1,244.313,229.416ZM303.468,166l-6.2,19.39a8.021,8.021,0,0,1-7.6,5.61H232.957l-4.221-25Z"/><path d="M497.762,119.35,458.42,68.021A46.284,46.284,0,0,0,421.912,50H98.083A46.127,46.127,0,0,0,64.2,64.9L14.58,118.938l.005.007A5.976,5.976,0,0,0,13,123v14a45.465,45.465,0,0,0,13.48,32.246A44.034,44.034,0,0,0,54,182.233V415.986A45.682,45.682,0,0,0,99.55,462h312.9A45.682,45.682,0,0,0,458,415.986V182.233a44.034,44.034,0,0,0,27.52-12.987A45.465,45.465,0,0,0,499,137V123a5.973,5.973,0,0,0-1.243-3.647ZM421.912,62A34.212,34.212,0,0,1,448.9,75.322L480.841,117h-63.6l-36.13-55Zm-85.268,67H408v17.029a46.532,46.532,0,0,1-46.479,46.478,45.964,45.964,0,0,1-6.6-.5c.016-.292.037-.582.051-.874A98.61,98.61,0,0,0,336.644,129Zm30.1-67,36.13,55H326.552A99.772,99.772,0,0,0,306.5,101.273L291.281,62Zm-133.16,0h44.824l12.274,31.679a98.94,98.94,0,0,0-69.377.013Zm-12.869,0-15.233,39.315A100.017,100.017,0,0,0,185.506,117H110.4l43.541-55ZM157.087,192.113a43.542,43.542,0,0,1-5.819.394A46.352,46.352,0,0,1,105,146.029V129h70.4A98.374,98.374,0,0,0,157,182.533C156.874,185.762,156.909,188.956,157.087,192.113ZM73.04,73.011A34.091,34.091,0,0,1,98.083,62h40.556L95.1,117H32.655ZM25,137v-8H92v8a33.144,33.144,0,0,1-33.5,33.5A33.144,33.144,0,0,1,25,137ZM318,450H193V350H318Zm0-112H193V313H318Zm128,77.986A33.669,33.669,0,0,1,412.45,450H330V310.986c0-5.514-3.986-9.986-9.5-9.986h-129c-5.514,0-10.5,4.472-10.5,9.986V450H99.55A33.669,33.669,0,0,1,66,415.986V181.965a46.2,46.2,0,0,0,24.971-12.719,44.544,44.544,0,0,0,4.492-5.4A58.506,58.506,0,0,0,151.1,204.507a57.787,57.787,0,0,0,7.386-.484,98.276,98.276,0,0,0,7.585,24.025,6,6,0,0,0,10.892-5.033,87.074,87.074,0,1,1,166.1-34.783c-.906,45.98-38.013,83.68-83.974,85.277a86.711,86.711,0,0,1-59.313-20.589,6.014,6.014,0,0,0-7.029-.576h0a6.012,6.012,0,0,0-.732,9.724,98.675,98.675,0,0,0,68.633,23.387c46.479-2.133,84.871-36.737,92.886-81.509a58.361,58.361,0,0,0,63.507-39.573,43.4,43.4,0,0,0,3.993,4.872A46.2,46.2,0,0,0,446,181.965ZM487,137a33.5,33.5,0,0,1-67,0v-8h67Z"/><path d="M160,302H86a6,6,0,0,0-6,6v61a6,6,0,0,0,6,6h74a6,6,0,0,0,6-6V308A6,6,0,0,0,160,302Zm-6,61H92V314h62Z"/><path d="M345,308v61a6,6,0,0,0,6,6h74a6,6,0,0,0,6-6V308a6,6,0,0,0-6-6H351A6,6,0,0,0,345,308Zm12,6h62v49H357Z"/><path d="M93,216.392a6,6,0,0,0,6-6v-6.3a6,6,0,0,0-12,0v6.3A6,6,0,0,0,93,216.392Z"/><path d="M93,291.392a6,6,0,0,0,6-6v-56a6,6,0,1,0-12,0v56A6,6,0,0,0,93,291.392Z"/></svg>
