<?xml version="1.0" encoding="UTF-8"?>
<svg xmlns="http://www.w3.org/2000/svg" id="Layer_1" data-name="Layer 1" viewBox="0 0 512 512" width="512" height="512"><path d="M444,259.9V200.3c0-103.57-84.43-187.831-188-187.831S68,96.728,68,200.3V259.9a50.6,50.6,0,0,0-18.479,53.117l21.346,81.7a50.59,50.59,0,0,0,48.8,37.777,50.841,50.841,0,0,0,12.858-1.662l36.7-9.589a6,6,0,0,0,4.289-7.322L129.658,246.06a6,6,0,0,0-7.321-4.289L110,245V200.3c0-80.466,65.534-145.93,146-145.93S402,119.832,402,200.3V245l-12.337-3.224a6,6,0,0,0-7.321,4.289l-43.86,167.866a6.006,6.006,0,0,0,.627,4.549,6.257,6.257,0,0,0,3.786,2.773L373,429.081v13.861A24.291,24.291,0,0,1,348.751,467H296V456.632c0-5.514-4.848-9.632-10.361-9.632H226.361c-5.513,0-10.361,4.118-10.361,9.632v32.9A10.735,10.735,0,0,0,226.361,500h59.278A10.735,10.735,0,0,0,296,489.533V479h52.751A36.3,36.3,0,0,0,385,442.942V431.9a43.887,43.887,0,0,0,7.455.6,50.527,50.527,0,0,0,48.709-37.777l21.331-81.7A50.6,50.6,0,0,0,444,259.9ZM284,488H228V459h56ZM119.565,254.9l40.826,156.256-21.74,5.68-17.089-65.353a6,6,0,1,0-11.607,3.036l17.078,65.259a38.513,38.513,0,0,1-44.556-28.088l-21.347-81.7A38.575,38.575,0,0,1,86.239,263.7L99.5,314.517a6,6,0,0,0,5.8,4.483h0a6,6,0,0,0,5.8-7.512L97.839,260.575ZM256,42.368c-87.083,0-158,70.847-158,157.93V248.13l-12.364,3.23A50.733,50.733,0,0,0,80,253.2V200.3c0-96.953,79.047-175.831,176-175.831S432,103.345,432,200.3V253.2a50.733,50.733,0,0,0-5.636-1.843L414,248.13V200.3C414,113.215,343.083,42.368,256,42.368ZM373.3,416.822l-21.693-5.668L392.435,254.9l21.693,5.668ZM450.87,309.989l-21.347,81.7a38.514,38.514,0,0,1-44.589,28.082l40.781-156.085A38.574,38.574,0,0,1,450.87,309.989Z"/></svg>
