<?xml version="1.0" encoding="UTF-8"?>
<svg xmlns="http://www.w3.org/2000/svg" id="Layer_1" data-name="Layer 1" viewBox="0 0 512 512" width="512" height="512"><path d="M412,46H260a6,6,0,0,0-6,6V81a6,6,0,0,0,6,6H412a6,6,0,0,0,6-6V52A6,6,0,0,0,412,46Zm-6,29H266V58H406Z"/><path d="M61,493H451c25.364,0,46-21.136,46-46.5V420.531a6,6,0,0,0-.255-1.727l0,0L451,266.742V178.624A35.718,35.718,0,0,0,415,143H366V114h54.661A26.417,26.417,0,0,0,447,87.887V45.5C447,31.164,435,20,420.661,20H251.339C237,20,225,31.164,225,45.5V87.887A26.417,26.417,0,0,0,251.339,114H306v29H204V83.384a5.859,5.859,0,0,0-9.137-5l-8.675,5.766L177.5,78.382a5.987,5.987,0,0,0-6.62,0l-8.7,5.765-8.7-5.765a6,6,0,0,0-6.626,0l-8.7,5.765-8.7-5.765a6,6,0,0,0-6.628,0l-8.7,5.765-8.7-5.765a6.079,6.079,0,0,0-9.42,5V143H95a35.723,35.723,0,0,0-36,35.624v88.119L15.281,418.713c-.013.04-.022.08-.035.12l-.01.039h0A6.019,6.019,0,0,0,15,420.531V446.5C15,471.864,35.636,493,61,493Zm340-12H111V458H401Zm39.655-207,42.277,141H465.464L423.188,274ZM251,102a14,14,0,0,1-14-14V46a14,14,0,0,1,14-14H420a14,14,0,0,1,14,14V88a14,14,0,0,1-14,14Zm103,12v29H318V114ZM108,94.558l2.752,1.788a6.041,6.041,0,0,0,6.655,0l8.714-5.765,8.709,5.766a6.007,6.007,0,0,0,6.631,0l8.7-5.766,8.7,5.766a6,6,0,0,0,6.628,0l8.7-5.766,8.7,5.766a5.8,5.8,0,0,0,6.509,0L192,94.555v94.66A21.527,21.527,0,0,0,195.5,201h-79.68A8.128,8.128,0,0,1,108,192.72ZM224,213v10H98V213ZM71,178.624A23.712,23.712,0,0,1,95,155h1v37.72A17.173,17.173,0,0,0,98,201H91.782C88.469,201,86,204,86,207.315V229.3a5.57,5.57,0,0,0,5.782,5.7H229.618c3.314,0,6.382-2.389,6.382-5.7V207.315A6.613,6.613,0,0,0,229.618,201h-14.27C209.133,201,204,195.565,204,189.215V155H415a23.707,23.707,0,0,1,24,23.624V262H190a6,6,0,0,0,0,12H410.655l42.277,141H58.973L99.4,274H150a6,6,0,0,0,0-12H71ZM69.4,274H86.915L46.485,415H28.973ZM27,427H485v19.5c0,18.748-15.252,34.5-34,34.5H413V452.4c0-3.313-2.538-6.395-5.852-6.395h-302.3C101.538,446,99,449.082,99,452.4V481H61c-18.748,0-34-15.752-34-34.5Z"/><path d="M278,236H394a6,6,0,0,0,6-6V186a6,6,0,0,0-6-6H278a6,6,0,0,0-6,6v44A6,6,0,0,0,278,236Zm6-44H388v32H284Z"/><path d="M166.983,372H128.916a6,6,0,0,0,0,12h38.067a6,6,0,0,0,0-12Z"/><path d="M345.017,384h38.067a6,6,0,1,0,0-12H345.017a6,6,0,0,0,0,12Z"/><path d="M272.678,384h38.068a6,6,0,0,0,0-12H272.678a6,6,0,0,0,0,12Z"/><path d="M201.254,384h38.068a6,6,0,0,0,0-12H201.254a6,6,0,0,0,0,12Z"/><path d="M166.983,338H128.916a6,6,0,0,0,0,12h38.067a6,6,0,0,0,0-12Z"/><path d="M345.017,350h38.067a6,6,0,1,0,0-12H345.017a6,6,0,0,0,0,12Z"/><path d="M272.678,350h38.068a6,6,0,0,0,0-12H272.678a6,6,0,0,0,0,12Z"/><path d="M201.254,350h38.068a6,6,0,0,0,0-12H201.254a6,6,0,0,0,0,12Z"/><path d="M122.916,310a6,6,0,0,0,6,6h38.067a6,6,0,0,0,0-12H128.916A6,6,0,0,0,122.916,310Z"/><path d="M345.017,316h38.067a6,6,0,1,0,0-12H345.017a6,6,0,0,0,0,12Z"/><path d="M272.678,316h38.068a6,6,0,0,0,0-12H272.678a6,6,0,0,0,0,12Z"/><path d="M201.254,316h38.068a6,6,0,0,0,0-12H201.254a6,6,0,0,0,0,12Z"/><path d="M122.767,155h5.178a6,6,0,0,0,0-12h-5.178a6,6,0,0,0,0,12Z"/><path d="M146.232,155h30.806a6,6,0,0,0,0-12H146.232a6,6,0,1,0,0,12Z"/><path d="M122.767,131h5.178a6,6,0,0,0,0-12h-5.178a6,6,0,0,0,0,12Z"/><path d="M146.232,131h30.806a6,6,0,0,0,0-12H146.232a6,6,0,1,0,0,12Z"/><path d="M122.767,178h5.178a6,6,0,0,0,0-12h-5.178a6,6,0,0,0,0,12Z"/><path d="M146.232,178h30.806a6,6,0,0,0,0-12H146.232a6,6,0,1,0,0,12Z"/><path d="M117.724,282.464a6,6,0,0,0-7.426,4.108l-1.8,6.249a6,6,0,1,0,11.533,3.318l1.8-6.25A6,6,0,0,0,117.724,282.464Z"/><path d="M110.457,307.724a6,6,0,0,0-7.425,4.108L88.771,361.4a6,6,0,1,0,11.532,3.317l14.261-49.568A6,6,0,0,0,110.457,307.724Z"/></svg>
