<?xml version="1.0" encoding="UTF-8"?>
<svg xmlns="http://www.w3.org/2000/svg" id="Layer_1" data-name="Layer 1" viewBox="0 0 512 512" width="512" height="512"><path d="M75,235.186a6,6,0,0,0-6,6v3.748a6,6,0,0,0,12,0v-3.748A6,6,0,0,0,75,235.186Z"/><path d="M75,259.516a6,6,0,0,0-6,6V340.86a6,6,0,0,0,12,0V265.516A6,6,0,0,0,75,259.516Z"/><path d="M322.612,328.138l11.3-35.258A6.037,6.037,0,0,0,328.2,285H216.517l-2.129-12.735A20.621,20.621,0,0,0,194.175,255H183.8a6,6,0,0,0,0,12h10.372a8.65,8.65,0,0,1,8.382,7.269L215.685,351.7a20.481,20.481,0,0,0,17.878,16.972,17.069,17.069,0,1,0,14.879.325h43.3a16.811,16.811,0,0,0,7.591,31.847,16.861,16.861,0,0,0,16.884-16.836A17.061,17.061,0,0,0,306.921,369h6.265a6,6,0,0,0,0-12H235.9a8.443,8.443,0,0,1-8.382-7.037L226.667,345h72.972A24.151,24.151,0,0,0,322.612,328.138Zm-23.283,50.907a4.885,4.885,0,1,1-4.884,4.885A4.89,4.89,0,0,1,299.329,379.045Zm-58.478,0a4.885,4.885,0,1,1-4.884,4.885A4.89,4.89,0,0,1,240.851,379.045ZM224.629,333l-6.075-36H319.97l-8.784,27.475A12.186,12.186,0,0,1,299.638,333Z"/><path d="M259.5,194.155A130.165,130.165,0,0,0,152.46,245.383a6,6,0,0,0,2.553,9.2h0a6,6,0,0,0,6.993-1.933,118.173,118.173,0,0,1,98.218-46.468c61.872,2.166,112,52.423,114.023,114.3a118.435,118.435,0,0,1-122.2,122.184c-62.535-2.05-113.034-53.194-114.33-115.749a117.968,117.968,0,0,1,6.24-40.519,5.98,5.98,0,0,0-3.455-7.465h0a6.013,6.013,0,0,0-7.928,3.665,129.909,129.909,0,0,0-6.855,44.527c1.428,70.1,58.9,126.924,129.005,127.6,73.878.712,133.937-60.386,131.518-134.634C384.066,253.33,326.271,195.914,259.5,194.155Z"/><path d="M490,30H460a6.267,6.267,0,0,0-6,6.3V46H58V36.3A6.267,6.267,0,0,0,52,30H22a6.267,6.267,0,0,0-6,6.3V101.71A6.254,6.254,0,0,0,22,108H52a6.254,6.254,0,0,0,6-6.29V92H89v75H74.36c-3.314,0-6.36,2.324-6.36,5.638V189H40a6,6,0,0,0-6,6V455a6,6,0,0,0,6,6H178.114a156.8,156.8,0,0,0,155.772,0H470a6,6,0,0,0,6-6V195a6,6,0,0,0-6-6H444V172.638c0-3.314-3.046-5.638-6.36-5.638H420V92h34v9.71a6.254,6.254,0,0,0,6,6.29h30a6.254,6.254,0,0,0,6-6.29V36.3A6.267,6.267,0,0,0,490,30ZM46,96H28V42H46Zm34,83h33v30H80Zm38.64-12H101V92H408v75H393.36c-3.314,0-6.36,2.324-6.36,5.638V189H333.886a156.8,156.8,0,0,0-155.772,0H125V172.638C125,169.324,121.954,167,118.64,167ZM444,215.5V201h20V449H332.286a6,6,0,0,0-3.014.812,144.844,144.844,0,0,1-146.544,0,6,6,0,0,0-3.014-.812H46V201H68v14.5c0,3.314,3.046,5.5,6.36,5.5h44.28c3.314,0,6.36-2.189,6.36-5.5V201h54.714a6,6,0,0,0,3.014-.812,144.844,144.844,0,0,1,146.544,0,6,6,0,0,0,3.014.812H387v14.5c0,3.314,3.046,5.5,6.36,5.5h44.28C440.954,221,444,218.811,444,215.5ZM432,179v30H399V179Zm22-99H58V58H454Zm30,16H466V42h18Z"/></svg>
