<?xml version="1.0" encoding="UTF-8"?>
<svg xmlns="http://www.w3.org/2000/svg" id="Layer_1" data-name="Layer 1" viewBox="0 0 512 512" width="512" height="512"><path d="M196.655,216A30.655,30.655,0,1,0,166,246.655,30.69,30.69,0,0,0,196.655,216ZM166,234.655A18.655,18.655,0,1,1,184.655,216,18.677,18.677,0,0,1,166,234.655Z"/><path d="M384.125,273h55.949a6,6,0,1,0,0-12H384.125a6,6,0,0,0,0,12Z"/><path d="M283.67,273h69.937a6,6,0,0,0,0-12H283.67a6,6,0,0,0,0,12Z"/><path d="M440.074,288h-111.9a6,6,0,1,0,0,12h111.9a6,6,0,1,0,0-12Z"/><path d="M283.67,300h13.988a6,6,0,0,0,0-12H283.67a6,6,0,0,0,0,12Z"/><path d="M440.074,316H379.038a6,6,0,0,0,0,12h61.036a6,6,0,1,0,0-12Z"/><path d="M283.67,328h64.851a6,6,0,0,0,0-12H283.67a6,6,0,0,0,0,12Z"/><path d="M440.074,344h-98.7a6,6,0,0,0,0,12h98.7a6,6,0,1,0,0-12Z"/><path d="M283.67,356h27.186a6,6,0,0,0,0-12H283.67a6,6,0,0,0,0,12Z"/><path d="M58,240.763a6,6,0,0,0-6,6v6.295a6,6,0,0,0,12,0v-6.295A6,6,0,0,0,58,240.763Z"/><path d="M58,266.058a6,6,0,0,0-6,6v66a6,6,0,0,0,12,0v-66A6,6,0,0,0,58,266.058Z"/><path d="M495,105.657A35.657,35.657,0,0,0,459.343,70H52.849A35.849,35.849,0,0,0,17,105.849v8.484a6.1,6.1,0,0,0,0,1.324V406.343A35.62,35.62,0,0,0,52.849,442h406.3A35.62,35.62,0,0,0,495,406.343V115.657a6.1,6.1,0,0,0,0-1.324Zm-466,0A23.658,23.658,0,0,1,52.657,82H159v43.142a61.663,61.663,0,0,0-49.274-24.663c-34.208,0-62.039,28.052-62.039,62.26,0,20.3,9.7,38.261,25.45,50.261H29Zm85.324,91.967.141,2.557a6.223,6.223,0,0,1-1.012,3.745l-1.361,2.064a18.153,18.153,0,0,0-2.665,6.56,51.729,51.729,0,0,1-13.953-2.128A49.986,49.986,0,1,1,159,155.031V160.5a18.2,18.2,0,0,0-3.011,1.59l-2.063,1.361a6.274,6.274,0,0,1-3.744,1.012l-2.559-.141a18.206,18.206,0,0,0-17.231,9.958l-1.134,2.244a6.133,6.133,0,0,1-2.731,2.732l-2.245,1.134A18.188,18.188,0,0,0,114.324,197.624ZM52.849,430A23.607,23.607,0,0,1,29,406.343V392.881A34.545,34.545,0,0,0,52.657,402H73a6,6,0,0,0,0-12H52.849A23.848,23.848,0,0,1,29,366.151V225h82.237c.264,0,.543.759.855,1.233l1.361,1.952a6.056,6.056,0,0,1,1.012,3.688l-.141,2.532a18.156,18.156,0,0,0,9.366,16.889L90.571,286.043a6,6,0,0,0,8.688,8.272l32.59-34.2a18.178,18.178,0,0,0,15.775,7.562l2.557-.141a6.234,6.234,0,0,1,3.745,1.012l2.064,1.361A18.2,18.2,0,0,0,159,271.5V390H113a6,6,0,0,0,0,12h46.811l4.218,28ZM162.6,259.89l-2.064-1.361a18.327,18.327,0,0,0-10.032-3c-.326,0-.653.009-.979.027l-2.557.141a6.2,6.2,0,0,1-5.861-3.386l-1.134-2.245a18.282,18.282,0,0,0-1.663-2.677,5.951,5.951,0,0,0-1.14-1.55,6.09,6.09,0,0,0-.576-.447,18.139,18.139,0,0,0-4.653-3.358l-2.244-1.134a6.184,6.184,0,0,1-3.387-5.86l.141-2.559a18.3,18.3,0,0,0-2.976-11.01l-1.361-2.063a6.18,6.18,0,0,1,0-6.809l1.361-2.064a18.306,18.306,0,0,0,2.976-11.011l-.141-2.557a6.185,6.185,0,0,1,3.386-5.861l2.245-1.134a18.058,18.058,0,0,0,8.032-8.032l1.134-2.244a6.206,6.206,0,0,1,5.86-3.387l2.559.141a18.294,18.294,0,0,0,11.01-2.976l2.063-1.361a6.178,6.178,0,0,1,6.809,0l2.064,1.361a18.312,18.312,0,0,0,11.011,2.976l2.557-.141a6.2,6.2,0,0,1,5.861,3.386l1.134,2.245a18.058,18.058,0,0,0,8.032,8.032l2.244,1.134a6.184,6.184,0,0,1,3.387,5.86l-.141,2.559a18.3,18.3,0,0,0,2.976,11.01l1.361,2.063a6.18,6.18,0,0,1,0,6.809l-1.361,2.064a18.306,18.306,0,0,0-2.976,11.011l.141,2.557a6.185,6.185,0,0,1-3.386,5.861l-2.245,1.134a18.058,18.058,0,0,0-8.032,8.032l-1.134,2.244a6.192,6.192,0,0,1-5.86,3.387l-2.559-.141a18.28,18.28,0,0,0-11.01,2.976l-2.063,1.361A6.184,6.184,0,0,1,162.6,259.89Zm45.122-79.5-2.244-1.134a6.133,6.133,0,0,1-2.732-2.731l-1.134-2.245a18.188,18.188,0,0,0-17.232-9.958l-2.557.141a6.274,6.274,0,0,1-3.745-1.012l-2.063-1.361h0a18.214,18.214,0,0,0-3.708-1.874,53.172,53.172,0,0,1,2.067-11.955,50,50,0,0,1,97.943,14.253c0,27.341-22.288,49.6-49.773,49.843a18.2,18.2,0,0,0-2.631-6.37l-1.361-2.063a6.222,6.222,0,0,1-1.012-3.744l.141-2.559A18.188,18.188,0,0,0,207.718,180.392ZM483,406.343A23.607,23.607,0,0,1,459.151,430H176.164l-4.218-28H459.151A34.666,34.666,0,0,0,483,392.777Zm0-40.192A23.848,23.848,0,0,1,459.151,390H171V272.207a18.178,18.178,0,0,0,5.011-2.3l2.063-1.361a6.218,6.218,0,0,1,3.744-1.012l2.559.141a18.163,18.163,0,0,0,15.946-7.808l32.393,34.419a6,6,0,1,0,8.738-8.225l-32.874-34.93a18.182,18.182,0,0,0,9.1-16.756l-.141-2.557a6.223,6.223,0,0,1,1.012-3.745l1.361-1.842c.312-.473.592-1.232.855-1.232H483ZM483,213H258.6c15.563-12,25.708-29.709,25.708-50.262a62.2,62.2,0,0,0-62.038-62.15A61.444,61.444,0,0,0,171,127.693V82H459.151A23.848,23.848,0,0,1,483,105.849Z"/></svg>
