<?xml version="1.0" encoding="UTF-8"?>
<svg xmlns="http://www.w3.org/2000/svg" id="Layer_1" data-name="Layer 1" viewBox="0 0 512 512" width="512" height="512"><path d="M374.646,68h45.269a6,6,0,0,0,0-12H374.646a6,6,0,0,0,0,12Z"/><path d="M293.369,68h56.585a6,6,0,0,0,0-12H293.369a6,6,0,0,0,0,12Z"/><path d="M419.915,82H329.378a6,6,0,0,0,0,12h90.537a6,6,0,0,0,0-12Z"/><path d="M293.369,94h11.317a6,6,0,0,0,0-12H293.369a6,6,0,0,0,0,12Z"/><path d="M419.915,107H370.531a6,6,0,0,0,0,12h49.384a6,6,0,0,0,0-12Z"/><path d="M293.369,119h52.47a6,6,0,0,0,0-12h-52.47a6,6,0,0,0,0,12Z"/><path d="M168.232,364.322a5.984,5.984,0,0,0,5.54,3.678H296.589a6.005,6.005,0,0,0,5.625-3.92l8.856-23.88a6.015,6.015,0,0,0,.358-2.536l-9.692-129.3A5.836,5.836,0,0,0,295.753,203H268v-7.022c0-18.024-14.976-32.687-33-32.687s-33,14.663-33,32.687V203H174.607a5.836,5.836,0,0,0-5.979,5.309L157.86,337.71a5.8,5.8,0,0,0,.439,2.753ZM292.415,356H177.774l-4.941-12H296.82ZM214,195.978a21,21,0,0,1,42,0V203H214ZM180.129,215H202v26.949a6,6,0,0,0,12,0V215h42v26.949a6,6,0,0,0,12,0V215h22.186l8.793,117H170.359Z"/><path d="M267,276H204a6,6,0,0,0-6,6v22a6,6,0,0,0,6,6h63a6,6,0,0,0,6-6V282A6,6,0,0,0,267,276Zm-6,22H210V288h51Z"/><path d="M101.735,499H377.917A36.281,36.281,0,0,0,414,462.294V158h15.688a23.252,23.252,0,0,0,13-3.472A28.168,28.168,0,0,0,456,130.412v-90.1A26.311,26.311,0,0,0,429.688,14H283.077A26.077,26.077,0,0,0,257,40.077V45H101.735A45.637,45.637,0,0,0,56,90.777V452.5C56,477.864,76.371,499,101.735,499ZM257.09,95A6,6,0,0,0,269,94V89.367c.007-.122.019-.243.019-.367s-.012-.245-.019-.367V51.372c.008-.124.019-.246.019-.372s-.011-.248-.019-.372V40.077A14.076,14.076,0,0,1,283.077,26H429.688A14.311,14.311,0,0,1,444,40.312v90.305a15.919,15.919,0,0,1-7.729,13.783,11.635,11.635,0,0,1-6.583,1.6h-69.4a9.308,9.308,0,0,0-6.684,2.982,9.641,9.641,0,0,0-2.606,7c.951,22.469-10.328,34.062-18.935,39.576,1.223-11.223,1.215-28.118-7.244-38.938C319.369,149.65,311.47,146,301.342,146H283.6A14.638,14.638,0,0,1,269,131.405V130a6,6,0,0,0-12,0v1.686A26.314,26.314,0,0,0,283.314,158h18.028c6.328,0,10.912,2.057,14.015,6.018,8.124,10.371,4.99,32.623,3.1,40.29a6.031,6.031,0,0,0,7.386,7.3,54.841,54.841,0,0,0,19.413-11.163A51.27,51.27,0,0,0,361,174.871V414H108V95ZM68,90.777A33.624,33.624,0,0,1,101.735,57H257V83H101.942C98.628,83,96,86.158,96,89.472V420.131A5.84,5.84,0,0,0,101.942,426h265.4A5.607,5.607,0,0,0,373,420.131V158h29V462.38c0,.06-.231.121-.23.182a23.512,23.512,0,0,1-6.639,16.963A24.13,24.13,0,0,1,377.917,487H101.735C82.988,487,68,471.248,68,452.5Z"/><path d="M222.092,462h25.1a6,6,0,0,0,0-12h-25.1a6,6,0,1,0,0,12Z"/><path d="M136,131.392a6,6,0,0,0,6-6v-6.3a6,6,0,0,0-12,0v6.3A6,6,0,0,0,136,131.392Z"/><path d="M136,216.392a6,6,0,0,0,6-6v-66a6,6,0,1,0-12,0v66A6,6,0,0,0,136,216.392Z"/></svg>
