<?xml version="1.0" encoding="UTF-8"?>
<svg xmlns="http://www.w3.org/2000/svg" id="Layer_1" data-name="Layer 1" viewBox="0 0 512 512" width="512" height="512"><path d="M288.258,396H276.466a6,6,0,0,0,0,12h11.792a6,6,0,1,0,0-12Z"/><path d="M395.611,396H311.085a6,6,0,0,0,0,12h84.526a6,6,0,0,0,0-12Z"/><path d="M288.258,366H276.466a6,6,0,0,0,0,12h11.792a6,6,0,1,0,0-12Z"/><path d="M395.611,366H311.085a6,6,0,0,0,0,12h84.526a6,6,0,0,0,0-12Z"/><path d="M288.258,425H276.466a6,6,0,0,0,0,12h11.792a6,6,0,1,0,0-12Z"/><path d="M395.611,425H311.085a6,6,0,0,0,0,12h84.526a6,6,0,0,0,0-12Z"/><path d="M281.584,342.192A5.874,5.874,0,0,0,287.223,346h96.606a5.876,5.876,0,0,0,5.717-4.037l6.11-19.1a5.817,5.817,0,0,0,.267-2.227l-6.78-92.221A5.878,5.878,0,0,0,383.158,223H363v-3.472a27.5,27.5,0,0,0-55,0V223H287.894a5.891,5.891,0,0,0-5.98,5.378l-7.645,92.3a5.535,5.535,0,0,0,.34,2.444ZM379.444,334H291.425l-2.609-7h92.913ZM320,219.528a15.5,15.5,0,0,1,31,0V223H320ZM293.417,235H308v18.657a6,6,0,1,0,12,0V235h31v18.657a6,6,0,0,0,12,0V235h14.583l5.9,80H286.765Z"/><path d="M361,273H310a6,6,0,0,0-6,6v19a6,6,0,0,0,6,6h51a6,6,0,0,0,6-6V279A6,6,0,0,0,361,273Zm-6,19H316v-7h39Z"/><path d="M488.061,146.251,279.475,22.381a45.978,45.978,0,0,0-46.98,0L23.939,146.251A6,6,0,0,0,21,151.41v239.3C21,410.558,37.155,427,57.006,427H242v63.067a5.955,5.955,0,0,0,3.082,5.33,5.849,5.849,0,0,0,5.987-.328l18.474-12.264,18.494,12.264a5.973,5.973,0,0,0,6.611,0l18.51-12.263,18.508,12.263a6,6,0,0,0,6.627,0l18.51-12.263,18.509,12.263a6,6,0,0,0,6.628,0l18.507-12.263,18.506,12.263a5.758,5.758,0,0,0,5.929.332A5.964,5.964,0,0,0,428,490.067V427h26.994C474.845,427,491,410.558,491,390.707V151.41A6,6,0,0,0,488.061,146.251ZM33,390.707V162.459L180.705,265.378,34.062,397.764A23.922,23.922,0,0,1,33,390.707Zm383,88.187-12.372-8.287a5.889,5.889,0,0,0-6.562,0L378.593,482.87,360.1,470.606a5.989,5.989,0,0,0-6.62,0l-18.5,12.264-18.508-12.264a6,6,0,0,0-6.626,0L291.33,482.87l-18.514-12.264a6,6,0,0,0-3.313-1,5.488,5.488,0,0,0-3.151,1L254,478.9V366a6,6,0,0,0-12,0v49H57.006a24.034,24.034,0,0,1-16.5-6.74L190.814,272.493,242,308.086V326a6,6,0,0,0,12,0V185.02A39.228,39.228,0,0,0,242.809,158H395.663A20.337,20.337,0,0,1,416,178.337ZM188,255.832V185.625c0-14.676,11.471-27.1,26.14-27.563A27.026,27.026,0,0,1,242,185.02V293.459ZM395.663,146H215v.052s-.1,0-.264,0A38.815,38.815,0,0,0,176,185.02v62.45L38.423,151.607,238.622,32.7a33.987,33.987,0,0,1,34.725,0l200.31,118.956L428,184.27v-5.933A32.433,32.433,0,0,0,395.663,146Zm59.331,269H428V367.891l43.11,40.731A24.033,24.033,0,0,1,454.994,415ZM479,390.707a23.9,23.9,0,0,1-1.229,7.557L428,351.41V199.017l51-36.427Z"/><path d="M51,197.1a6,6,0,0,0-6,6v6.3a6,6,0,0,0,12,0v-6.3A6,6,0,0,0,51,197.1Z"/><path d="M51,222.391a6,6,0,0,0-6,6v86a6,6,0,0,0,12,0v-86A6,6,0,0,0,51,222.391Z"/></svg>
