<?xml version="1.0" encoding="UTF-8"?>
<svg xmlns="http://www.w3.org/2000/svg" id="Layer_1" data-name="Layer 1" viewBox="0 0 512 512" width="512" height="512"><path d="M179.3,283h65.743a6,6,0,0,0,0-12H179.3a6,6,0,0,0,0,12Z"/><path d="M179.3,317H335.278a6,6,0,0,0,0-12H179.3a6,6,0,0,0,0,12Z"/><path d="M335.278,350a6,6,0,0,0,0-12H179.3a6,6,0,1,0,0,12Z"/><path d="M408.294,111.716A6.126,6.126,0,0,0,402.31,106H327V82.04a70,70,0,0,0-140,0V106H112.269a6.129,6.129,0,0,0-5.982,5.669L80.506,436.142a6.162,6.162,0,0,0,.441,2.816l23.782,57.256a6.084,6.084,0,0,0,5.54,3.786H404.31a6.07,6.07,0,0,0,5.626-3.987l21.2-57.2a6.419,6.419,0,0,0,.358-2.605ZM199,82.04a58,58,0,0,1,116,0V106H199ZM180,443H416.772l-16.636,45H114.271l-18.66-45H140a6,6,0,0,0,0-12H92.958l24.853-313H187v88.464a6,6,0,0,0,12,0V118H315v88.464a6,6,0,0,0,12,0V118h69.724l22.367,313H180a6,6,0,0,0,0,12Z"/><path d="M135.675,195.263a5.994,5.994,0,0,0-6.457,5.5l-.656,8.242a6,6,0,0,0,5.506,6.456c.162.013.323.02.483.02a6,6,0,0,0,5.974-5.525l.656-8.242A6,6,0,0,0,135.675,195.263Z"/><path d="M133.311,225a5.994,5.994,0,0,0-6.457,5.506L121.133,302.5a6,6,0,0,0,5.506,6.457c.162.013.322.019.482.019a6,6,0,0,0,5.975-5.525l5.72-71.994A6,6,0,0,0,133.311,225Z"/></svg>
