<?xml version="1.0" encoding="UTF-8"?>
<svg xmlns="http://www.w3.org/2000/svg" id="Layer_1" data-name="Layer 1" viewBox="0 0 512 512" width="512" height="512"><path d="M173.186,336.764A6.221,6.221,0,0,0,167.205,331H147v-2.586a27,27,0,0,0-54,0V331H71.983a6.194,6.194,0,0,0-5.975,5.683l-8.464,94.451a6.229,6.229,0,0,0,.435,2.9l7.808,19.021A6.244,6.244,0,0,0,71.327,457h96.535a6.215,6.215,0,0,0,5.626-4.14l6.96-18.881a6.25,6.25,0,0,0,.356-2.625ZM105,328.414a15,15,0,0,1,30,0V331H105ZM163.688,445H75.329l-2.815-7H166.2ZM70.082,426l7.387-83H93v18.826a6,6,0,0,0,12,0V343h30v18.826a6,6,0,0,0,12,0V343h14.67l6.648,83Z"/><path d="M145,384H95a6,6,0,0,0-6,6v17a6,6,0,0,0,6,6h50a6,6,0,0,0,6-6V390A6,6,0,0,0,145,384Zm-7,17H101v-5h37Z"/><path d="M335.934,172H342.6a6,6,0,0,0,0-12h-6.662a6,6,0,0,0,0,12Z"/><path d="M228.452,172H314.3a6,6,0,0,0,0-12H228.452a6,6,0,0,0,0,12Z"/><path d="M174.812,172H199.4a6,6,0,0,0,0-12H174.812a6,6,0,0,0,0,12Z"/><path d="M334.868,219H343.6a6,6,0,0,0,0-12h-8.728a6,6,0,1,0,0,12Z"/><path d="M310.709,207H285.265a6,6,0,0,0,0,12h25.444a6,6,0,1,0,0-12Z"/><path d="M174.812,219h88.745a6,6,0,0,0,0-12H174.812a6,6,0,0,0,0,12Z"/><path d="M291.759,264a6,6,0,0,0-6-6H174.812a6,6,0,0,0,0,12H285.759A6,6,0,0,0,291.759,264Z"/><path d="M235.6,311a6,6,0,0,0,6,6H343.6a6,6,0,0,0,0-12H241.6A6,6,0,0,0,235.6,311Z"/><path d="M499.835,145.479a20.687,20.687,0,0,0-13.186-8.959,21.231,21.231,0,0,0-15.878,2.989L429,166.811V68.171C429,55.09,418.8,44,405.716,44H288.58a29.325,29.325,0,0,0-58.493,0h-117.4C99.609,44,89,55.09,89,68.171V269.1C40.814,282.286,5.119,326.272,4.343,378.15A114.825,114.825,0,0,0,218.784,437H405.716C418.8,437,429,426.112,429,413.031V226.267l69.058-45.231a20.88,20.88,0,0,0,6.079-28.844ZM289,56H405.716C412.181,56,417,61.707,417,68.171V174.7l-23,15.239V98.122C394,89.927,387.581,83,379.386,83H335.605a26.339,26.339,0,0,0-25.722-22H289Zm-47-9.406a17.5,17.5,0,0,1,35,0V61H242ZM309.883,73A14.144,14.144,0,0,1,324,87.033V103H195V87.033C195,79.313,200.8,73,208.523,73ZM101,68.171C101,61.707,106.227,56,112.691,56H230v5H208.523A26.34,26.34,0,0,0,182.8,83h-43.78A15.239,15.239,0,0,0,124,98.122V265.159q-4.387-.181-8.854-.032A114.374,114.374,0,0,0,101,266.5ZM222.012,379.9a102.952,102.952,0,0,1-106.9,102.762c-53.374-2.067-96.63-45.322-98.7-98.7A102.835,102.835,0,0,1,212.624,337a6,6,0,1,0,10.938-4.931,114.832,114.832,0,0,0-8.691-15.547A6,6,0,0,0,212.516,305h-6.383A114.765,114.765,0,0,0,136,266.3V98.122A3.237,3.237,0,0,1,139.021,95H183v13.571c0,3.314,2.21,6.429,5.523,6.429h141.36A6.481,6.481,0,0,0,336,108.571V95h43.386A2.9,2.9,0,0,1,382,98.122v99.7l-77.231,50.828c-.1.063-.124.135-.218.2-.049.037-.072.072-.12.111a5.83,5.83,0,0,0-.98,1c-.032.041-.054.083-.085.125a5.737,5.737,0,0,0-.316.479c-.018.028-.037.054-.054.082l-21.149,36.446a6,6,0,0,0,5.894,8.97l41.847-4.947c.029,0,.058-.012.087-.016.1-.013.2-.037.305-.056.17-.032.338-.065.5-.111.105-.029.206-.065.309-.1.159-.054.316-.111.47-.178.1-.043.2-.09.3-.139.15-.076.3-.158.44-.246.059-.035,0-.061.054-.1L382,257.275V339H354.292A23.228,23.228,0,0,0,331,362.539V390H233.562c.292-3.33.45-6.7.45-10.1q0-3.486-.209-6.922a6,6,0,0,0-7.476-5.438l0,0a5.975,5.975,0,0,0-4.5,6.136Q222.01,376.764,222.012,379.9ZM308.5,265.068l10.034,15.272-20.288,2.4ZM373.981,351,343,382.229v-19.69A11.218,11.218,0,0,1,354.292,351ZM417,413.031C417,419.5,412.181,425,405.716,425H224.778a113.817,113.817,0,0,0,7.091-23H333.138a16.644,16.644,0,0,0,11.761-5l44.351-44.54A16.55,16.55,0,0,0,394,340.63V249.39l23-15.238ZM330.6,276.849l-13.36-20.332-.747-1.137,151.138-99.307,14.106,21.47Zm161.164-105.9-14.1-21.462a8.821,8.821,0,0,1,12.139,2.58h0l4.412,6.714A8.836,8.836,0,0,1,491.768,170.949Z"/><path d="M156,117.763a6,6,0,0,0-6,6v6.295a6,6,0,0,0,12,0v-6.295A6,6,0,0,0,156,117.763Z"/><path d="M156,143.058a6,6,0,0,0-6,6v46a6,6,0,0,0,12,0v-46A6,6,0,0,0,156,143.058Z"/></svg>
