<svg id="Layer_1" height="512" viewBox="0 0 512 512" width="512" xmlns="http://www.w3.org/2000/svg" data-name="Layer 1"><path d="m392.669 361.861a6.411 6.411 0 0 0 -.805-.318l-53.384-18.019a25.184 25.184 0 0 0 16.52-23.931v-16.234c1 .075 2.107.126 3.033.126a35.225 35.225 0 0 0 34.012-26.172l14.029-53.244c4.252-16.269-4.074-32.91-18.074-40.16v-39.75c0-72.724-59.275-131.889-132-131.889s-132 59.165-132 131.889v39.75c-14 7.25-22.387 23.888-18.135 40.16l13.94 53.244a35.025 35.025 0 0 0 42.755 25.031l23.252-6.075a98.756 98.756 0 0 0 22.188 17.094v18.521l-87.917 29.658a6 6 0 0 0 -.759.319 73.247 73.247 0 0 0 -40.088 58.894c-.013.165-.236.331-.236.5v72.475a6.624 6.624 0 0 0 6.438 6.27h341.124a6.624 6.624 0 0 0 6.438-6.27v-72.477c0-.167-.227-.333-.24-.5a73.25 73.25 0 0 0 -40.091-58.892zm-184.669 126.139h-74v-25.02a5.979 5.979 0 0 0 -5.979-5.98h-.042a5.979 5.979 0 0 0 -5.979 5.98v25.02h-31v-66.491c2-12.987 6.73-25.154 15.15-34.744a79.992 79.992 0 0 1 15.391 37.108 6.021 6.021 0 0 0 11.924-1.679 95.05 95.05 0 0 0 -18.305-43.646 59.633 59.633 0 0 1 9.155-5.771l83.685-28.228zm135-168.407c0 7.472-5.588 13.407-13.06 13.407h-22.64l-3.3-1.114v-18.542a100.937 100.937 0 0 0 22.113-17.027l16.887 4.474zm1.446-30.955-10.092-2.638 25.546-97.79 10.1 2.638zm.686-104.285a3.427 3.427 0 0 1 -.612 1.736l-7.756 3.628-2.743-11.317a114.976 114.976 0 0 0 -47.209-68.121 6 6 0 0 0 -8.261 1.486 81.123 81.123 0 0 1 -74.7 33.609l-7.337-.789a9.778 9.778 0 0 0 -10.792 8.944l-2.766 34.585c-4.141-.753-10.165-2.036-15.57-3.292a1.622 1.622 0 0 1 -.492-1.051l-2.1-30.4a91.454 91.454 0 1 1 182.475 0zm49.339 36.683-13.912 53.244a23.051 23.051 0 0 1 -24.427 17.1l25.4-97.2a23.057 23.057 0 0 1 12.939 26.856zm-258.471-76.877c0-66.107 53.893-119.889 120-119.889s120 53.782 120 119.889v35.826l-18.211-4.745 1.451-21.04a103.453 103.453 0 1 0 -206.416 0l1.451 21.028-18.275 4.757zm-4.559 130.121-13.912-53.244a23.057 23.057 0 0 1 12.942-26.861l25.4 97.2a23.055 23.055 0 0 1 -24.43-17.095zm36.113 14.358-25.554-97.79 10.1-2.638 25.546 97.79zm21.372-6.93-22.129-84.7c21.705 5 22.961 4.095 25.137 2.508a6.124 6.124 0 0 0 2.5-4.465l3.062-38.287 5.066.546a93.16 93.16 0 0 0 82.109-33.784 102.974 102.974 0 0 1 37.683 57.707l4.473 18.441a6 6 0 0 0 8.373 4.02l9.415-4.4-21.552 82.463a86.085 86.085 0 0 1 -134.141-.045zm96.074 50.292v15h-31v-15zm7 156h-72v-111.316a78.428 78.428 0 0 0 72 0zm0-125.154a66.507 66.507 0 0 1 -72 0v-43.79a93.971 93.971 0 0 0 22.71 5.9 9.146 9.146 0 0 0 -.71 3.558v21.442c0 4.745 3.431 9.043 8.177 9.043h38.633a7.5 7.5 0 0 0 3.19-.708zm86 125.154h-74v-143h1.327l82.3 27.776a59.094 59.094 0 0 1 9.526 6.107 93.559 93.559 0 0 0 -19.153 56.531zm43 0h-31v-52.586a81.78 81.78 0 0 1 16.137-48.2c8.2 9.52 12.863 21.509 14.863 34.3z"/><path d="m158 403.058a6 6 0 0 0 6-6v-6.3a6 6 0 1 0 -12 0v6.3a6 6 0 0 0 6 6z"/><path d="m158 468.058a6 6 0 0 0 6-6v-46a6 6 0 0 0 -12 0v46a6 6 0 0 0 6 6z"/></svg>