<?xml version="1.0" encoding="UTF-8"?>
<svg xmlns="http://www.w3.org/2000/svg" id="Layer_1" data-name="Layer 1" viewBox="0 0 512 512" width="512" height="512"><path d="M281.263,161.193a6,6,0,0,0,9.164-7.747c-18.093-21.4-25.338-41.02-25.408-41.216a6,6,0,0,0-11.288,4.075C254.047,117.182,261.69,138.04,281.263,161.193Z"/><path d="M374.5,349H346.1A25.445,25.445,0,0,0,358,327.307V310.531s.579.022.812.022a36,36,0,0,0,34.764-26.8l14.563-54.8A36.327,36.327,0,0,0,392,189.054v-42.3C392,72,330.751,11.186,256,11.186S120,72,120,146.75v42.3a36.342,36.342,0,0,0-16.166,39.9l14.426,54.8a35.939,35.939,0,0,0,43.85,25.635l24.63-6.431a6.021,6.021,0,0,0,1.694-.737A80.339,80.339,0,0,0,209,321.2V349H137.505A61.558,61.558,0,0,0,76,410.7v84.118A5.951,5.951,0,0,0,81.746,501H430.254A5.951,5.951,0,0,0,436,494.814V410.7A61.558,61.558,0,0,0,374.5,349Zm-29.683-53.338-10.727-2.8,13.232-50.648a5.951,5.951,0,0,0,.367-1.4l12.785-48.935,10.727,2.8ZM214.028,119.221c.11.719,2.5,15.632,14.283,36.167A98.3,98.3,0,0,0,197.062,169.3a57.168,57.168,0,0,0-25.032,41.868c-.524.047-1.095.121-1.61.208A61.293,61.293,0,0,1,167,191.313V178.029a92.5,92.5,0,1,1,185,0L337.7,231.735c-51.053-22.508-78.576-51.6-92.763-72.421-15.877-23.3-18.977-41.543-19.037-41.913a6,6,0,0,0-11.867,1.82Zm3.959-38.873a41.755,41.755,0,1,1,83.51,0c0,.576-.019,1.152-.043,1.728a104.53,104.53,0,0,0-83.419,0C218.012,81.5,217.987,80.924,217.987,80.348ZM346,308.433v18.874A13.589,13.589,0,0,1,332.1,341H303V318.582a82.23,82.23,0,0,0,18.568-18.374,5.772,5.772,0,0,0,3.581,2.745Zm50.34-82.517-14.318,54.8a23.9,23.9,0,0,1-25.531,17.711L382.735,197.98A23.907,23.907,0,0,1,396.34,225.916ZM132,146.75c0-68.133,55.866-123.564,124-123.564S380,78.617,380,146.75v37.712l-16-4.14v-2.293a104.512,104.512,0,0,0-51.24-90.064,54.382,54.382,0,0,0,.642-7.617,53.719,53.719,0,1,0-107.438,0,54.332,54.332,0,0,0,.515,7.612A104.719,104.719,0,0,0,155,178.029v.563a6.069,6.069,0,0,0-.915.156L132,184.462Zm-2.022,133.965-14.318-54.8a23.907,23.907,0,0,1,13.6-27.936l26.244,100.447A23.9,23.9,0,0,1,129.978,280.715Zm37.21,14.947L140.8,194.678l10.727-2.8,26.384,100.984ZM184,252.6V245.73c0-3.313-2.954-5.73-6.268-5.73H176.5l-4.382-16.773a8.009,8.009,0,0,1,1.791-.227h3.821a5.967,5.967,0,0,0,6-5.961,45.281,45.281,0,0,1,20-37.789,86.8,86.8,0,0,1,31.573-13.081C249.715,187.273,276,215.938,325,238.92V252.6a70.5,70.5,0,0,1-141,0ZM250.007,367h38.564L282.8,395.281a76.165,76.165,0,0,1-53.742.023L221,355.105V327.82A78.05,78.05,0,0,0,241.4,334a7.965,7.965,0,0,0-.4,2.485v22.068C241,363.345,245.219,367,250.007,367ZM253,355V340h33v15ZM134,489V472a6,6,0,0,0-12,0v17H88V410.7a49.534,49.534,0,0,1,16.918-37.446,83.792,83.792,0,0,1,17.082,51V432a6,6,0,0,0,12,0v-7.747a95.842,95.842,0,0,0-19.225-57.767A49.409,49.409,0,0,1,137.505,361h72l26.723,128Zm114.483,0-16.712-80.065a90.214,90.214,0,0,0,48.415.009L263.4,489ZM377,489H275.662L302.5,361h72a48.769,48.769,0,0,1,21.556,4.964A96.088,96.088,0,0,0,377,423.082Zm47,0H389V423.082a84.048,84.048,0,0,1,17.021-50.616A49.7,49.7,0,0,1,424,410.7Z"/><path d="M158,384.763a6,6,0,0,0-6,6v6.3a6,6,0,0,0,12,0v-6.3A6,6,0,0,0,158,384.763Z"/><path d="M158,410.058a6,6,0,0,0-6,6v46a6,6,0,0,0,12,0v-46A6,6,0,0,0,158,410.058Z"/></svg>
