<?xml version="1.0" encoding="UTF-8"?>
<svg xmlns="http://www.w3.org/2000/svg" id="Layer_1" data-name="Layer 1" viewBox="0 0 512 512" width="512" height="512"><path d="M428.381,105h25.268a6,6,0,0,0,0-12H428.381a6,6,0,0,0,0,12Z"/><path d="M365.1,105h38.585a6,6,0,0,0,0-12H365.1a6,6,0,0,0,0,12Z"/><path d="M453.649,118H403.113a6,6,0,0,0,0,12h50.536a6,6,0,0,0,0-12Z"/><path d="M365.1,130h13.317a6,6,0,0,0,0-12H365.1a6,6,0,0,0,0,12Z"/><path d="M453.649,144H424.266a6,6,0,0,0,0,12h29.383a6,6,0,0,0,0-12Z"/><path d="M365.1,156h34.47a6,6,0,1,0,0-12H365.1a6,6,0,0,0,0,12Z"/><path d="M257.959,179.371A5.761,5.761,0,0,0,263.581,183h75.626a5.783,5.783,0,0,0,5.693-3.86l5.947-17.762a5.206,5.206,0,0,0,.281-2.27l-6.507-70.872A5.815,5.815,0,0,0,338.646,83H325V76.586a24,24,0,0,0-48,0V83H264.142a5.815,5.815,0,0,0-5.969,5.176l-7.23,70.934a5.777,5.777,0,0,0,.347,2.649ZM334.879,171H267.747l-2.194-5h71.283ZM289,76.586a12,12,0,0,1,24,0V83H289ZM269.562,95H277v8.418a6,6,0,0,0,12,0V95h24v8.418a6,6,0,0,0,12,0V95h8.171l5.407,59H263.554Z"/><path d="M114,192.1a6,6,0,0,0-6,6v6.3a6,6,0,0,0,12,0v-6.3A6,6,0,0,0,114,192.1Z"/><path d="M114,217.391a6,6,0,0,0-6,6v49a6,6,0,0,0,12,0v-49A6,6,0,0,0,114,217.391Z"/><path d="M475,417.647V212.4a26.688,26.688,0,0,0,15-23.866V56.926C490,42.272,478.078,30,463.424,30H252.33C237.676,30,226,42.272,226,56.926V127H70.748A29.6,29.6,0,0,0,41,156.508V417.077c-17,1.1-31.1,15.334-31.015,32.588A32.513,32.513,0,0,0,42.24,482H469.76a32.265,32.265,0,0,0,32.076-32.7C501.779,433.725,490,420.646,475,417.647ZM238,56.926C238,48.889,244.293,42,252.33,42H463.424A14.9,14.9,0,0,1,478,56.926v131.61A14.339,14.339,0,0,1,463.424,203h-69.4a9.23,9.23,0,0,0-6.683,2.908,9.553,9.553,0,0,0-2.607,6.964c.952,22.465-10.325,34.041-18.931,39.556.223-2.028.409-4.23.511-6.547.624-14.028-1.987-24.937-7.758-32.32C353.1,206.588,345.205,203,335.077,203H252.33A14.289,14.289,0,0,1,238,188.536ZM489.482,453.953A20.615,20.615,0,0,1,469.76,470H43c-10.511,0-19.679-7.714-20.864-18.158A20.5,20.5,0,0,1,42.24,429H94a6,6,0,0,0,0-12H53V156.508A17.584,17.584,0,0,1,70.748,139H226v29H86.37A6.389,6.389,0,0,0,80,174.37V394.459a5.97,5.97,0,0,0,6.168,5.771l343.8.77h.439a5.325,5.325,0,0,0,3.694-1.4,5.548,5.548,0,0,0,1.9-4.145V289a6,6,0,0,0-12,0V389.442l-146-.425V370.25c0-.166-.059-.332-.072-.5a35.869,35.869,0,0,0-19.6-28.908,4.485,4.485,0,0,0-.64-.318L221,328.094v-4.013a47.534,47.534,0,0,0,21.945-35.722,16.351,16.351,0,0,0,8.727-14.562,16.54,16.54,0,0,0-.5-3.916,13.744,13.744,0,0,0-6.545-8.716l.648-9.519a49.367,49.367,0,1,0-98.5,0l.654,9.5a13.712,13.712,0,0,0-6.556,8.733,16.508,16.508,0,0,0-.471,3.916,16.267,16.267,0,0,0,8.654,14.572A47.533,47.533,0,0,0,171,324.1v3.994l-36.7,12.433a5.076,5.076,0,0,0-.686.319,35.853,35.853,0,0,0-19.583,28.908c-.013.166-.032.332-.032.5v18.291l-22-.064V180H226v8.536A26.3,26.3,0,0,0,252.33,215h82.747c6.328,0,10.912,1.982,14.016,5.943,8.123,10.371,4.989,32.585,3.1,40.253a6.013,6.013,0,0,0,5.823,7.469,5.964,5.964,0,0,0,1.563-.2,53.944,53.944,0,0,0,19.413-11.09c8.3-7.329,17.934-20.371,17.8-42.371H424v34a6,6,0,0,0,12,0V215h27V417H324.353a18,18,0,0,0-17.86,17.994A5.912,5.912,0,0,1,300.634,441H205.756a5.913,5.913,0,0,1-5.86-6.007A18,18,0,0,0,182.036,417H134a6,6,0,0,0,0,12h48.036a5.913,5.913,0,0,1,5.86,6.006A18,18,0,0,0,205.756,453h94.878a18,18,0,0,0,17.859-17.994,5.913,5.913,0,0,1,5.86-6.006H469.76A20.359,20.359,0,0,1,489.482,453.953ZM126,388.576V370.514a19.566,19.566,0,0,1,3.064-9.7A32.81,32.81,0,0,1,133,376.552V388.6Zm11.9-36.434c.229-.129.354-.265.587-.387l32.511-11v47.951l-26-.076v-12.08A44.755,44.755,0,0,0,137.9,352.142Zm31.552-77.868a6.113,6.113,0,0,0,2.472-4.412l1.091-13.64a44.776,44.776,0,0,0,36.118-13.836,42.483,42.483,0,0,1,13.156,21.847l1.99,8.2a6,6,0,0,0,8.373,4.021l6.888-3.221.023-.013a4.35,4.35,0,0,1,.039.572,4.423,4.423,0,0,1-3.649,4.367A6.068,6.068,0,0,0,231,284.137a34.99,34.99,0,1,1-69.979-.062,6,6,0,0,0-4.964-5.91A4.424,4.424,0,0,1,152.4,273.8a4.474,4.474,0,0,1,.127-1.062l0-.006c.086.048.165.107.253.152a5.977,5.977,0,0,0,1.368.5C165.569,276.067,167.143,275.96,169.454,274.274Zm-.754-51.52a37.365,37.365,0,0,1,64.59,28.067l-.457,6.621a54.471,54.471,0,0,0-21.251-28.319,6,6,0,0,0-8.262,1.486,32.762,32.762,0,0,1-30.17,13.573l-3.264-.351a7.682,7.682,0,0,0-8.478,7.025l-.931,11.651c-.313-.067-.629-.135-.946-.2l-.793-11.481A37,37,0,0,1,168.7,222.754ZM221,340.76l32.422,11c.308.161.516.336.815.51A44.948,44.948,0,0,0,247,376.552v12.376l-26-.077Zm-38,1.594V329.378a49.053,49.053,0,0,0,26-.006v12.982A27.468,27.468,0,0,1,183,342.354Zm26,13.088v33.374l-26-.074V355.449a39.654,39.654,0,0,0,26-.007Zm50,33.521V376.552a32.952,32.952,0,0,1,3.939-15.464c1.627,2.867,3.061,6.073,3.061,9.426v18.468Z"/></svg>
