<?xml version="1.0" encoding="UTF-8"?>
<svg xmlns="http://www.w3.org/2000/svg" id="Layer_1" data-name="Layer 1" viewBox="0 0 512 512" width="512" height="512"><path d="M81.456,220.529,69.947,358.945a6.063,6.063,0,0,0,.44,2.815L81,387.292A6.012,6.012,0,0,0,86.543,391H217.806a6.01,6.01,0,0,0,5.625-3.927l9.466-25.525a6.02,6.02,0,0,0,.358-2.537L222.9,220.58a6.024,6.024,0,0,0-5.983-5.58H187v-7.452a34.5,34.5,0,1,0-69,0V215H87.436A6.024,6.024,0,0,0,81.456,220.529ZM213.632,379H90.545l-5.624-14H218.646ZM130,207.548a22.5,22.5,0,1,1,45,0V215H130ZM118,227v29.681a6,6,0,0,0,12,0V227h45v29.681a6,6,0,0,0,12,0V227h24.345l9.46,126H82.446L92.957,227Z"/><path d="M118,329h67a6,6,0,0,0,6-6V299a6,6,0,0,0-6-6H118a6,6,0,0,0-6,6v24A6,6,0,0,0,118,329Zm6-24h56v11H124Z"/><path d="M380.125,268h55.948a6,6,0,0,0,0-12H380.125a6,6,0,0,0,0,12Z"/><path d="M279.67,268h69.937a6,6,0,0,0,0-12H279.67a6,6,0,0,0,0,12Z"/><path d="M436.073,283h-111.9a6,6,0,1,0,0,12h111.9a6,6,0,0,0,0-12Z"/><path d="M279.67,295h13.988a6,6,0,0,0,0-12H279.67a6,6,0,0,0,0,12Z"/><path d="M436.073,311H375.038a6,6,0,0,0,0,12h61.035a6,6,0,0,0,0-12Z"/><path d="M279.67,323h64.851a6,6,0,0,0,0-12H279.67a6,6,0,0,0,0,12Z"/><path d="M436.073,339h-98.7a6,6,0,0,0,0,12h98.7a6,6,0,0,0,0-12Z"/><path d="M279.67,351h27.186a6,6,0,0,0,0-12H279.67a6,6,0,0,0,0,12Z"/><path d="M460,48H52A42,42,0,0,0,10,90V422a42,42,0,0,0,42,42H460a42,42,0,0,0,42-42V90A42,42,0,0,0,460,48ZM180,92.909V60H311V92.868A21.4,21.4,0,0,1,289.469,114H172.285A33.083,33.083,0,0,0,180,92.909ZM490,421.818A30.19,30.19,0,0,1,460,452H52a30.19,30.19,0,0,1-30-30.182V126H69a6,6,0,0,0,0-12H22V90.182A30.19,30.19,0,0,1,52,60H168V92.868A21.132,21.132,0,0,1,146.868,114H109a6,6,0,0,0,0,12H490ZM490,114H315.03c4.812-6,7.97-13.048,7.97-21.132V60H460a30.19,30.19,0,0,1,30,30.182Z"/><path d="M62.364,78.979a8.182,8.182,0,1,0,8.181,8.182A8.191,8.191,0,0,0,62.364,78.979Z"/><path d="M95.091,95.343a8.182,8.182,0,1,0-8.182-8.182A8.191,8.191,0,0,0,95.091,95.343Z"/><path d="M127.818,95.343a8.182,8.182,0,1,0-8.182-8.182A8.191,8.191,0,0,0,127.818,95.343Z"/><path d="M211.106,78.979a8.182,8.182,0,1,0,8.181,8.182A8.191,8.191,0,0,0,211.106,78.979Z"/><path d="M243.833,78.979a8.182,8.182,0,1,0,8.182,8.182A8.192,8.192,0,0,0,243.833,78.979Z"/><path d="M276.56,78.979a8.182,8.182,0,1,0,8.182,8.182A8.192,8.192,0,0,0,276.56,78.979Z"/><path d="M50,150.1a6,6,0,0,0-6,6v6.3a6,6,0,0,0,12,0v-6.3A6,6,0,0,0,50,150.1Z"/><path d="M50,175.391a6,6,0,0,0-6,6v66a6,6,0,0,0,12,0v-66A6,6,0,0,0,50,175.391Z"/></svg>
