<?xml version="1.0" encoding="UTF-8"?>
<svg xmlns="http://www.w3.org/2000/svg" id="Layer_1" data-name="Layer 1" viewBox="0 0 512 512" width="512" height="512"><path d="M235.253,356.281a20.906,20.906,0,1,0,20.906,20.906A20.93,20.93,0,0,0,235.253,356.281Zm0,29.812a8.906,8.906,0,1,1,8.906-8.906A8.916,8.916,0,0,1,235.253,386.093Z"/><path d="M315.339,356.281a20.906,20.906,0,1,0,20.906,20.906A20.929,20.929,0,0,0,315.339,356.281Zm0,29.812a8.906,8.906,0,1,1,8.906-8.906A8.916,8.916,0,0,1,315.339,386.093Z"/><path d="M157.128,215h14.2A13.982,13.982,0,0,1,185,226.718L202.975,332.55a25.72,25.72,0,0,0,25.5,21.45H334.315a6,6,0,1,0,0-12H228.471a13.832,13.832,0,0,1-13.665-11.55L213.2,321H315.762a30.569,30.569,0,0,0,29.351-21.225l15.472-48.121a5.814,5.814,0,0,0-.865-5.279A5.916,5.916,0,0,0,354.872,244H200.056l-3.229-19.245A25.989,25.989,0,0,0,171.332,203h-14.2a6,6,0,0,0,0,12Zm189.517,41-12.958,40.152A18.567,18.567,0,0,1,315.762,309h-104.6l-9.073-53Z"/><path d="M479.365,55H459.777C458.112,36,445.845,21.939,431,21.939S403.888,36,402.223,55H389.777C388.112,36,375.845,21.939,361,21.939S333.888,36,332.223,55H319.777C318.112,36,305.845,21.939,291,21.939S263.888,36,262.223,55H249.777C248.112,36,235.845,21.939,221,21.939S193.888,36,192.223,55H179.777C178.112,36,165.845,21.939,151,21.939S123.888,36,122.223,55H109.777C108.112,36,95.845,21.939,81,21.939S53.888,36,52.223,55H32.635A5.36,5.36,0,0,0,27,60.591V444.47A45.342,45.342,0,0,0,72.635,490h366.73A45.342,45.342,0,0,0,485,444.47V60.591A5.36,5.36,0,0,0,479.365,55ZM431,33.939c8.22,0,15.3,9.061,16.713,21.061H414.287C415.7,43,422.78,33.939,431,33.939Zm-70,0c8.22,0,15.3,9.061,16.713,21.061H344.287C345.7,43,352.78,33.939,361,33.939Zm-70,0c8.22,0,15.3,9.061,16.713,21.061H274.287C275.7,43,282.78,33.939,291,33.939Zm-70,0c8.22,0,15.3,9.061,16.713,21.061H204.287C205.7,43,212.78,33.939,221,33.939Zm-70,0c8.22,0,15.3,9.061,16.713,21.061H134.287C135.7,43,142.78,33.939,151,33.939Zm-70,0C89.22,33.939,96.3,43,97.713,55H64.287C65.7,43,72.78,33.939,81,33.939ZM473,444.47A33.329,33.329,0,0,1,439.365,478H374.881L473,379.985ZM366,469.984V395.242C366,382.15,377.047,372,390.138,372H464.88ZM473,136H138a6,6,0,0,0,0,12H473V360H390.138C370.43,360,354,375.534,354,395.242V478H72.635A33.329,33.329,0,0,1,39,444.47V148H98a6,6,0,0,0,0-12H39V67H52.643a41.892,41.892,0,0,0,7.932,18.594,22.507,22.507,0,0,0-7.369,16.661A22.794,22.794,0,1,0,76,79.371a22.877,22.877,0,0,0-4.486.644A28.717,28.717,0,0,1,64.856,67h57.787a41.892,41.892,0,0,0,7.932,18.594,22.507,22.507,0,0,0-7.369,16.661,23.964,23.964,0,1,0,18.308-22.24A28.717,28.717,0,0,1,134.856,67h57.787a41.892,41.892,0,0,0,7.932,18.594,22.507,22.507,0,0,0-7.369,16.661,23.964,23.964,0,1,0,18.308-22.24A28.717,28.717,0,0,1,204.856,67h57.787a41.892,41.892,0,0,0,7.932,18.594,22.507,22.507,0,0,0-7.369,16.661,23.964,23.964,0,1,0,18.308-22.24A28.717,28.717,0,0,1,274.856,67h57.787a41.9,41.9,0,0,0,7.931,18.594,22.51,22.51,0,0,0-7.368,16.661,23.964,23.964,0,1,0,18.308-22.24A28.717,28.717,0,0,1,344.856,67h57.787a41.9,41.9,0,0,0,7.931,18.594,22.51,22.51,0,0,0-7.368,16.661,23.964,23.964,0,1,0,18.308-22.24A28.717,28.717,0,0,1,414.856,67H473ZM65.206,102.152a10.78,10.78,0,0,1,4.559-8.8A23.352,23.352,0,0,0,81,96.282a23.032,23.032,0,0,0,3.827-.323,10.79,10.79,0,1,1-19.621,6.193Zm70,0a10.78,10.78,0,0,1,4.559-8.8A23.352,23.352,0,0,0,151,96.282a23.032,23.032,0,0,0,3.827-.323,10.79,10.79,0,1,1-19.621,6.193Zm70,0a10.78,10.78,0,0,1,4.559-8.8A23.352,23.352,0,0,0,221,96.282a23.032,23.032,0,0,0,3.827-.323,10.79,10.79,0,1,1-19.621,6.193Zm70,0a10.78,10.78,0,0,1,4.559-8.8A23.352,23.352,0,0,0,291,96.282a23.032,23.032,0,0,0,3.827-.323,10.79,10.79,0,1,1-19.621,6.193Zm70,0a10.78,10.78,0,0,1,4.559-8.8A23.352,23.352,0,0,0,361,96.282a23.032,23.032,0,0,0,3.827-.323,10.79,10.79,0,1,1-19.621,6.193Zm70,0a10.78,10.78,0,0,1,4.559-8.8A23.352,23.352,0,0,0,431,96.282a23.032,23.032,0,0,0,3.827-.323,10.79,10.79,0,1,1-19.621,6.193Z"/><path d="M73,176.729a6,6,0,0,0-6,6v4.781a6,6,0,0,0,12,0v-4.781A6,6,0,0,0,73,176.729Z"/><path d="M73,202.15a6,6,0,0,0-6,6v91.077a6,6,0,0,0,12,0V208.15A6,6,0,0,0,73,202.15Z"/></svg>
