<?xml version="1.0" encoding="UTF-8"?>
<svg xmlns="http://www.w3.org/2000/svg" id="Layer_1" data-name="Layer 1" viewBox="0 0 512 512" width="512" height="512"><path d="M73.4,454.1a16.436,16.436,0,1,0,16.436-16.436A16.454,16.454,0,0,0,73.4,454.1Zm20.872,0a4.436,4.436,0,1,1-4.436-4.436A4.441,4.441,0,0,1,94.267,454.1Z"/><path d="M451.824,30.312A5.977,5.977,0,0,0,446.447,27H176.956a5.977,5.977,0,0,0-5.377,3.312L136.521,101.12A6.061,6.061,0,0,0,135,105.128V317.714A38.974,38.974,0,0,0,116.268,348.2a35.98,35.98,0,0,1-11.165,5.757l-.019-.148A9.594,9.594,0,0,0,95.956,347H33.286a9.6,9.6,0,0,0-9.209,12.171L57.189,478.025A9.572,9.572,0,0,0,66.4,485H132.71a9.523,9.523,0,0,0,9.144-12.307l-8.632-28.3,31.26-19.758a18.147,18.147,0,0,1,13.2-1.694c.18.045.362.083.545.111l55.194,8.535a65.96,65.96,0,0,0,45.592-9.59L387.115,353h95.16A5.725,5.725,0,0,0,488,347.275V107.105a5.977,5.977,0,0,0-.347-4.442ZM318,39H442.722l29.727,60H318Zm-6.3,72.325a5.988,5.988,0,0,0,1.935-.325H354v43H273V111h36.766A5.989,5.989,0,0,0,311.7,111.325ZM68.252,473,36.5,359H94l35,114Zm204.305-60.916a53.924,53.924,0,0,1-37.3,7.743l-54.934-8.546a30.1,30.1,0,0,0-21.828,2.979c-.093.053-.186.1-.277.152l-28.659,18.111L108.663,365.3a48.306,48.306,0,0,0,17.489-9.942,5.535,5.535,0,0,0,2.01-4.258A27.165,27.165,0,0,1,155.486,324h1.874a39.374,39.374,0,0,0,30.462-14.688l23.771-29.256a14.589,14.589,0,0,1,19.522-2.954l.4.239a15.327,15.327,0,0,1,5.2,19.56c-9.5,18.885-23.627,47-23.627,47a6.4,6.4,0,0,0,.255,6.045A6.2,6.2,0,0,0,218.448,353h147.01ZM276,341V283.7l3.969,4.152a6.038,6.038,0,0,0,4.316,1.869,6.1,6.1,0,0,0,4.34-1.8l10.465-10.665L309.419,287.9a6,6,0,0,0,8.613,0l10.328-10.642,10.462,10.665a6.049,6.049,0,0,0,4.333,1.8,5.568,5.568,0,0,0,4.1-1.869L351,283.7V341Zm200,0H363V268.662a5.789,5.789,0,0,0-10.053-4.131l-9.962,10.546L332.6,264.63a5.788,5.788,0,0,0-4.258-1.63h-.016a5.831,5.831,0,0,0-4.29,1.652l-10.3,10.535-10.3-10.492a5.864,5.864,0,0,0-4.29-1.695h-.016a5.845,5.845,0,0,0-4.283,1.63l-10.415,10.532-10.011-10.589A6.028,6.028,0,0,0,264,268.662V341H228.177c4.933-10,13.076-26.225,19.256-38.516a27.5,27.5,0,0,0-9.225-35.027l-.4-.318a26.522,26.522,0,0,0-35.518,5.246l-23.77,29.355A27.408,27.408,0,0,1,157.36,312h-1.874a39.806,39.806,0,0,0-8.486.921V111h37a6,6,0,0,0,0-12H150.954l29.727-60H306V99H224a6,6,0,0,0,0,12h37v48.784A6.172,6.172,0,0,0,266.981,166h93.492c3.313,0,5.527-2.9,5.527-6.216V111H476Z"/><path d="M176,133.763a6,6,0,0,0-6,6v6.3a6,6,0,0,0,12,0v-6.3A6,6,0,0,0,176,133.763Z"/><path d="M176,159.058a6,6,0,0,0-6,6v66a6,6,0,0,0,12,0v-66A6,6,0,0,0,176,159.058Z"/></svg>
