<?xml version="1.0" encoding="UTF-8"?>
<svg xmlns="http://www.w3.org/2000/svg" id="Layer_1" data-name="Layer 1" viewBox="0 0 512 512" width="512" height="512"><path d="M457.344,271H430.949a5.567,5.567,0,0,0-5.845,4.613L275.659,182.961a36.656,36.656,0,0,0,15.405-17.937,6,6,0,1,0-11.128-4.49,24.552,24.552,0,0,1-17.759,14.934,6,6,0,0,0-2.5.387,24.782,24.782,0,1,1-2.557-49.447,6.042,6.042,0,0,0,6-5.937L263.733,87H292.49c3.313,0,5.51-2.591,5.51-5.9V49.608A5.276,5.276,0,0,0,292.49,44H282V20.576A5.254,5.254,0,0,0,276.485,15H239.167C235.853,15,233,17.263,233,20.576V44h-8.695C220.992,44,218,46.3,218,49.608V81.1a6.188,6.188,0,0,0,6.305,5.9h27.426l-.512,27.838a36.865,36.865,0,0,0-7.958,70.409L86.909,275.7a5.568,5.568,0,0,0-5.858-4.7h-26.4A5.582,5.582,0,0,0,49,276.842V491.424A5.366,5.366,0,0,0,54.656,497h26.4a6.247,6.247,0,0,0,5.845-4H425.1a6.247,6.247,0,0,0,5.845,4h26.395A5.366,5.366,0,0,0,463,491.424V276.842A5.582,5.582,0,0,0,457.344,271ZM245,27h25V44H245ZM230,75V56h56V75ZM75,485H61V283H75ZM261.724,188.44,404.568,277H108.637ZM162,481H130V355a6,6,0,0,0-12,0V481H87V289h31v26a6,6,0,0,0,12,0V289h32Zm44,0H174V289h32Zm44,0H218V289h32Zm44,0H262V289h32Zm44,0H306V289h32Zm44,0H350V289h32Zm43,0H394V289h31Zm26,4H437V283h14Z"/></svg>
