<svg id="Layer_1" height="512" viewBox="0 0 512 512" width="512" xmlns="http://www.w3.org/2000/svg" data-name="Layer 1"><path d="m347.085 183.927-.085.073v289l62-62.02v-284.65-.33z" fill="#8e7066"/><path d="m16 184v289h331v-289l.085-.09z" fill="#af8977"/><path d="m410 122h-166.08l-62.02 62h164.1z" fill="#c79a83"/><path d="m78.52 122-62.02 62h165.4l62.02-62z" fill="#e1b7a3"/><path d="m135 184v.73 57.27h94v-57.27-.73z" fill="#5fa8ed"/><path d="m225.61 472.85v.15h-87.05v-.15-83.21l14.24 15.01 14.72-15.01 14.56 15.01 14.57-15.01 14.72 15.01 14.24-15.01z" fill="#fb6771"/><path d="m468.7 39h-190.29a26.291 26.291 0 0 0 -26.41 26.6v119.53a26.525 26.525 0 0 0 26.41 26.87h23.11c47.23 0 29.88 69.725 29.88 69.725a59.088 59.088 0 0 0 15.83-7.8c12.67-8.62 28.12-25.673 26.78-57.353a4.322 4.322 0 0 1 4.29-4.572h90.4a25.112 25.112 0 0 0 7.44-1.155 26.641 26.641 0 0 0 18.86-25.715v-119.33c0-14.8-11.5-26.8-26.3-26.8z" fill="#b3d1e7"/><path d="m16 184h30v289h-30z" fill="#8e6d62"/><path d="m78.52 122.39-62.02 62.02h30l62.02-62.02z" fill="#cca393"/><path d="m331.52 212h-23.11a26.525 26.525 0 0 1 -26.41-26.87v-119.53a26.291 26.291 0 0 1 26.41-26.6h-30a26.291 26.291 0 0 0 -26.41 26.6v119.53a26.525 26.525 0 0 0 26.41 26.87h23.11c47.23 0 29.88 69.725 29.88 69.725a59.088 59.088 0 0 0 15.83-7.8 60.575 60.575 0 0 0 17.27-17.746c.27-19.904-5.111-44.179-32.98-44.179z" fill="#8bacbc"/><g fill="#284268"><path d="m397 100h58.963a6 6 0 0 0 0-12h-58.963a6 6 0 0 0 0 12z"/><path d="m291.137 100h73.7a6 6 0 0 0 0-12h-73.7a6 6 0 0 0 0 12z"/><path d="m455.967 122h-117.927a6 6 0 0 0 0 12h117.927a6 6 0 0 0 0-12z"/><path d="m291.137 134h14.741a6 6 0 0 0 0-12h-14.741a6 6 0 0 0 0 12z"/><path d="m455.967 155h-64.323a6 6 0 0 0 0 12h64.323a6 6 0 0 0 0-12z"/><path d="m291.137 167h68.344a6 6 0 0 0 0-12h-68.344a6 6 0 0 0 0 12z"/><path d="m16.5 479h330.794a6 6 0 0 0 4.243-1.757l61.863-62.024a5.86 5.86 0 0 0 1.6-4.243v-192.976h53.7a31.176 31.176 0 0 0 9.16-1.408 32.823 32.823 0 0 0 23.14-31.466v-119.326c0-18.085-14.215-32.8-32.3-32.8h-190.294a32.5 32.5 0 0 0 -32.406 32.8v50.2h-167.476a6.2 6.2 0 0 0 -4.243 1.95l-62.274 62.121a6.489 6.489 0 0 0 -2.007 4.339v288.59c0 3.314 3.187 6 6.5 6zm203.5-12h-75v-62.323l3.672 4.278a5.651 5.651 0 0 0 4.08 2.045h.049a6.176 6.176 0 0 0 4.283-1.974l10.415-10.7 10.279 10.549a6.014 6.014 0 0 0 8.612-.033l10.279-10.6 10.414 10.614a5.9 5.9 0 0 0 4.333 1.8 6.453 6.453 0 0 0 4.5-1.87l4.088-4.1zm183-58.509-50 50.024v-181.315c1.5-1.11 3.01-2.326 4.519-3.659 10.75-9.5 23.272-26.539 22.543-55.539h22.938zm-145-342.691a20.491 20.491 0 0 1 20.406-20.8h190.294c11.47 0 20.3 9.332 20.3 20.8v119.326a20.749 20.749 0 0 1 -14.58 19.974 19.169 19.169 0 0 1 -5.72.9h-90.4a10.12 10.12 0 0 0 -7.395 3.118 10.491 10.491 0 0 0 -2.891 7.685c1.4 33.076-16.95 48.545-28.724 55.034 1.935-14.092 2.991-38.026-8.62-52.878-6.735-8.62-16.543-12.959-29.148-12.959h-23.116a20.553 20.553 0 0 1 -20.406-20.874zm-61.207 112.2 49.207-49.59v49.59zm26.207 12v46h-82v-46zm-201 0h49a6 6 0 0 0 0-12h-39.6l49.613-50h148.423l-49.614 50h-68.822a6 6 0 0 0 0 12h18v51.656a6.739 6.739 0 0 0 6.491 6.344h93.186a6.586 6.586 0 0 0 6.323-6.344v-51.656h11.354a32.465 32.465 0 0 0 32.052 28h23.116c8.839 0 15.279 2.7 19.687 8.332 6.739 8.606 7.64 22.516 7.209 32.684a120.794 120.794 0 0 1 -2.843 21.237 5.994 5.994 0 0 0 7.386 7.232 52.466 52.466 0 0 0 8.039-3.1v182.615h-109v-77.358a6.214 6.214 0 0 0 -10.643-4.131l-10.013 10.5-10.39-10.568a5.9 5.9 0 0 0 -4.312-1.8 6.011 6.011 0 0 0 -4.3 1.822l-10.259 10.569-10.258-10.391a5.825 5.825 0 0 0 -4.287-1.643h-.017a5.843 5.843 0 0 0 -4.283 1.619l-10.366 10.481-9.965-10.542a5.662 5.662 0 0 0 -6.353-1.464 5.773 5.773 0 0 0 -3.554 5.55v77.356h-111z"/><path d="m51 219.1a6 6 0 0 0 -6 6v6.3a6 6 0 0 0 12 0v-6.3a6 6 0 0 0 -6-6z"/><path d="m51 244.391a6 6 0 0 0 -6 6v66a6 6 0 0 0 12 0v-66a6 6 0 0 0 -6-6z"/></g></svg>