<svg id="Layer_1" height="512" viewBox="0 0 512 512" width="512" xmlns="http://www.w3.org/2000/svg" data-name="Layer 1"><path d="m341 238v129h138.25a19.7 19.7 0 0 0 19.75-19.9v-109.1z" fill="#ddcf50"/><path d="m311.03 139.9v135.89h-61.03v-165.89h31.03a30 30 0 0 1 30 30z" fill="#fb6771"/><path d="m250 109.97v165.82h-60v-165.82-.07h60z" fill="#e75163"/><path d="m190 109.97v165.82h-60v-165.82-.07h60z" fill="#fb6771"/><path d="m130 109.97v165.82h-60v-165.82-.07h60z" fill="#e75163"/><path d="m70 109.97v165.82h-57.25v-135.89a30 30 0 0 1 30-30h27.25z" fill="#fb6771"/><path d="m13 311v1.93 54.07h328v-56z" fill="#3090fc"/><path d="m340.5 276h-327.5v35h328v-35z" fill="#49bdff"/><circle cx="93.25" cy="367.1" fill="#6d7486" r="35"/><path d="m447.668 181.675a20.045 20.045 0 0 0 -14.668-6.675h-92v63h158.125z" fill="#7ce5e9"/><path d="m391.25 174.92h24v62.61h-24z" fill="#f9d438"/><path d="m499.25 265.33v30.19h-24.83a4 4 0 0 1 -4-4v-22.19a4.005 4.005 0 0 1 4-4z" fill="#fb6771"/><circle cx="419.25" cy="367.1" fill="#6d7486" r="35"/><path d="m42.75 139.9a30 30 0 0 1 27.25-29.869v-.131h-27.25a30 30 0 0 0 -30 30v135.89h30z" fill="#ffa1aa"/><path d="m43 311h-30v1.93 54.07h30v-54.07z" fill="#6cb9ff"/><path d="m13 276h30v35h-30z" fill="#7dd7ff"/><path d="m341 238v129h.25 29.75v-129z" fill="#fff655"/><g fill="#284268"><path d="m368 272.392a6 6 0 0 0 6-6v-6.3a6 6 0 0 0 -12 0v6.3a6 6 0 0 0 6 6z"/><path d="m368 330.392a6 6 0 0 0 6-6v-39a6 6 0 0 0 -12 0v39a6 6 0 0 0 6 6z"/><path d="m503.671 233.473-51.519-56.093a26.025 26.025 0 0 0 -19.152-8.38h-92.271a5.707 5.707 0 0 0 -5.729 5.921v95.079h-18v-130.095a35.933 35.933 0 0 0 -35.97-35.905h-238.28a35.746 35.746 0 0 0 -35.75 35.905v227.195a5.905 5.905 0 0 0 5.9 5.9h39.781a41 41 0 0 0 81.126 0h244.886a41 41 0 0 0 81.114 0h19.443a25.735 25.735 0 0 0 25.75-25.9v-109.57a5.873 5.873 0 0 0 -1.459-4.052zm-247.671-117.473h25.03a23.92 23.92 0 0 1 23.97 23.905v130.095h-49zm-60 0h48v154h-48zm-60 0h48v154h-48zm-60 0h48v154h-48zm-57 23.905a23.734 23.734 0 0 1 23.75-23.905h21.25v154h-45zm74.25 256.195a29 29 0 1 1 29-29 29.033 29.033 0 0 1 -29 29zm241.75-91.1h-55a6 6 0 0 0 0 12h55v44h-201.193a41 41 0 0 0 -81.1 0h-33.707v-44h221a6 6 0 0 0 0-12h-221v-23h316zm86-124h12a14.23 14.23 0 0 1 10.314 4.729l42.286 46.271h-64.6zm-24 0h12v51h-12zm-50 0h38v51h-38zm72.25 215.1a29 29 0 1 1 29-29 29.033 29.033 0 0 1 -29 29zm73.75-106.1h-17v-19h17zm0-31h-18.579a10.67 10.67 0 0 0 -10.421 10.335v22.187a10.8 10.8 0 0 0 10.421 10.478h18.579v45.1a13.723 13.723 0 0 1 -13.75 13.9h-19.443a41 41 0 0 0 -81.114 0h-31.693v-117h146z"/></g></svg>