<svg id="Layer_1" height="512" viewBox="0 0 512 512" width="512" xmlns="http://www.w3.org/2000/svg" data-name="Layer 1"><path d="m312.42 105.89h47.16v45.73h-47.16z" fill="#ccd3df"/><path d="m21 421v25.5c0 22.09 17.91 40.5 40 40.5h390c22.09 0 40-18.41 40-40.5v-25.5z" fill="#b3d1e7"/><path d="m415 149h-320a29.682 29.682 0 0 0 -30 29.62v88.97l1 .41h379v-89.38a29.682 29.682 0 0 0 -30-29.62z" fill="#b3d1e7"/><path d="m420.66 26h-169.32c-11.05 0-20.34 8.45-20.34 19.5v42.39a20.388 20.388 0 0 0 20.34 20.11h169.32a20.388 20.388 0 0 0 20.34-20.11v-42.39c0-11.05-9.29-19.5-20.34-19.5z" fill="#b0b5ca"/><path d="m445 268h-379l-1 .015-44 152.985h470z" fill="#87aec1"/><path d="m277.92 185.89h116.16v44h-116.16z" fill="#5fa8ed"/><path d="m92 207h138v22h-138z" fill="#99bcd1"/><path d="m198 189.21v-105.83l-11.9 7.96-11.961-7.96-11.989 7.96-12-7.96-12.011 7.96-12.018-7.96-12.063 7.96-12.058-7.96v109.34c0 7.71 6.06 14.28 13.63 14.28h99.43c-9.41 0-17.06-8.21-17.06-17.79z" fill="#fff27d"/><path d="m415 267.62 46 152.91h-410l43.99-152.91z" fill="#6addc7"/><path d="m104.85 452.39h302.3v34.11h-302.3z" fill="#99bcd1"/><path d="m52 446.5v-25.5h-31v25.5c0 22.09 17.91 40.5 40 40.5h31c-22.09 0-40-18.41-40-40.5z" fill="#94afbf"/><path d="m262 87.89v-42.39c0-11.05 9.29-19.5 20.34-19.5h-31c-11.05 0-20.34 8.45-20.34 19.5v42.39a20.388 20.388 0 0 0 20.34 20.11h31a20.388 20.388 0 0 1 -20.34-20.11z" fill="#959bad"/><path d="m133 192.72v-104.787l-6.874-4.553-12.063 7.96-12.063-7.96v109.34c0 7.71 6.06 14.28 13.63 14.28h31c-7.57 0-13.63-6.57-13.63-14.28z" fill="#ddcf68"/><path d="m94.99 267.62-43.99 152.91h31l43.99-152.91z" fill="#5bbcaa"/><path d="m259.88 52.04h152.24v29.31h-152.24z" fill="#fb6771"/><g fill="#284268"><path d="m412 46h-152a6 6 0 0 0 -6 6v29a6 6 0 0 0 6 6h152a6 6 0 0 0 6-6v-29a6 6 0 0 0 -6-6zm-6 29h-140v-17h140z"/><path d="m61 493h390c25.364 0 46-21.136 46-46.5v-25.969a6 6 0 0 0 -.255-1.727l-45.745-152.062v-88.118a35.718 35.718 0 0 0 -36-35.624h-49v-29h54.661a26.417 26.417 0 0 0 26.339-26.113v-42.387c0-14.336-12-25.5-26.339-25.5h-169.322c-14.339 0-26.339 11.164-26.339 25.5v42.387a26.417 26.417 0 0 0 26.339 26.113h54.661v29h-102v-59.616a5.859 5.859 0 0 0 -9.137-5l-8.675 5.766-8.688-5.768a5.987 5.987 0 0 0 -6.62 0l-8.7 5.765-8.7-5.765a6 6 0 0 0 -6.626 0l-8.7 5.765-8.7-5.765a6 6 0 0 0 -6.628 0l-8.7 5.765-8.7-5.765a6.079 6.079 0 0 0 -9.42 5v59.618h-1.006a35.723 35.723 0 0 0 -36 35.624v88.119l-43.719 151.97c-.013.04-.022.08-.035.12l-.01.039a6.019 6.019 0 0 0 -.236 1.659v25.969c0 25.364 20.636 46.5 46 46.5zm340-12h-290v-23h290zm39.655-207 42.277 141h-17.468l-42.276-141zm-189.655-172a14 14 0 0 1 -14-14v-42a14 14 0 0 1 14-14h169a14 14 0 0 1 14 14v42a14 14 0 0 1 -14 14zm103 12v29h-36v-29zm-246-19.442 2.752 1.788a6.041 6.041 0 0 0 6.655 0l8.714-5.765 8.709 5.766a6.007 6.007 0 0 0 6.631 0l8.7-5.766 8.7 5.766a6 6 0 0 0 6.628 0l8.7-5.766 8.7 5.766a5.8 5.8 0 0 0 6.509 0l2.602-1.792v94.66a21.527 21.527 0 0 0 3.5 11.785h-79.68a8.128 8.128 0 0 1 -7.82-8.28zm116 118.442v10h-126v-10zm-153-34.376a23.712 23.712 0 0 1 24-23.624h1v37.72a17.173 17.173 0 0 0 2 8.28h-6.218c-3.313 0-5.782 3-5.782 6.315v21.985a5.57 5.57 0 0 0 5.782 5.7h137.836c3.314 0 6.382-2.389 6.382-5.7v-21.985a6.613 6.613 0 0 0 -6.382-6.315h-14.27c-6.215 0-11.348-5.435-11.348-11.785v-34.215h211a23.707 23.707 0 0 1 24 23.624v83.376h-249a6 6 0 0 0 0 12h220.655l42.277 141h-393.959l40.427-141h50.6a6 6 0 0 0 0-12h-79zm-1.6 95.376h17.515l-40.43 141h-17.512zm-42.4 153h458v19.5c0 18.748-15.252 34.5-34 34.5h-38v-28.6c0-3.313-2.538-6.395-5.852-6.395h-302.3c-3.31-.005-5.848 3.077-5.848 6.395v28.6h-38c-18.748 0-34-15.752-34-34.5z"/><path d="m278 236h116a6 6 0 0 0 6-6v-44a6 6 0 0 0 -6-6h-116a6 6 0 0 0 -6 6v44a6 6 0 0 0 6 6zm6-44h104v32h-104z"/><path d="m166.983 372h-38.067a6 6 0 0 0 0 12h38.067a6 6 0 0 0 0-12z"/><path d="m345.017 384h38.067a6 6 0 1 0 0-12h-38.067a6 6 0 0 0 0 12z"/><path d="m272.678 384h38.068a6 6 0 0 0 0-12h-38.068a6 6 0 0 0 0 12z"/><path d="m201.254 384h38.068a6 6 0 0 0 0-12h-38.068a6 6 0 0 0 0 12z"/><path d="m166.983 338h-38.067a6 6 0 0 0 0 12h38.067a6 6 0 0 0 0-12z"/><path d="m345.017 350h38.067a6 6 0 1 0 0-12h-38.067a6 6 0 0 0 0 12z"/><path d="m272.678 350h38.068a6 6 0 0 0 0-12h-38.068a6 6 0 0 0 0 12z"/><path d="m201.254 350h38.068a6 6 0 0 0 0-12h-38.068a6 6 0 0 0 0 12z"/><path d="m122.916 310a6 6 0 0 0 6 6h38.067a6 6 0 0 0 0-12h-38.067a6 6 0 0 0 -6 6z"/><path d="m345.017 316h38.067a6 6 0 1 0 0-12h-38.067a6 6 0 0 0 0 12z"/><path d="m272.678 316h38.068a6 6 0 0 0 0-12h-38.068a6 6 0 0 0 0 12z"/><path d="m201.254 316h38.068a6 6 0 0 0 0-12h-38.068a6 6 0 0 0 0 12z"/><path d="m122.767 155h5.178a6 6 0 0 0 0-12h-5.178a6 6 0 0 0 0 12z"/><path d="m146.232 155h30.806a6 6 0 0 0 0-12h-30.806a6 6 0 1 0 0 12z"/><path d="m122.767 131h5.178a6 6 0 0 0 0-12h-5.178a6 6 0 0 0 0 12z"/><path d="m146.232 131h30.806a6 6 0 0 0 0-12h-30.806a6 6 0 1 0 0 12z"/><path d="m122.767 178h5.178a6 6 0 0 0 0-12h-5.178a6 6 0 0 0 0 12z"/><path d="m146.232 178h30.806a6 6 0 0 0 0-12h-30.806a6 6 0 1 0 0 12z"/><path d="m117.724 282.464a6 6 0 0 0 -7.426 4.108l-1.8 6.249a6 6 0 1 0 11.533 3.318l1.8-6.25a6 6 0 0 0 -4.107-7.425z"/><path d="m110.457 307.724a6 6 0 0 0 -7.425 4.108l-14.261 49.568a6 6 0 1 0 11.532 3.317l14.261-49.568a6 6 0 0 0 -4.107-7.425z"/></g></svg>