<svg id="Layer_1" height="512" viewBox="0 0 512 512" width="512" xmlns="http://www.w3.org/2000/svg" data-name="Layer 1"><path d="m286.2 466.59v7.06a30.325 30.325 0 0 1 -60.65 0v-7.06z" fill="#b3d1e7"/><path d="m225.55 445.78h60.65v20.81h-60.65z" fill="#5fa8ed"/><path d="m267.93 307h-23.93v30.86.14h24v-.14-30.27z" fill="#b0b5ca"/><path d="m226 336h60v110h-60z" fill="#b3d1e7"/><path d="m244.05 311.39a130.031 130.031 0 1 1 23.88 0 129.418 129.418 0 0 1 -23.88 0z" fill="#5fa8ed"/><path d="m333.22 104.73a109.206 109.206 0 1 1 -154.44 0 109.2 109.2 0 0 1 154.44 0z" fill="#cae6ee"/><path d="m255.55 473.65v-7.06h-30v7.06a30.319 30.319 0 0 0 45.322 26.35 30.3 30.3 0 0 1 -15.322-26.35z" fill="#97b9ce"/><path d="m255.55 446h-29.55v-.22h-.45v20.81h30z" fill="#5195ce"/><path d="m255.55 446v-.22h.45v-109.78h-30v109.78.22z" fill="#97b9ce"/><path d="m208.78 104.73a108.727 108.727 0 0 1 62.22-30.945 109.2 109.2 0 1 0 0 216.337 109.207 109.207 0 0 1 -62.22-185.392z" fill="#afccd3"/><path d="m336.26 169.17a20.017 20.017 0 0 1 0 22.02l-2.23 3.38a20.06 20.06 0 0 0 -3.28 12.11l.24 4.2a20.016 20.016 0 0 1 -10.96 18.95l-3.68 1.86a19.97 19.97 0 0 0 -8.83 8.84l-1.86 3.68a20.006 20.006 0 0 1 -18.96 10.95l-4.19-.23a20.033 20.033 0 0 0 -12.11 3.27l-3.39 2.24a20.017 20.017 0 0 1 -22.02 0l-3.39-2.24a20.033 20.033 0 0 0 -12.11-3.27l-4.19.23a20.006 20.006 0 0 1 -18.96-10.95l-1.86-3.68a19.97 19.97 0 0 0 -8.83-8.84l-3.68-1.86a20.016 20.016 0 0 1 -10.96-18.95l.24-4.2a20.06 20.06 0 0 0 -3.28-12.11l-2.23-3.38a20.017 20.017 0 0 1 0-22.02l2.23-3.39a20.06 20.06 0 0 0 3.28-12.11l-.24-4.2a20.016 20.016 0 0 1 10.96-18.95l3.68-1.86a20 20 0 0 0 8.83-8.83l1.86-3.69a20.006 20.006 0 0 1 18.96-10.95l4.19.23a19.965 19.965 0 0 0 12.11-3.27l3.39-2.23a19.979 19.979 0 0 1 22.02 0l3.39 2.23a19.965 19.965 0 0 0 12.11 3.27l4.19-.23a20.006 20.006 0 0 1 18.96 10.95l1.86 3.69a20 20 0 0 0 8.83 8.83l3.68 1.86a20.016 20.016 0 0 1 10.96 18.95l-.24 4.2a20.06 20.06 0 0 0 3.28 12.11z" fill="#fb6771"/><path d="m256 122.26a57.765 57.765 0 1 1 -57.77 57.77 57.771 57.771 0 0 1 57.77-57.77z" fill="#eadf53"/><path d="m228.23 180.03a57.786 57.786 0 0 1 42.77-55.791 57.765 57.765 0 1 0 0 111.572 57.782 57.782 0 0 1 -42.77-55.781z" fill="#cec045"/><g fill="#284268"><path d="m175.023 210.551a26 26 0 0 0 14.238 24.636l3.684 1.861a13.9 13.9 0 0 1 6.183 6.183l1.861 3.685a25.993 25.993 0 0 0 24.636 14.237l4.2-.231a14.116 14.116 0 0 1 8.477 2.291l3.387 2.233a25.968 25.968 0 0 0 28.624 0l3.387-2.233a14.106 14.106 0 0 1 8.477-2.291l4.2.231a25.985 25.985 0 0 0 24.636-14.237l1.861-3.685a13.9 13.9 0 0 1 6.183-6.183l3.684-1.861a26 26 0 0 0 14.238-24.636l-.231-4.2a14.087 14.087 0 0 1 2.291-8.476l2.233-3.388a25.973 25.973 0 0 0 0-28.624l-2.234-3.388a14.088 14.088 0 0 1 -2.29-8.475l.231-4.2a26 26 0 0 0 -14.238-24.635l-3.684-1.861a13.9 13.9 0 0 1 -6.183-6.184l-1.861-3.683a25.976 25.976 0 0 0 -24.638-14.237l-4.2.231a14.1 14.1 0 0 1 -8.475-2.291l-3.387-2.234a25.973 25.973 0 0 0 -28.624 0l-3.389 2.234a14.094 14.094 0 0 1 -8.476 2.291l-4.2-.231a25.991 25.991 0 0 0 -24.636 14.237l-1.861 3.684a13.9 13.9 0 0 1 -6.183 6.184l-3.684 1.861a26 26 0 0 0 -14.237 24.634l.231 4.2a14.088 14.088 0 0 1 -2.291 8.477l-2.233 3.387a25.973 25.973 0 0 0 0 28.624l2.234 3.388a14.093 14.093 0 0 1 2.29 8.476zm5.725-38.081 2.234-3.387a26.171 26.171 0 0 0 4.254-15.742l-.231-4.2a14 14 0 0 1 7.666-13.266l3.684-1.86a25.825 25.825 0 0 0 11.484-11.484l1.861-3.684a14.007 14.007 0 0 1 13.266-7.667l4.2.231a26.171 26.171 0 0 0 15.741-4.254l3.387-2.233a13.985 13.985 0 0 1 15.414 0l3.387 2.233a26.143 26.143 0 0 0 15.741 4.254l4.2-.231a14.01 14.01 0 0 1 13.266 7.667l1.861 3.683a25.822 25.822 0 0 0 11.484 11.485l3.684 1.86a14 14 0 0 1 7.669 13.267l-.231 4.2a26.166 26.166 0 0 0 4.254 15.741l2.234 3.388a13.987 13.987 0 0 1 0 15.413l-2.234 3.387a26.167 26.167 0 0 0 -4.254 15.742l.231 4.2a14 14 0 0 1 -7.666 13.266l-3.684 1.861a25.82 25.82 0 0 0 -11.484 11.484l-1.861 3.684a14 14 0 0 1 -13.266 7.666l-4.2-.231a26.166 26.166 0 0 0 -15.741 4.254l-3.387 2.234a13.985 13.985 0 0 1 -15.414 0l-3.387-2.234a26.2 26.2 0 0 0 -14.341-4.292c-.466 0-.934.013-1.4.038l-4.2.231a14 14 0 0 1 -13.266-7.666l-1.861-3.684a25.82 25.82 0 0 0 -11.484-11.484l-3.684-1.861a14 14 0 0 1 -7.666-13.265l.231-4.2a26.161 26.161 0 0 0 -4.254-15.74l-2.234-3.388a13.987 13.987 0 0 1 -.003-15.416z"/><path d="m240.934 149.7a15.416 15.416 0 1 0 9.618 27.444l-19.794 19.794a6 6 0 1 0 8.485 8.485l19.8-19.794a15.454 15.454 0 1 0 2.41-2.41l19.794-19.795a6 6 0 0 0 -8.485-8.485l-19.8 19.794a15.4 15.4 0 0 0 -12.028-25.033zm0 18.832a3.416 3.416 0 1 1 3.416-3.416 3.419 3.419 0 0 1 -3.416 3.411zm30.132 23.3a3.416 3.416 0 1 1 -3.416 3.416 3.419 3.419 0 0 1 3.416-3.422z"/><path d="m256 243.622a63.77 63.77 0 1 0 -58.607-89 6.007 6.007 0 0 0 11 4.828 51.856 51.856 0 1 1 -1.768 35.746 6 6 0 0 0 -5.717-4.196h-.008a6.018 6.018 0 0 0 -5.725 7.837 63.766 63.766 0 0 0 60.825 44.785z"/><path d="m238 316.691v13.309h-12.454c-3.314 0-5.546 2.558-5.546 5.872v137.778a36 36 0 1 0 72 0v-137.778a5.728 5.728 0 0 0 -5.8-5.872h-12.2v-13.309a134.136 134.136 0 0 0 78.188-38.579c53.023-53.023 53.009-139.3-.014-192.321s-139.312-53.022-192.335 0-53.05 139.3-.027 192.321a134.136 134.136 0 0 0 78.188 38.579zm42 156.959a24 24 0 1 1 -48 0v-.65h48zm0-12.65h-48v-9h48zm0-119v98h-48v-98zm-30-12v-12.255c2 .086 4.018.134 6 .134s4-.048 6-.134v12.255zm-81.675-235.724a123.992 123.992 0 1 1 0 175.351 123.6 123.6 0 0 1 0-175.351z"/><path d="m256 297.1a115.11 115.11 0 1 0 -81.462-33.688 114.847 114.847 0 0 0 81.462 33.688zm-72.976-188.124a103.2 103.2 0 1 1 -30.224 72.976 102.881 102.881 0 0 1 30.224-72.976z"/><path d="m249 8v20a6 6 0 0 0 12 0v-20a6 6 0 0 0 -12 0z"/><path d="m411 189h19a6 6 0 0 0 0-12h-19a6 6 0 0 0 0 12z"/><path d="m82 189h19a6 6 0 0 0 0-12h-19a6 6 0 0 0 0 12z"/><path d="m374.936 54.95-14.078 14.078a6 6 0 1 0 8.485 8.485l14.078-14.077a6 6 0 1 0 -8.485-8.486z"/><path d="m142.657 287.229-14.078 14.077a6 6 0 0 0 8.485 8.486l14.078-14.078a6 6 0 0 0 -8.485-8.485z"/><path d="m360.858 287.229a6 6 0 0 0 0 8.485l14.078 14.078a6 6 0 0 0 8.485-8.486l-14.078-14.077a6 6 0 0 0 -8.485 0z"/><path d="m128.579 54.95a6 6 0 0 0 0 8.486l14.078 14.077a6 6 0 0 0 8.485-8.485l-14.078-14.078a6 6 0 0 0 -8.485 0z"/><path d="m247 369a6 6 0 0 0 6-6v-7a6 6 0 0 0 -12 0v7a6 6 0 0 0 6 6z"/><path d="m247 429a6 6 0 0 0 6-6v-41a6 6 0 0 0 -12 0v41a6 6 0 0 0 6 6z"/></g></svg>