<svg id="Layer_1" height="512" viewBox="0 0 512 512" width="512" xmlns="http://www.w3.org/2000/svg" data-name="Layer 1"><path d="m459.15 396h-406.3a29.582 29.582 0 0 1 -29.85-29.66v40a29.582 29.582 0 0 0 29.85 29.66h406.3a29.582 29.582 0 0 0 29.85-29.66v-40a29.582 29.582 0 0 1 -29.85 29.66z" fill="#d64c63"/><path d="m459.15 76h-406.3a29.582 29.582 0 0 0 -29.85 29.66v260.85a29.439 29.439 0 0 0 29.85 29.49h406.3a29.439 29.439 0 0 0 29.85-29.49v-260.85a29.582 29.582 0 0 0 -29.85-29.66z" fill="#fb6771"/><path d="m199.3 250.03a11.523 11.523 0 0 0 -1.91 2.74l-1.14 2.24a12.167 12.167 0 0 1 -11.54 6.67l-2.56-.14a12.208 12.208 0 0 0 -7.38 2l-2.06 1.36a12.208 12.208 0 0 1 -13.42 0l-2.06-1.36a12.208 12.208 0 0 0 -7.38-2l-2.56.14a12.167 12.167 0 0 1 -11.54-6.67l-1.14-2.24a12.049 12.049 0 0 0 -1.67-2.49 12.191 12.191 0 0 0 -3.71-2.89l-2.24-1.14a12.167 12.167 0 0 1 -6.67-11.54l.14-2.56a12.208 12.208 0 0 0 -2-7.38l-1.36-2.06a12.03 12.03 0 0 1 -1.74-4.18h-.01a12.191 12.191 0 0 1 1.75-9.24l1.36-2.06a12.208 12.208 0 0 0 2-7.38l-.14-2.56a12.167 12.167 0 0 1 6.67-11.54l2.24-1.14a12.17 12.17 0 0 0 5.38-5.38l1.14-2.24a12.167 12.167 0 0 1 11.54-6.67l2.56.14a12.208 12.208 0 0 0 7.38-2l2.06-1.36a12.18 12.18 0 0 1 5.73-1.97 9.779 9.779 0 0 1 1.21-.03 12.017 12.017 0 0 1 6.48 2l2.06 1.36a12.208 12.208 0 0 0 7.38 2l2.56-.14a12.167 12.167 0 0 1 11.54 6.67l1.14 2.24a12.17 12.17 0 0 0 5.38 5.38l2.24 1.14a12.167 12.167 0 0 1 6.67 11.54l-.14 2.56a12.208 12.208 0 0 0 2 7.38l1.36 2.06a12.188 12.188 0 0 1 0 13.42l-1.36 2.06a12.208 12.208 0 0 0 -2 7.38l.14 2.56a12.167 12.167 0 0 1 -6.67 11.54l-2.24 1.14a11.874 11.874 0 0 0 -3.47 2.64z" fill="#49c160"/><circle cx="166" cy="216" fill="#d8ff33" r="24.66"/><path d="m53 406.34v-10.34h-.15a29.582 29.582 0 0 1 -29.85-29.66v40a29.582 29.582 0 0 0 29.85 29.66h30a29.582 29.582 0 0 1 -29.85-29.66z" fill="#ff7d99"/><path d="m53 366.51v-260.85a29.582 29.582 0 0 1 29.85-29.66h-30a29.582 29.582 0 0 0 -29.85 29.66v260.85a29.439 29.439 0 0 0 29.85 29.49h30a29.439 29.439 0 0 1 -29.85-29.49z" fill="#ffb0bb"/><g fill="#284268"><path d="m196.655 216a30.655 30.655 0 1 0 -30.655 30.655 30.69 30.69 0 0 0 30.655-30.655zm-30.655 18.655a18.655 18.655 0 1 1 18.655-18.655 18.677 18.677 0 0 1 -18.655 18.655z"/><path d="m384.125 273h55.949a6 6 0 1 0 0-12h-55.949a6 6 0 0 0 0 12z"/><path d="m283.67 273h69.937a6 6 0 0 0 0-12h-69.937a6 6 0 0 0 0 12z"/><path d="m440.074 288h-111.9a6 6 0 1 0 0 12h111.9a6 6 0 1 0 0-12z"/><path d="m283.67 300h13.988a6 6 0 0 0 0-12h-13.988a6 6 0 0 0 0 12z"/><path d="m440.074 316h-61.036a6 6 0 0 0 0 12h61.036a6 6 0 1 0 0-12z"/><path d="m283.67 328h64.851a6 6 0 0 0 0-12h-64.851a6 6 0 0 0 0 12z"/><path d="m440.074 344h-98.7a6 6 0 0 0 0 12h98.7a6 6 0 1 0 0-12z"/><path d="m283.67 356h27.186a6 6 0 0 0 0-12h-27.186a6 6 0 0 0 0 12z"/><path d="m58 240.763a6 6 0 0 0 -6 6v6.295a6 6 0 0 0 12 0v-6.295a6 6 0 0 0 -6-6z"/><path d="m58 266.058a6 6 0 0 0 -6 6v66a6 6 0 0 0 12 0v-66a6 6 0 0 0 -6-6z"/><path d="m495 105.657a35.657 35.657 0 0 0 -35.657-35.657h-406.494a35.849 35.849 0 0 0 -35.849 35.849v8.484a6.1 6.1 0 0 0 0 1.324v290.686a35.62 35.62 0 0 0 35.849 35.657h406.3a35.62 35.62 0 0 0 35.851-35.657v-290.686a6.1 6.1 0 0 0 0-1.324zm-466 0a23.658 23.658 0 0 1 23.657-23.657h106.343v43.142a61.663 61.663 0 0 0 -49.274-24.663c-34.208 0-62.039 28.052-62.039 62.26 0 20.3 9.7 38.261 25.45 50.261h-44.137zm85.324 91.967.141 2.557a6.223 6.223 0 0 1 -1.012 3.745l-1.361 2.064a18.153 18.153 0 0 0 -2.665 6.56 51.729 51.729 0 0 1 -13.953-2.128 49.986 49.986 0 1 1 63.526-55.391v5.469a18.2 18.2 0 0 0 -3.011 1.59l-2.063 1.361a6.274 6.274 0 0 1 -3.744 1.012l-2.559-.141a18.206 18.206 0 0 0 -17.231 9.958l-1.134 2.244a6.133 6.133 0 0 1 -2.731 2.732l-2.245 1.134a18.188 18.188 0 0 0 -9.958 17.234zm-61.475 232.376a23.607 23.607 0 0 1 -23.849-23.657v-13.462a34.545 34.545 0 0 0 23.657 9.119h20.343a6 6 0 0 0 0-12h-20.151a23.848 23.848 0 0 1 -23.849-23.849v-141.151h82.237c.264 0 .543.759.855 1.233l1.361 1.952a6.056 6.056 0 0 1 1.012 3.688l-.141 2.532a18.156 18.156 0 0 0 9.366 16.889l-33.119 34.749a6 6 0 0 0 8.688 8.272l32.59-34.2a18.178 18.178 0 0 0 15.775 7.562l2.557-.141a6.234 6.234 0 0 1 3.745 1.012l2.064 1.361a18.2 18.2 0 0 0 3.01 1.591v118.5h-46a6 6 0 0 0 0 12h46.811l4.218 28zm109.751-170.11-2.064-1.361a18.327 18.327 0 0 0 -10.032-3c-.326 0-.653.009-.979.027l-2.557.141a6.2 6.2 0 0 1 -5.861-3.386l-1.134-2.245a18.282 18.282 0 0 0 -1.663-2.677 5.951 5.951 0 0 0 -1.14-1.55 6.09 6.09 0 0 0 -.576-.447 18.139 18.139 0 0 0 -4.653-3.358l-2.244-1.134a6.184 6.184 0 0 1 -3.387-5.86l.141-2.559a18.3 18.3 0 0 0 -2.976-11.01l-1.361-2.063a6.18 6.18 0 0 1 0-6.809l1.361-2.064a18.306 18.306 0 0 0 2.976-11.011l-.141-2.557a6.185 6.185 0 0 1 3.386-5.861l2.245-1.134a18.058 18.058 0 0 0 8.032-8.032l1.134-2.244a6.206 6.206 0 0 1 5.86-3.387l2.559.141a18.294 18.294 0 0 0 11.01-2.976l2.063-1.361a6.178 6.178 0 0 1 6.809 0l2.064 1.361a18.312 18.312 0 0 0 11.011 2.976l2.557-.141a6.2 6.2 0 0 1 5.861 3.386l1.134 2.245a18.058 18.058 0 0 0 8.032 8.032l2.244 1.134a6.184 6.184 0 0 1 3.387 5.86l-.141 2.559a18.3 18.3 0 0 0 2.976 11.01l1.361 2.063a6.18 6.18 0 0 1 0 6.809l-1.361 2.064a18.306 18.306 0 0 0 -2.976 11.011l.141 2.557a6.185 6.185 0 0 1 -3.386 5.861l-2.245 1.134a18.058 18.058 0 0 0 -8.032 8.032l-1.134 2.244a6.192 6.192 0 0 1 -5.86 3.387l-2.559-.141a18.28 18.28 0 0 0 -11.01 2.976l-2.063 1.361a6.184 6.184 0 0 1 -6.809-.003zm45.122-79.5-2.244-1.134a6.133 6.133 0 0 1 -2.732-2.731l-1.134-2.245a18.188 18.188 0 0 0 -17.232-9.958l-2.557.141a6.274 6.274 0 0 1 -3.745-1.012l-2.063-1.361a18.214 18.214 0 0 0 -3.708-1.874 53.172 53.172 0 0 1 2.067-11.955 50 50 0 0 1 97.943 14.253c0 27.341-22.288 49.6-49.773 49.843a18.2 18.2 0 0 0 -2.631-6.37l-1.361-2.063a6.222 6.222 0 0 1 -1.012-3.744l.141-2.559a18.188 18.188 0 0 0 -9.963-17.229zm275.278 225.953a23.607 23.607 0 0 1 -23.849 23.657h-282.987l-4.218-28h287.205a34.666 34.666 0 0 0 23.849-9.223zm0-40.192a23.848 23.848 0 0 1 -23.849 23.849h-288.151v-117.793a18.178 18.178 0 0 0 5.011-2.3l2.063-1.361a6.218 6.218 0 0 1 3.744-1.012l2.559.141a18.163 18.163 0 0 0 15.946-7.808l32.393 34.419a6 6 0 1 0 8.738-8.225l-32.874-34.93a18.182 18.182 0 0 0 9.1-16.756l-.141-2.557a6.223 6.223 0 0 1 1.012-3.745l1.361-1.842c.312-.473.592-1.232.855-1.232h262.233zm0-153.151h-224.4c15.563-12 25.708-29.709 25.708-50.262a62.2 62.2 0 0 0 -62.038-62.15 61.444 61.444 0 0 0 -51.27 27.105v-45.693h288.151a23.848 23.848 0 0 1 23.849 23.849z"/></g></svg>