<svg id="Layer_1" height="512" viewBox="0 0 512 512" width="512" xmlns="http://www.w3.org/2000/svg" data-name="Layer 1"><path d="m341 273v149h138.125a19.573 19.573 0 0 0 19.875-19.62v-129.38z" fill="#5fa8ed"/><path d="m61 184v127.61a24.446 24.446 0 0 0 24.41 24.39l177.51-.248a23.96 23.96 0 0 0 24.08-24.142v-127.61z" fill="#7fd695"/><path d="m147 184h54v152h-54z" fill="#eadf53"/><path d="m147.41 235.23a37.374 37.374 0 1 1 -10.81 26.29 37.271 37.271 0 0 1 10.81-26.29z" fill="#fb6771"/><path d="m280.97 132h-213.94a24.087 24.087 0 0 0 -24.03 24.34v27.66h262v-27.66a24.087 24.087 0 0 0 -24.03-24.34z" fill="#adf8d1"/><path d="m447.73 216.675a20.18 20.18 0 0 0 -14.73-6.675h-92v63h158.25z" fill="#cae6ee"/><circle cx="419.25" cy="422.38" fill="#6d7486" r="35"/><path d="m13 361h328v61h-328z" fill="#3090fc"/><path d="m12.75 336.38h327.98v25h-327.98z" fill="#49bdff"/><circle cx="93.25" cy="422.38" fill="#6d7486" r="35"/><path d="m499.25 300.62v30.18h-24.83a4 4 0 0 1 -4-4v-22.18a4 4 0 0 1 4-4z" fill="#eadf53"/><path d="m391.25 210.2h24v62.61h-24z" fill="#4689d3"/><path d="m341 273h30v149h-30z" fill="#5094cc"/><path d="m91 311.61v-127.61h-30v127.61a24.446 24.446 0 0 0 24.41 24.39l28.64-.04a24.448 24.448 0 0 1 -23.05-24.35z" fill="#60a56b"/><path d="m97.03 132h-30a24.087 24.087 0 0 0 -24.03 24.34v27.66h30v-27.66a24.087 24.087 0 0 1 24.03-24.34z" fill="#85c9a1"/><path d="m166.6 261.52a37.439 37.439 0 0 1 22.405-34.261 37.4 37.4 0 1 0 0 68.522 37.439 37.439 0 0 1 -22.4-34.261z" fill="#d6616c"/><g fill="#284268"><path d="m89 219.058a6 6 0 0 0 6-6v-6.295a6 6 0 0 0 -12 0v6.295a6 6 0 0 0 6 6z"/><path d="m89 297.058a6 6 0 0 0 6-6v-59a6 6 0 0 0 -12 0v59a6 6 0 0 0 6 6z"/><path d="m503.67 268.753-51.517-56.233a26.166 26.166 0 0 0 -19.153-8.52h-92.27a5.951 5.951 0 0 0 -5.73 6.2v119.8h-48.124a30.5 30.5 0 0 0 6.124-18.387v-121.613h12.294a5.706 5.706 0 0 0 5.706-5.706v-27.957a30.338 30.338 0 0 0 -30.337-30.337h-37.963a44.487 44.487 0 1 0 -68.752-54.66 44.487 44.487 0 1 0 -68.8 54.66h-38.117a30.031 30.031 0 0 0 -30.031 30.031v28.14a5.829 5.829 0 0 0 5.829 5.829h12.171v121.613a30.177 30.177 0 0 0 6.246 18.387h-48.496c-3.314 0-5.75 3.062-5.75 6.376v86a5.48 5.48 0 0 0 5.75 5.624h39.943a41 41 0 0 0 81.114 0h244.886a41 41 0 0 0 81.114 0h19.443a25.5 25.5 0 0 0 25.75-25.624v-129.565a5.874 5.874 0 0 0 -1.459-4.053zm-323.67-175.566a33.81 33.81 0 0 1 1.469-9.268 32.6 32.6 0 1 1 31.131 42.081h-32.6zm-77.287 0a32.644 32.644 0 0 1 65.287.127v32.686h-32.724a33.911 33.911 0 0 1 -9.268-1.514 32.585 32.585 0 0 1 -23.295-31.298zm-53.713 84.813v-21.663a18.391 18.391 0 0 1 18.337-18.337h213.632a18.031 18.031 0 0 1 18.031 18.031v21.969h-188a6 6 0 0 0 0 12h30v42.914c-6 7.645-10.8 17.655-10.8 28.607s4.8 20.962 10.8 28.607v39.872h-55.592a18.471 18.471 0 0 1 -18.408-18.387v-121.613h4a6 6 0 0 0 0-12zm158 55.293v-43.293h74v121.613a18.192 18.192 0 0 1 -18.08 18.387h-55.92v-40.251c6-7.6 10.476-17.456 10.476-28.228s-4.476-20.633-10.476-28.228zm-33 59.625a31.4 31.4 0 1 1 31.4-31.4 31.433 31.433 0 0 1 -31.4 31.4zm21 6.609v30.473h-42v-30.289c7 3.32 13.388 5.207 20.836 5.207a43.459 43.459 0 0 0 21.164-5.391zm-42-76.2v-33.327h42v33.515a43.459 43.459 0 0 0 -21.164-5.391c-7.448 0-13.836 1.887-20.836 5.207zm-59.75 228.049a29 29 0 1 1 29-29 29.032 29.032 0 0 1 -29 29zm241.75-35.376h-201.193c-2.913-19-19.988-35-40.557-35s-37.644 16-40.557 35h-33.693v-49h316zm0-61h-316v-13h316zm86-139h12a14.23 14.23 0 0 1 10.314 4.729l42.286 46.271h-64.6zm-24 0h12v51h-12zm-50 0h38v51h-38zm72.25 235.376a29 29 0 1 1 29-29 29.032 29.032 0 0 1 -29 29zm73.75-126.376h-17v-18h17zm0-30h-18.579c-5.514 0-10.421 4.1-10.421 9.616v22.184a10.549 10.549 0 0 0 10.421 10.2h18.579v65.376a13.487 13.487 0 0 1 -13.75 13.624h-19.443c-2.913-19-19.988-35-40.557-35s-37.644 16-40.557 35h-31.693v-137h146z"/></g></svg>