<svg id="Layer_1" height="512" viewBox="0 0 512 512" width="512" xmlns="http://www.w3.org/2000/svg" data-name="Layer 1"><path d="m457.825 156h-33.825v151h-337v-151h-33v184h404v-184z" fill="#6d7486"/><path d="m87 156v151h337v-151z" fill="#5fa8ed"/><path d="m87 156h30v151h-30z" fill="#8acaff"/><path d="m458.97 340h-.89-404.16-.89l-33.03 65.575 472 .042z" fill="#b0b5ca"/><path d="m428.08 71h-344.16a29.591 29.591 0 0 0 -29.92 29.6v33.29l404 .51v-33.8a29.591 29.591 0 0 0 -29.92-29.6z" fill="#6d7486"/><path d="m490.03 156.44v21.27l-.02.03a51.816 51.816 0 0 1 -32.03 26.41 53.718 53.718 0 0 1 -33.75-1.4 51.818 51.818 0 0 1 -27.81-25.01l-.02-.03-.01.02c-19.64 37.97-73.95 37.97-93.59 0l-.01-.02-.01.01c-19.64 37.98-73.95 37.98-93.59 0l-.01-.01a52.692 52.692 0 0 1 -93.6 0l-.01.01a51.8 51.8 0 0 1 -28.8 25.37 53.6 53.6 0 0 1 -32.85 1.02 51.813 51.813 0 0 1 -31.94-26.39l-.01-.01v-21.27z" fill="#9be147"/><path d="m424 103h-337.12l-64.91 53h468.03z" fill="#d8ff33"/><path d="m492 405.4v6a30 30 0 0 1 -30 30h-412a30 30 0 0 1 -30-30v-5.97h168.49l7.36-22.25a4.009 4.009 0 0 1 3.8-2.74h112.7a3.987 3.987 0 0 1 3.79 2.74l7.37 22.25z" fill="#6d7486"/><path d="m86.88 103-64.91 53h30l64.91-53z" fill="#d7e834"/><path d="m53.92 204.11a53.651 53.651 0 0 0 29.836-.051 51.81 51.81 0 0 1 -31.776-26.339l-.01-.01v-21.27h-30v21.27l.01.01a51.813 51.813 0 0 0 31.94 26.39z" fill="#8bc13d"/><path d="m50 411.4v-5.822h-30v5.822a30 30 0 0 0 30 30h30a30 30 0 0 1 -30-30z" fill="#4a5160"/><path d="m20 405.43v.145l.073-.145z" fill="#6d7486"/><path d="m50 405.43h.073l32.957-65.43h-29.11-.89l-32.957 65.43-.073.145 30 .003z" fill="#979eb2"/><g fill="#284268"><path d="m497.36 402.5-33.068-65.589c-.079-.156-.292-.208-.292-.354v-128.205a57.544 57.544 0 0 0 31.34-27.962c.013-.024.028-.028.04-.053a5.755 5.755 0 0 0 .62-2.629v-21.708h.018a6.9 6.9 0 0 0 -2.2-4.432l-29.818-24.368v-26.6a35.636 35.636 0 0 0 -35.923-35.6h-344.154a35.636 35.636 0 0 0 -35.923 35.6v26.251l-29.864 24.9a6.222 6.222 0 0 0 -2.136 5.249v20.708a5.643 5.643 0 0 0 .664 2.67 57.553 57.553 0 0 0 31.336 27.973v128.207c0 .148-.215.3-.293.457l-33.049 65.518a4.959 4.959 0 0 0 -.647 2.467h-.011v6.4a35.7 35.7 0 0 0 36 35.6h412a35.7 35.7 0 0 0 36-35.6v-6.4h-.011a4.974 4.974 0 0 0 -.629-2.5zm-437.36-301.9a23.624 23.624 0 0 1 23.923-23.6h344.154a23.624 23.624 0 0 1 23.923 23.6v16.8l-24.369-19.912a6.139 6.139 0 0 0 -3.79-1.488h-336.966a6.273 6.273 0 0 0 -3.835 1.634l-23.04 19.213zm29.043 7.4h332.662l51.465 42h-434.593zm-61.043 68.205v-14.205h456v14.208c-8 15.063-23.472 24.01-40.8 24.01a45.829 45.829 0 0 1 -41.5-25.176 5.861 5.861 0 0 0 -5.3-3.042h-.028a5.871 5.871 0 0 0 -5.306 3.112 46.7 46.7 0 0 1 -82.935-.1c-.014-.027-.039.05-.053.024a5.871 5.871 0 0 0 -5.27-3.031h-.021a5.886 5.886 0 0 0 -5.272 2.993c-.021.039-.041.007-.062.046a46.7 46.7 0 0 1 -82.936-.054c-.022-.043-.053-.11-.077-.152a6 6 0 0 0 -10.589.121 46.689 46.689 0 0 1 -82.939 0 6.006 6.006 0 0 0 -10.666.013 45.909 45.909 0 0 1 -41.456 25.228c-17.317 0-32.79-8.934-40.79-23.995zm58.772 136.795h53.228a6 6 0 0 0 0-12h-47v-94.081a56.82 56.82 0 0 0 22.4-18.019 57.191 57.191 0 0 0 46.6 23.24v.025c19 0 36.022-8.5 46.987-23.183a58.945 58.945 0 0 0 93.755.011 58.755 58.755 0 0 0 93.649-.1 56.822 56.822 0 0 0 21.609 17.612v94.495h-238a6 6 0 0 0 0 12h244.229a5.771 5.771 0 0 0 5.771-5.771v-96.661a61.362 61.362 0 0 0 13.21 1.432 62.042 62.042 0 0 0 8.786-.626v122.626h-391.996v-122.626a61.957 61.957 0 0 0 8.78.626 61.093 61.093 0 0 0 12.22-1.24v96.468a5.772 5.772 0 0 0 5.772 5.772zm-30.043 33h398.542l27 53.545-154.429-.045-6-18.385a10.22 10.22 0 0 0 -9.494-7.115h-112.698a9.989 9.989 0 0 0 -9.493 6.863l-6 18.137h-154.426zm405.271 89h-412a23.563 23.563 0 0 1 -24-24h162.49a6.006 6.006 0 0 0 5.7-4.12l6.91-20.88h109.8l6.91 21.093a6.1 6.1 0 0 0 5.7 4.224l162.49-.171a23.9 23.9 0 0 1 -24 23.854z"/><path d="m120 209.763a6 6 0 0 0 -6 6v5.295a6 6 0 0 0 12 0v-5.295a6 6 0 0 0 -6-6z"/><path d="m120 234.058a6 6 0 0 0 -6 6v40a6 6 0 0 0 12 0v-40a6 6 0 0 0 -6-6z"/><path d="m68.782 212h-.002-.001z"/></g></svg>