<svg id="Layer_1" height="512" viewBox="0 0 512 512" width="512" xmlns="http://www.w3.org/2000/svg" data-name="Layer 1"><path d="m292.1 17h-194.8a36.245 36.245 0 0 0 -36.3 35.99v362.01h267v-362.01a35.9 35.9 0 0 0 -35.9-35.99z" fill="#ececf7"/><path d="m328.1 414.97v44.04a35.99 35.99 0 0 1 -36 36h-194.8a36 36 0 0 1 -36-36v-44.04z" fill="#6d7486"/><path d="m328.1 52.99v30.7h-266.8v-30.7a36 36 0 0 1 36-36h194.8a35.99 35.99 0 0 1 36 36z" fill="#6d7486"/><path d="m265.08 136.46v106.25l-22.53 22.54v-106.25z" fill="#8e7066"/><path d="m265.08 136.46-22.53 22.54h-42.12-17l22.54-22.54z" fill="#c79a83"/><path d="m124 159h119v106h-119z" fill="#af8977"/><path d="m205.97 136.46-22.54 22.54h-16.86-42.25l22.54-22.54z" fill="#e1b7a3"/><path d="m167 159v.11 20.89h33v-20.89-.11z" fill="#eadf53"/><path d="m199.32 265.19v.06h-31.64v-.06-39.97l31.64 14.78z" fill="#eadf53"/><path d="m359.84 210.14a90.784 90.784 0 1 1 -31.63 5.66 90.861 90.861 0 0 1 31.63-5.66z" fill="#49c160"/><path d="m194.7 438.32a16.675 16.675 0 1 1 -16.67 16.67 16.674 16.674 0 0 1 16.67-16.67z" fill="#b0b5ca"/><path d="m91 52.99a36.245 36.245 0 0 1 36.3-35.99h-30a36.245 36.245 0 0 0 -36.3 35.99v362.01h30z" fill="#cdcde0"/><path d="m91.3 459.01v-44.04h-30v44.04a36 36 0 0 0 36 36h30a36 36 0 0 1 -36-36z" fill="#4a5160"/><path d="m127.3 16.99h-30a36 36 0 0 0 -36 36v30.7h30v-30.7a36 36 0 0 1 36-36z" fill="#4a5160"/><path d="m298.98 301a90.659 90.659 0 0 1 75.9-89.613 90.86 90.86 0 1 0 0 179.226 90.659 90.659 0 0 1 -75.9-89.613z" fill="#50dd5a"/><g fill="#284268"><path d="m396.994 276.368-51.771 38.289-19.543-22.885a6 6 0 0 0 -9.125 7.793l23.175 27.135a6 6 0 0 0 8.13.928l56.269-41.615a6 6 0 0 0 -7.135-9.649z"/><path d="m271.069 90h12.357a6 6 0 0 0 0-12h-12.357a6 6 0 0 0 0 12z"/><path d="m194.7 477.668a22.675 22.675 0 1 0 -22.675-22.675 22.7 22.7 0 0 0 22.675 22.675zm0-33.35a10.675 10.675 0 1 1 -10.675 10.675 10.688 10.688 0 0 1 10.675-10.675z"/><path d="m124.321 271h118.225a5.887 5.887 0 0 0 4.242-1.634l22.5-22.475a5.819 5.819 0 0 0 1.712-4.182v-106.248c0-3.313-2.6-6.461-5.918-6.461h-118.225a6.246 6.246 0 0 0 -4.243 1.988l-22.7 22.652a6.437 6.437 0 0 0 -1.914 4.36v106.246c0 3.314 3.008 5.754 6.321 5.754zm68.679-12h-19v-24.354l19 9.174zm66-18.776-10 10.536v-89.277l10-10.536zm-50.544-98.224h42.144l-10.536 11h-42.145zm-59.113 0h42.141l-10.536 11h-42.141zm44.657 23v9h-21v-9zm-64 0h31v14.8c0 3.314 2.258 6.2 5.571 6.2h33.86c3.313 0 5.569-2.888 5.569-6.2v-14.8h31v94h-32v-19a5.856 5.856 0 0 0 -3.3-5.435l-31.553-14.783a5.618 5.618 0 0 0 -5.565.374 5.824 5.824 0 0 0 -2.582 5.063v33.781h-32z"/><path d="m124.321 304a6 6 0 0 0 0 12h86.409a6 6 0 1 0 0-12z"/><path d="m242.546 330h-118.225a6 6 0 0 0 0 12h118.225a6 6 0 1 0 0-12z"/><path d="m242.546 357h-118.225a6 6 0 0 0 0 12h118.225a6 6 0 1 0 0-12z"/><path d="m92 105.763a6 6 0 0 0 -6 6v6.3a6 6 0 0 0 12 0v-6.3a6 6 0 0 0 -6-6z"/><path d="m92 131.058a6 6 0 0 0 -6 6v66a6 6 0 0 0 12 0v-66a6 6 0 0 0 -6-6z"/><path d="m359.84 204.138a96.608 96.608 0 0 0 -25.84 3.5v-154.652a41.946 41.946 0 0 0 -41.9-41.986h-194.8c-23.16 0-42.3 18.827-42.3 41.986v406.028c0 23.159 19.14 41.986 42.3 41.986h194.8a41.946 41.946 0 0 0 41.9-41.986v-64.657a96.864 96.864 0 1 0 25.84-190.219zm-37.84 254.876a29.933 29.933 0 0 1 -29.9 29.986h-194.8c-16.543 0-30.3-13.444-30.3-29.986v-38.014h255zm0-50.014h-255v-319h182.175a6 6 0 0 0 0-12h-182.175v-25.014c0-16.542 13.757-29.986 30.3-29.986h194.8a29.933 29.933 0 0 1 29.9 29.986v25.014h-16.129a6 6 0 0 0 0 12h16.129v121.837a96.859 96.859 0 0 0 0 178.326zm37.84-23.138a84.862 84.862 0 1 1 84.86-84.862 84.958 84.958 0 0 1 -84.86 84.862z"/></g></svg>