<svg id="Layer_1" height="512" viewBox="0 0 512 512" width="512" xmlns="http://www.w3.org/2000/svg" data-name="Layer 1"><path d="m251.3 105.62-55.75 73.87a30.039 30.039 0 0 0 -6.05 18.07v220.9l-114.83-55.15 102.17-212.76a28.5 28.5 0 0 1 12.61-12.98z" fill="#e1b7a3"/><path d="m189 465.49v-47.03l-114.58-55.15-7.895 16.71a28.6 28.6 0 0 0 13.413 38.1l110.032 52.88h.02c-.33-2-.99-3.68-.99-5.51z" fill="#fb6771"/><path d="m448.17 445.99v19.5a30 30 0 0 1 -30 30h-198.67a29.981 29.981 0 0 1 -29.51-24.63 28.838 28.838 0 0 1 -.49-5.37v-19.5z" fill="#e75163"/><path d="m442.025 179.49-58.857-77.81a29.685 29.685 0 0 0 -23.898-11.68h-80.87a29.751 29.751 0 0 0 -23.94 11.68l-59.16 77.87a30.115 30.115 0 0 0 -6.3 18.01v248.44h259v-248.44a29.9 29.9 0 0 0 -5.975-18.07zm-123.195-22.28a17.305 17.305 0 1 1 17.31-17.3 17.3 17.3 0 0 1 -17.31 17.3z" fill="#c79a83"/><path d="m409.77 247.12v153.76h-181.87v-153.76z" fill="#cae6ee"/><path d="m340.58 332.16a13.59 13.59 0 1 1 -13.59 13.59 13.593 13.593 0 0 1 13.59-13.59z" fill="#fc8193"/><path d="m297.08 288.66a13.59 13.59 0 1 1 -13.59 13.59 13.593 13.593 0 0 1 13.59-13.59z" fill="#fc8193"/><path d="m333.835 131.3a17.213 17.213 0 0 0 0 17.209 17.213 17.213 0 0 0 0-17.209z" fill="none"/><path d="m219.99 470.86a28.838 28.838 0 0 1 -.49-5.37v-19.49h-30v19.49a28.838 28.838 0 0 0 .49 5.37 29.981 29.981 0 0 0 29.51 24.63h30a29.981 29.981 0 0 1 -29.51-24.63z" fill="#cc465c"/><path d="m219 197.56a30.115 30.115 0 0 1 6.3-18.01l59.16-77.87a29.751 29.751 0 0 1 23.94-11.68h-30a29.751 29.751 0 0 0 -23.94 11.68l-59.16 77.87a30.115 30.115 0 0 0 -6.3 18.01v248.44h30z" fill="#a57b68"/><path d="m227.9 247.12h30v153.76h-30z" fill="#b0cad1"/><g fill="#284268"><path d="m156.592 266.774a6 6 0 0 0 -7.918 3.049l-2.555 5.755a6 6 0 1 0 10.967 4.869l2.555-5.755a6 6 0 0 0 -3.049-7.918z"/><path d="m146.328 289.894a6 6 0 0 0 -7.918 3.05l-22.718 51.185a6 6 0 1 0 10.969 4.871l22.718-51.185a6 6 0 0 0 -3.051-7.921z"/><path d="m388 98.072a35.956 35.956 0 0 0 -28.734-14.072h-34.266v-67.489a6 6 0 0 0 -12 0v67.489h-34.6a35.956 35.956 0 0 0 -28.735 14.072l-2.051 2.7-60.914 31.462a34.711 34.711 0 0 0 -15.274 15.722l-110.187 229.464a34.544 34.544 0 0 0 16.167 46.037l106.859 51.313c4.229 15.237 18.606 26.23 35.235 26.23h198.666a35.483 35.483 0 0 0 35.834-35.511v-267.929a35.782 35.782 0 0 0 -7.182-21.566zm-70.325 30.588a5.949 5.949 0 0 0 2.318 0 11.308 11.308 0 1 1 -2.318 0zm-134.675 332.19-100.4-48.211a22.527 22.527 0 0 1 -10.544-30.025l5.424-11.294 105.52 50.67zm7.516-284.856a36.109 36.109 0 0 0 -7.516 21.566v211.118l-100.324-48.178 99.569-207.352a22.645 22.645 0 0 1 9.962-10.254l38.544-19.908zm251.484 264.006h-174a6 6 0 0 0 0 12h174v13.489a23.472 23.472 0 0 1 -23.834 23.511h-198.666c-13.233 0-24.5-10.277-24.5-23.511v-13.489h33a6 6 0 0 0 0-12h-33v-242.44a24.4 24.4 0 0 1 5.094-14.458l59.025-77.8a24.138 24.138 0 0 1 19.281-9.302h34.6v21.388a23.244 23.244 0 1 0 12 0v-21.388h34.266a23.9 23.9 0 0 1 19.157 9.3l58.817 77.923a23.712 23.712 0 0 1 4.76 14.337z"/><path d="m410 241h-182a6 6 0 0 0 -6 6v154a6 6 0 0 0 6 6h182a6 6 0 0 0 6-6v-154a6 6 0 0 0 -6-6zm-6 154h-170v-142h170z"/><path d="m297.085 321.844a19.593 19.593 0 1 0 -19.593-19.593 19.615 19.615 0 0 0 19.593 19.593zm0-27.186a7.593 7.593 0 1 1 -7.593 7.593 7.6 7.6 0 0 1 7.593-7.593z"/><path d="m340.582 326.156a19.593 19.593 0 1 0 19.594 19.593 19.615 19.615 0 0 0 -19.594-19.593zm0 27.186a7.593 7.593 0 1 1 7.594-7.593 7.6 7.6 0 0 1 -7.594 7.593z"/><path d="m284.276 358.558a6 6 0 0 0 8.485 0l60.63-60.63a6 6 0 0 0 -8.485-8.486l-60.63 60.63a6 6 0 0 0 0 8.486z"/></g></svg>