<svg id="Layer_1" height="512" viewBox="0 0 512 512" width="512" xmlns="http://www.w3.org/2000/svg" data-name="Layer 1"><path d="m292 133h-221.25a23.568 23.568 0 0 0 -23.75 23.51v306.49h422v-295z" fill="#6d7486"/><path d="m86 174v220l344 1v-221z" fill="#7ce5e9"/><path d="m271.9 394.5v.5l-18.85-.05v-18.4a38.826 38.826 0 0 1 9.53-25.5 29.583 29.583 0 0 1 9.32 19.2z" fill="#e75163"/><path d="m255.62 346.21a29.577 29.577 0 0 1 6.96 4.84 38.826 38.826 0 0 0 -9.53 25.5v18.4l-38.32-.12v-62.43z" fill="#fb6771"/><path d="m245.3 271.31a10.228 10.228 0 0 1 .3 2.49 10.433 10.433 0 0 1 -8.6 10.27v.07a40.99 40.99 0 0 1 -81.98 0v-.06a10.442 10.442 0 0 1 -8.62-10.28 10.228 10.228 0 0 1 .3-2.49 7.85 7.85 0 0 1 7.02-5.99l.06-.02a3.308 3.308 0 0 0 1.74 2.24s10.38 2.44 10.43 1.84l1.44-18.05a1.671 1.671 0 0 1 1.85-1.53l3.27.35a38.736 38.736 0 0 0 35.7-16.06 48.545 48.545 0 0 1 19.91 28.73l1.99 8.2 6.89-3.22a4.194 4.194 0 0 0 1.29-2.47h.01a7.852 7.852 0 0 1 7 5.98z" fill="#ffd8b7"/><path d="m196.01 204.89a43.368 43.368 0 0 1 43.27 46.34l-.95 13.79a2.909 2.909 0 0 1 -.04.31 4.194 4.194 0 0 1 -1.29 2.47l-6.89 3.22-1.99-8.2a48.545 48.545 0 0 0 -19.91-28.73 38.736 38.736 0 0 1 -35.7 16.06l-3.27-.35a1.671 1.671 0 0 0 -1.85 1.53l-1.44 18.05c-.05.6-10.43-1.84-10.43-1.84a3.308 3.308 0 0 1 -1.74-2.24 2.539 2.539 0 0 1 -.09-.54l-.94-13.53c-.07-1.02-.1-2.03-.1-3.04a43.356 43.356 0 0 1 43.36-43.3z" fill="#6d7486"/><path d="m214.73 345.68v49.15l-37.41-.11v-49.04a32.275 32.275 0 0 0 37.37.02z" fill="#d4e1f4"/><path d="m214.73 332.4v13.28l-.04.02a32.275 32.275 0 0 1 -37.37-.02v-24.78l.11-.22a41.019 41.019 0 0 0 37.3-.07z" fill="#efc597"/><path d="m177.32 345.68v49.04l-38.07-.11v-18.06a38.9 38.9 0 0 0 -9.66-25.66 29.5 29.5 0 0 1 6.79-4.68l40.94-13.81z" fill="#fb6771"/><path d="m139.25 394.5v.11l-19.15-.05v-24.31a29.633 29.633 0 0 1 9.49-19.36 38.9 38.9 0 0 1 9.66 25.66z" fill="#e75163"/><path d="m463.42 36h-211.09c-11.36 0-20.33 9.56-20.33 20.93v131.61a20.273 20.273 0 0 0 20.33 20.46h82.75c36.25 0 22.93 53.615 22.93 53.615s34.44-9.328 32.72-50.048a3.357 3.357 0 0 1 3.29-3.567h69.4a20.341 20.341 0 0 0 20.58-20.46v-131.61a20.876 20.876 0 0 0 -20.58-20.93z" fill="#cae6ee"/><path d="m365.08 209h-30c36.25 0 22.93 53.615 22.93 53.615s24.551-6.651 31.16-33.231c-2.404-10.952-8.886-20.384-24.09-20.384z" fill="#aac8ce"/><path d="m252.33 209h30a20.273 20.273 0 0 1 -20.33-20.46v-131.61c0-11.37 8.97-20.93 20.33-20.93h-30c-11.36 0-20.33 9.56-20.33 20.93v131.61a20.273 20.273 0 0 0 20.33 20.46z" fill="#aac8ce"/><path d="m338.65 89h-74.51l-7.23 71h88.24z" fill="#81c83d"/><path d="m345.15 159.61-5.94 17.89h-75.63l-6.67-17.89z" fill="#49c160"/><path d="m86 174h30v220h-30z" fill="#67c9c9"/><path d="m77 156.51a23.568 23.568 0 0 1 23.75-23.51h-30a23.568 23.568 0 0 0 -23.75 23.51v306.49h30z" fill="#b0b5ca"/><path d="m496 449.38a26.243 26.243 0 0 1 -26.24 26.27h-427.52a26.24 26.24 0 0 1 0-52.48h139.8a11.86 11.86 0 0 1 11.86 11.86 11.847 11.847 0 0 0 11.86 11.86h94.87a11.86 11.86 0 0 0 11.86-11.86 11.847 11.847 0 0 1 11.86-11.86h145.41a26.236 26.236 0 0 1 26.24 26.21z" fill="#4a5160"/><path d="m46 449.41a26.255 26.255 0 0 1 26.24-26.24h-30a26.24 26.24 0 0 0 0 52.48h30a26.242 26.242 0 0 1 -26.24-26.24z" fill="#6d7486"/><g fill="#284268"><path d="m428.381 105h25.268a6 6 0 0 0 0-12h-25.268a6 6 0 0 0 0 12z"/><path d="m365.1 105h38.585a6 6 0 0 0 0-12h-38.585a6 6 0 0 0 0 12z"/><path d="m453.649 118h-50.536a6 6 0 0 0 0 12h50.536a6 6 0 0 0 0-12z"/><path d="m365.1 130h13.317a6 6 0 0 0 0-12h-13.317a6 6 0 0 0 0 12z"/><path d="m453.649 144h-29.383a6 6 0 0 0 0 12h29.383a6 6 0 0 0 0-12z"/><path d="m365.1 156h34.47a6 6 0 1 0 0-12h-34.47a6 6 0 0 0 0 12z"/><path d="m257.959 179.371a5.761 5.761 0 0 0 5.622 3.629h75.626a5.783 5.783 0 0 0 5.693-3.86l5.947-17.762a5.206 5.206 0 0 0 .281-2.27l-6.507-70.872a5.815 5.815 0 0 0 -5.975-5.236h-13.646v-6.414a24 24 0 0 0 -48 0v6.414h-12.858a5.815 5.815 0 0 0 -5.969 5.176l-7.23 70.934a5.777 5.777 0 0 0 .347 2.649zm76.92-8.371h-67.132l-2.194-5h71.283zm-45.879-94.414a12 12 0 0 1 24 0v6.414h-24zm-19.438 18.414h7.438v8.418a6 6 0 0 0 12 0v-8.418h24v8.418a6 6 0 0 0 12 0v-8.418h8.171l5.407 59h-75.024z"/><path d="m114 192.1a6 6 0 0 0 -6 6v6.3a6 6 0 0 0 12 0v-6.3a6 6 0 0 0 -6-6z"/><path d="m114 217.391a6 6 0 0 0 -6 6v49a6 6 0 0 0 12 0v-49a6 6 0 0 0 -6-6z"/><path d="m475 417.647v-205.247a26.688 26.688 0 0 0 15-23.866v-131.608c0-14.654-11.922-26.926-26.576-26.926h-211.094c-14.654 0-26.33 12.272-26.33 26.926v70.074h-155.252a29.6 29.6 0 0 0 -29.748 29.508v260.569c-17 1.1-31.1 15.334-31.015 32.588a32.513 32.513 0 0 0 32.255 32.335h427.52a32.265 32.265 0 0 0 32.076-32.7c-.057-15.575-11.836-28.654-26.836-31.653zm-237-360.721c0-8.037 6.293-14.926 14.33-14.926h211.094a14.9 14.9 0 0 1 14.576 14.926v131.61a14.339 14.339 0 0 1 -14.576 14.464h-69.4a9.23 9.23 0 0 0 -6.683 2.908 9.553 9.553 0 0 0 -2.607 6.964c.952 22.465-10.325 34.041-18.931 39.556.223-2.028.409-4.23.511-6.547.624-14.028-1.987-24.937-7.758-32.32-5.456-6.973-13.351-10.561-23.479-10.561h-82.747a14.289 14.289 0 0 1 -14.33-14.464zm251.482 397.027a20.615 20.615 0 0 1 -19.722 16.047h-426.76c-10.511 0-19.679-7.714-20.864-18.158a20.5 20.5 0 0 1 20.104-22.842h51.76a6 6 0 0 0 0-12h-41v-260.492a17.584 17.584 0 0 1 17.748-17.508h155.252v29h-139.63a6.389 6.389 0 0 0 -6.37 6.37v220.089a5.97 5.97 0 0 0 6.168 5.771l343.8.77h.439a5.325 5.325 0 0 0 3.694-1.4 5.548 5.548 0 0 0 1.9-4.145v-106.455a6 6 0 0 0 -12 0v100.442l-146-.425v-18.767c0-.166-.059-.332-.072-.5a35.869 35.869 0 0 0 -19.6-28.908 4.485 4.485 0 0 0 -.64-.318l-36.689-12.43v-4.013a47.534 47.534 0 0 0 21.945-35.722 16.351 16.351 0 0 0 8.727-14.562 16.54 16.54 0 0 0 -.5-3.916 13.744 13.744 0 0 0 -6.545-8.716l.648-9.519a49.367 49.367 0 1 0 -98.5 0l.654 9.5a13.712 13.712 0 0 0 -6.556 8.733 16.508 16.508 0 0 0 -.471 3.916 16.267 16.267 0 0 0 8.654 14.572 47.533 47.533 0 0 0 21.944 35.733v3.994l-36.7 12.433a5.076 5.076 0 0 0 -.686.319 35.853 35.853 0 0 0 -19.583 28.908c-.013.166-.032.332-.032.5v18.291l-22-.064v-208.481h134.001v8.536a26.3 26.3 0 0 0 26.33 26.464h82.747c6.328 0 10.912 1.982 14.016 5.943 8.123 10.371 4.989 32.585 3.1 40.253a6.013 6.013 0 0 0 5.823 7.469 5.964 5.964 0 0 0 1.563-.2 53.944 53.944 0 0 0 19.413-11.09c8.3-7.329 17.934-20.371 17.8-42.371h27.208v34a6 6 0 0 0 12 0v-34.004h27v202h-138.647a18 18 0 0 0 -17.86 17.994 5.912 5.912 0 0 1 -5.859 6.006h-94.878a5.913 5.913 0 0 1 -5.86-6.007 18 18 0 0 0 -17.86-17.993h-48.036a6 6 0 0 0 0 12h48.036a5.913 5.913 0 0 1 5.86 6.006 18 18 0 0 0 17.86 17.994h94.878a18 18 0 0 0 17.859-17.994 5.913 5.913 0 0 1 5.86-6.006h145.407a20.359 20.359 0 0 1 19.722 24.953zm-363.482-65.377v-18.062a19.566 19.566 0 0 1 3.064-9.7 32.81 32.81 0 0 1 3.936 15.738v12.048zm11.9-36.434c.229-.129.354-.265.587-.387l32.511-11v47.951l-26-.076v-12.08a44.755 44.755 0 0 0 -7.098-24.408zm31.552-77.868a6.113 6.113 0 0 0 2.472-4.412l1.091-13.64a44.776 44.776 0 0 0 36.118-13.836 42.483 42.483 0 0 1 13.156 21.847l1.99 8.2a6 6 0 0 0 8.373 4.021l6.888-3.221.023-.013a4.35 4.35 0 0 1 .039.572 4.423 4.423 0 0 1 -3.649 4.367 6.068 6.068 0 0 0 -4.953 5.978 34.99 34.99 0 1 1 -69.979-.062 6 6 0 0 0 -4.964-5.91 4.424 4.424 0 0 1 -3.657-4.365 4.474 4.474 0 0 1 .127-1.062v-.006c.086.048.165.107.253.152a5.977 5.977 0 0 0 1.368.5c11.421 2.683 12.995 2.576 15.306.89zm-.754-51.52a37.365 37.365 0 0 1 64.59 28.067l-.457 6.621a54.471 54.471 0 0 0 -21.251-28.319 6 6 0 0 0 -8.262 1.486 32.762 32.762 0 0 1 -30.17 13.573l-3.264-.351a7.682 7.682 0 0 0 -8.478 7.025l-.931 11.651c-.313-.067-.629-.135-.946-.2l-.793-11.481a37 37 0 0 1 9.964-28.072zm52.302 118.006 32.422 11c.308.161.516.336.815.51a44.948 44.948 0 0 0 -7.237 24.282v12.376l-26-.077zm-38 1.594v-12.976a49.053 49.053 0 0 0 26-.006v12.982a27.468 27.468 0 0 1 -26 0zm26 13.088v33.374l-26-.074v-33.293a39.654 39.654 0 0 0 26-.007zm50 33.521v-12.411a32.952 32.952 0 0 1 3.939-15.464c1.627 2.867 3.061 6.073 3.061 9.426v18.468z"/></g></svg>