<svg id="Layer_1" height="512" viewBox="0 0 512 512" width="512" xmlns="http://www.w3.org/2000/svg" data-name="Layer 1"><path d="m311.333 191-116.333 2.333-94.38 31.852 155.38 77.602 155.38-77.608z" fill="#775f58"/><path d="m408.01 227.81-152.01 74.99v194.16l152-73.64v-196.24z" fill="#8e7066"/><path d="m103.86 226.74.14.03v196.55l152 73.64v-194.16z" fill="#af8977"/><path d="m186.23 196.34a19.933 19.933 0 0 0 -6.36-5.08l-9.84-4.96a20 20 0 0 1 -10.95-18.95l.61-11.11a19.965 19.965 0 0 0 -3.27-12.11l-6.04-9.16a20.017 20.017 0 0 1 0-22.02l6.04-9.15a19.984 19.984 0 0 0 3.27-12.11l-.61-11.11a19.991 19.991 0 0 1 10.95-18.95l9.84-4.97a20 20 0 0 0 8.83-8.83l4.97-9.83a20.016 20.016 0 0 1 18.95-10.96l11.11.61a19.954 19.954 0 0 0 12.1-3.27l9.16-6.03a19.979 19.979 0 0 1 22.02 0l9.16 6.03a19.954 19.954 0 0 0 12.1 3.27l11.11-.61a20.016 20.016 0 0 1 18.95 10.96l4.97 9.83a20 20 0 0 0 8.83 8.83l9.84 4.97a19.991 19.991 0 0 1 10.95 18.95l-.61 11.11a19.984 19.984 0 0 0 3.27 12.11l6.04 9.15a20.017 20.017 0 0 1 0 22.02l-6.04 9.16a19.965 19.965 0 0 0 -3.27 12.11l.61 11.11a20 20 0 0 1 -10.95 18.95l-9.84 4.96a19.972 19.972 0 0 0 -8.83 8.84l-4.97 9.83a19.991 19.991 0 0 1 -18.95 10.95l-11.11-.61a19.954 19.954 0 0 0 -12.1 3.27l-9.16 6.04a20.017 20.017 0 0 1 -22.02 0l-9.16-6.04a19.954 19.954 0 0 0 -12.1-3.27l-11.11.61a19.991 19.991 0 0 1 -18.95-10.95l-4.97-9.83a19.685 19.685 0 0 0 -2.47-3.76z" fill="#fb6771"/><path d="m256 52.37a71.59 71.59 0 1 1 -71.59 71.59 71.588 71.588 0 0 1 71.59-71.59z" fill="#cae6ee"/><path d="m277.15 132.56a12.555 12.555 0 1 1 -12.55 12.56 12.556 12.556 0 0 1 12.55-12.56z" fill="#7fd695"/><path d="m234.85 90.26a12.55 12.55 0 1 1 -12.56 12.55 12.552 12.552 0 0 1 12.56-12.55z" fill="#7fd695"/><path d="m411.38 225.21-155.38 77.59 32.36 64.72 154.61-82.22z" fill="#af8977"/><path d="m214.41 123.96a71.6 71.6 0 0 1 56.59-70 71.59 71.59 0 1 0 0 140.008 71.6 71.6 0 0 1 -56.59-70.008z" fill="#a7c9d1"/><path d="m133.875 242.743-29.875-15.933v196.51l30 14.534v-195.044l-.14-.07z" fill="#ceaa9d"/><path d="m133.875 242.743.125.067v-.04z" fill="#ceaa9d"/><path d="m100.62 225.21-31.59 60.09 154.61 82.22 32.36-64.72z" fill="#e1b7a3"/><path d="m100.62 225.21-31.59 60.09 30.019 15.964 31.571-60.054z" fill="#ffd9ca"/><g fill="#284268"><path d="m234.847 121.362a18.553 18.553 0 1 0 -18.553-18.552 18.573 18.573 0 0 0 18.553 18.552zm0-25.1a6.553 6.553 0 1 1 -6.553 6.553 6.559 6.559 0 0 1 6.553-6.558z"/><path d="m258.6 145.115a18.553 18.553 0 1 0 18.552-18.552 18.573 18.573 0 0 0 -18.552 18.552zm25.105 0a6.553 6.553 0 1 1 -6.553-6.552 6.56 6.56 0 0 1 6.554 6.552z"/><path d="m224.362 155.6a6 6 0 0 0 8.486 0l54.789-54.788a6 6 0 1 0 -8.485-8.485l-54.789 54.788a6 6 0 0 0 -.001 8.485z"/><path d="m256 201.553a77.591 77.591 0 1 0 -77.591-77.591 77.679 77.679 0 0 0 77.591 77.591zm0-143.181a65.591 65.591 0 1 1 -65.591 65.59 65.664 65.664 0 0 1 65.591-65.59z"/><path d="m394.919 124a6 6 0 0 0 6 6h28.571a6 6 0 0 0 0-12h-28.571a6 6 0 0 0 -6 6z"/><path d="m415.19 63.51-28.571 21.4a6 6 0 0 0 7.195 9.6l28.572-21.4a6 6 0 0 0 -7.2-9.6z"/><path d="m386.619 163.011 28.571 21.4a6 6 0 0 0 7.2-9.6l-28.572-21.4a6 6 0 0 0 -7.195 9.6z"/><path d="m76.51 124a6 6 0 0 0 6 6h28.571a6 6 0 1 0 0-12h-28.571a6 6 0 0 0 -6 6z"/><path d="m118.186 153.407-28.572 21.4a6 6 0 0 0 7.2 9.6l28.571-21.4a6 6 0 0 0 -7.195-9.6z"/><path d="m125.381 84.914-28.571-21.404a6 6 0 0 0 -7.2 9.6l28.572 21.4a6 6 0 0 0 7.195-9.6z"/><path d="m416.529 222.414a4.827 4.827 0 0 0 -3.529-2.883l-73.587-25.219 5.259-2.658a26 26 0 0 0 14.238-24.635l-.611-11.109a14.089 14.089 0 0 1 2.29-8.476l6.038-9.157a25.975 25.975 0 0 0 0-28.624l-6.037-9.156a14.089 14.089 0 0 1 -2.29-8.476l.611-11.109a26 26 0 0 0 -14.237-24.636l-9.833-4.967a13.91 13.91 0 0 1 -6.184-6.183l-4.968-9.833a26 26 0 0 0 -24.635-14.237l-11.11.611a14.091 14.091 0 0 1 -8.475-2.291l-9.156-6.037a25.973 25.973 0 0 0 -28.624 0l-9.156 6.037a14.129 14.129 0 0 1 -8.475 2.291l-11.11-.611a25.986 25.986 0 0 0 -24.636 14.234l-4.968 9.833a13.907 13.907 0 0 1 -6.185 6.183l-9.831 4.967a26 26 0 0 0 -14.238 24.636l.611 11.109a14.089 14.089 0 0 1 -2.29 8.476l-6.038 9.157a25.973 25.973 0 0 0 0 28.623l6.037 9.157a14.089 14.089 0 0 1 2.29 8.476l-.611 11.109a26 26 0 0 0 14.237 24.635l5.683 2.871-74.009 24.998a4.84 4.84 0 0 0 -3.542 2.891l-31.658 60.099a6.041 6.041 0 0 0 2.6 8.09l31.6 16.743v115.977a5.867 5.867 0 0 0 3.24 5.4l152.223 73.637a5.835 5.835 0 0 0 2.574.6 5.912 5.912 0 0 0 2.593-.6l152.14-73.637a5.858 5.858 0 0 0 3.23-5.4v-115.977l31.637-16.743a6 6 0 0 0 2.487-8.089zm-243.791-41.474a14 14 0 0 1 -7.666-13.265l.612-11.11a26.176 26.176 0 0 0 -4.255-15.74l-6.036-9.156a13.985 13.985 0 0 1 0-15.413l6.037-9.156a26.177 26.177 0 0 0 4.255-15.741l-.612-11.109a14 14 0 0 1 7.667-13.266l9.831-4.967a25.83 25.83 0 0 0 11.485-11.483l4.967-9.834a14.007 14.007 0 0 1 13.265-7.666l11.109.612a26.141 26.141 0 0 0 15.742-4.254l9.156-6.038a13.986 13.986 0 0 1 15.412 0l9.156 6.038a26.152 26.152 0 0 0 15.737 4.254l11.109-.612a14.008 14.008 0 0 1 13.269 7.666l4.967 9.832a25.83 25.83 0 0 0 11.484 11.484l9.833 4.967a14 14 0 0 1 7.666 13.266l-.612 11.109a26.177 26.177 0 0 0 4.255 15.741l6.036 9.155a13.987 13.987 0 0 1 0 15.414l-6.037 9.156a26.177 26.177 0 0 0 -4.255 15.741l.612 11.109a14 14 0 0 1 -7.667 13.265l-9.831 4.968a25.825 25.825 0 0 0 -11.485 11.483l-4.967 9.834a14.035 14.035 0 0 1 -13.265 7.666l-11.109-.612a26.178 26.178 0 0 0 -15.742 4.254l-9.156 6.037a13.982 13.982 0 0 1 -15.412 0l-9.156-6.037a26.207 26.207 0 0 0 -14.341-4.292c-.466 0-.934.012-1.4.038l-11.109.612a13.992 13.992 0 0 1 -13.265-7.667l-4.967-9.833a25.828 25.828 0 0 0 -11.484-11.483zm77.262 306.452-140-67.835v-105.833l110.972 59.089a5.71 5.71 0 0 0 2.743.7 5.784 5.784 0 0 0 1.789-.285 5.959 5.959 0 0 0 3.521-3.032l20.975-41.984zm5.979-191.3-88.342-44.116c-2.7-1.347-5.973-.974-7.656 2.026a6 6 0 0 0 2.3 8.71l85.663 42.775-26.923 53.846-143.9-76.523 26.079-49.61 23 11.487a6 6 0 0 0 5.361-10.736l-15.355-7.668 67.5-22.76 4.605 9.113a25.978 25.978 0 0 0 24.635 14.237l11.11-.611a14.12 14.12 0 0 1 8.475 2.291l9.156 6.037a25.973 25.973 0 0 0 28.624 0l9.156-6.037a14.1 14.1 0 0 1 8.475-2.291l11.11.611a25.982 25.982 0 0 0 24.635-14.237l4.764-9.428 67.38 23.036zm146.021 123.465-140 67.835v-159.18l20.993 41.988a6 6 0 0 0 5.366 3.317 5.431 5.431 0 0 0 2.669-.7l110.972-59.093zm-111.025-60.227-26.924-53.848 144.749-72.282 26.077 49.609z"/><path d="m125 336.017a6 6 0 0 0 -6 6v5.372a6 6 0 0 0 12 0v-5.372a6 6 0 0 0 -6-6z"/><path d="m125 360.636a6 6 0 0 0 -6 6v40.548a6 6 0 0 0 12 0v-40.548a6 6 0 0 0 -6-6z"/></g></svg>