<svg id="Layer_1" height="512" viewBox="0 0 512 512" width="512" xmlns="http://www.w3.org/2000/svg" data-name="Layer 1"><path d="m101 116h263v368h-263z" fill="#fb6771"/><path d="m319.8 67.91v48.45h-79.25v-48.45a39.639 39.639 0 0 1 39.62-39.63c.69 0 1.37.02 2.05.05a39.631 39.631 0 0 1 37.58 39.58z" fill="#edc978"/><path d="m100.83 116.36v367.36h-.13l-39.6-36.84v-330.52z" fill="#fc8692"/><path d="m61.1 446.88 39.6 36.84h-79.2z" fill="#b54e64"/><path d="m61.1 116.36v330.52l-39.6 36.84h-.13v-367.36z" fill="#ce5166"/><path d="m288.48 187.18c-.13.01-.26.01-.39.01a12.65 12.65 0 1 1 .39-.01z" fill="#d61d1d"/><path d="m164.5 187.18a1.62 1.62 0 0 1 -.22.01 13.01 13.01 0 1 1 .22-.01z" fill="#d61d1d"/><path d="m175.06 400.72h102.86v34.49h-102.86z" fill="#81c83d"/><path d="m445.07 28h-163.07v.33c21 1.07 38 18.38 38 39.58v353.92l25.51-17.46 19.855 17.46 19.917-17.46 19.924 17.46 19.927-17.46 19.929 17.46 20.114-17.46 25.824 17.46v-347.99a46.12 46.12 0 0 0 -45.93-45.84z" fill="#e5cfa3"/><path d="m313 28.33v-.33h-31v.33c21 1.07 38 18.38 38 39.58v353.92l25.51-17.46 5.49 4.83v-341.29c0-21.2-17-38.51-38-39.58z" fill="#ffe6bb"/><path d="m101 116h30v368h-30z" fill="#dd5e6a"/><g fill="#284268"><path d="m454.182 118h-99.082a6 6 0 0 0 0 12h99.08a6 6 0 0 0 0-12z"/><path d="m454.182 83h-99.082a6 6 0 0 0 0 12h99.08a6 6 0 0 0 0-12z"/><path d="m454.182 154h-99.082a6 6 0 0 0 0 12h99.08a6 6 0 0 0 0-12z"/><path d="m454.182 189h-99.082a6 6 0 0 0 0 12h99.08a6 6 0 0 0 0-12z"/><path d="m454.182 224h-99.082a6 6 0 0 0 0 12h99.08a6 6 0 0 0 0-12z"/><path d="m454.182 260h-99.082a6 6 0 0 0 0 12h99.08a6 6 0 0 0 0-12z"/><path d="m287.967 156.153a18.694 18.694 0 0 0 -18.7 18.52 19.018 19.018 0 0 0 12.733 17.646v49.759a55.5 55.5 0 1 1 -111 0v-49.985a18.539 18.539 0 1 0 -24.932-17.42 17.961 17.961 0 0 0 12.932 17.586v49.819c0 37.488 30.013 67.986 67.5 67.986s67.5-30.5 67.5-67.986v-50.045c8-2.611 12.368-9.4 12.368-17.36a18.44 18.44 0 0 0 -18.401-18.52zm-123.689 25.04a6.52 6.52 0 1 1 6.52-6.52 6.528 6.528 0 0 1 -6.52 6.52zm123.808 0a6.52 6.52 0 1 1 6.52-6.52 6.528 6.528 0 0 1 -6.52 6.52z"/><path d="m278 395h-103a6 6 0 0 0 -6 6v34a6 6 0 0 0 6 6h103a6 6 0 0 0 6-6v-34a6 6 0 0 0 -6-6zm-6 34h-91v-22h91z"/><path d="m374.107 303.259a11.724 11.724 0 0 1 11.711 11.71 6 6 0 1 0 12 0 23.754 23.754 0 0 0 -17.818-22.969v-4.472a6 6 0 0 0 -12 0v4.532a23.709 23.709 0 0 0 6.107 46.619 11.708 11.708 0 0 1 .073 23.416c-.061 0-.119-.009-.18-.009-.024 0-.048 0-.071 0a11.719 11.719 0 0 1 -11.532-11.7 6 6 0 0 0 -12 0 23.751 23.751 0 0 0 17.603 22.914v5.338a6 6 0 0 0 12 0v-5.279a23.711 23.711 0 0 0 -5.893-46.678 11.71 11.71 0 0 1 0-23.42z"/><path d="m133 197.1a6 6 0 0 0 -6 6v6.3a6 6 0 0 0 12 0v-6.3a6 6 0 0 0 -6-6z"/><path d="m133 222.391a6 6 0 0 0 -6 6v86a6 6 0 0 0 12 0v-86a6 6 0 0 0 -6-6z"/><path d="m445.164 22h-163.164v.327c0-.03-1.024-.045-1.709-.045a45.393 45.393 0 0 0 -45.291 45.625v42.093h-213.625a6.65 6.65 0 0 0 -6.375 6.363v367.355a6.577 6.577 0 0 0 6.375 6.282h338.163a6.481 6.481 0 0 0 6.462-6.462v-55.765a5.947 5.947 0 0 0 3.3-1.43l15.97-14 15.975 14a6 6 0 0 0 7.909 0l15.971-14 15.976 14a6 6 0 0 0 7.909 0l16.439-14.4 21.8 14.848a6 6 0 0 0 3.378 1.042 6.766 6.766 0 0 0 2.992-.7 6.181 6.181 0 0 0 3.383-5.3v-347.997a51.988 51.988 0 0 0 -51.838-51.836zm-198.164 46.405c0-18.363 14.516-33.783 32.876-34.117a33.554 33.554 0 0 1 34.124 33.619v42.093h-67zm-220 53.595h28v322.266l-28 25.8zm9.764 356 24.336-22.643 24.345 22.643zm448.236-67.518-16.442-11.073a6.139 6.139 0 0 0 -7.426.445l-16.027 14-16-14a6.023 6.023 0 0 0 -7.926 0l-15.975 14-15.976-14a6 6 0 0 0 -7.911 0l-15.973 14-15.974-14a5.854 5.854 0 0 0 -7.232-.444l-16.138 11.069v-212.479a6 6 0 0 0 -12 0v223.741a6.058 6.058 0 0 0 3.045 5.367 5.909 5.909 0 0 0 6.184-.32l21.751-14.846 9.02 7.91v58.148h-247v-64a6 6 0 0 0 -12 0v56.216l-28-25.95v-322.266h28v252a6 6 0 0 0 12 0v-252h207v36a6 6 0 0 0 12 0v-90.093c0-13.294-5.917-24.907-15.02-33.907h134.091a40.046 40.046 0 0 1 39.929 39.929z"/></g></svg>