<svg id="Layer_1" height="512" viewBox="0 0 512 512" width="512" xmlns="http://www.w3.org/2000/svg" data-name="Layer 1"><path d="m141 105v219.01l.15.865 72.85 22.125h268v-242z" fill="#af8977"/><path d="m446.45 33h-134.45v72h170.28z" fill="#c79a83"/><path d="m176.96 33-35.83 72h170.87v-72z" fill="#e1b7a3"/><path d="m360.47 105.56v54.22h-93.49v-54.22-.23h44.72 48.77z" fill="#fb6771"/><path d="m357.4 346.35v.24h-87.34v-.24-77.69l14.29 15.06 14.77-15.06 14.61 15.06 14.61-15.06 14.77 15.06 14.29-15.06z" fill="#cae6ee"/><path d="m136.11 474.46-36.76-118.9a3.562 3.562 0 0 0 -3.39-2.5h-62.67a3.563 3.563 0 0 0 -3.43 4.52l33.11 118.87a3.555 3.555 0 0 0 3.43 2.6h66.31a3.552 3.552 0 0 0 3.4-4.59z" fill="#80aaff"/><path d="m89.83 443.66a10.435 10.435 0 1 1 -10.43 10.44 10.441 10.441 0 0 1 10.43-10.44z" fill="#fb6771"/><path d="m171 105h-30v219.01l.15.865 29.939 9.092z" fill="#936c5d"/><path d="m176.96 33-35.83 72h30l35.83-72z" fill="#c99b89"/><path d="m218.45 346.59s14.13-28.12 23.62-47.01a21.283 21.283 0 0 0 -7.21-27.25l-.4-.26a20.653 20.653 0 0 0 -27.52 4.08l-23.77 29.15a33.306 33.306 0 0 1 -25.81 12.25h-1.87a33.323 33.323 0 0 0 -33.33 33.32 42.275 42.275 0 0 1 -20.45 10.01l-.64.2 25.08 80.69 35.27-22.3a24.214 24.214 0 0 1 17.72-2.35l55.2 8.53a60.012 60.012 0 0 0 41.44-8.71l110.23-70.35z" fill="#ffd8b7"/><g fill="#284268"><path d="m73.4 454.1a16.436 16.436 0 1 0 16.436-16.436 16.454 16.454 0 0 0 -16.436 16.436zm20.872 0a4.436 4.436 0 1 1 -4.436-4.436 4.441 4.441 0 0 1 4.431 4.436z"/><path d="m451.824 30.312a5.977 5.977 0 0 0 -5.377-3.312h-269.491a5.977 5.977 0 0 0 -5.377 3.312l-35.058 70.808a6.061 6.061 0 0 0 -1.521 4.008v212.586a38.974 38.974 0 0 0 -18.732 30.486 35.98 35.98 0 0 1 -11.165 5.757l-.019-.148a9.594 9.594 0 0 0 -9.128-6.809h-62.67a9.6 9.6 0 0 0 -9.209 12.171l33.112 118.854a9.572 9.572 0 0 0 9.211 6.975h66.31a9.523 9.523 0 0 0 9.144-12.307l-8.632-28.3 31.26-19.758a18.147 18.147 0 0 1 13.2-1.694c.18.045.362.083.545.111l55.194 8.535a65.96 65.96 0 0 0 45.592-9.59l108.102-68.997h95.16a5.725 5.725 0 0 0 5.725-5.725v-240.17a5.977 5.977 0 0 0 -.347-4.442zm-133.824 8.688h124.722l29.727 60h-154.449zm-6.3 72.325a5.988 5.988 0 0 0 1.935-.325h40.365v43h-81v-43h36.766a5.989 5.989 0 0 0 1.934.325zm-243.448 361.675-31.752-114h57.5l35 114zm204.305-60.916a53.924 53.924 0 0 1 -37.3 7.743l-54.934-8.546a30.1 30.1 0 0 0 -21.828 2.979c-.093.053-.186.1-.277.152l-28.659 18.111-20.896-67.223a48.306 48.306 0 0 0 17.489-9.942 5.535 5.535 0 0 0 2.01-4.258 27.165 27.165 0 0 1 27.324-27.1h1.874a39.374 39.374 0 0 0 30.462-14.688l23.771-29.256a14.589 14.589 0 0 1 19.522-2.954l.4.239a15.327 15.327 0 0 1 5.2 19.56c-9.5 18.885-23.627 47-23.627 47a6.4 6.4 0 0 0 .255 6.045 6.2 6.2 0 0 0 5.105 3.054h147.01zm3.443-71.084v-57.3l3.969 4.152a6.038 6.038 0 0 0 4.316 1.869 6.1 6.1 0 0 0 4.34-1.8l10.465-10.665 10.329 10.644a6 6 0 0 0 8.613 0l10.328-10.642 10.462 10.665a6.049 6.049 0 0 0 4.333 1.8 5.568 5.568 0 0 0 4.1-1.869l3.745-4.154v57.3zm200 0h-113v-72.338a5.789 5.789 0 0 0 -10.053-4.131l-9.962 10.546-10.385-10.447a5.788 5.788 0 0 0 -4.258-1.63h-.016a5.831 5.831 0 0 0 -4.29 1.652l-10.3 10.535-10.3-10.492a5.864 5.864 0 0 0 -4.29-1.695h-.016a5.845 5.845 0 0 0 -4.283 1.63l-10.415 10.532-10.011-10.589a6.028 6.028 0 0 0 -10.421 4.089v72.338h-35.823c4.933-10 13.076-26.225 19.256-38.516a27.5 27.5 0 0 0 -9.225-35.027l-.4-.318a26.522 26.522 0 0 0 -35.518 5.246l-23.77 29.355a27.408 27.408 0 0 1 -21.16 10.26h-1.874a39.806 39.806 0 0 0 -8.486.921v-201.921h37a6 6 0 0 0 0-12h-33.046l29.727-60h125.319v60h-82a6 6 0 0 0 0 12h37v48.784a6.172 6.172 0 0 0 5.981 6.216h93.492c3.313 0 5.527-2.9 5.527-6.216v-48.784h110z"/><path d="m176 133.763a6 6 0 0 0 -6 6v6.3a6 6 0 0 0 12 0v-6.3a6 6 0 0 0 -6-6z"/><path d="m176 159.058a6 6 0 0 0 -6 6v66a6 6 0 0 0 12 0v-66a6 6 0 0 0 -6-6z"/></g></svg>