<svg id="Layer_1" height="512" viewBox="0 0 512 512" width="512" xmlns="http://www.w3.org/2000/svg" data-name="Layer 1"><path d="m313.91 82.18-.24 57.46a1.568 1.568 0 0 1 -.05.37c-1.97 7.83-65.64 14.11-143.91 14.11s-141.94-6.28-143.91-14.11a1.568 1.568 0 0 1 -.05-.37l-.32-57.46.33-.07c1.97 7.82 65.64 14.1 143.91 14.1s141.94-6.28 143.91-14.1z" fill="#e8ad43"/><path d="m313.91 140.09-.29-.08c-1.97 7.83-65.64 14.11-143.91 14.11s-141.94-6.28-143.91-14.11l-.37.08.32 57.46a1.5 1.5 0 0 0 .05.37c1.97 7.83 65.64 14.11 143.91 14.11 42.44 0 80.59-1.85 106.94-4.78l.14.19 36.99-19.19-.11-.35z" fill="#dbbe42"/><path d="m313.63 81.74a1.568 1.568 0 0 1 -.05.37c-1.97 7.82-65.64 14.1-143.91 14.1s-141.94-6.28-143.91-14.1a1.568 1.568 0 0 1 -.05-.37c0-8 64.45-14.48 143.96-14.48s143.96 6.48 143.96 14.48z" fill="#efcd41"/><path d="m243.94 383.69c-21.68 1.31-47.08 1.93-74.23 1.93-79.51 0-143.96-6.62-143.96-14.62h-.32l.32 59.12c0 8 64.45 14.55 143.96 14.55 62.61 0 115.88-3.985 135.7-9.6l.02-.022z" fill="#dbbe42"/><path d="m276.65 207.25c-26.35 2.93-64.5 4.78-106.94 4.78-78.27 0-141.94-6.28-143.91-14.11l-.37.08.32 57.46a1.568 1.568 0 0 0 .05.37c1.97 7.83 65.64 14.11 143.91 14.11 22.02 0 42.88-.5 61.54-1.38l45.54-61.12z" fill="#e8ad43"/><path d="m224.17 326.78c-16.8.69-35.19 1.07-54.46 1.07-78.27 0-141.94-6.28-143.91-14.11l-.37.08.32 57.46c0 8 64.45 14.48 143.96 14.48 27.15 0 52.55-.76 74.23-2.07z" fill="#e8ad43"/><path d="m169.71 269.94c-78.27 0-141.94-6.28-143.91-14.11l-.37.08.32 57.46a1.5 1.5 0 0 0 .05.37c1.97 7.83 65.64 14.11 143.91 14.11 19.27 0 37.66-.38 54.46-1.07l7.08-58.22c-18.66.88-39.52 1.38-61.54 1.38z" fill="#dbbe42"/><circle cx="355.02" cy="313.2" fill="#f9db5d" r="131.2"/><circle cx="355.02" cy="313.2" fill="#efcd41" r="89.97"/><path d="m295.05 313.2a89.988 89.988 0 0 1 74.97-88.718 89.97 89.97 0 1 0 0 177.436 89.987 89.987 0 0 1 -74.97-88.718z" fill="#ceb032"/><path d="m25.8 197.92c.8 3.186 11.819 6.115 29.877 8.469l-.2-57.936c-17.939-2.353-28.877-5.269-29.677-8.443l-.37.08.32 57.46a1.5 1.5 0 0 0 .05.37z" fill="#ffdf5a"/><path d="m25.75 371h-.32l.32 59.12c0 3.329 11.167 6.406 29.928 8.866l-.2-59.121c-18.64-2.465-29.728-5.548-29.728-8.865z" fill="#ffdf5a"/><path d="m25.8 255.83-.37.08.32 57.46a1.5 1.5 0 0 0 .05.37c.8 3.186 11.819 6.115 29.877 8.469l-.2-57.936c-17.939-2.35-28.877-5.273-29.677-8.443z" fill="#ffdf5a"/><path d="m25.8 140.01c.8 3.186 11.819 6.115 29.877 8.469l-.2-57.929c-17.963-2.35-28.918-5.268-29.717-8.44l-.33.07.32 57.46a1.568 1.568 0 0 0 .05.37z" fill="#ffc45c"/><path d="m25.8 255.83c.8 3.186 11.819 6.115 29.877 8.469l-.2-57.936c-17.939-2.35-28.878-5.269-29.677-8.443l-.37.08.32 57.46a1.568 1.568 0 0 0 .05.37z" fill="#ffc45c"/><path d="m25.8 313.74-.37.08.32 57.46c0 3.329 11.167 6.394 29.927 8.839l-.2-57.936c-17.939-2.35-28.877-5.269-29.677-8.443z" fill="#ffc45c"/><g fill="#284268"><path d="m168 143a6 6 0 0 0 6-6v-21a6 6 0 0 0 -12 0v21a6 6 0 0 0 6 6z"/><path d="m136 142a6 6 0 0 0 6-6v-23a6 6 0 0 0 -12 0v23a6 6 0 0 0 6 6z"/><path d="m104 140a6 6 0 0 0 6-6v-23a6 6 0 0 0 -12 0v23a6 6 0 0 0 6 6z"/><path d="m72 138a6 6 0 0 0 6-6v-23a6 6 0 0 0 -12 0v23a6 6 0 0 0 6 6z"/><path d="m41 134a6 6 0 0 0 6-6v-22a6 6 0 0 0 -12 0v22a6 6 0 0 0 6 6z"/><path d="m200 142a6 6 0 0 0 6-6v-23a6 6 0 0 0 -12 0v23a6 6 0 0 0 6 6z"/><path d="m232 140a6 6 0 0 0 6-6v-23a6 6 0 0 0 -12 0v23a6 6 0 0 0 6 6z"/><path d="m265 138a6 6 0 0 0 6-6v-23a6 6 0 0 0 -12 0v23a6 6 0 0 0 6 6z"/><path d="m297 134a6 6 0 0 0 6-6v-22a6 6 0 0 0 -12 0v22a6 6 0 0 0 6 6z"/><path d="m168 201a6 6 0 0 0 6-6v-21a6 6 0 0 0 -12 0v21a6 6 0 0 0 6 6z"/><path d="m136 200a6 6 0 0 0 6-6v-23a6 6 0 0 0 -12 0v23a6 6 0 0 0 6 6z"/><path d="m104 198a6 6 0 0 0 6-6v-23a6 6 0 0 0 -12 0v23a6 6 0 0 0 6 6z"/><path d="m72 196a6 6 0 0 0 6-6v-23a6 6 0 0 0 -12 0v23a6 6 0 0 0 6 6z"/><path d="m41 192a6 6 0 0 0 6-6v-22a6 6 0 0 0 -12 0v22a6 6 0 0 0 6 6z"/><path d="m200 200a6 6 0 0 0 6-6v-23a6 6 0 0 0 -12 0v23a6 6 0 0 0 6 6z"/><path d="m232 198a6 6 0 0 0 6-6v-23a6 6 0 0 0 -12 0v23a6 6 0 0 0 6 6z"/><path d="m265 196a6 6 0 0 0 6-6v-23a6 6 0 0 0 -12 0v23a6 6 0 0 0 6 6z"/><path d="m168 226a6 6 0 0 0 -6 6v21a6 6 0 0 0 12 0v-21a6 6 0 0 0 -6-6z"/><path d="m136 223a6 6 0 0 0 -6 6v23a6 6 0 0 0 12 0v-23a6 6 0 0 0 -6-6z"/><path d="m104 221a6 6 0 0 0 -6 6v23a6 6 0 0 0 12 0v-23a6 6 0 0 0 -6-6z"/><path d="m72 219a6 6 0 0 0 -6 6v22a6 6 0 0 0 12 0v-22a6 6 0 0 0 -6-6z"/><path d="m41 216a6 6 0 0 0 -6 6v22a6 6 0 0 0 12 0v-22a6 6 0 0 0 -6-6z"/><path d="m200 223a6 6 0 0 0 -6 6v23a6 6 0 0 0 12 0v-23a6 6 0 0 0 -6-6z"/><path d="m168 283a6 6 0 0 0 -6 6v22a6 6 0 0 0 12 0v-22a6 6 0 0 0 -6-6z"/><path d="m136 281a6 6 0 0 0 -6 6v23a6 6 0 0 0 12 0v-23a6 6 0 0 0 -6-6z"/><path d="m104 279a6 6 0 0 0 -6 6v22a6 6 0 0 0 12 0v-22a6 6 0 0 0 -6-6z"/><path d="m72 277a6 6 0 0 0 -6 6v22a6 6 0 0 0 12 0v-22a6 6 0 0 0 -6-6z"/><path d="m41 274a6 6 0 0 0 -6 6v22a6 6 0 0 0 12 0v-22a6 6 0 0 0 -6-6z"/><path d="m200 281a6 6 0 0 0 -6 6v23a6 6 0 0 0 12 0v-23a6 6 0 0 0 -6-6z"/><path d="m168 375a6 6 0 0 0 6-6v-22a6 6 0 0 0 -12 0v22a6 6 0 0 0 6 6z"/><path d="m136 374a6 6 0 0 0 6-6v-23a6 6 0 0 0 -12 0v23a6 6 0 0 0 6 6z"/><path d="m104 371a6 6 0 0 0 6-6v-22a6 6 0 0 0 -12 0v22a6 6 0 0 0 6 6z"/><path d="m72 369a6 6 0 0 0 6-6v-22a6 6 0 0 0 -12 0v22a6 6 0 0 0 6 6z"/><path d="m41 366a6 6 0 0 0 6-6v-22a6 6 0 0 0 -12 0v22a6 6 0 0 0 6 6z"/><path d="m200 374a6 6 0 0 0 6-6v-23a6 6 0 0 0 -12 0v23a6 6 0 0 0 6 6z"/><path d="m168 400a6 6 0 0 0 -6 6v22a6 6 0 0 0 12 0v-22a6 6 0 0 0 -6-6z"/><path d="m136 398a6 6 0 0 0 -6 6v23a6 6 0 0 0 12 0v-23a6 6 0 0 0 -6-6z"/><path d="m104 396a6 6 0 0 0 -6 6v22a6 6 0 0 0 12 0v-22a6 6 0 0 0 -6-6z"/><path d="m72 394a6 6 0 0 0 -6 6v22a6 6 0 0 0 12 0v-22a6 6 0 0 0 -6-6z"/><path d="m41 390a6 6 0 0 0 -6 6v23a6 6 0 0 0 12 0v-23a6 6 0 0 0 -6-6z"/><path d="m200 398a6 6 0 0 0 -6 6v23a6 6 0 0 0 12 0v-23a6 6 0 0 0 -6-6z"/><path d="m232 396a6 6 0 0 0 -6 6v22a6 6 0 0 0 12 0v-22a6 6 0 0 0 -6-6z"/><path d="m355.022 175.653a137.254 137.254 0 0 0 -35.31 4.6l.2-40.135h-.25c.006-.15.015-.3.015-.451l.235-57.463h-.291c.007-.156.015-.311.015-.47 0-7.408-7.58-12.185-47.565-16.206-27.384-2.754-63.749-4.27-102.4-4.27s-75.013 1.516-102.4 4.27c-39.981 4.022-47.561 8.799-47.561 16.207 0 .161.008.32.016.478h-.292l.316 57.43c0 .161.009.319.017.478h-.333l.316 57.43c0 .161.009.319.016.477h-.332l.316 57.43c0 .162.012.319.021.477h-.337l.316 57.43c0 .163.012.32.021.479h-.337l.313 56.834h-.313l.316 59.576c0 7.408 7.581 12.185 47.566 16.206 27.384 2.754 63.749 4.27 102.4 4.27 59.563 0 113.334-3.738 135.451-9.355a136.845 136.845 0 0 0 49.858 9.355c75.842 0 137.543-61.7 137.543-137.544s-61.704-137.533-137.546-137.533zm-280.302-98.776c26.165-2.333 59.886-3.618 94.952-3.618s68.787 1.285 94.952 3.618c18.216 1.625 29.039 3.412 35.4 4.858-6.365 1.447-17.188 3.234-35.4 4.859-26.165 2.333-59.886 3.618-94.952 3.618s-68.787-1.285-94.952-3.618c-18.217-1.625-29.039-3.412-35.4-4.859 6.361-1.446 17.18-3.235 35.4-4.858zm-7.445 21.064c27.384 2.754 63.749 4.271 102.4 4.271s75.013-1.517 102.4-4.271c17.375-1.747 28.626-3.637 35.8-5.824l-.185 45.257c-2.924 1.289-12.8 4.433-43.02 7.129-26.164 2.333-59.885 3.618-94.951 3.618s-68.787-1.285-94.952-3.618c-30.234-2.7-40.1-5.842-43.023-7.13l-.249-45.251c7.169 2.184 18.416 4.078 35.78 5.819zm.041 57.91c27.384 2.753 63.749 4.27 102.4 4.27s75.013-1.517 102.4-4.27c17.337-1.744 28.575-3.63 35.752-5.808l-.167 34c-1.58.581-3.142 1.2-4.694 1.835v-21.878a6 6 0 0 0 -12 0v22a5.978 5.978 0 0 0 1.993 4.457 137.817 137.817 0 0 0 -18 10.933c-27.012 2.951-65.3 4.641-105.291 4.641-35.066 0-68.787-1.285-94.952-3.618-30.234-2.7-40.1-5.842-43.023-7.13l-.249-45.264c7.177 2.19 18.435 4.081 35.831 5.832zm164.684 65.149a6 6 0 0 0 -6 6v23a6 6 0 0 0 4.095 5.686q-1.6 3.475-3.029 7.048c-18.1.8-37.358 1.206-57.353 1.206-35.066 0-68.787-1.285-94.952-3.618-30.234-2.7-40.1-5.842-43.023-7.13l-.249-45.263c7.173 2.19 18.431 4.083 35.827 5.832 27.384 2.754 63.749 4.27 102.4 4.27 32.46 0 63.855-1.107 89.171-3.1a138.5 138.5 0 0 0 -20.887 26.069v-14a6 6 0 0 0 -6-6zm-14.294 100.021c-15.366.55-31.478.829-47.993.829-35.066 0-68.787-1.286-94.952-3.619-30.234-2.7-40.1-5.841-43.023-7.129l-.249-45.242c1.52.442 2.968.787 4.187 1.077 7.509 1.785 18.154 3.377 31.64 4.733 27.384 2.754 63.749 4.27 102.4 4.27 18.45 0 36.294-.344 53.19-1.018a137.12 137.12 0 0 0 -5.425 38.275c-.003 2.627.079 5.234.225 7.824zm-182.03 3.825c7.509 1.785 18.154 3.378 31.64 4.733 27.384 2.754 63.749 4.271 102.4 4.271 16.936 0 33.452-.293 49.194-.866a136.5 136.5 0 0 0 14.949 45.253c-19.816 1-41.772 1.523-64.143 1.523-35.066 0-68.787-1.285-94.952-3.618-30.234-2.7-40.1-5.842-43.023-7.13l-.249-45.242c1.517.441 2.965.786 4.184 1.076zm134.037 113.895c-35.066 0-68.787-1.285-94.952-3.618-30.234-2.7-40.1-5.842-43.022-7.13l-.246-46.334c7.173 2.189 18.43 4.081 35.823 5.83 27.384 2.754 63.749 4.271 102.4 4.271 25.013 0 49.53-.65 71.177-1.882a138.591 138.591 0 0 0 45.981 42.758c-26.036 3.753-69.585 6.105-117.161 6.105zm185.309 0a125.544 125.544 0 1 1 125.543-125.541 125.686 125.686 0 0 1 -125.543 125.541z"/><path d="m355.021 344.548a13.067 13.067 0 0 1 -13.051-13.048 6.006 6.006 0 0 0 -12.011 0 25 25 0 0 0 19.041 24.316v7.705a6 6 0 0 0 12 0v-7.705a25.049 25.049 0 0 0 -5.984-49.372 13.052 13.052 0 1 1 13.057-13.052 6 6 0 1 0 11.99 0 25.021 25.021 0 0 0 -19.063-24.321v-6.2a6 6 0 0 0 -12 0v6.2a25.052 25.052 0 0 0 6.016 49.373 13.052 13.052 0 1 1 0 26.1z"/><path d="m308.676 221.029a5.969 5.969 0 0 0 2.56-.577c2.671-1.263 5.429-2.422 8.2-3.446a6 6 0 1 0 -4.165-11.254c-3.093 1.144-6.175 2.44-9.16 3.852a6 6 0 0 0 2.569 11.425z"/><path d="m296.04 229.314a6 6 0 1 0 -6.912-9.81 114.767 114.767 0 0 0 -48.642 93.696 6 6 0 0 0 12 0 102.751 102.751 0 0 1 43.554-83.886z"/><path d="m359.246 217.317a95.756 95.756 0 0 0 -75.858 32.083 6 6 0 1 0 9.008 7.941 83.76 83.76 0 0 1 64.936-28.082c43.473 1.174 79.229 35.947 81.54 79.375a83.974 83.974 0 1 1 -164.656-18.254 5.984 5.984 0 0 0 -3.624-7.212h-.008a5.992 5.992 0 0 0 -7.919 3.921 95.976 95.976 0 1 0 96.581-69.767z"/></g></svg>