<svg id="Layer_1" height="512" viewBox="0 0 512 512" width="512" xmlns="http://www.w3.org/2000/svg" data-name="Layer 1"><path d="m113.26 295h-.49l-21.26-27h-74.43l78.01 145h364.79l35.04-118z" fill="#b3d1e7"/><path d="m113 261v32.95 1.05h368v-1.05-32.95z" fill="#5fa8ed"/><circle cx="420.32" cy="347.36" fill="#5fa8ed" r="15.5"/><circle cx="363.12" cy="347.36" fill="#5fa8ed" r="15.5"/><circle cx="305.92" cy="347.36" fill="#5fa8ed" r="15.5"/><path d="m248.73 331.86a15.5 15.5 0 1 1 -15.5 15.5 15.5 15.5 0 0 1 15.5-15.5z" fill="#5fa8ed"/><circle cx="191.53" cy="347.36" fill="#5fa8ed" r="15.5"/><circle cx="134.33" cy="347.36" fill="#5fa8ed" r="15.5"/><path d="m159.89 261.06v.12h-30.78v-.12-63.91h30.78z" fill="#6d7486"/><path d="m129.11 170.39h30.78v26.76h-30.78z" fill="#b0b5ca"/><path d="m370.87 180.37h-94.6-.52v80.41h95.27v-80.41z" fill="#daaa79"/><path d="m181 180.37h94.75v80.41h-94.75z" fill="#c79a83"/><path d="m324.87 99.24h-94.6v80.4.73h94.75v-.73-80.4z" fill="#c2684f"/><path d="m371.02 180.37h94.6v80.41h-94.6z" fill="#a07b67"/><path d="m325.02 99.24v80.4.73h94.6v-.73-80.4z" fill="#d9b089"/><path d="m405.12 180.37v.08 22.28l13.12-4.21 13.12 4.21v-22.28-.08z" fill="#81c83d"/><path d="m430.34 260.7v.08h-24.2v-.08-16.77h24.2z" fill="#fb6771"/><path d="m385.36 99.32v22.28l-13.12-4.21-13.12 4.21v-22.28-.08h26.24z" fill="#81c83d"/><path d="m360.14 162.8v16.77.8h24.2v-.8-16.77z" fill="#fb6771"/><path d="m310.52 180.37v.08 22.28l13.12-4.21 13.13 4.21v-22.28-.08z" fill="#81c83d"/><path d="m335.74 260.7v.08h-24.19v-.08-16.77h24.19z" fill="#fb6771"/><path d="m290.77 99.32v22.28l-13.13-4.21-13.12 4.21v-22.28-.08h26.25z" fill="#81c83d"/><path d="m265.55 162.8v16.77.8h24.19v-.8-16.77z" fill="#fb6771"/><path d="m215.25 180.37v.08 22.28l13.12-4.21 13.13 4.21v-22.28-.08z" fill="#81c83d"/><path d="m240.47 260.7v.08h-24.2v-.08-16.77h24.2z" fill="#fb6771"/><path d="m17.08 268 78.01 145h30l-78.01-145z" fill="#93b5c9"/><path d="m143 261h-30v32.95 1.05h30v-1.05z" fill="#5094cc"/><g fill="#284268"><path d="m420.317 368.859a21.5 21.5 0 1 0 -21.5-21.5 21.523 21.523 0 0 0 21.5 21.5zm0-31a9.5 9.5 0 1 1 -9.5 9.5 9.508 9.508 0 0 1 9.5-9.497z"/><path d="m363.12 368.859a21.5 21.5 0 1 0 -21.5-21.5 21.523 21.523 0 0 0 21.5 21.5zm0-31a9.5 9.5 0 1 1 -9.5 9.5 9.509 9.509 0 0 1 9.5-9.497z"/><path d="m305.922 368.859a21.5 21.5 0 1 0 -21.5-21.5 21.523 21.523 0 0 0 21.5 21.5zm0-31a9.5 9.5 0 1 1 -9.5 9.5 9.509 9.509 0 0 1 9.5-9.497z"/><path d="m248.725 368.859a21.5 21.5 0 1 0 -21.5-21.5 21.523 21.523 0 0 0 21.5 21.5zm0-31a9.5 9.5 0 1 1 -9.5 9.5 9.509 9.509 0 0 1 9.5-9.497z"/><path d="m170.029 347.36a21.5 21.5 0 1 0 21.5-21.5 21.523 21.523 0 0 0 -21.5 21.5zm31 0a9.5 9.5 0 1 1 -9.5-9.5 9.509 9.509 0 0 1 9.497 9.5z"/><path d="m134.33 325.862a21.5 21.5 0 1 0 21.5 21.5 21.522 21.522 0 0 0 -21.5-21.5zm0 31a9.5 9.5 0 1 1 9.5-9.5 9.509 9.509 0 0 1 -9.5 9.497z"/><path d="m143.716 384h-6.816a6 6 0 0 0 0 12h6.817a6 6 0 0 0 0-12z"/><path d="m156.744 390a6 6 0 0 0 6 6h117.165a6 6 0 0 0 0-12h-117.165a6 6 0 0 0 -6 6z"/><path d="m497.512 289.545a6.165 6.165 0 0 0 -2.647-.545h-7.865v-27.822a6.251 6.251 0 0 0 -6.113-6.178h-8.887v-74.628a6.666 6.666 0 0 0 -6.384-6.372h-39.616v-74.76a6.548 6.548 0 0 0 -6.384-6.24h-189.346a6.445 6.445 0 0 0 -6.27 6.24v74.76h-43a6.328 6.328 0 0 0 -6 6.372v74.628h-9v-84.611a6.438 6.438 0 0 0 -6.109-6.389h-30.779a6.44 6.44 0 0 0 -6.112 6.389v84.611h-9.742a6.379 6.379 0 0 0 -6.258 6.178v17.184l-10.921-13.977a5.865 5.865 0 0 0 -4.569-2.385h-74.095a6.565 6.565 0 0 0 -2.855.6 6.042 6.042 0 0 0 -2.765 8.338l78.013 144.775a6.13 6.13 0 0 0 5.281 3.287h364.8a6.11 6.11 0 0 0 5.752-4.41l35.039-117.9a6 6 0 0 0 -3.168-7.145zm-67.988-81.1a6.011 6.011 0 0 0 1.837.287 5.476 5.476 0 0 0 3.355-1.152 5.838 5.838 0 0 0 2.284-4.85v-16.73h23v69h-24v-11.072a5.658 5.658 0 0 0 -5.66-5.928h-24.2a6.063 6.063 0 0 0 -6.14 5.928v11.072h-23v-69h22v16.73a6.084 6.084 0 0 0 7.922 5.713l11.3-3.622zm-5.524 41.555v5h-12v-5zm-52.981-76h-5.019v-5h12v5zm53.981 12v8.5l-5.108-1.7a5.89 5.89 0 0 0 -3.634 0l-5.258 1.7v-8.5zm-60-81h14v8.374l-5.108-1.7a5.89 5.89 0 0 0 -3.634 0l-5.258 1.7zm-34 0h22v16.6a6.084 6.084 0 0 0 7.922 5.712l11.3-3.622 11.3 3.622a6.012 6.012 0 0 0 1.837.288 5.477 5.477 0 0 0 3.355-1.153 5.836 5.836 0 0 0 2.286-4.847v-16.6h23v69h-24v-11.2a5.548 5.548 0 0 0 -5.66-5.8h-24.2a5.955 5.955 0 0 0 -6.14 5.8v11.2h-23zm4.742 133h-24.2c-3.314 0-5.546 2.614-5.546 5.928v11.072h-23.996v-69h23v16.73a5.674 5.674 0 0 0 7.474 5.713l11.23-3.622 11.26 3.622a5.886 5.886 0 0 0 1.817.287 6.333 6.333 0 0 0 3.646-1.152 6.106 6.106 0 0 0 2.573-4.848v-16.73h22v69h-23v-11.072a6.165 6.165 0 0 0 -6.258-5.928zm-5.742 12v5h-12v-5zm-53.73-76c-.089 0-.174.009-.262.013s-.173-.013-.261-.013h-3.747v-5h12v5zm54.73 20.5-5.406-1.7a5.429 5.429 0 0 0 -3.485 0l-5.109 1.7v-8.5h14zm-60-89.5h14v8.374l-5.406-1.7a5.429 5.429 0 0 0 -3.485 0l-5.109 1.7zm-35 0h23v16.6a5.674 5.674 0 0 0 7.474 5.712l11.23-3.622 11.26 3.622a5.887 5.887 0 0 0 1.817.288 6.334 6.334 0 0 0 3.646-1.153 6.1 6.1 0 0 0 2.573-4.847v-16.6h22v69h-23v-11.2a6.056 6.056 0 0 0 -6.258-5.8h-24.2a5.457 5.457 0 0 0 -5.542 5.8v11.2h-24zm-15 81h14v8.5l-5.042-1.7a6 6 0 0 0 -3.667 0l-5.291 1.7zm-34 0h22v16.73a6.177 6.177 0 0 0 8.02 5.713l11.321-3.622 11.306 3.622a6.03 6.03 0 0 0 1.84.287 5.3 5.3 0 0 0 3.293-1.152 5.787 5.787 0 0 0 2.22-4.848v-16.73h23v69h-24v-11.072c0-3.314-2.216-5.928-5.529-5.928h-24.2a6.18 6.18 0 0 0 -6.271 5.928v11.072h-23zm47 64v5h-12v-5zm-99-74h19v15h-19zm0 27h19v52h-19zm320.408 204h-356.738l-71.541-133h61.485l19.459 24.615a6.114 6.114 0 0 0 4.7 2.385h45.227a6 6 0 0 0 0-12h-39v-22h356v22h-277a6 6 0 0 0 0 12h288.881z"/></g></svg>