<svg id="Layer_1" height="512" viewBox="0 0 512 512" width="512" xmlns="http://www.w3.org/2000/svg" data-name="Layer 1"><path d="m215 214h82v33h-82z" fill="#efc597"/><path d="m339.8 137.31a13.623 13.623 0 0 0 -11.8-10.15v-29.7l-.44-.46h-.01l-143.12.335-.43.325v29.49a13.637 13.637 0 0 0 -11.82 10.16 18.691 18.691 0 0 0 3.563 15.68 17.73 17.73 0 0 0 10.257 6v.11a69.528 69.528 0 0 0 20.6 49.21 70.733 70.733 0 0 0 8.595 7.23 69.728 69.728 0 0 0 81.689-.11 72.85 72.85 0 0 0 8.533-7.12 69.555 69.555 0 0 0 20.583-49.21v-.12a17.874 17.874 0 0 0 14.452-17.44 17.451 17.451 0 0 0 -.652-4.23z" fill="#ffd8b7"/><path d="m425.09 316.048a86.588 86.588 0 0 0 -55.9-49.594l-8.025-2.257h-210.33l-7.958 2.26a86.586 86.586 0 0 0 -62.729 80.9l1.062 132.483a15.04 15.04 0 0 0 15 15.16h319.58a15.212 15.212 0 0 0 15-15.36l1.07-132.285a86.533 86.533 0 0 0 -6.77-31.307z" fill="#fb6771"/><path d="m432.69 465.58c-1.01-11.1-10.7-19.79-22.03-20.62l-33.31-2.44-10.35 25.47v27.01h50.79a15.212 15.212 0 0 0 15-15.36z" fill="#efc597"/><path d="m432.28 407.09.41 58.49c-1.01-11.1-10.7-19.79-22.03-20.62l-33.39-2.44v-35.43z" fill="#ffd8b7"/><path d="m134.65 442.52-28.54 2.81c-14.76 1.35-26.58 12.67-26.58 27.67h-.27l-.05 6.84a15.04 15.04 0 0 0 15 15.16h50.79v-27.01z" fill="#efc597"/><path d="m134.73 407.09v35.43l-28.58 2.61c-14.76 1.35-26.62 12.65-26.62 27.47h-.27l.46-65.51z" fill="#ffd8b7"/><path d="m134.73 296.46h242.54v171.53h-242.54z" fill="#af8977"/><path d="m351.8 245.01h-95.8v51.45h121.27z" fill="#c79a83"/><path d="m160.2 245.01-25.47 51.45h121.27v-51.45z" fill="#e1b7a3"/><path d="m224.21 296.46v.17 38.55h66.46v-38.55-.17z" fill="#7f5d4a"/><path d="m288.49 467.82v.17h-62.1v-.17-55.23l10.16 10.7 10.5-10.7 10.39 10.7 10.39-10.7 10.5 10.7 10.16-10.7z" fill="#b3d1e7"/><path d="m134.73 296.46h30v171.53h-30z" fill="#916d5e"/><path d="m160.2 245.01-25.47 51.45h30l25.47-51.45z" fill="#cca08f"/><path d="m245.2 215.54a70.733 70.733 0 0 1 -8.595-7.23 69.528 69.528 0 0 1 -20.605-49.21v-.11l-2-61.33.43-.325h-30l-.43.325v29.49a13.637 13.637 0 0 0 -11.82 10.16 18.691 18.691 0 0 0 3.563 15.68 17.73 17.73 0 0 0 10.257 6v.11a69.528 69.528 0 0 0 20.6 49.21 70.733 70.733 0 0 0 8.595 7.23 69.747 69.747 0 0 0 55.774 11.528 69.3 69.3 0 0 1 -25.769-11.528z" fill="#e0b899"/><path d="m332.18 85.13a10.3 10.3 0 0 1 -3 8.77 10.486 10.486 0 0 1 -7.4 3.04l-131.54.12a10.533 10.533 0 0 1 -7.47-3.09 10.318 10.318 0 0 1 -2.95-8.73 85.524 85.524 0 0 1 5.64-20.96c11.7-28.48 39.77-46.8 70.56-46.8a77.094 77.094 0 0 1 42.43 12.7 74.856 74.856 0 0 1 28.12 34.05 85.34 85.34 0 0 1 5.61 20.9z" fill="#5fa8ed"/><path d="m329.18 93.9.11.12-1.73 3.29h-.01l-13.25 25.17h-116.6l-13.16-24.99-1.83-3.47.06-.05a10.533 10.533 0 0 0 7.47 3.09l131.54-.12a10.486 10.486 0 0 0 7.4-3.04z" fill="#49bdff"/><g fill="#284268"><path d="m437.862 347.3a92.656 92.656 0 0 0 -67.02-86.589l-5.333-1.536-8.333-16.835a6 6 0 0 0 -5.376-3.34h-48.8v-20.7c16-13 27.227-32.636 28.506-54.8a24.189 24.189 0 0 0 14.126-27.615 18.623 18.623 0 0 0 -11.632-13.42v-24.194l.677-1.451a16.309 16.309 0 0 0 3.492-12.508 91.536 91.536 0 0 0 -6.028-22.359c-12.592-30.659-42.472-50.47-76.108-50.47s-63.513 19.828-76.122 50.517a91.819 91.819 0 0 0 -6.032 22.433 16.269 16.269 0 0 0 3.605 12.742l.516 1.189v24.08a18.632 18.632 0 0 0 -11.652 13.439 24.041 24.041 0 0 0 14.159 27.633c1.282 22.141 12.493 41.75 28.493 54.753v20.731h-48.8a6 6 0 0 0 -5.377 3.34l-8.323 16.82-5.339 1.535a92.615 92.615 0 0 0 -67.021 86.544v.118l-.928 132a21.423 21.423 0 0 0 6.088 15.194 21.091 21.091 0 0 0 14.908 6.449h323.584a21.091 21.091 0 0 0 14.905-6.449 20.583 20.583 0 0 0 6.095-14.828l-.928-132.245c0-.039-.001-.139-.002-.178zm-11.316 97.148a30.586 30.586 0 0 0 -15.449-5.494l-28.097-2.047v-23.907h43.325zm-78.472-193.448 19.3 39h-105.374v-39zm-63.074 51v27h-55v-27zm-64-63v-12.9a76.912 76.912 0 0 0 35.024 8.6 73.9 73.9 0 0 0 34.976-8.578v12.878zm-35.234-152.944a79.786 79.786 0 0 1 5.239-19.5c10.752-26.166 36.273-43.074 65.017-43.074s54.262 16.89 65 43.03a79.51 79.51 0 0 1 5.216 19.425 4.317 4.317 0 0 1 -1.045 3.45 4.48 4.48 0 0 1 -3.414 1.526l-131.547.087a4.48 4.48 0 0 1 -3.415-1.522 4.238 4.238 0 0 1 -1.051-3.422zm132.034 16.649-7.121 13.295h-109.358l-7.068-13.307zm-125.8 56.395v-.106a5.818 5.818 0 0 0 -4.753-5.91 11.6 11.6 0 0 1 -9.574-11.54 11.759 11.759 0 0 1 .389-2.8 7.253 7.253 0 0 1 6.573-5.612 5.926 5.926 0 0 0 5.365-5.981v-5.99l2.279 3.877a5.961 5.961 0 0 0 5.421 2.962h116.6a5.924 5.924 0 0 0 5.4-2.962l2.3-3.969v6.087a5.925 5.925 0 0 0 5.343 5.973 7.3 7.3 0 0 1 6.586 5.611 11.773 11.773 0 0 1 .314 2.8 11.532 11.532 0 0 1 -9.471 11.536 5.844 5.844 0 0 0 -4.772 5.907v.112c0 35.069-28.932 63.6-63.995 63.6s-64.005-28.531-64.005-63.595zm-106.325 253.9h43.325v24.061l-23.4 2.121a36.367 36.367 0 0 0 -20.171 8.232zm53.325 76h-44.792a9.183 9.183 0 0 1 -6.388-2.9 8.77 8.77 0 0 1 -2.612-6.335l.049-6.765h.269c0-12 8.9-20.572 21.172-21.695l22.3-2.119v19.085a5.729 5.729 0 0 0 5.731 5.729h4.271zm-9.648-195.2a5.976 5.976 0 0 0 -.352 4.426v102.774h-43.241l.376-53.543a80.561 80.561 0 0 1 53.046-73.515zm231.648 195.2h-210v-15h210zm-129-27v-34.385c1 1.063 2.966 1.385 4.5 1.385h.049a5.864 5.864 0 0 0 4.283-1.652l6.194-6.241 6.1 6.328a5.99 5.99 0 0 0 8.612.028l6.1-6.287 6.194 6.169a5.864 5.864 0 0 0 4.295 1.655h.049a4.453 4.453 0 0 0 3.624-1.385v34.385zm139 0h-77v-49.411a5.742 5.742 0 0 0 -9.985-4.131l-5.82 6.194-6.115-6.059a5.747 5.747 0 0 0 -4.253-1.593h-.016a5.8 5.8 0 0 0 -4.29 1.616l-6.081 6.164-6.081-6.113a5.842 5.842 0 0 0 -4.29-1.667h-.016a5.819 5.819 0 0 0 -4.283 1.593l-6.146 6.162-5.88-6.246a6.323 6.323 0 0 0 -6.771-1.467 6.148 6.148 0 0 0 -3.973 5.547v49.411h-79v-160h25a6 6 0 0 0 0-12h-21.377l19.3-39h86.077v39h-44a6 6 0 0 0 0 12h12v33.181a6.029 6.029 0 0 0 6.206 5.819h66.468c3.314 0 6.326-2.506 6.326-5.819v-33.181h74zm32.1-168.465a80.3 80.3 0 0 1 22.77 53.923l.371 53.542h-43.241v-102.774a5.973 5.973 0 0 0 -.352-4.425l-9.821-19.843a80.752 80.752 0 0 1 30.273 19.577zm21.08 192.565a9.183 9.183 0 0 1 -6.388 2.9h-44.792v-15h4.271a5.729 5.729 0 0 0 5.729-5.729v-19.324l27.221 2c8.543.625 15.594 7.166 16.475 14.936l.1 13.568a9.512 9.512 0 0 1 -2.616 6.649z"/><path d="m169 314.763a6 6 0 0 0 -6 6v6.3a6 6 0 0 0 12 0v-6.3a6 6 0 0 0 -6-6z"/><path d="m169 340.058a6 6 0 0 0 -6 6v66a6 6 0 0 0 12 0v-66a6 6 0 0 0 -6-6z"/></g></svg>