<svg id="Layer_1" height="512" viewBox="0 0 512 512" width="512" xmlns="http://www.w3.org/2000/svg" data-name="Layer 1"><path d="m431 277h26v214h-26z" fill="#5fa8ed"/><path d="m343.98 282.67h44v204.09h-44z" fill="#fb6771"/><path d="m299.99 282.67h43.99v204.09h-43.99z" fill="#e75163"/><path d="m256 282.67h43.99v204.09h-43.99z" fill="#fb6771"/><path d="m212.01 282.67h43.99v204.09h-43.99z" fill="#e75163"/><path d="m168.02 282.67h43.99v204.09h-43.99z" fill="#fb6771"/><path d="m124.02 282.67h44v204.09h-44z" fill="#e75163"/><path d="m55 277h26v214h-26z" fill="#5fa8ed"/><path d="m388 283h43v204h-43z" fill="#e75163"/><path d="m81 283h43v204h-43z" fill="#fb6771"/><path d="m239.17 20.58h37.32v31.03h-37.32z" fill="#b0b5ca"/><path d="m224 50h68v31h-68z" fill="#6d7486"/><path d="m81 283h24v204h-24z" fill="#ff97a1"/><path d="m224 50h24v31h-24z" fill="#b0b5ca"/><path d="m457.344 271h-26.395a5.567 5.567 0 0 0 -5.845 4.613l-149.445-92.652a36.656 36.656 0 0 0 15.405-17.937 6 6 0 1 0 -11.128-4.49 24.552 24.552 0 0 1 -17.759 14.934 6 6 0 0 0 -2.5.387 24.782 24.782 0 1 1 -2.557-49.447 6.042 6.042 0 0 0 6-5.937l.613-33.471h28.757c3.313 0 5.51-2.591 5.51-5.9v-31.492a5.276 5.276 0 0 0 -5.51-5.608h-10.49v-23.424a5.254 5.254 0 0 0 -5.515-5.576h-37.318c-3.314 0-6.167 2.263-6.167 5.576v23.424h-8.695c-3.313 0-6.305 2.3-6.305 5.608v31.492a6.188 6.188 0 0 0 6.305 5.9h27.426l-.512 27.838a36.865 36.865 0 0 0 -7.958 70.409l-156.352 90.453a5.568 5.568 0 0 0 -5.858-4.7h-26.4a5.582 5.582 0 0 0 -5.651 5.842v214.582a5.366 5.366 0 0 0 5.656 5.576h26.4a6.247 6.247 0 0 0 5.845-4h338.199a6.247 6.247 0 0 0 5.845 4h26.395a5.366 5.366 0 0 0 5.66-5.576v-214.582a5.582 5.582 0 0 0 -5.656-5.842zm-212.344-244h25v17h-25zm-15 48v-19h56v19zm-155 410h-14v-202h14zm186.724-296.56 142.844 88.56h-295.931zm-99.724 292.56h-32v-126a6 6 0 0 0 -12 0v126h-31v-192h31v26a6 6 0 0 0 12 0v-26h32zm44 0h-32v-192h32zm44 0h-32v-192h32zm44 0h-32v-192h32zm44 0h-32v-192h32zm44 0h-32v-192h32zm43 0h-31v-192h31zm26 4h-14v-202h14z" fill="#284268"/></svg>