<svg id="Layer_1" height="512" viewBox="0 0 512 512" width="512" xmlns="http://www.w3.org/2000/svg" data-name="Layer 1"><path d="m158 117.89v46l336 20v-46z" fill="#b3d1e7"/><path d="m430.37 402.14a29.39 29.39 0 1 1 -29.39 29.39 29.384 29.384 0 0 1 29.39-29.39z" fill="#7d8595"/><circle cx="211.11" cy="431.53" fill="#7d8595" r="29.39"/><path d="m18 51h92v38h-92z" fill="#e77187"/><path d="m494.21 183.89v87.31a39.993 39.993 0 0 1 -35.97 39.79l-17.97 1.58-.06-.65v-131.24z" fill="#f8e6e2"/><path d="m440.21 311.92.06.65-50.06 4.4v-139.27l50 2.98z" fill="#f8d2c5"/><path d="m390.21 177.7v139.27l-59.97 5.27-.03-.39v-147.72z" fill="#f8e6e2"/><path d="m330.21 321.85.03.39-59.97 5.26-.06-.65v-156.23-.06l60 3.57z" fill="#f8d2c5"/><path d="m270.21 326.85.06.65-60.06 5.28v-165.74-.05l60 3.57v.06z" fill="#f8e6e2"/><path d="m210.21 167.04v165.74l-52 4.57v-173.46l52 3.1z" fill="#f8d2c5"/><path d="m188.21 165.678-30-1.788v173.46l30-2.637z" fill="#ceafaa"/><path d="m158 163.89 30 1.786v-46l-30-1.786z" fill="#89a2ad"/><path d="m18 51h30v38h-30z" fill="#c1677b"/><g fill="#284268"><path d="m494.461 131.9-330.461-19.675v-11.006c0-20.349-16.345-37.219-36.694-37.219h-11.306v-12.919a6.252 6.252 0 0 0 -6.21-6.081h-92a5.9 5.9 0 0 0 -5.79 6.081v37.719a6 6 0 0 0 5.79 6.2h92a6.361 6.361 0 0 0 6.21-6.2v-12.8h11.306c13.732 0 24.694 11.487 24.694 25.219v258.628a46.162 46.162 0 0 0 35.964 44.859 35.4 35.4 0 1 0 58.525 26.9c0-10.106-4.252-19.607-11.068-25.607h170.637c-6.816 6-11.081 15.5-11.081 25.607a35.389 35.389 0 0 0 70.778.019c0-10.106-4.265-19.626-11.081-25.626h6.172a6 6 0 0 0 0-12h-262.636a34.35 34.35 0 0 1 -34.21-34.152v-16.989l294.717-25.9a45.8 45.8 0 0 0 41.283-45.758v-133.312a5.911 5.911 0 0 0 -5.539-5.988zm-390.461-48.9h-80v-26h80zm326.366 325.141a23.389 23.389 0 1 1 -23.389 23.389 23.415 23.415 0 0 1 23.389-23.389zm-219.253 0a23.389 23.389 0 1 1 -23.389 23.389 23.415 23.415 0 0 1 23.389-23.389zm-7.113-80.857-40 3.522v-160.556l40 2.386zm120-10.54-48 4.216v-144.038l48 2.857zm60-5.271-48 4.216v-135.2l48 2.858zm50-4.392-38 3.338v-126.354l38 2.262zm54-35.881a33.884 33.884 0 0 1 -30.492 33.819l-11.508 1.008v-118.986l42 2.5zm0-93.677-225.749-13.479a6.214 6.214 0 0 0 -6.3 5.956h.026a6.073 6.073 0 0 0 5.551 6.022l2.475.186v145.806l-48 4.216v-152.879l5.539.323a6.044 6.044 0 0 0 6.409-5.989 5.979 5.979 0 0 0 -5.617-5.99l-58.334-3.472v-33.972l324 19.29z"/><path d="m199.776 150.693 6.287.328c.106.005.211.008.317.008a6 6 0 0 0 .306-11.992l-6.287-.327a6 6 0 1 0 -.623 11.983z"/><path d="m225.037 152.008 75.9 3.949c.107 0 .212.008.317.008a6 6 0 0 0 .307-11.992l-75.9-3.949a6 6 0 0 0 -.623 11.984z"/></g></svg>