<svg id="Layer_1" height="512" viewBox="0 0 512 512" width="512" xmlns="http://www.w3.org/2000/svg" data-name="Layer 1"><path d="m495.8 127.57v256.86h-479.6v-256.86z" fill="#58935e"/><path d="m433.71 159h-356.42c0 18-14.29 31.38-31.29 31.88v130.24c17 .5 31.29 14.88 31.29 32.88h356.42c0-18 13.29-32.38 30.29-32.88v-130.24c-17-.5-30.29-13.88-30.29-31.88z" fill="#7fd695"/><path d="m413 235.58a20.42 20.42 0 1 1 -20.42 20.42 20.415 20.415 0 0 1 20.42-20.42z" fill="#61b257"/><path d="m256 160.02a95.98 95.98 0 1 1 -95.98 95.98 95.978 95.978 0 0 1 95.98-95.98zm69.71 95.98a69.71 69.71 0 1 0 -69.71 69.71 69.71 69.71 0 0 0 69.71-69.71z" fill="#61b257"/><path d="m99 235.58a20.42 20.42 0 1 1 -20.41 20.42 20.417 20.417 0 0 1 20.41-20.42z" fill="#61b257"/><path d="m76 321.12v-130.24c17-.5 31.29-13.88 31.29-31.88h-30c0 18-14.29 31.38-31.29 31.88v130.24c17 .5 31.29 14.88 31.29 32.88h30c0-18-14.29-32.38-31.29-32.88z" fill="#6db57c"/><g fill="#284268"><path d="m256 180.291a75.709 75.709 0 1 0 75.709 75.709 75.795 75.795 0 0 0 -75.709-75.709zm0 139.418a63.709 63.709 0 1 1 63.709-63.709 63.781 63.781 0 0 1 -63.709 63.709z"/><path d="m256 225.766a11.778 11.778 0 0 1 11.766 11.765 6 6 0 0 0 12 0 23.808 23.808 0 0 0 -17.766-23v-5.46a6 6 0 0 0 -12 0v5.46a23.766 23.766 0 0 0 6 46.763 11.766 11.766 0 1 1 -11.766 11.766 6 6 0 0 0 -12 0 23.806 23.806 0 0 0 17.766 23v6.866a6 6 0 0 0 12 0v-6.866a23.766 23.766 0 0 0 -6-46.763 11.766 11.766 0 1 1 0-23.531z"/><path d="m16 391h480a6 6 0 0 0 6-6v-257a6 6 0 0 0 -6-6h-480a6 6 0 0 0 -6 6v257a6 6 0 0 0 6 6zm6-257h468v244h-468z"/><path d="m72.585 256a26.418 26.418 0 1 0 26.415-26.417 26.448 26.448 0 0 0 -26.415 26.417zm40.835 0a14.418 14.418 0 1 1 -14.42-14.417 14.433 14.433 0 0 1 14.42 14.417z"/><path d="m413 229.583a26.417 26.417 0 1 0 26.415 26.417 26.447 26.447 0 0 0 -26.415-26.417zm0 40.834a14.417 14.417 0 1 1 14.415-14.417 14.433 14.433 0 0 1 -14.415 14.417z"/><path d="m464.244 184.887c-14-.382-24.565-11.551-24.538-25.942a5.976 5.976 0 0 0 -6-5.945h-294.706a6 6 0 0 0 0 12h71.01a101.954 101.954 0 0 0 2.022 183h-129.203a39.041 39.041 0 0 0 -30.829-32.243v-119.481a37.829 37.829 0 0 0 30.825-31.276h16.175a6 6 0 0 0 0-12h-21.706a5.986 5.986 0 0 0 -6 5.969 25.95 25.95 0 0 1 -25.565 25.919 5.958 5.958 0 0 0 -5.729 6v130.229a6.028 6.028 0 0 0 5.719 5.994c14.111.363 25.6 12.478 25.575 26.944a5.975 5.975 0 0 0 6 5.945h356.412a5.966 5.966 0 0 0 6-5.921c-.039-14.72 10.747-26.58 24.515-26.966a5.98 5.98 0 0 0 5.779-6v-130.23a5.971 5.971 0 0 0 -5.756-5.996zm-298.22 71.113a89.976 89.976 0 1 1 89.976 89.976 90.078 90.078 0 0 1 -89.976-89.976zm291.976 59.761c-15.532 2.993-27.487 15.892-29.863 32.239h-128.169a101.954 101.954 0 0 0 2.022-183h126.15a36.674 36.674 0 0 0 29.86 31.273z"/></g></svg>