<svg id="Layer_1" height="512" viewBox="0 0 512 512" width="512" xmlns="http://www.w3.org/2000/svg" data-name="Layer 1"><path d="m374.66 399.43a19.43 19.43 0 0 0 -17.64-19.35l.01-.17a17.632 17.632 0 0 0 17.63-17.63 17.158 17.158 0 0 0 -5.16-12.29 17.435 17.435 0 0 0 -12.47-4.99h-68.1a14.9 14.9 0 0 1 -2.915-.47l-.015-.3v-10.23h41.2c20.45 0 30.8-16.25 30.8-36.7v-.3h-111.95c-14.88 0-22.09 6.85-26.3 14.73a58.85 58.85 0 0 1 -33.5 28.5l-.24-.1a20.439 20.439 0 0 1 -6.46.862h-5.32l-14.53 125.933.56.075h21.29a105.209 105.209 0 0 1 55.37 15.89 70.653 70.653 0 0 0 26.59 9.43c9.32 1.48 19.01 1.68 28.79 1.68h54.91a18.725 18.725 0 0 0 18.77-18.715 18.1 18.1 0 0 0 -5.5-13.027 18.465 18.465 0 0 0 -13.27-5.258h8.6a19 19 0 0 0 0-38h-.58a19.547 19.547 0 0 0 19.43-19.57z" fill="#ffd8b7"/><path d="m105.66 326-19.94 173h70.29l19.93-173z" fill="#9be147"/><path d="m286 249.91v94.32l.015.3 36.985.47v-1-95.26z" fill="#b3d1e7"/><path d="m323.47 248.74-8.57 5.65a20.017 20.017 0 0 1 -22.02 0l-6.79-4.48-5.43-3.58a19.984 19.984 0 0 0 -12.11-3.27l-14.78.81a19.991 19.991 0 0 1 -18.95-10.95l-6.62-13.1a19.948 19.948 0 0 0 -8.83-8.83l-13.1-6.62a19.991 19.991 0 0 1 -10.95-18.95l.81-14.78a19.984 19.984 0 0 0 -3.27-12.11l-8.06-12.22a20.017 20.017 0 0 1 0-22.02l8.06-12.22a19.965 19.965 0 0 0 3.27-12.11l-.81-14.78a20 20 0 0 1 10.95-18.95l13.1-6.61a19.97 19.97 0 0 0 8.83-8.84l6.62-13.1a20.008 20.008 0 0 1 18.95-10.95l14.78.82a20.06 20.06 0 0 0 12.11-3.28l12.22-8.05a19.979 19.979 0 0 1 22.02 0l12.22 8.05a20.042 20.042 0 0 0 12.11 3.28l14.78-.82a20.018 20.018 0 0 1 18.95 10.95l6.61 13.1a19.992 19.992 0 0 0 8.84 8.84l13.1 6.61a20.018 20.018 0 0 1 10.95 18.95l-.82 14.78a20.042 20.042 0 0 0 3.28 12.11l8.05 12.22a19.979 19.979 0 0 1 0 22.02l-8.05 12.22a20.06 20.06 0 0 0 -3.28 12.11l.82 14.78a20.008 20.008 0 0 1 -10.95 18.95l-13.1 6.62a19.97 19.97 0 0 0 -8.84 8.83l-6.61 13.1a20 20 0 0 1 -18.95 10.95l-14.78-.81a19.965 19.965 0 0 0 -12.11 3.27z" fill="#fb6771"/><path d="m303.89 51.91a83.4 83.4 0 1 1 -83.4 83.39 83.384 83.384 0 0 1 83.4-83.39z" fill="#ececf7"/><path d="m325.64 143.46a13.59 13.59 0 1 1 -13.6 13.59 13.591 13.591 0 0 1 13.6-13.59z" fill="#6addc7"/><path d="m282.14 99.96a13.6 13.6 0 1 1 -13.59 13.59 13.591 13.591 0 0 1 13.59-13.59z" fill="#6addc7"/><circle cx="124.5" cy="465.04" fill="#eadf53" r="8.39"/><path d="m105.66 326-19.94 173h20l19.94-173z" fill="#7aba36"/><path d="m240.49 135.3a83.387 83.387 0 0 1 73.4-82.772 83.4 83.4 0 1 0 0 165.554 83.4 83.4 0 0 1 -73.4-82.782z" fill="#c9c9d6"/><g fill="#284268"><path d="m282.14 93.959a19.594 19.594 0 1 0 19.592 19.594 19.616 19.616 0 0 0 -19.592-19.594zm0 27.187a7.594 7.594 0 1 1 7.592-7.593 7.6 7.6 0 0 1 -7.592 7.593z"/><path d="m306.044 157.05a19.593 19.593 0 1 0 19.593-19.593 19.615 19.615 0 0 0 -19.593 19.593zm27.186 0a7.593 7.593 0 1 1 -7.593-7.593 7.6 7.6 0 0 1 7.593 7.593z"/><path d="m329.961 100.744-60.63 60.63a6 6 0 1 0 8.484 8.485l60.63-60.63a6 6 0 0 0 -8.484-8.485z"/><path d="m393.237 132.29a89.638 89.638 0 0 0 -84.1-86.342c-46.525-2.7-86 30.846-93.392 74.308a5.8 5.8 0 0 0 5.739 6.744h.362a5.773 5.773 0 0 0 5.717-4.774 77.516 77.516 0 1 1 2.755 36.854 5.859 5.859 0 0 0 -5.548-4.08h-.421a5.829 5.829 0 0 0 -5.515 7.658 89.386 89.386 0 0 0 174.4-30.368z"/><path d="m85.724 505h70.288a6.059 6.059 0 0 0 5.96-5.379l3.066-26.621h16.509a99.016 99.016 0 0 1 52.211 14.944c17.852 11.075 37.876 12.056 58.542 12.056h54.919a24.7 24.7 0 0 0 19.472-39.974 24.809 24.809 0 0 0 5.107-41.328 25.378 25.378 0 0 0 .332-38.257 23.225 23.225 0 0 0 8.536-17.987 23.507 23.507 0 0 0 -23.638-23.454h-18.377c15.575-5 25.349-20.384 25.349-41.7v-.721c0-3.314-2.91-5.583-6.224-5.583h-28.776v-39.033l1.184-.625a14.49 14.49 0 0 1 8.594-2.29l14.838.813a26 26 0 0 0 24.666-14.237l6.632-13.1a13.92 13.92 0 0 1 6.19-6.184l13.1-6.616a26 26 0 0 0 14.239-24.637l-.812-14.778a14.1 14.1 0 0 1 2.29-8.477l8.058-12.22a25.969 25.969 0 0 0 0-28.624l-8.056-12.219a14.092 14.092 0 0 1 -2.291-8.477l.813-14.779a26 26 0 0 0 -14.237-24.636l-13.1-6.617a14.094 14.094 0 0 1 -6.183-6.183l-6.617-13.1a25.984 25.984 0 0 0 -24.637-14.237l-14.779.813a14.072 14.072 0 0 1 -8.475-2.291l-12.217-8.055a25.971 25.971 0 0 0 -28.624 0l-12.22 8.057a14.126 14.126 0 0 1 -8.475 2.291l-14.78-.813a25.991 25.991 0 0 0 -24.636 14.237l-6.617 13.1a13.908 13.908 0 0 1 -6.183 6.183l-13.1 6.617a26 26 0 0 0 -14.236 24.636l.813 14.778a14.1 14.1 0 0 1 -2.291 8.477l-8.058 12.22a25.973 25.973 0 0 0 0 28.624l8.058 12.22a14.1 14.1 0 0 1 2.291 8.477l-.813 14.778a26 26 0 0 0 14.237 24.637l13.1 6.616a13.91 13.91 0 0 1 6.183 6.184l6.617 13.1a26 26 0 0 0 24.634 14.235l14.78-.813a13.992 13.992 0 0 1 8.432 2.291l2.687 1.8v37.861h-33.952c-14.539 0-25.166 5.884-31.588 17.9a52.729 52.729 0 0 1 -30.084 25.63l-.23.024a14.7 14.7 0 0 1 -3.166.629l.926-8.025a6.537 6.537 0 0 0 -1.481-4.914 6.243 6.243 0 0 0 -4.48-2.243h-70.288a6.2 6.2 0 0 0 -5.96 5.54l-19.933 172.744a6.023 6.023 0 0 0 5.961 6.715zm265.823-202c-1.956 20.839-15.928 24.439-22.547 24.931v-24.931zm-81.926-65.972q-.7 0-1.4.038l-14.779.814a13.984 13.984 0 0 1 -13.266-7.667l-6.617-13.1a25.822 25.822 0 0 0 -11.484-11.485l-13.1-6.616a14 14 0 0 1 -7.667-13.266l.814-14.78a26.179 26.179 0 0 0 -4.254-15.74l-8.058-12.22a13.983 13.983 0 0 1 0-15.413l8.058-12.22a26.18 26.18 0 0 0 4.254-15.741l-.814-14.78a14 14 0 0 1 7.667-13.265l13.1-6.617a25.821 25.821 0 0 0 11.483-11.483l6.617-13.1a14 14 0 0 1 13.266-7.667l14.779.814a26.121 26.121 0 0 0 15.741-4.254l12.22-8.058a13.985 13.985 0 0 1 15.413 0l12.22 8.057a26.132 26.132 0 0 0 15.742 4.255l14.778-.814a14.031 14.031 0 0 1 13.266 7.67l6.617 13.1a25.83 25.83 0 0 0 11.483 11.482l13.1 6.617a14 14 0 0 1 7.665 13.266l-.814 14.779a26.184 26.184 0 0 0 4.255 15.741l8.057 12.219a13.987 13.987 0 0 1 0 15.414l-8.059 12.221a26.185 26.185 0 0 0 -4.254 15.74l.814 14.779a14 14 0 0 1 -7.665 13.266l-13.1 6.616a25.835 25.835 0 0 0 -11.482 11.484l-6.617 13.1a14.02 14.02 0 0 1 -13.266 7.667l-14.778-.814a26.144 26.144 0 0 0 -15.742 4.254l-12.22 8.057a13.982 13.982 0 0 1 -15.413 0l-12.22-8.057a26.2 26.2 0 0 0 -14.34-4.293zm47.379 22.809v79.163h-25v-78.162a26.053 26.053 0 0 0 11.609 2.857 24.863 24.863 0 0 0 13.391-3.858zm-137.415 87.285a26.713 26.713 0 0 0 8.3-1.274l.232-.049a64.461 64.461 0 0 0 36.928-31.257c2.928-5.477 7.96-11.542 21-11.542h33.955v26.533a6.052 6.052 0 0 0 -6.185-3.737 6.128 6.128 0 0 0 -5.314 6.749 20.637 20.637 0 0 0 20.429 18.455h68.1a11.5 11.5 0 0 1 11.633 11.455 11.667 11.667 0 0 1 -11.748 11.545h-37.153a6 6 0 1 0 0 12h35.465a13.5 13.5 0 0 1 0 27h-25.96a6 6 0 0 0 0 12h26.545a13 13 0 0 1 0 26h-25.912a6 6 0 1 0 0 12h17.317a12.5 12.5 0 1 1 0 25h-54.917c-18.858 0-37.043-.843-52.211-10.253a111.011 111.011 0 0 0 -58.542-16.747h-15.123zm-68.585-15.122h58.209l-18.544 161h-58.209z"/><path d="m124.5 450.649a14.391 14.391 0 1 0 14.4 14.391 14.407 14.407 0 0 0 -14.4-14.391zm0 16.781a2.391 2.391 0 1 1 2.391-2.39 2.393 2.393 0 0 1 -2.391 2.39z"/><path d="m123.791 362.938a6 6 0 0 0 6.648-5.272l1.14-9.874a6 6 0 1 0 -11.921-1.375l-1.14 9.873a6 6 0 0 0 5.273 6.648z"/><path d="m116.343 433.1a6.3 6.3 0 0 0 .695.04 6 6 0 0 0 5.953-5.313l5.678-49.176a6 6 0 0 0 -11.921-1.376l-5.678 49.176a6 6 0 0 0 5.273 6.649z"/></g></svg>