<svg id="Layer_1" height="512" viewBox="0 0 512 512" width="512" xmlns="http://www.w3.org/2000/svg" data-name="Layer 1"><path d="m432 52h-388a29.786 29.786 0 0 0 -30 29.75v237a30.213 30.213 0 0 0 30 30.25h259l159-60v-207.25a29.786 29.786 0 0 0 -30-29.75z" fill="#3090fc"/><path d="m14 117.75h448v60h-448z" fill="#fb6771"/><path d="m147.5 238.25a29.5 29.5 0 0 1 0 59h-70a29.5 29.5 0 0 1 0-59z" fill="#9be147"/><path d="m292.85 348.75a102.786 102.786 0 1 1 -.37 8.74c0-2.94.12-5.86.37-8.74z" fill="#b3d1e7"/><path d="m440.59 318h-89.9l-7.99 85h105.08z" fill="#e1b7a3"/><path d="m447.78 403.47-6.57 19.72h-91.14l-7.37-19.72z" fill="#c79a83"/><path d="m372.21 364.06h46.86v17.32h-46.86z" fill="#e75163"/><path d="m44 318.75v-237a29.786 29.786 0 0 1 30-29.75h-30a29.786 29.786 0 0 0 -30 29.75v237a30.213 30.213 0 0 0 30 30.25h30a30.213 30.213 0 0 1 -30-30.25z" fill="#64b5ff"/><path d="m14 117.75h30v60h-30z" fill="#ffa6af"/><path d="m322.48 357.49c0-2.94.12-5.86.37-8.74a102.8 102.8 0 0 1 87.342-92.924 102.746 102.746 0 0 0 -117.342 92.924c-.25 2.88-.37 5.8-.37 8.74a102.809 102.809 0 0 0 117.76 101.667 102.784 102.784 0 0 1 -87.76-101.667z" fill="#d2eaf9"/><g fill="#284268"><path d="m446.57 317.7a6.177 6.177 0 0 0 -5.978-5.7h-19.592v-5.116a25.5 25.5 0 1 0 -51 0v5.116h-19.309a6.179 6.179 0 0 0 -5.973 5.641l-7.991 85.17a6.229 6.229 0 0 0 .353 2.713l7.371 19.648a5.938 5.938 0 0 0 5.62 3.828h91.14a5.914 5.914 0 0 0 5.692-4.007l6.573-19.67a6.41 6.41 0 0 0 .286-2.48zm-64.57-10.816a13.5 13.5 0 1 1 27 0v5.116h-27zm54.887 110.116h-82.653l-2.885-8h88.11zm-87.6-20 6.864-73h13.849v16.429a6 6 0 0 0 12 0v-16.429h27v16.429a6 6 0 0 0 12 0v-16.429h14.077l6.177 73z"/><path d="m419 358h-47a6 6 0 0 0 -6 6v17a6 6 0 0 0 6 6h47a6 6 0 0 0 6-6v-17a6 6 0 0 0 -6-6zm-6 17h-35v-5h35z"/><path d="m147.5 232h-70a35.5 35.5 0 0 0 0 71h70a35.5 35.5 0 0 0 0-71zm0 59h-70a23.5 23.5 0 0 1 0-47h70a23.5 23.5 0 0 1 0 47z"/><path d="m52.007 138.1-6.295-.1h-.058a6.1 6.1 0 0 0 -6 6.055 5.928 5.928 0 0 0 5.944 5.971l6.3-.026h.057a5.882 5.882 0 0 0 6-5.8 6.035 6.035 0 0 0 -5.948-6.1z"/><path d="m226.947 151a5.888 5.888 0 0 0 6-5.837 6.142 6.142 0 0 0 -5.968-6.194l-155.999-.969h-.032a6.2 6.2 0 0 0 -6 6.2 5.986 5.986 0 0 0 5.969 6.014l156 .788z"/><path d="m468 276.727v-194.977a35.827 35.827 0 0 0 -36-35.75h-388a35.827 35.827 0 0 0 -36 35.75v237a36.255 36.255 0 0 0 36 36.25h242.515c-.019.829-.032 1.659-.032 2.492a108.759 108.759 0 1 0 181.517-80.765zm-448-194.977a23.815 23.815 0 0 1 24-23.75h388a23.815 23.815 0 0 1 24 23.75v30.25h-436zm24 261.25a24.242 24.242 0 0 1 -24-24.25v-134.75h52a6 6 0 0 0 0-12h-52v-48h436v48h-344a6 6 0 0 0 0 12h344v83.328a108.709 108.709 0 0 0 -168.549 75.672zm351.242 111.25a96.759 96.759 0 1 1 96.758-96.758 96.869 96.869 0 0 1 -96.758 96.758z"/></g></svg>