<svg id="Layer_1" height="512" viewBox="0 0 512 512" width="512" xmlns="http://www.w3.org/2000/svg" data-name="Layer 1"><path d="m493.85 357.39v60h-335.64v-60" fill="#6d7486"/><path d="m430.37 419.68a29.39 29.39 0 1 1 -29.39 29.39 29.384 29.384 0 0 1 29.39-29.39z" fill="#b0b5ca"/><path d="m210 180h228v176h-228z" fill="#b58d7c"/><path d="m416.97 128h-92.97v52h114.02z" fill="#c79a83"/><path d="m231.03 128-21.05 52h114.02v-52z" fill="#e1b7a3"/><circle cx="211.11" cy="449.07" fill="#b0b5ca" r="29.39"/><path d="m18 39h92v37h-92z" fill="#fb6771"/><path d="m291 180v.32 39.68h68v-39.68-.32z" fill="#7fd695"/><path d="m357.22 355.39v.17h-63.5v-.17-56.49l10.39 10.95 10.74-10.95 10.62 10.95 10.63-10.95 10.73 10.95 10.39-10.95z" fill="#b3d1e7"/><path d="m158.21 357.39h30v60h-30z" fill="#b0b5ca"/><path d="m210 180h30v176h-30z" fill="#a07b6e"/><path d="m231.03 127.52-21.05 52.63h30l21.05-52.63z" fill="#cca596"/><path d="m18 39h30v37h-30z" fill="#d85b67"/><g fill="#284268"><path d="m239 197.1a6 6 0 0 0 -6 6v6.3a6 6 0 0 0 12 0v-6.3a6 6 0 0 0 -6-6z"/><path d="m239 222.391a6 6 0 0 0 -6 6v76a6 6 0 1 0 12 0v-76a6 6 0 0 0 -6-6z"/><path d="m493.613 351h-49.613v-170.459a5.95 5.95 0 0 0 -.41-2.624l-21.05-52.385a5.792 5.792 0 0 0 -5.571-3.532h-185.938a5.792 5.792 0 0 0 -5.571 3.532l-21.05 52.505a5.443 5.443 0 0 0 -.41 2.5v170.463h-40v-262.241a36.76 36.76 0 0 0 -36.76-36.759h-11.24v-13.379c0-3.313-2.9-5.621-6.21-5.621h-92a5.512 5.512 0 0 0 -5.79 5.621v37.714a5.546 5.546 0 0 0 5.79 5.665h92c3.314 0 6.21-2.351 6.21-5.665v-12.335h11.306a24.694 24.694 0 0 1 24.694 24.694v328.693a5.613 5.613 0 0 0 5.613 5.613h29.6a35.389 35.389 0 1 0 47.8 0h171.451a35.389 35.389 0 1 0 47.8 0h39.578a6.172 6.172 0 0 0 6.158-6.154v-59.459a6.406 6.406 0 0 0 -6.387-6.387zm-389.613-281h-80v-25h80zm226 64h82.906l16.194 40h-99.1zm-6 52.146a6.015 6.015 0 0 0 1.3-.146h27.7v28h-56v-28h25.7a6.015 6.015 0 0 0 1.3.146zm-88.906-52.146h82.906v40h-99.1zm-23.981 338.459a23.389 23.389 0 1 1 23.387-23.388 23.415 23.415 0 0 1 -23.387 23.388zm219.253 0a23.389 23.389 0 1 1 23.389-23.388 23.415 23.415 0 0 1 -23.389 23.388zm57.634-61.459h-324v-48h72a6 6 0 0 0 0-12h-20v-165h69v33.741a6.658 6.658 0 0 0 6.485 6.259h67.975c3.313 0 5.54-2.946 5.54-6.259v-33.741h67v165h-69v-52.1a5.881 5.881 0 0 0 -10.184-4.131l-6.083 6.437-6.369-6.458a5.92 5.92 0 0 0 -4.264-1.748h-.017a5.934 5.934 0 0 0 -4.289 1.773l-6.316 6.484-6.317-6.472a5.949 5.949 0 0 0 -4.294-1.785h-.016a5.953 5.953 0 0 0 -4.284 1.75l-6.383 6.483-6.112-6.449a5.783 5.783 0 0 0 -6.435-1.448 5.866 5.866 0 0 0 -3.637 5.564v52.1h-12a6 6 0 0 0 0 12h212zm-137-96.875v36.875h-51v-36.925a5.866 5.866 0 0 0 8.431-.025l6.414-6.556 6.331 6.533a5.99 5.99 0 0 0 8.6 0l6.339-6.533 6.432 6.632a6.072 6.072 0 0 0 4.286 1.874h.049a5.742 5.742 0 0 0 4.118-1.875z"/></g></svg>