<svg id="Layer_1" height="512" viewBox="0 0 512 512" width="512" xmlns="http://www.w3.org/2000/svg" data-name="Layer 1"><path d="m431.9 152h-351.8a40.047 40.047 0 0 0 -40.1 39.96v46.04h432v-46.04a40.047 40.047 0 0 0 -40.1-39.96z" fill="#b3d1e7"/><path d="m70 238v209.3c0 22.09 18.22 39.7 40.32 39.7h291.9a39.553 39.553 0 0 0 39.78-39.7v-209.3z" fill="#53d8d8"/><path d="m212 238h88v249h-88z" fill="#fc8193"/><path d="m212.27 321.7a61.457 61.457 0 1 1 -17.77 43.23 61.273 61.273 0 0 1 17.77-43.23z" fill="#57bf73"/><path d="m110.1 152h-30a40.047 40.047 0 0 0 -40.1 39.96v46.04h30v-46.04a40.047 40.047 0 0 1 40.1-39.96z" fill="#d2f0ff"/><path d="m100 447.3v-209.3h-30v209.3c0 22.09 18.22 39.7 40.32 39.7h30c-22.1 0-40.32-17.61-40.32-39.7z" fill="#87f9f3"/><path d="m224.5 364.93a61.544 61.544 0 0 1 46.491-59.644 61.5 61.5 0 1 0 0 119.278 61.544 61.544 0 0 1 -46.491-59.634z" fill="#78dd90"/><g fill="#284268"><path d="m103 257.1a6 6 0 0 0 -6 6v6.3a6 6 0 0 0 12 0v-6.3a6 6 0 0 0 -6-6z"/><path d="m103 282.391a6 6 0 0 0 -6 6v66a6 6 0 0 0 12 0v-66a6 6 0 0 0 -6-6z"/><path d="m40.27 244h23.73v203.3c0 25.365 20.951 45.7 46.315 45.7h291.909a45.605 45.605 0 0 0 45.776-45.7v-203.3h23.9a6.114 6.114 0 0 0 6.1-6.1v-45.94a45.96 45.96 0 0 0 -45.961-45.96h-74.479a69.283 69.283 0 1 0 -101.639-85.1 69.29 69.29 0 1 0 -101.795 85.1h-74.026a46.231 46.231 0 0 0 -46.1 46.1v45.63a6.288 6.288 0 0 0 6.27 6.27zm253.73 237h-76v-60.132a67.336 67.336 0 0 0 76-.384zm-38-60.576a55.5 55.5 0 1 1 55.5-55.5 55.559 55.559 0 0 1 -55.5 55.5zm-38-111.437v-64.987h76v65.371a67.336 67.336 0 0 0 -76-.384zm218 138.313a33.592 33.592 0 0 1 -33.776 33.7h-96.224v-71.091a67.336 67.336 0 0 0 0-89.963v-75.946h130zm-174-359.187a59.5 59.5 0 0 1 2.58-16.356 57.432 57.432 0 0 1 112.48 16.2c0 31.543-25.816 57.043-57.588 57.043h-57.472zm-127.093 0c0-31.657 25.993-57.413 57.651-57.413a57.681 57.681 0 0 1 57.442 57.622v57.678h-57.68a59.8 59.8 0 0 1 -16.355-2.684 57.467 57.467 0 0 1 -41.058-55.202zm-88.907 103.847a33.961 33.961 0 0 1 33.961-33.96h351.939a34.2 34.2 0 0 1 34.1 34.1v39.9h-299a6 6 0 0 0 0 12h39v75.347a67.352 67.352 0 0 0 0 91.162v70.491h-95.685c-18.748 0-34.315-14.952-34.315-33.7v-203.3h51a6 6 0 0 0 0-12h-81z"/></g></svg>