<svg id="Layer_1" height="512" viewBox="0 0 512 512" width="512" xmlns="http://www.w3.org/2000/svg" data-name="Layer 1"><path d="m49 129h414v254h-414z" fill="#4689d3"/><path d="m69 149h374v214h-374z" fill="#80aaff"/><path d="m69 149h30v214h-30z" fill="#658ec9"/><path d="m29 224h454v28h-454z" fill="#fb6771"/><g fill="#284268"><path d="m12 131.145a6 6 0 0 0 6-6v-47.145h47.145a6 6 0 0 0 0-12h-52.778a6.647 6.647 0 0 0 -6.367 6.367v52.778a6 6 0 0 0 6 6z"/><path d="m446.855 78h47.145v47.145a6 6 0 1 0 12 0v-52.778a6.647 6.647 0 0 0 -6.367-6.367h-52.778a6 6 0 0 0 0 12z"/><path d="m446.855 446h52.778a6.647 6.647 0 0 0 6.367-6.367v-52.778a6 6 0 0 0 -12 0v47.145h-47.145a6 6 0 0 0 0 12z"/><path d="m12.367 446h52.778a6 6 0 0 0 0-12h-47.145v-47.145a6 6 0 0 0 -12 0v52.778a6.647 6.647 0 0 0 6.367 6.367z"/><path d="m49 389h414a6.011 6.011 0 0 0 6-6.012v-124.988h14a6 6 0 0 0 6-6v-28a6 6 0 0 0 -6-6h-14v-88.988a6.011 6.011 0 0 0 -6-6.012h-414a6.011 6.011 0 0 0 -6 6.012v88.988h-14a6 6 0 0 0 -6 6v28a6 6 0 0 0 6 6h14v124.988a6.011 6.011 0 0 0 6 6.012zm408-12h-402v-119h8v104.988a6.011 6.011 0 0 0 6 6.012h374a6.011 6.011 0 0 0 6-6.012v-104.988h8zm-360-33a6 6 0 0 0 6-6v-80h11v50a6 6 0 0 0 12 0v-50h11v56a6 6 0 0 0 12 0v-56h10v80a6 6 0 0 0 12 0v-80h11v40a6 6 0 0 0 12 0v-40h11v80a6 6 0 0 0 12 0v-80h10v60a6 6 0 0 0 12 0v-60h11v80a6 6 0 0 0 12 0v-80h11v70a6 6 0 0 0 12 0v-70h10v70a6 6 0 0 0 12 0v-70h11v80a6 6 0 0 0 12 0v-80h11v20a6 6 0 0 0 12 0v-20h10v80a6 6 0 0 0 12 0v-80h11v60a6 6 0 0 0 12 0v-60h10v70a6 6 0 0 0 12 0v-70h17v99h-362v-99h16v80a6 6 0 0 0 6 6zm-42-209h402v83h-8v-68.988a6.011 6.011 0 0 0 -6-6.012h-374a6.011 6.011 0 0 0 -6 6.012v68.988h-8zm359 33a6 6 0 0 0 -6 6v44h-10v-44a6 6 0 0 0 -12 0v44h-11v-44a6 6 0 0 0 -12 0v44h-10v-44a6 6 0 0 0 -12 0v44h-11v-44a6 6 0 0 0 -12 0v44h-11v-44a6 6 0 0 0 -12 0v44h-10v-44a6 6 0 0 0 -12 0v44h-11v-44a6 6 0 0 0 -12 0v44h-11v-44a6 6 0 0 0 -12 0v44h-10v-44a6 6 0 0 0 -12 0v44h-11v-44a6 6 0 0 0 -12 0v44h-11v-44a6 6 0 0 0 -12 0v44h-10v-44a6 6 0 0 0 -12 0v44h-11v-44a6 6 0 0 0 -12 0v44h-11v-44a6 6 0 0 0 -12 0v44h-16v-63h362v63h-17v-44a6 6 0 0 0 -6-6zm-379 78v-16h442v16z"/></g></svg>