<svg id="Layer_1" height="512" viewBox="0 0 512 512" width="512" xmlns="http://www.w3.org/2000/svg" data-name="Layer 1"><path d="m458.08 100.6v239.11h-404.16v-239.11a30 30 0 0 1 30-30h344.16a30 30 0 0 1 30 30z" fill="#6d7486"/><path d="m424.23 102.4v204.85h-337.46v-204.85z" fill="#a0eaea"/><path d="m308.96 158h-104.99l-9.33 108h122.72z" fill="#fb6771"/><path d="m317.36 265.7-7.68 20.69h-106.43l-8.61-20.69z" fill="#de3c44"/><path d="m229.1 216.67h54.73v19.06h-54.73z" fill="#eadf53"/><path d="m458.97 340h-.89-404.16-.89l-33.03 65.575 472 .042z" fill="#b0b5ca"/><path d="m492 405.4v6a30 30 0 0 1 -30 30h-412a30 30 0 0 1 -30-30v-5.97h168.49l7.36-22.25a4.009 4.009 0 0 1 3.8-2.74h112.7a3.987 3.987 0 0 1 3.79 2.74l7.37 22.25z" fill="#6d7486"/><path d="m53.92 340h-.89l-33.03 65.575h30l33.03-65.575z" fill="#999dad"/><path d="m86.77 102.4h30v204.85h-30z" fill="#86bfc4"/><path d="m50 411.4v-5.97h-30v5.97a30 30 0 0 0 30 30h30a30 30 0 0 1 -30-30z" fill="#4a5160"/><g fill="#284268"><path d="m197.711 288.5a5.825 5.825 0 0 0 5.539 3.5h106.433a5.826 5.826 0 0 0 5.625-3.718l7.675-20.594a5.786 5.786 0 0 0 .357-2.5l-8.4-107.832a5.846 5.846 0 0 0 -5.981-5.356h-22.959v-5.264c0-16.061-13.439-29.127-29.5-29.127s-29.5 13.066-29.5 29.127v5.264h-23.026a5.865 5.865 0 0 0 -5.974 5.326l-9.332 107.936a5.453 5.453 0 0 0 .438 2.684zm107.8-8.5h-98.258l-3.616-8h105.1zm-66.511-133.264c0-9.444 8.056-17.127 17.5-17.127s17.5 7.683 17.5 17.127v5.264h-35zm-29.522 17.264h17.522v22.574a6 6 0 0 0 12 0v-22.574h35v22.574a6 6 0 0 0 12 0v-22.574h17.407l7.466 96h-109.69z"/><path d="m284 211h-55a6 6 0 0 0 -6 6v19a6 6 0 0 0 6 6h55a6 6 0 0 0 6-6v-19a6 6 0 0 0 -6-6zm-6 19h-43v-7h43z"/><path d="m430 307v-205a6 6 0 0 0 -6-6h-337a6 6 0 0 0 -6 6v205a6 6 0 0 0 6 6h337a6 6 0 0 0 6-6zm-12-6h-325v-193h325z"/><path d="m117 142.392a6 6 0 0 0 6-6v-6.3a6 6 0 0 0 -12 0v6.3a6 6 0 0 0 6 6z"/><path d="m117 217.392a6 6 0 0 0 6-6v-56a6 6 0 1 0 -12 0v56a6 6 0 0 0 6 6z"/><path d="m497.361 402.5-33.069-65.589c-.078-.157-.292-.208-.292-.355v-235.956a35.637 35.637 0 0 0 -35.923-35.6h-344.154a35.637 35.637 0 0 0 -35.923 35.6v235.959c0 .147-.215.3-.293.456l-33.049 65.518a9.346 9.346 0 0 0 -.634 2.467h-.024v6.4a35.7 35.7 0 0 0 36 35.6h412a35.7 35.7 0 0 0 36-35.6l-.01-6.4a4.964 4.964 0 0 0 -.629-2.5zm-440.632-56.5h51.271a6 6 0 0 0 0-12h-48v-233.4a23.6 23.6 0 0 1 23.6-23.6h344.477a23.923 23.923 0 0 1 23.923 23.923v233.077h-304a6 6 0 0 0 0 12h307.271l27 53.545-154.426-.119-6-18.349a10.185 10.185 0 0 0 -9.497-7.077h-112.7c-4.321 0-7.651 2.974-9.651 7.076v-.1l-5.841 18.024h-154.425zm429.271 65.4a23.69 23.69 0 0 1 -24 23.6h-412a23.69 23.69 0 0 1 -24-23.6v-.4h162.49a6.005 6.005 0 0 0 5.7-4.12l6.91-20.88h109.8l6.909 21.093a6.1 6.1 0 0 0 5.7 4.224l162.491.026z"/></g></svg>