<svg id="Layer_1" height="512" viewBox="0 0 512 512" width="512" xmlns="http://www.w3.org/2000/svg" data-name="Layer 1"><path d="m453.66 71.68 39.34 51.32h-79l-44.01-66.99h51.92a40 40 0 0 1 31.75 15.67z" fill="#d4e1f4"/><path d="m98.439 122.73-.439.27v.575l1-.575z" fill="#b3d1e7"/><path d="m452 146h-392v269.99a39.629 39.629 0 0 0 39.55 40.01h312.9a39.726 39.726 0 0 0 39.665-40.01z" fill="#80aaff"/><path d="m369.99 56.01 44.01 66.99h-89.75l-.1.09a93.23 93.23 0 0 0 -22.51-17.74l-19.12-49.34z" fill="#fb6771"/><path d="m282.52 56h-53.04l-19.12 49h91.28z" fill="#d4e1f4"/><path d="m229.48 56.01-19.12 49.34a93.291 93.291 0 0 0 -22.42 17.65h-89.38l-.34-.27 52.82-66.72z" fill="#fb6771"/><path d="m151.04 56.01-52.82 66.72-.22.27h-79l49.62-54.04a40.005 40.005 0 0 1 29.46-12.95z" fill="#d4e1f4"/><path d="m187.5 343.99h137v112h-137z" fill="#9bbbce"/><path d="m324.5 310.99v33h-137v-33a4 4 0 0 1 4-4h129a4 4 0 0 1 4 4z" fill="#fb6771"/><path d="m351.5 308h74v61h-74z" fill="#7ce5e9"/><path d="m86.5 308h74v61h-74z" fill="#7ce5e9"/><path d="m452.45 176.49a39.262 39.262 0 0 1 -38.45-39.49v-14h79v14a39.253 39.253 0 0 1 -39.5 39.5c-.35 0-.7 0-1.05-.01z" fill="#fb6771"/><path d="m324.25 123-.1.09 24.35 73.78.15.02a52.166 52.166 0 0 0 12.87 1.62 52.743 52.743 0 0 0 52.48-52.48v-23.03z" fill="#d4e1f4"/><path d="m99 123v23.03a52.1 52.1 0 0 0 64.6 50.96l24.4-73.99z" fill="#d4e1f4"/><path d="m256 93.41a93.075 93.075 0 1 1 -93.08 93.08 93.076 93.076 0 0 1 93.08-93.08z" fill="#eadf53"/><path d="m311.69 160.12-8.71 27.16a14 14 0 0 1 -13.32 9.71h-61.49l-.27.05-6.25-36.85.38-.07z" fill="#5fa8ed"/><path d="m289.43 223.42a8.4 8.4 0 1 1 -8.4 8.39 8.388 8.388 0 0 1 8.4-8.39z" fill="#5fa8ed"/><path d="m244.31 223.42a8.4 8.4 0 1 1 -8.39 8.39 8.39 8.39 0 0 1 8.39-8.39z" fill="#5fa8ed"/><path d="m90 415.99v-269.99h-30v269.99a39.629 39.629 0 0 0 39.55 40.01h30a39.629 39.629 0 0 1 -39.55-40.01z" fill="#658ec9"/><path d="m128.08 56.01h-30a40.005 40.005 0 0 0 -29.46 12.95l-49.62 54.04h30l49.62-54.04a40.005 40.005 0 0 1 29.46-12.95z" fill="#b6c5d8"/><path d="m192.92 186.49a93.094 93.094 0 0 1 78.08-91.871 93.075 93.075 0 1 0 0 183.732 93.091 93.091 0 0 1 -78.08-91.861z" fill="#cec149"/><path d="m59.55 176.49c-.35.01-.7.01-1.05.01a39.266 39.266 0 0 1 -39.5-39.5v-14h79v14a39.25 39.25 0 0 1 -38.45 39.49z" fill="#fb6771"/><path d="m49 137v-14h-30v14a39.266 39.266 0 0 0 39.5 39.5c.35 0 .7 0 1.05-.01a39.837 39.837 0 0 0 13.95-2.89 39.2 39.2 0 0 1 -24.5-36.6z" fill="#dd5b68"/><g fill="#284268"><path d="m200.306 143h8a5.3 5.3 0 0 1 5.115 4.456l10.127 59.729a17.172 17.172 0 0 0 11.611 13.489 14.408 14.408 0 0 0 9.154 25.525 14.224 14.224 0 0 0 14.4-14.174c0-4.008-1.649-8.025-4.3-10.025h24.917c-2.651 2-4.3 6.022-4.3 10.029a14.4 14.4 0 0 0 28.792.054c0-4.007-1.649-8.083-4.3-10.083h.593a6 6 0 1 0 0-12h-59.622a5.365 5.365 0 0 1 -5.115-4.53l-.384-2.47h54.67a19.926 19.926 0 0 0 19.027-13.884l8.716-27.161a6.124 6.124 0 0 0 -.865-5.43 6.061 6.061 0 0 0 -4.848-2.525h-84.994l-1.448-8.611a17.21 17.21 0 0 0 -16.945-14.389h-8a6 6 0 0 0 0 12zm89.12 86.416a2.4 2.4 0 1 1 -2.4 2.4 2.4 2.4 0 0 1 2.4-2.4zm-45.113 0a2.4 2.4 0 1 1 -2.4 2.4 2.4 2.4 0 0 1 2.4-2.4zm59.155-63.416-6.2 19.39a8.021 8.021 0 0 1 -7.6 5.61h-56.711l-4.221-25z"/><path d="m497.762 119.35-39.342-51.329a46.284 46.284 0 0 0 -36.508-18.021h-323.829a46.127 46.127 0 0 0 -33.883 14.9l-49.62 54.038.005.007a5.976 5.976 0 0 0 -1.585 4.055v14a45.465 45.465 0 0 0 13.48 32.246 44.034 44.034 0 0 0 27.52 12.987v233.753a45.682 45.682 0 0 0 45.55 46.014h312.9a45.682 45.682 0 0 0 45.55-46.014v-233.753a44.034 44.034 0 0 0 27.52-12.987 45.465 45.465 0 0 0 13.48-32.246v-14a5.973 5.973 0 0 0 -1.243-3.647zm-75.85-57.35a34.212 34.212 0 0 1 26.988 13.322l31.941 41.678h-63.6l-36.13-55zm-85.268 67h71.356v17.029a46.532 46.532 0 0 1 -46.479 46.478 45.964 45.964 0 0 1 -6.6-.5c.016-.292.037-.582.051-.874a98.61 98.61 0 0 0 -18.328-62.133zm30.1-67 36.13 55h-76.322a99.772 99.772 0 0 0 -20.052-15.727l-15.219-39.273zm-133.16 0h44.824l12.274 31.679a98.94 98.94 0 0 0 -69.377.013zm-12.869 0-15.233 39.315a100.017 100.017 0 0 0 -19.976 15.685h-75.106l43.541-55zm-63.628 130.113a43.542 43.542 0 0 1 -5.819.394 46.352 46.352 0 0 1 -46.268-46.478v-17.029h70.4a98.374 98.374 0 0 0 -18.4 53.533c-.126 3.229-.091 6.423.087 9.58zm-84.047-119.102a34.091 34.091 0 0 1 25.043-11.011h40.556l-43.539 55h-62.445zm-48.04 63.989v-8h67v8a33.144 33.144 0 0 1 -33.5 33.5 33.144 33.144 0 0 1 -33.5-33.5zm293 313h-125v-100h125zm0-112h-125v-25h125zm128 77.986a33.669 33.669 0 0 1 -33.55 34.014h-82.45v-139.014c0-5.514-3.986-9.986-9.5-9.986h-129c-5.514 0-10.5 4.472-10.5 9.986v139.014h-81.45a33.669 33.669 0 0 1 -33.55-34.014v-234.021a46.2 46.2 0 0 0 24.971-12.719 44.544 44.544 0 0 0 4.492-5.4 58.506 58.506 0 0 0 55.637 40.661 57.787 57.787 0 0 0 7.386-.484 98.276 98.276 0 0 0 7.585 24.025 6 6 0 0 0 10.892-5.033 87.074 87.074 0 1 1 166.1-34.783c-.906 45.98-38.013 83.68-83.974 85.277a86.711 86.711 0 0 1 -59.313-20.589 6.014 6.014 0 0 0 -7.029-.576 6.012 6.012 0 0 0 -.732 9.724 98.675 98.675 0 0 0 68.633 23.387c46.479-2.133 84.871-36.737 92.886-81.509a58.361 58.361 0 0 0 63.507-39.573 43.4 43.4 0 0 0 3.993 4.872 46.2 46.2 0 0 0 24.966 12.72zm41-278.986a33.5 33.5 0 0 1 -67 0v-8h67z"/><path d="m160 302h-74a6 6 0 0 0 -6 6v61a6 6 0 0 0 6 6h74a6 6 0 0 0 6-6v-61a6 6 0 0 0 -6-6zm-6 61h-62v-49h62z"/><path d="m345 308v61a6 6 0 0 0 6 6h74a6 6 0 0 0 6-6v-61a6 6 0 0 0 -6-6h-74a6 6 0 0 0 -6 6zm12 6h62v49h-62z"/><path d="m93 216.392a6 6 0 0 0 6-6v-6.3a6 6 0 0 0 -12 0v6.3a6 6 0 0 0 6 6z"/><path d="m93 291.392a6 6 0 0 0 6-6v-56a6 6 0 1 0 -12 0v56a6 6 0 0 0 6 6z"/></g></svg>