<svg id="Layer_1" height="512" viewBox="0 0 512 512" width="512" xmlns="http://www.w3.org/2000/svg" data-name="Layer 1"><rect fill="#6d7486" height="40.9" rx="4" width="67.28" x="222.36" y="452.63"/><path d="m256 18.47c-100.26 0-182 81.57-182 181.83v66.7l30-10v-56.7c0-83.78 68.23-151.93 152-151.93s152 68.15 152 151.93v56.45l30 10.14v-66.59c0-100.26-81.74-181.83-182-181.83z" fill="#b3d1e7"/><path d="m266 18.749q-4.968-.271-10-.279c-100.26 0-182 81.57-182 181.83v66.7l20-6.667v-60.033c0-96.9 76.362-176.342 172-181.551z" fill="#cbe7f7"/><path d="m111.921 249.112h34.418v173.496h-34.418z" fill="#fb6771" transform="matrix(.968 -.253 .253 .968 -80.705 43.549)"/><path d="m74.17 262.89a44.161 44.161 0 0 1 12.98-5.72l3.4-.89 43.86 167.86-3.4.89a44.53 44.53 0 0 1 -54.34-31.82l-21.34-81.7a44.534 44.534 0 0 1 18.84-48.62z" fill="#e75163"/><path d="m106.67 393.21-21.34-81.7a44.472 44.472 0 0 1 9.17-40.11l-3.95-15.12-3.4.89a44.5 44.5 0 0 0 -31.82 54.34l21.34 81.7a44.53 44.53 0 0 0 54.34 31.82l3.4-.89-.115-.44a44.472 44.472 0 0 1 -27.625-30.49z" fill="#c64259"/><path d="m437.83 262.89a44.534 44.534 0 0 1 18.84 48.62l-21.34 81.7a44.53 44.53 0 0 1 -54.34 31.82l-2.24-.59-1.16-.3 43.86-167.86 3.4.89a44.161 44.161 0 0 1 12.98 5.72z" fill="#e75163"/><path d="m296.122 318.651h173.496v34.418h-173.496z" fill="#fb6771" transform="matrix(.253 -.968 .968 .253 -38.871 621.387)"/><path d="m444 259.9v-59.6c0-103.57-84.43-187.831-188-187.831s-188 84.259-188 187.831v59.6a50.6 50.6 0 0 0 -18.479 53.117l21.346 81.7a50.59 50.59 0 0 0 48.8 37.777 50.841 50.841 0 0 0 12.858-1.662l36.7-9.589a6 6 0 0 0 4.289-7.322l-43.856-167.861a6 6 0 0 0 -7.321-4.289l-12.337 3.229v-44.7c0-80.466 65.534-145.93 146-145.93s146 65.462 146 145.93v44.7l-12.337-3.224a6 6 0 0 0 -7.321 4.289l-43.86 167.866a6.006 6.006 0 0 0 .627 4.549 6.257 6.257 0 0 0 3.786 2.773l30.105 7.828v13.861a24.291 24.291 0 0 1 -24.249 24.058h-52.751v-10.368c0-5.514-4.848-9.632-10.361-9.632h-59.278c-5.513 0-10.361 4.118-10.361 9.632v32.9a10.735 10.735 0 0 0 10.361 10.468h59.278a10.735 10.735 0 0 0 10.361-10.467v-10.533h52.751a36.3 36.3 0 0 0 36.249-36.058v-11.042a43.887 43.887 0 0 0 7.455.6 50.527 50.527 0 0 0 48.709-37.777l21.331-81.7a50.6 50.6 0 0 0 -18.495-53.123zm-160 228.1h-56v-29h56zm-164.435-233.1 40.826 156.256-21.74 5.68-17.089-65.353a6 6 0 1 0 -11.607 3.036l17.078 65.259a38.513 38.513 0 0 1 -44.556-28.088l-21.347-81.7a38.575 38.575 0 0 1 25.109-46.29l13.261 50.817a6 6 0 0 0 5.8 4.483 6 6 0 0 0 5.8-7.512l-13.261-50.913zm136.435-212.532c-87.083 0-158 70.847-158 157.93v47.832l-12.364 3.23a50.733 50.733 0 0 0 -5.636 1.84v-52.9c0-96.953 79.047-175.831 176-175.831s176 78.876 176 175.831v52.9a50.733 50.733 0 0 0 -5.636-1.843l-12.364-3.227v-47.83c0-87.085-70.917-157.932-158-157.932zm117.3 374.454-21.693-5.668 40.828-156.254 21.693 5.668zm77.57-106.833-21.347 81.7a38.514 38.514 0 0 1 -44.589 28.082l40.781-156.085a38.574 38.574 0 0 1 25.155 46.303z" fill="#284268"/></svg>