<svg id="Layer_1" height="512" viewBox="0 0 512 512" width="512" xmlns="http://www.w3.org/2000/svg" data-name="Layer 1"><path d="m221.37 321.64-.06.23-65.66 127.02h-115.63a22 22 0 1 1 0-44h88.85l49.22-95.22v-.01z" fill="#4a5160"/><path d="m435.86 171.25-51.02 110.88.16.09v.01l35.84 9.9 51.155-110.97z" fill="#cae6ee"/><path d="m435.86 171.25-51.21 110.88-.03.09-29.15-8.01-.02-.01 45.48-112.55z" fill="#b0b5ca"/><path d="m467.45 190.79a50.514 50.514 0 0 1 -42.27 91.54z" fill="#49bdff"/><path d="m176.25 66.43-49.09 178.27 216.13 59.6 69.8-172.75z" fill="#b3d1e7"/><path d="m151.71 63.1a92.462 92.462 0 0 0 -28.98 180.25l4.43 1.35 49.09-178.27a92.376 92.376 0 0 0 -24.54-3.33z" fill="#b0b5ca"/><path d="m209.64 116.2a12.545 12.545 0 1 1 -12.54 12.54 12.543 12.543 0 0 1 12.54-12.54z" fill="#fb6771"/><path d="m96.08 130.79a92.449 92.449 0 0 1 78.249-57.385l1.921-6.975a92.449 92.449 0 0 0 -53.52 176.92l4.43 1.35 1.027-3.731a92.475 92.475 0 0 1 -32.107-110.179z" fill="#8d92a3"/><path d="m122.73 243.35-19.15 45.7 199.71 55.25 18.55-45.91z" fill="#6d7486"/><path d="m103.58 289.05 30.639 8.476 18.766-45.813-30.255-8.363z" fill="#545c6d"/><g fill="#284268"><path d="m475.144 188.446 2.2-4.773a6 6 0 0 0 -3.857-8.3l-64.478-17.728 9.593-23.746a6.137 6.137 0 0 0 .48-2.645 6.021 6.021 0 0 0 -4.41-5.493l-236.836-65.117a98.449 98.449 0 0 0 -63.062 186.174l-16.725 39.915a6 6 0 0 0 3.934 8.1l67.382 18.695-44.151 85.472h-85.189a28 28 0 1 0 0 56h115.629a6.049 6.049 0 0 0 5.33-3.3l63.533-122.941 77.183 21.341a6.026 6.026 0 0 0 7.163-3.545l16.537-40.955 16.3 4.493a6 6 0 0 0 7.158-3.538l10.158-25.143 60.042 16.508a6 6 0 0 0 7.038-3.27l2.286-4.95a56.507 56.507 0 0 0 46.762-101.25zm-400.952 5.354a86.423 86.423 0 0 1 94.62-122.977l-45.787 166.29a86.527 86.527 0 0 1 -48.833-43.313zm77.808 249.2h-111.975a16 16 0 1 1 0-32h88.842a6.05 6.05 0 0 0 5.33-3.3l46.986-90.929 31.516 8.758zm187.735-145.9-144.27-39.783a6 6 0 1 0 -3.19 11.568l121.484 33.5-14.023 34.711-187.986-52.01 14.426-34.43 27.44 7.566a6 6 0 0 0 3.19-11.568l-22.271-6.141 45.903-166.713 224.562 61.745zm23.806-26.891 40.948-101.361 22.956 6.311-46.153 99.93zm53.793 14.791-24.313-6.685 46.153-99.93 24.313 6.685zm26.141-5.254a44.593 44.593 0 0 1 -9.976-1.126l36.524-79.083a44.5 44.5 0 0 1 -26.548 80.209z"/><path d="m209.642 147.288a18.545 18.545 0 1 0 -18.542-18.545 18.566 18.566 0 0 0 18.542 18.545zm0-25.09a6.545 6.545 0 1 1 -6.545 6.545 6.552 6.552 0 0 1 6.545-6.543z"/><path d="m171.97 217.348-6.028-1.814a6 6 0 1 0 -3.458 11.491l6.029 1.814a6 6 0 1 0 3.457-11.491z"/><path d="m262.942 244.717-72.778-21.9a6 6 0 1 0 -3.457 11.491l72.778 21.9a6 6 0 0 0 3.457-11.491z"/></g></svg>