<svg id="Layer_1" height="512" viewBox="0 0 512 512" width="512" xmlns="http://www.w3.org/2000/svg" data-name="Layer 1"><path d="m256 18.01c96.93 0 175.81 75.28 175.81 168.08 0 130.45-175.81 242.84-175.81 242.84s-175.81-112.39-175.81-242.84c0-92.8 78.88-168.08 175.81-168.08z" fill="#fb6771"/><ellipse cx="256" cy="469.4" fill="#fff6f3" rx="139.59" ry="24.59"/><path d="m256 64.73a126 126 0 1 1 -126 126 126 126 0 0 1 126-126z" fill="#cae6ee"/><path d="m332.81 154.36-12.02 37.45a19.288 19.288 0 0 1 -18.36 13.4h-84.81l-.38.06-8.62-50.82.53-.09z" fill="#5fa8ed"/><path d="m302.1 241.66a11.575 11.575 0 1 1 -11.58 11.57 11.578 11.578 0 0 1 11.58-11.57z" fill="#6d7486"/><path d="m239.88 241.66a11.575 11.575 0 1 1 -11.58 11.57 11.572 11.572 0 0 1 11.58-11.57z" fill="#6d7486"/><path d="m110.19 186.09c0-87.962 70.874-160.172 160.81-167.463-4.946-.4-9.947-.617-15-.617-96.93 0-175.81 75.28-175.81 168.08 0 130.45 175.81 242.84 175.81 242.84s5.681-3.632 15-10.347c-42.525-30.642-160.81-125.492-160.81-232.493z" fill="#ffa9b1"/><path d="m160 190.73a126.013 126.013 0 0 1 111-125.108 127.4 127.4 0 0 0 -15-.892 126 126 0 1 0 15 251.107 126.019 126.019 0 0 1 -111-125.107z" fill="#afccd3"/><path d="m156.41 469.4c0-12.393 51.975-22.63 119.59-24.338q-9.8-.248-20-.252c-77.09 0-139.59 11-139.59 24.59s62.5 24.59 139.59 24.59q10.188 0 20-.252c-67.615-1.71-119.59-11.955-119.59-24.338z" fill="#ead8d3"/><g fill="#284268"><path d="m326.5 193.545 12.02-37.4a6.327 6.327 0 0 0 -.865-5.525 6.155 6.155 0 0 0 -4.847-2.62h-119.137l-2.319-13.41a21.153 21.153 0 0 0 -21.126-17.59h-11.034a6 6 0 0 0 0 12h11.034a9.342 9.342 0 0 1 9.295 7.779l13.967 82.243a21.338 21.338 0 0 0 20.239 17.785 17.565 17.565 0 1 0 23.735 16.516c0-7.485-4.71-14.323-11.315-16.323h49.686c-6.605 2-11.316 8.836-11.316 16.32a17.58 17.58 0 0 0 35.159.022c0-7.485-4.71-14.342-11.315-16.342h8.477a6 6 0 0 0 0-12h-82.223a9.572 9.572 0 0 1 -9.3-8.04l-.98-5.96h78.086a25.114 25.114 0 0 0 24.079-17.455zm-24.4 54.11a5.58 5.58 0 1 1 -5.58 5.58 5.586 5.586 0 0 1 5.58-5.58zm-62.214 0a5.58 5.58 0 1 1 -5.579 5.58 5.586 5.586 0 0 1 5.576-5.58zm-17.586-48.655-6.594-39h108.875l-9.506 29.7a13.314 13.314 0 0 1 -12.65 9.3z"/><path d="m437.814 186.094c0-95.989-81.561-174.081-181.814-174.081s-181.815 78.092-181.815 174.081c0 30.809 9.508 63.091 28.26 95.948 14.843 26.007 35.5 52.455 61.383 78.609a586.826 586.826 0 0 0 88.94 73.339 6 6 0 0 0 6.464 0 586.793 586.793 0 0 0 88.939-73.339c25.889-26.154 46.541-52.6 61.383-78.609 18.752-32.857 28.26-65.142 28.26-95.948zm-98.006 165.948a584.369 584.369 0 0 1 -83.808 69.696 583.639 583.639 0 0 1 -83.642-69.529c-25.151-25.409-45.166-51.018-59.489-76.115-17.7-31.022-26.683-61.3-26.683-90-.001-89.372 76.178-162.081 169.814-162.081s169.814 72.709 169.814 162.081c0 28.664-8.956 58.908-26.62 89.893-14.294 25.075-34.276 50.664-59.386 76.055z"/><path d="m256 438.805c-37.624 0-73.048 2.591-99.746 7.294-21.344 3.76-45.843 9.806-45.843 23.3s24.5 19.537 45.843 23.3c26.7 4.7 62.122 7.294 99.746 7.294s73.047-2.591 99.746-7.294c21.344-3.76 45.843-9.806 45.843-23.3s-24.5-19.537-45.843-23.3c-26.699-4.699-62.122-7.294-99.746-7.294zm133.317 30.595c-2.07 2.267-11.89 7.652-39.746 12.171-25.519 4.14-58.75 6.42-93.571 6.42s-68.052-2.28-93.571-6.42c-27.857-4.519-37.676-9.9-39.747-12.171 2.071-2.267 11.89-7.652 39.747-12.171 25.519-4.14 58.75-6.42 93.571-6.42s68.052 2.28 93.571 6.42c27.856 4.515 37.676 9.9 39.746 12.171z"/><path d="m149.27 87.394a6 6 0 0 0 -8.471.491 150.736 150.736 0 0 0 -38.185 100.357 6 6 0 0 0 12 0 138.749 138.749 0 0 1 35.147-92.377 6 6 0 0 0 -.491-8.471z"/><path d="m161.808 82.021a5.976 5.976 0 0 0 3.8-1.357c1.316-1.078 2.674-2.148 4.036-3.183a6 6 0 1 0 -7.255-9.558c-1.479 1.123-2.954 2.285-4.383 3.456a6 6 0 0 0 3.8 10.642z"/><path d="m257.483 58.734a131.952 131.952 0 0 0 -110.493 57.637 6 6 0 1 0 9.916 6.758 119.953 119.953 0 0 1 100.4-52.4c65 .695 118.063 53.818 118.689 118.816a120.132 120.132 0 0 1 -121.033 121.177c-63.9-.544-116.571-51.723-118.882-115.581a119.819 119.819 0 0 1 4.549-37.444 6 6 0 0 0 -2.95-6.976 6 6 0 0 0 -8.567 3.624 131.577 131.577 0 0 0 -5.112 37.047c.355 71.305 58.022 129.884 129.314 131.307 75.026 1.5 136.351-59.951 134.649-135.022-1.603-70.834-59.632-128.161-130.48-128.943z"/></g></svg>