<svg id="Layer_1" height="512" viewBox="0 0 512 512" width="512" xmlns="http://www.w3.org/2000/svg" data-name="Layer 1"><path d="m381.79 405.9v39.48a36 36 0 0 1 -36 36h-179.58a36 36 0 0 1 -36-36v-39.48z" fill="#6d7486"/><path d="m130.21 93.52v-26.9a36 36 0 0 1 36-36h179.58a36 36 0 0 1 36 36v339.28h-251.58z" fill="#e8ebed"/><path d="m283.23 180.34v12.63h-53.38v-12.63a26.69 26.69 0 0 1 53.38 0z" fill="#e8ebed"/><path d="m381.79 66.62v26.9h-251.58v-26.9a36 36 0 0 1 36-36h179.58a36 36 0 0 1 36 36z" fill="#6d7486"/><path d="m317.11 193h-121.14l-10.77 129h141.6z" fill="#5fa8ed"/><path d="m326.8 321.47-8.85 23.88h-122.82l-9.93-23.88z" fill="#4689d3"/><path d="m224.96 265.89h63.15v22h-63.15z" fill="#55d8d8"/><circle cx="256" cy="443.64" fill="#b0b5ca" r="15.72"/><path d="m160.21 445.38v-39.48h-30v39.48a36 36 0 0 0 36 36h30a36 36 0 0 1 -36-36z" fill="#4a5160"/><path d="m130.21 93.52h30v312.38h-30z" fill="#c6c6c6"/><path d="m160.21 66.62a36 36 0 0 1 36-36h-30a36 36 0 0 0 -36 36v26.9h30z" fill="#4a5160"/><g fill="#284268"><path d="m323.094 192.518a5.969 5.969 0 0 0 -5.983-5.518h-28.111v-6.661a32.5 32.5 0 1 0 -65 0v6.661h-28.034a5.99 5.99 0 0 0 -5.98 5.49l-10.768 129.491a5.63 5.63 0 0 0 .439 2.711l9.933 23.787a5.847 5.847 0 0 0 5.54 3.521h122.817a5.844 5.844 0 0 0 5.625-3.74l8.856-23.789a5.782 5.782 0 0 0 .358-2.491zm-87.094-12.179a20.5 20.5 0 1 1 41 0v6.661h-41zm77.773 159.661h-114.64l-4.941-12h123.986zm-122.056-24 9.77-117h22.513v27.31a6 6 0 0 0 12 0v-27.31h41v27.31a6 6 0 0 0 12 0v-27.31h22.544l8.793 117z"/><path d="m288 260h-63a6 6 0 0 0 -6 6v22a6 6 0 0 0 6 6h63a6 6 0 0 0 6-6v-22a6 6 0 0 0 -6-6zm-6 22h-51v-10h51z"/><path d="m166 488h180a42 42 0 0 0 42-42v-379a42 42 0 0 0 -42-42h-180a42 42 0 0 0 -42 42v379a42 42 0 0 0 42 42zm-30-388h171.365a6 6 0 0 0 0-12h-171.365v-21.377c0-16.542 13.666-29.623 30.208-29.623h179.584c16.542 0 30.208 13.081 30.208 29.623v21.377h-15.173a6 6 0 0 0 0 12h15.173v300h-240zm0 312h240v33.377c0 16.542-13.666 29.623-30.208 29.623h-179.584c-16.542 0-30.208-13.081-30.208-29.623z"/><path d="m339.662 88h-11.652a6 6 0 0 0 0 12h11.652a6 6 0 0 0 0-12z"/><path d="m256 465.363a21.724 21.724 0 1 0 -21.724-21.723 21.748 21.748 0 0 0 21.724 21.723zm0-31.447a9.724 9.724 0 1 1 -9.724 9.724 9.735 9.735 0 0 1 9.724-9.724z"/><path d="m161 111.1a6 6 0 0 0 -6 6v6.3a6 6 0 0 0 12 0v-6.3a6 6 0 0 0 -6-6z"/><path d="m161 136.391a6 6 0 0 0 -6 6v46a6 6 0 0 0 12 0v-46a6 6 0 0 0 -6-6z"/></g></svg>