<svg id="Layer_1" height="512" viewBox="0 0 512 512" width="512" xmlns="http://www.w3.org/2000/svg" data-name="Layer 1"><path d="m332.29 195a150.871 150.871 0 0 0 -152.58 0h-139.71v260h139.71a150.871 150.871 0 0 0 152.58 0h137.71v-260z" fill="#80aaff"/><path d="m460 36h30v66h-30z" fill="#b0b5ca"/><path d="m22 36h30v66h-30z" fill="#b0b5ca"/><path d="m52 52h408v34h-408z" fill="#ccd3df"/><path d="m393 173h45v43h-45z" fill="#b0b5ca"/><path d="m74 173h45v43h-45z" fill="#b0b5ca"/><path d="m256 200.11a124.31 124.31 0 1 1 -124.31 124.31 124.3 124.3 0 0 1 124.31-124.31z" fill="#cae6ee"/><path d="m328.2 290.99-11.3 35.21a18.13 18.13 0 0 1 -17.26 12.59h-79.71l-.36.06-8.11-47.78.5-.08z" fill="#fb6771"/><circle cx="299.33" cy="383.93" fill="#fb6771" r="10.88"/><circle cx="240.85" cy="383.93" fill="#fb6771" r="10.88"/><path d="m40 195h30v260h-30z" fill="#5f88c4"/><path d="m179.71 455a151.614 151.614 0 0 0 76.29 20.71c5.063 0 10.066-.262 15-.757a152.268 152.268 0 0 1 -61.29-19.953z" fill="#6791d3"/><path d="m271 175.047c-4.934-.5-9.937-.757-15-.757a151.614 151.614 0 0 0 -76.29 20.71h30a152.268 152.268 0 0 1 61.29-19.953z" fill="#6791d3"/><path d="m161.69 324.42a124.319 124.319 0 0 1 109.31-123.407 125.655 125.655 0 0 0 -15-.9 124.31 124.31 0 1 0 15 247.716 124.325 124.325 0 0 1 -109.31-123.409z" fill="#a9cbd3"/><g fill="#284268"><path d="m75 235.186a6 6 0 0 0 -6 6v3.748a6 6 0 0 0 12 0v-3.748a6 6 0 0 0 -6-6z"/><path d="m75 259.516a6 6 0 0 0 -6 6v75.344a6 6 0 0 0 12 0v-75.344a6 6 0 0 0 -6-6z"/><path d="m322.612 328.138 11.3-35.258a6.037 6.037 0 0 0 -5.712-7.88h-111.683l-2.129-12.735a20.621 20.621 0 0 0 -20.213-17.265h-10.375a6 6 0 0 0 0 12h10.372a8.65 8.65 0 0 1 8.382 7.269l13.131 77.431a20.481 20.481 0 0 0 17.878 16.972 17.069 17.069 0 1 0 14.879.325h43.3a16.811 16.811 0 0 0 7.591 31.847 16.861 16.861 0 0 0 16.884-16.836 17.061 17.061 0 0 0 -9.296-15.008h6.265a6 6 0 0 0 0-12h-77.286a8.443 8.443 0 0 1 -8.382-7.037l-.851-4.963h72.972a24.151 24.151 0 0 0 22.973-16.862zm-23.283 50.907a4.885 4.885 0 1 1 -4.884 4.885 4.89 4.89 0 0 1 4.884-4.885zm-58.478 0a4.885 4.885 0 1 1 -4.884 4.885 4.89 4.89 0 0 1 4.884-4.885zm-16.222-46.045-6.075-36h101.416l-8.784 27.475a12.186 12.186 0 0 1 -11.548 8.525z"/><path d="m259.5 194.155a130.165 130.165 0 0 0 -107.04 51.228 6 6 0 0 0 2.553 9.2 6 6 0 0 0 6.993-1.933 118.173 118.173 0 0 1 98.218-46.468c61.872 2.166 112 52.423 114.023 114.3a118.435 118.435 0 0 1 -122.2 122.184c-62.535-2.05-113.034-53.194-114.33-115.749a117.968 117.968 0 0 1 6.24-40.519 5.98 5.98 0 0 0 -3.455-7.465 6.013 6.013 0 0 0 -7.928 3.665 129.909 129.909 0 0 0 -6.855 44.527c1.428 70.1 58.9 126.924 129.005 127.6 73.878.712 133.937-60.386 131.518-134.634-2.176-66.761-59.971-124.177-126.742-125.936z"/><path d="m490 30h-30a6.267 6.267 0 0 0 -6 6.3v9.7h-396v-9.7a6.267 6.267 0 0 0 -6-6.3h-30a6.267 6.267 0 0 0 -6 6.3v65.41a6.254 6.254 0 0 0 6 6.29h30a6.254 6.254 0 0 0 6-6.29v-9.71h31v75h-14.64c-3.314 0-6.36 2.324-6.36 5.638v16.362h-28a6 6 0 0 0 -6 6v260a6 6 0 0 0 6 6h138.114a156.8 156.8 0 0 0 155.772 0h136.114a6 6 0 0 0 6-6v-260a6 6 0 0 0 -6-6h-26v-16.362c0-3.314-3.046-5.638-6.36-5.638h-17.64v-75h34v9.71a6.254 6.254 0 0 0 6 6.29h30a6.254 6.254 0 0 0 6-6.29v-65.41a6.267 6.267 0 0 0 -6-6.3zm-444 66h-18v-54h18zm34 83h33v30h-33zm38.64-12h-17.64v-75h307v75h-14.64c-3.314 0-6.36 2.324-6.36 5.638v16.362h-53.114a156.8 156.8 0 0 0 -155.772 0h-53.114v-16.362c0-3.314-3.046-5.638-6.36-5.638zm325.36 48.5v-14.5h20v248h-131.714a6 6 0 0 0 -3.014.812 144.844 144.844 0 0 1 -146.544 0 6 6 0 0 0 -3.014-.812h-133.714v-248h22v14.5c0 3.314 3.046 5.5 6.36 5.5h44.28c3.314 0 6.36-2.189 6.36-5.5v-14.5h54.714a6 6 0 0 0 3.014-.812 144.844 144.844 0 0 1 146.544 0 6 6 0 0 0 3.014.812h54.714v14.5c0 3.314 3.046 5.5 6.36 5.5h44.28c3.314 0 6.36-2.189 6.36-5.5zm-12-36.5v30h-33v-30zm22-99h-396v-22h396zm30 16h-18v-54h18z"/></g></svg>