<svg id="Layer_1" height="512" viewBox="0 0 512 512" width="512" xmlns="http://www.w3.org/2000/svg" data-name="Layer 1"><path d="m178 16h229v213h-229z" fill="#58935e"/><path d="m152 16v213.02-.02h26v.02-213.02z" fill="#61b257"/><path d="m125 16v213.02-.02h27v.02-213.02z" fill="#58935e"/><path d="m124.91 229.02v.01h-26.44a40.24 40.24 0 1 1 0-80.48h26.44z" fill="#c79a83"/><path d="m349.91 45h-115.8c-.45 15-15.11 26.45-31.11 26.45v157.55l174 1v-158.55c-16 0-26.64-11.45-27.09-26.45z" fill="#7fd695"/><path d="m292.46 71.27a18.15 18.15 0 1 1 -18.16 18.15 18.149 18.149 0 0 1 18.16-18.15z" fill="#61b257"/><path d="m234.11 45c-.45 15-15.11 26.45-31.11 26.45v157.55h30v-157.55c16 0 30.66-11.45 31.11-26.45z" fill="#62b273"/><path d="m377 230v.03h-22.56v-.01a61.985 61.985 0 1 0 -123.97 0v.01h-23.35v-.01a85.336 85.336 0 0 1 169.88-11.6z" fill="#61b257"/><path d="m437 229h-338.53a40.462 40.462 0 0 1 -40.12-35.818l-.35.038v262.09c0 22.58 18.54 40.69 41.13 40.69h338.87z" fill="#c2684f"/><path d="m437.5 315.46h12.72a3.559 3.559 0 0 1 3.56 3.55v93.87a3.559 3.559 0 0 1 -3.56 3.55h-52.93a38.162 38.162 0 0 1 -16.72-3.86l-25.34-12.37a38.116 38.116 0 0 1 -21.4-34.25v-.01a38.116 38.116 0 0 1 21.4-34.25l25.34-12.37a38.162 38.162 0 0 1 16.72-3.86z" fill="#d9b089"/><path d="m378.26 350.44a15.505 15.505 0 1 1 -15.5 15.51 15.5 15.5 0 0 1 15.5-15.51z" fill="#6d7486"/><path d="m88 455.31v-227.692a40.513 40.513 0 0 1 -29.65-34.436l-.35.038v262.09c0 22.58 18.54 40.69 41.13 40.69h30c-22.59 0-41.13-18.11-41.13-40.69z" fill="#ea8e7f"/><g fill="#284268"><path d="m292.456 65.266a24.155 24.155 0 1 0 24.154 24.154 24.182 24.182 0 0 0 -24.154-24.154zm0 36.309a12.155 12.155 0 1 1 12.154-12.155 12.168 12.168 0 0 1 -12.154 12.155z"/><path d="m52 455.306c0 25.861 21.265 46.694 47.126 46.694h338.816a5.876 5.876 0 0 0 6.058-5.793v-74.207h6.219c5.269 0 9.781-3.855 9.781-9.125v-93.86a10.164 10.164 0 0 0 -9.781-10.015h-7.219v-79.968a6.049 6.049 0 0 0 -6.032-6.032h-23.968v-207.207c0-3.313-3.039-5.793-6.352-5.793h-281.734a5.754 5.754 0 0 0 -5.914 5.793v127.207h-20.011c-25.324 0-46.474 20.035-46.761 45.357a38.507 38.507 0 0 0 .188 4.643h-.416zm396-134.306v89h-50.709a32.086 32.086 0 0 1 -14.089-3.039l-25.338-12.261a32.055 32.055 0 0 1 0-57.648l25.336-12.582a32.527 32.527 0 0 1 14.091-3.47zm-264-299h217v201h-17.407q-.2-3-.593-5.954v-145.595a6 6 0 0 0 -6-6c-12.246 0-20.723-8.291-21.093-20.631a6 6 0 0 0 -6-5.82h-115.8a6 6 0 0 0 -6 5.82c-.328 11.18-11.829 20.631-25.107 20.631a6 6 0 0 0 -6 6v151.549h-13zm108.456 115.663c-37.162 0-69.207 22.507-83.456 54.392v-115.047c15.032-2.236 27.224-12.708 30.346-26.008h105.2a31.789 31.789 0 0 0 26.454 25.963v105.631a91.517 91.517 0 0 0 -78.544-44.931zm78.544 80.181v5.156h-10.848c-3.082-34.288-32.258-61.982-67.7-61.982s-64.615 27.694-67.7 61.982h-11.387a79.324 79.324 0 0 1 157.635-5.156zm-213-195.844h14v201h-14zm-27 0h15v201h-15zm-32.533 133h20.533v68h-20.147c-18.7 0-34.374-14.833-34.625-33.532a34.071 34.071 0 0 1 34.239-34.468zm-34.467 64.93c9 9.27 20.905 15.07 34.467 15.07h143.533a6 6 0 0 0 0-12h-5.2a55.982 55.982 0 0 1 111.319 0h-66.119a6 6 0 0 0 0 12h149v74h-33.709a44.621 44.621 0 0 0 -19.353 4.7l-25.338 12.482a44.189 44.189 0 0 0 0 79.384l25.337 12.165a44.172 44.172 0 0 0 19.354 4.269h34.709v68h-332.874c-19.245 0-35.126-15.45-35.126-34.694z"/><path d="m378.259 344.443a21.5 21.5 0 1 0 21.5 21.5 21.527 21.527 0 0 0 -21.5-21.5zm0 31a9.5 9.5 0 1 1 9.5-9.5 9.514 9.514 0 0 1 -9.5 9.505z"/><path d="m102 274.058a6 6 0 0 0 6-6v-6.3a6 6 0 0 0 -12 0v6.3a6 6 0 0 0 6 6z"/><path d="m102 389.058a6 6 0 0 0 6-6v-96a6 6 0 0 0 -12 0v96a6 6 0 0 0 6 6z"/></g></svg>