<svg id="Layer_1" height="512" viewBox="0 0 512 512" width="512" xmlns="http://www.w3.org/2000/svg" data-name="Layer 1"><path d="m249 329h1.488c-.494-.036-.989-.072-1.488-.09z" fill="#d4eef4"/><path d="m22 13v123h411v-123z" fill="#6d7486"/><path d="m81 52h290v48h-290z" fill="#4a5160"/><path d="m466 474.06v-99.9c0-25.01-20.67-45.16-45.68-45.16h-169.832a39.774 39.774 0 0 1 36.512 39.78v84.61a45.666 45.666 0 0 0 45.41 45.61h155.99c-12.76-1-22.4-11.94-22.4-24.94z" fill="#d4eef4"/><path d="m124 78v311.16a41.722 41.722 0 0 0 41.705 41.59 39.472 39.472 0 0 0 4.092-.21 41.473 41.473 0 0 0 37.203-41.38v-20.38a39.912 39.912 0 0 1 11.855-28.21 40.393 40.393 0 0 1 28.467-11.69c.481 0 .678.01 1.678.03v.09h90v-251z" fill="#cae6ee"/><path d="m287.13 368.78v61.78h-117.15v-.02a41.6 41.6 0 0 0 37.35-41.38v-20.38a39.912 39.912 0 0 1 39.9-39.9c.48 0 .95.01 1.42.03a39.9 39.9 0 0 1 38.48 39.87z" fill="#a5bfce"/><path d="m290.95 141.83-9.97 31.08a16.014 16.014 0 0 1 -15.24 11.11h-70.37l-.31.05-7.16-42.17.43-.07z" fill="#49bdff"/><path d="m265.47 214.27a9.605 9.605 0 1 1 -9.61 9.61 9.6 9.6 0 0 1 9.61-9.61z" fill="#49bdff"/><path d="m213.84 214.27a9.605 9.605 0 1 1 -9.61 9.61 9.607 9.607 0 0 1 9.61-9.61z" fill="#49bdff"/><path d="m22 13h30v123h-30z" fill="#525866"/><path d="m317 453.39v-84.61a39.774 39.774 0 0 0 -36.512-39.78h-30a39.774 39.774 0 0 1 36.512 39.78v84.61a45.666 45.666 0 0 0 45.41 45.61h30a45.666 45.666 0 0 1 -45.41-45.61z" fill="#b9d6db"/><path d="m154 389.16v-311.16h-30v311.16a41.722 41.722 0 0 0 41.705 41.59 39.472 39.472 0 0 0 4.092-.21 41.2 41.2 0 0 0 10.827-2.615 41.731 41.731 0 0 1 -26.624-38.765z" fill="#aac8ce"/><path d="m277.322 328.88c-.991 0-1.974.049-2.952.12h4.63v-.09c-1-.02-1.2-.03-1.678-.03z" fill="#cae6ee"/><g fill="#284268"><path d="m490.286 493h-1.78c-9.473-1-16.506-9.234-16.506-18.939v-99.9c0-28.274-23.4-51.16-51.679-51.16h-75.321v-181.001h87.714c3.314 0 6.286-2.436 6.286-5.75v-123a6.467 6.467 0 0 0 -6.286-6.25h-411c-3.314 0-5.714 2.936-5.714 6.25v123a5.552 5.552 0 0 0 5.714 5.75h96.286v247.158a47.71 47.71 0 0 0 47.667 47.595c1.413 0 2.844.146 4.226.025.018 0 .071.222.089.222h111.018v16.391c0 28.273 23.136 51.609 51.409 51.609h155.591c.754 0 1.515-.083 2.283-.083a6 6 0 0 0 6-6 5.93 5.93 0 0 0 -5.997-5.917zm-372.286-415.25v16.25h-31v-36h17a6 6 0 0 0 0-12h-23a6 6 0 0 0 -6 6v48a6 6 0 0 0 6 6h37v24h-90v-111h399v111h-82v-24h26a6 6 0 0 0 6-6v-48a6 6 0 0 0 -6-6h-227a6 6 0 0 0 0 12h221v36h-20v-16.25a5.623 5.623 0 0 0 -5.8-5.75h-215.057a5.916 5.916 0 0 0 -6.143 5.75zm47.5 347a35.554 35.554 0 0 1 -35.5-35.592v-305.158h203v239h-84v-.094c-1-.014-1.284-.022-1.758-.022-25.309 0-46.242 20.591-46.242 45.9v20.374a35.553 35.553 0 0 1 -35.5 35.595zm115.5.25h-83.491a48.614 48.614 0 0 0 15.491-35.842v-20.374a34 34 0 0 1 68 0zm51.409 68a39.721 39.721 0 0 1 -39.409-39.609v-84.607c0-13.413-5.648-25.784-14.852-33.784h142.173c21.657 0 39.679 17.5 39.679 39.16v99.9c0 6.989 1.945 13.939 5.894 18.939z"/><path d="m195.954 269a6 6 0 0 0 6 6h99.646a6 6 0 0 0 0-12h-99.646a6 6 0 0 0 -6 6z"/><path d="m176.212 263h-14.463a6 6 0 0 0 0 12h14.463a6 6 0 0 0 0-12z"/><path d="m301.6 307a6 6 0 0 0 0-12h-99.646a6 6 0 0 0 0 12z"/><path d="m176.212 295h-14.463a6 6 0 0 0 0 12h14.463a6 6 0 0 0 0-12z"/><path d="m342.214 381.731a11.508 11.508 0 0 1 11.5 11.5 6 6 0 0 0 6 6 5.91 5.91 0 0 0 5.893-6 23.7 23.7 0 0 0 -17.607-22.721v-4.391a6 6 0 0 0 -12 0v4.391a23.511 23.511 0 0 0 6.161 46.211 11.492 11.492 0 0 1 .16 22.983c-.04 0-.073-.006-.113-.006s-.077 0-.118.006a11.5 11.5 0 0 1 -11.372-11.489 6 6 0 0 0 -6-6 6.093 6.093 0 0 0 -6.107 6 23.506 23.506 0 0 0 17.389 22.716v5.188a6 6 0 0 0 12 0v-5.188a23.479 23.479 0 0 0 -5.839-46.21 11.5 11.5 0 0 1 .053-22.99z"/><path d="m424.18 440h-28.966a6 6 0 1 0 0 12h28.966a6 6 0 1 0 0-12z"/><path d="m424.18 405h-28.966a6 6 0 1 0 0 12h28.966a6 6 0 1 0 0-12z"/><path d="m424.18 370h-28.966a6 6 0 1 0 0 12h28.966a6 6 0 1 0 0-12z"/><path d="m198.231 223.9a15.609 15.609 0 1 0 31.218-.157 16.087 16.087 0 0 0 -6.424-12.743h33.257a16.079 16.079 0 0 0 -6.425 12.734 15.609 15.609 0 1 0 31.218-.035 16.011 16.011 0 0 0 -6.425-12.699h3.05a6 6 0 0 0 0-12h-68.232a6.671 6.671 0 0 1 -6.706-5.533l-.611-3.467h63.588a21.926 21.926 0 0 0 20.95-15.269l9.975-31.073a5.818 5.818 0 0 0 -.866-5.281 5.916 5.916 0 0 0 -4.847-2.377h-98l-1.78-10.415a18.692 18.692 0 0 0 -18.537-15.585h-9.156a6 6 0 0 0 0 12h9.156a6.65 6.65 0 0 1 6.707 5.508l11.59 68.2a18.689 18.689 0 0 0 14.4 15.144 15.565 15.565 0 0 0 -7.1 13.048zm67.235-3.629a3.609 3.609 0 1 1 -3.609 3.609 3.613 3.613 0 0 1 3.609-3.613zm-51.626 0a3.609 3.609 0 1 1 -3.609 3.609 3.613 3.613 0 0 1 3.609-3.613zm-18.851-72.271h87.735l-7.46 23.149a9.888 9.888 0 0 1 -9.525 6.851h-65.625z"/><path d="m150 153.058a6 6 0 0 0 6-6v-6.295a6 6 0 0 0 -12 0v6.295a6 6 0 0 0 6 6z"/><path d="m156 166.058a6 6 0 0 0 -12 0v62a6 6 0 0 0 12 0z"/></g></svg>