<svg id="Layer_1" height="512" viewBox="0 0 512 512" width="512" xmlns="http://www.w3.org/2000/svg" data-name="Layer 1"><path d="m385.33 445.99v19.5a30 30 0 0 1 -30 30h-198.66a30 30 0 0 1 -30-30v-19.5z" fill="#e75163"/><path d="m256 122.6a17.305 17.305 0 1 0 17.31 17.31 17.31 17.31 0 0 0 -17.31-17.31zm0-33.08h40.43a30.008 30.008 0 0 1 23.95 11.92l58.9 78.05a29.974 29.974 0 0 1 6.05 18.07v248.43h-258.66v-248.43a29.974 29.974 0 0 1 6.05-18.07l58.9-78.05a30.008 30.008 0 0 1 23.95-11.92z" fill="#fc8193"/><path d="m172.07 249.7h167.86v153.76h-167.86z" fill="#c7d632"/><path d="m156.67 465.49v-19.5h-30v19.5a30 30 0 0 0 30 30h30a30 30 0 0 1 -30-30z" fill="#c94157"/><path d="m156.67 197.56a29.974 29.974 0 0 1 6.05-18.07l58.9-78.05a30.008 30.008 0 0 1 23.95-11.92h-30a30.008 30.008 0 0 0 -23.95 11.92l-58.9 78.05a29.974 29.974 0 0 0 -6.05 18.07v248.43h30z" fill="#e06c82"/><path d="m172.07 249.7h30v153.76h-30z" fill="#d8ff33"/><g fill="#284268"><path d="m340 244h-168a6 6 0 0 0 -6 6v154a6 6 0 0 0 6 6h168a6 6 0 0 0 6-6v-154a6 6 0 0 0 -6-6zm-6 153h-156v-141h156z"/><path d="m275.532 296h39.879a6 6 0 1 0 0-12h-39.879a6 6 0 1 0 0 12z"/><path d="m196.589 296h52.157a6 6 0 0 0 0-12h-52.157a6 6 0 0 0 0 12z"/><path d="m315.411 308h-84.758a6 6 0 0 0 0 12h84.758a6 6 0 1 0 0-12z"/><path d="m196.589 320h7.277a6 6 0 0 0 0-12h-7.277a6 6 0 0 0 0 12z"/><path d="m315.411 332h-44.344a6 6 0 0 0 0 12h44.344a6 6 0 1 0 0-12z"/><path d="m196.589 344h47.692a6 6 0 0 0 0-12h-47.692a6 6 0 1 0 0 12z"/><path d="m315.411 357h-74.231a6 6 0 0 0 0 12h74.231a6 6 0 1 0 0-12z"/><path d="m196.589 369h18.862a6 6 0 1 0 0-12h-18.862a6 6 0 1 0 0 12z"/><path d="m325.167 98.071a35.957 35.957 0 0 0 -28.734-14.071h-34.433v-67.489a6 6 0 0 0 -12 0v67.489h-34.433a35.956 35.956 0 0 0 -28.734 14.072l-58.733 77.922a35.71 35.71 0 0 0 -7.1 21.566v267.929a35.342 35.342 0 0 0 35.667 35.511h198.666a35.342 35.342 0 0 0 35.667-35.511v-267.929a35.7 35.7 0 0 0 -7.1-21.566zm-70.326 30.589a5.949 5.949 0 0 0 2.318 0 11.307 11.307 0 1 1 -2.318 0zm124.159 311.34h-171a6 6 0 0 0 0 12h171v13.489a23.33 23.33 0 0 1 -23.667 23.511h-198.666a23.33 23.33 0 0 1 -23.667-23.511v-13.489h35a6 6 0 0 0 0-12h-35v-242.44a23.987 23.987 0 0 1 4.677-14.458l58.817-77.8a23.737 23.737 0 0 1 19.073-9.302h34.433v21.388a23.307 23.307 0 1 0 12 0v-21.388h34.433a23.9 23.9 0 0 1 19.156 9.3l58.734 77.923a23.633 23.633 0 0 1 4.677 14.337z"/><path d="m153 202.763a6 6 0 0 0 -6 6v6.295a6 6 0 0 0 12 0v-6.295a6 6 0 0 0 -6-6z"/><path d="m153 228.058a6 6 0 0 0 -6 6v72a6 6 0 0 0 12 0v-72a6 6 0 0 0 -6-6z"/></g></svg>