<svg id="Layer_1" height="512" viewBox="0 0 512 512" width="512" xmlns="http://www.w3.org/2000/svg" data-name="Layer 1"><path d="m484.99 151.41v239.3a29.723 29.723 0 0 1 -5.53 17.34l-.19-.13-56.63-53.32h-.37v-158.86l62.05-44.33.17-.29z" fill="#fb6771"/><path d="m276.41 27.54a39.987 39.987 0 0 0 -40.85 0l-208.08 123.59.16.28 153.96 107.28.13-.19 240.54-62.76 62.05-44.33.17-.29z" fill="#fc8193"/><path d="m479.27 407.92.19.13a29.915 29.915 0 0 1 -24.47 12.66h-32.72v-66.11h.37z" fill="#e75163"/><path d="m247.67 304.73v115.98h-190.66a29.959 29.959 0 0 1 -24.83-13.16l157.72-142.39.32-.46z" fill="#e75163"/><path d="m27.64 151.41-.165-.28-.475.28v239.3a29.886 29.886 0 0 0 5.175 16.84l157.725-142.39.322-.46z" fill="#fb6771"/><path d="m395.66 152h-180.66v.06c18 .26 33 14.92 33 32.96v305.05l21.665-14.46 21.748 14.46 21.778-14.46 21.809 14.46 21.81-14.46 21.824 14.46 21.683-14.46 21.683 14.46v-311.42a26.417 26.417 0 0 0 -26.34-26.65z" fill="#ececf7"/><path d="m215.365 152.06c-.17-.01-.412-.01-.582-.01a32.821 32.821 0 0 0 -32.783 32.97v73.48l-.1.19 66.1 46.04v-119.71a33.1 33.1 0 0 0 -32.635-32.96z" fill="#b0b6cc"/><path d="m383.16 229h-95.27l-7.64 92h109.69z" fill="#9be147"/><path d="m389.94 321.11-6.11 19.17h-96.61l-6.97-19.17z" fill="#81c83d"/><path d="m310.18 279.46h50.7v18.67h-50.7z" fill="#81c83d"/><path d="m27.64 151.41-.165-.28-.475.28v239.3a29.886 29.886 0 0 0 5.175 16.84l24.825-22.412v-213.269z" fill="#c64f60"/><path d="m245 152.06v-.06h-30v.06c18 .26 33 14.92 33 32.96v305.05l21.665-14.46 8.335 5.542v-296.132c0-18.04-15-32.7-33-32.96z" fill="#cfcfe2"/><g fill="#284268"><path d="m288.258 396h-11.792a6 6 0 0 0 0 12h11.792a6 6 0 1 0 0-12z"/><path d="m395.611 396h-84.526a6 6 0 0 0 0 12h84.526a6 6 0 0 0 0-12z"/><path d="m288.258 366h-11.792a6 6 0 0 0 0 12h11.792a6 6 0 1 0 0-12z"/><path d="m395.611 366h-84.526a6 6 0 0 0 0 12h84.526a6 6 0 0 0 0-12z"/><path d="m288.258 425h-11.792a6 6 0 0 0 0 12h11.792a6 6 0 1 0 0-12z"/><path d="m395.611 425h-84.526a6 6 0 0 0 0 12h84.526a6 6 0 0 0 0-12z"/><path d="m281.584 342.192a5.874 5.874 0 0 0 5.639 3.808h96.606a5.876 5.876 0 0 0 5.717-4.037l6.11-19.1a5.817 5.817 0 0 0 .267-2.227l-6.78-92.221a5.878 5.878 0 0 0 -5.985-5.415h-20.158v-3.472a27.5 27.5 0 0 0 -55 0v3.472h-20.106a5.891 5.891 0 0 0 -5.98 5.378l-7.645 92.3a5.535 5.535 0 0 0 .34 2.444zm97.86-8.192h-88.019l-2.609-7h92.913zm-59.444-114.472a15.5 15.5 0 0 1 31 0v3.472h-31zm-26.583 15.472h14.583v18.657a6 6 0 1 0 12 0v-18.657h31v18.657a6 6 0 0 0 12 0v-18.657h14.583l5.9 80h-96.718z"/><path d="m361 273h-51a6 6 0 0 0 -6 6v19a6 6 0 0 0 6 6h51a6 6 0 0 0 6-6v-19a6 6 0 0 0 -6-6zm-6 19h-39v-7h39z"/><path d="m488.061 146.251-208.586-123.87a45.978 45.978 0 0 0 -46.98 0l-208.556 123.87a6 6 0 0 0 -2.939 5.159v239.3c0 19.848 16.155 36.29 36.006 36.29h184.994v63.067a5.955 5.955 0 0 0 3.082 5.33 5.849 5.849 0 0 0 5.987-.328l18.474-12.264 18.494 12.264a5.973 5.973 0 0 0 6.611 0l18.51-12.263 18.508 12.263a6 6 0 0 0 6.627 0l18.51-12.263 18.509 12.263a6 6 0 0 0 6.628 0l18.507-12.263 18.506 12.263a5.758 5.758 0 0 0 5.929.332 5.964 5.964 0 0 0 3.118-5.334v-63.067h26.994c19.851 0 36.006-16.442 36.006-36.293v-239.297a6 6 0 0 0 -2.939-5.159zm-455.061 244.456v-228.248l147.705 102.919-146.643 132.386a23.922 23.922 0 0 1 -1.062-7.057zm383 88.187-12.372-8.287a5.889 5.889 0 0 0 -6.562 0l-18.473 12.263-18.493-12.264a5.989 5.989 0 0 0 -6.62 0l-18.5 12.264-18.508-12.264a6 6 0 0 0 -6.626 0l-18.516 12.264-18.514-12.264a6 6 0 0 0 -3.313-1 5.488 5.488 0 0 0 -3.151 1l-12.352 8.294v-112.9a6 6 0 0 0 -12 0v49h-184.994a24.034 24.034 0 0 1 -16.5-6.74l150.308-135.767 51.186 35.593v17.914a6 6 0 0 0 12 0v-140.98a39.228 39.228 0 0 0 -11.191-27.02h152.854a20.337 20.337 0 0 1 20.337 20.337zm-228-223.062v-70.207c0-14.676 11.471-27.1 26.14-27.563a27.026 27.026 0 0 1 27.86 26.958v108.439zm207.663-109.832h-180.663v.052s-.1 0-.264 0a38.815 38.815 0 0 0 -38.736 38.968v62.45l-137.577-95.863 200.199-118.907a33.987 33.987 0 0 1 34.725 0l200.31 118.956-45.657 32.614v-5.933a32.433 32.433 0 0 0 -32.337-32.337zm59.331 269h-26.994v-47.109l43.11 40.731a24.033 24.033 0 0 1 -16.116 6.378zm24.006-24.293a23.9 23.9 0 0 1 -1.229 7.557l-49.771-46.854v-152.393l51-36.427z"/><path d="m51 197.1a6 6 0 0 0 -6 6v6.3a6 6 0 0 0 12 0v-6.3a6 6 0 0 0 -6-6z"/><path d="m51 222.391a6 6 0 0 0 -6 6v86a6 6 0 0 0 12 0v-86a6 6 0 0 0 -6-6z"/></g></svg>