<svg id="Layer_1" height="512" viewBox="0 0 512 512" width="512" xmlns="http://www.w3.org/2000/svg" data-name="Layer 1"><path d="m402.31 112h-290.04l-25.78 325h339.02z" fill="#53d8d8"/><path d="m425.51 436.69-21.2 57.16h-294.04l-23.78-57.16z" fill="#42adaa"/><path d="m116.515 436.69 25.755-324.69h-30l-25.755 324.69h29.975z" fill="#46b2aa"/><path d="m86.49 437h.129l-.108-.26z" fill="#53d8d8"/><path d="m116.49 437 .021-.26-.021-.05h-29.975-.025l.021.05.108.26 23.651 56.85h30l-23.651-56.85z" fill="#318983"/><path d="m116.619 437-.108-.26-.021.26z" fill="#53d8d8"/><g fill="#284268"><path d="m179.3 283h65.743a6 6 0 0 0 0-12h-65.743a6 6 0 0 0 0 12z"/><path d="m179.3 317h155.978a6 6 0 0 0 0-12h-155.978a6 6 0 0 0 0 12z"/><path d="m335.278 350a6 6 0 0 0 0-12h-155.978a6 6 0 1 0 0 12z"/><path d="m408.294 111.716a6.126 6.126 0 0 0 -5.984-5.716h-75.31v-23.96a70 70 0 0 0 -140 0v23.96h-74.731a6.129 6.129 0 0 0 -5.982 5.669l-25.781 324.473a6.162 6.162 0 0 0 .441 2.816l23.782 57.256a6.084 6.084 0 0 0 5.54 3.786h294.041a6.07 6.07 0 0 0 5.626-3.987l21.2-57.2a6.419 6.419 0 0 0 .358-2.605zm-209.294-29.676a58 58 0 0 1 116 0v23.96h-116zm-19 360.96h236.772l-16.636 45h-285.865l-18.66-45h44.389a6 6 0 0 0 0-12h-47.042l24.853-313h69.189v88.464a6 6 0 0 0 12 0v-88.464h116v88.464a6 6 0 0 0 12 0v-88.464h69.724l22.367 313h-239.091a6 6 0 0 0 0 12z"/><path d="m135.675 195.263a5.994 5.994 0 0 0 -6.457 5.5l-.656 8.242a6 6 0 0 0 5.506 6.456c.162.013.323.02.483.02a6 6 0 0 0 5.974-5.525l.656-8.242a6 6 0 0 0 -5.506-6.451z"/><path d="m133.311 225a5.994 5.994 0 0 0 -6.457 5.506l-5.721 71.994a6 6 0 0 0 5.506 6.457c.162.013.322.019.482.019a6 6 0 0 0 5.975-5.525l5.72-71.994a6 6 0 0 0 -5.505-6.457z"/></g></svg>