<svg id="Layer_1" height="512" viewBox="0 0 512 512" width="512" xmlns="http://www.w3.org/2000/svg" data-name="Layer 1"><path d="m495.8 127.57v256.86h-479.6v-256.86z" fill="#58935e"/><path d="m433.71 159h-356.42c0 18-14.29 31.38-31.29 31.88v130.24c17 .5 31.29 14.88 31.29 32.88h356.42c0-18 13.29-32.38 30.29-32.88v-130.24c-17-.5-30.29-13.88-30.29-31.88z" fill="#7fd695"/><path d="m413 235.58a20.42 20.42 0 1 1 -20.42 20.42 20.415 20.415 0 0 1 20.42-20.42z" fill="#61b257"/><path d="m256 160.02a95.98 95.98 0 1 1 -95.98 95.98 95.978 95.978 0 0 1 95.98-95.98zm69.71 95.98a69.71 69.71 0 1 0 -69.71 69.71 69.71 69.71 0 0 0 69.71-69.71z" fill="#61b257"/><path d="m99 235.58a20.42 20.42 0 1 1 -20.41 20.42 20.417 20.417 0 0 1 20.41-20.42z" fill="#61b257"/><path d="m76 321.12v-130.24c17-.5 31.29-13.88 31.29-31.88h-30c0 18-14.29 31.38-31.29 31.88v130.24c17 .5 31.29 14.88 31.29 32.88h30c0-18-14.29-32.38-31.29-32.88z" fill="#6db57c"/><g fill="#284268"><path d="m276.881 300.151a6 6 0 1 0 4.724-11.029 55.519 55.519 0 0 0 -29.907-3.9l-3.355.491a36.5 36.5 0 0 0 3.017-11.913l.015-.375a91.44 91.44 0 0 0 .168-11.42h12.013a6 6 0 1 0 0-12h-13.381c-.3-1-.634-3.011-1.04-4.682a44.759 44.759 0 0 1 -1.471-10.343 14 14 0 0 1 .993-5.227 13.05 13.05 0 0 1 7.233-7.3 14.711 14.711 0 0 1 5.755-1.085c4.806 0 11.409 1.017 13.256 9.808a6 6 0 0 0 11.745-2.467c-2.584-12.291-11.7-19.341-25-19.341a26.631 26.631 0 0 0 -10.414 2.025 24.95 24.95 0 0 0 -13.719 13.959 26.212 26.212 0 0 0 -1.848 9.72 55.781 55.781 0 0 0 1.811 13.085c.168.691.315 1.849.462 1.849h-10.71a6 6 0 1 0 0 12h12.312a78.731 78.731 0 0 1 -.129 10.482l-.015.283a24.6 24.6 0 0 1 -4.654 12.58l-3.381 4.639a6.011 6.011 0 0 0 5.709 9.5l16.366-2.392a43.511 43.511 0 0 1 23.445 3.053z"/><path d="m331.709 256a75.709 75.709 0 1 0 -75.709 75.709 75.795 75.795 0 0 0 75.709-75.709zm-139.418 0a63.709 63.709 0 1 1 63.709 63.709 63.781 63.781 0 0 1 -63.709-63.709z"/><path d="m496 122h-480a6 6 0 0 0 -6 6v257a6 6 0 0 0 6 6h480a6 6 0 0 0 6-6v-257a6 6 0 0 0 -6-6zm-6 256h-468v-244h468z"/><path d="m72.585 256a26.418 26.418 0 1 0 26.415-26.417 26.448 26.448 0 0 0 -26.415 26.417zm40.836 0a14.418 14.418 0 1 1 -14.421-14.417 14.434 14.434 0 0 1 14.421 14.417z"/><path d="m413 282.417a26.417 26.417 0 1 0 -26.421-26.417 26.448 26.448 0 0 0 26.421 26.417zm0-40.834a14.417 14.417 0 1 1 -14.421 14.417 14.434 14.434 0 0 1 14.421-14.417z"/><path d="m45.719 327.111c14.111.363 25.6 12.478 25.575 26.944a5.975 5.975 0 0 0 6 5.945h356.412a5.966 5.966 0 0 0 6-5.921c-.039-14.72 10.747-26.58 24.515-26.966a5.98 5.98 0 0 0 5.779-6v-130.23a5.971 5.971 0 0 0 -5.756-6c-14-.382-24.565-11.551-24.538-25.942a5.977 5.977 0 0 0 -6-5.945h-294.706a6 6 0 0 0 0 12h71.011a101.954 101.954 0 0 0 2.021 183h-129.204a39.038 39.038 0 0 0 -30.828-32.239v-119.481a37.83 37.83 0 0 0 30.825-31.276h16.175a6 6 0 0 0 0-12h-21.706a5.986 5.986 0 0 0 -6 5.969 25.949 25.949 0 0 1 -25.565 25.919 5.958 5.958 0 0 0 -5.729 6v130.229a6.029 6.029 0 0 0 5.719 5.994zm382.421-162.111a36.675 36.675 0 0 0 29.86 31.273v119.488c-15.532 2.993-27.486 15.892-29.862 32.239h-128.17a101.954 101.954 0 0 0 2.021-183zm-262.116 91a89.976 89.976 0 1 1 89.976 89.976 90.078 90.078 0 0 1 -89.976-89.976z"/></g></svg>