<svg id="Layer_1" height="512" viewBox="0 0 512 512" width="512" xmlns="http://www.w3.org/2000/svg" data-name="Layer 1"><path d="m233.12 72.51a146.147 146.147 0 0 1 128.23 75.94h59.62c.18 0 .35 0 .53.01-27.88-73.74-101.81-126.46-188.38-126.46-110.4 0-200.24 85.73-200.24 191.43 0 148.56 200.24 276.57 200.24 276.57s96.81-61.9 155.81-149.56l-10.74-23.33h-36.96a146.191 146.191 0 1 1 -108.11-244.6z" fill="#b3d1e7"/><path d="m340 203v114h121.57a17.358 17.358 0 0 0 17.43-17.44v-96.56z" fill="#eadf53"/><path d="m433.9 153.94a17.658 17.658 0 0 0 -12.4-5.805c-.18-.01-.524-.135-.7-.135h-80.8v55h139.12z" fill="#6addc7"/><path d="m313.93 130.17v106.81h-62.34v-136.81h32.34a30 30 0 0 1 30 30z" fill="#e75163"/><path d="m251.59 100.23v136.75h-61.43v-136.75-.06h61.43z" fill="#fb6771"/><path d="m190.16 100.23v136.75h-58.57v-123.45a145.248 145.248 0 0 1 16.05-13.43l.05.07h42.47z" fill="#e75163"/><path d="m131.59 113.53v123.45h-43.16l-.37.04a149.687 149.687 0 0 1 -1.13-18.32 145.7 145.7 0 0 1 44.66-105.17z" fill="#fb6771"/><path d="m479.12 227.8v26.5h-21.79a3.508 3.508 0 0 1 -3.51-3.51v-19.48a3.515 3.515 0 0 1 3.51-3.51z" fill="#fb6771"/><path d="m95.44 268a149.856 149.856 0 0 0 29.73 49.245l.19-.245h214.64v-49z" fill="#4689d3"/><path d="m251.59 236.98h88.4v30.98h-244.55a145.935 145.935 0 0 1 -7.38-30.94l.37-.04z" fill="#5fa8ed"/><path d="m388.93 340.44a30.709 30.709 0 1 1 19.98 7.39 30.609 30.609 0 0 1 -19.98-7.39z" fill="#4a5160"/><path d="m181.79 286.4a30.715 30.715 0 1 1 -30.72 30.71 30.711 30.711 0 0 1 30.72-30.71z" fill="#4a5160"/><path d="m384.33 148.45h21.07v54.95h-21.07z" fill="#fff27d"/><path d="m370 203h-30v1 113h.45.78 28.77v-113z" fill="#fff655"/><path d="m62.88 213.43c0-100.861 81.8-183.535 185.215-190.893q-7.417-.526-14.975-.537c-110.4 0-200.24 85.73-200.24 191.43 0 148.56 200.24 276.57 200.24 276.57s5.635-3.605 15-10.291c-46.515-33.209-185.24-142.624-185.24-266.279z" fill="#8badc1"/><g fill="#284268"><path d="m365.834 236.058c.057 0 .026-.007.083-.008s.068.008.125.008a5.965 5.965 0 0 0 5.958-6v-6.295a6 6 0 0 0 -6-6c-.057 0-.11.007-.166.008s.057-.008 0-.008a5.86 5.86 0 0 0 -5.834 6v6.295a5.86 5.86 0 0 0 5.834 6z"/><path d="m365.834 292.058c.055 0 .023-.007.078-.009s.072.009.13.009a5.965 5.965 0 0 0 5.958-6v-37a6 6 0 0 0 -6-6c-.057 0-.11.007-.166.009s.057-.009 0-.009a5.861 5.861 0 0 0 -5.834 6v37a5.861 5.861 0 0 0 5.834 6z"/><path d="m483.538 199.345-45.213-49.263a23.621 23.621 0 0 0 -12.525-7.124c-30.426-76.099-107.347-126.958-192.682-126.958-113.718 0-206.236 88.566-206.236 197.428 0 34.942 10.792 71.569 32.076 108.863 16.868 29.556 40.345 59.619 69.777 89.355 49.952 50.463 100.645 83.085 101.152 83.409a6 6 0 0 0 6.463 0c.961-.614 94.817-61.18 154.093-146.222a36.768 36.768 0 0 0 54.684-25.833h16.438a23.382 23.382 0 0 0 23.435-23.44v-96.16a5.925 5.925 0 0 0 -1.525-4.053zm-54.055-41.577 35.984 39.232h-54.467v-43h9.973a11.6 11.6 0 0 1 8.51 3.768zm-196.367 325.039a665.84 665.84 0 0 1 -96.017-79.77c-28.655-28.973-51.459-58.177-67.781-86.8-20.2-35.421-30.436-70.01-30.436-102.807 0-102.245 87.134-185.655 194.236-185.655 78.575-.002 149.534 46.225 179.46 114.225h-47.739c-27.211-46-77.339-75.717-131.721-75.717-57.935 0-108.412 32.656-134.118 80.417a6.069 6.069 0 0 0 3.209 8.557l.011.032a6.248 6.248 0 0 0 7.55-2.794c4.54-8.434 9.23-16.335 16.23-23.629v102.134h-32.531c-.353-4-.543-8.149-.543-12.284a139.672 139.672 0 0 1 4.552-35.4 5.988 5.988 0 0 0 -4.057-7.287l-.091-.029a5.943 5.943 0 0 0 -7.448 4.148 151.737 151.737 0 0 0 -4.956 38.552c0 83.918 68.273 152.136 152.192 152.136 41.861 0 82.026-16.84 110.719-47.84h28.851a36.085 36.085 0 0 0 8.494 18.082c-51.699 74.622-131.146 130.346-148.066 141.729zm165.884-328.807v43h-9v-43zm-180.994 169h108.657a139.971 139.971 0 0 1 -135.281 29.468 37.171 37.171 0 0 0 26.624-29.468zm-36.219 18.829a24.717 24.717 0 1 1 24.713-24.717 24.745 24.745 0 0 1 -24.713 24.717zm36.219-30.829c-2.873-17-18.017-30.717-36.219-30.717s-33.346 13.717-36.219 30.717h-17.781a134.033 134.033 0 0 1 -23.5-37h229.713v37zm-70.814 18.285c-2.581-2.008-5.092-4.285-7.522-6.285h5.9a40.944 40.944 0 0 0 1.622 6.285zm-47.426-67.285a152.756 152.756 0 0 1 -4.732-19h238.966v19zm38.234-31v-115.2a109.444 109.444 0 0 1 11.629-9.8h34.371v125zm58 0v-125h50v125zm62 0v-125h25.931a24.233 24.233 0 0 1 24.069 24.171v100.829zm62 0v-100.829a36.246 36.246 0 0 0 -36.069-36.171h-115.141a139.406 139.406 0 0 1 64.328-15.8c47.726 0 91.905 24.8 117.653 63.8h-10.777c-3.313 0-5.994 3.141-5.994 6.455v82.545zm26-77h32v43h-32zm62.907 187.829a24.717 24.717 0 1 1 24.718-24.717 24.745 24.745 0 0 1 -24.718 24.717zm64.093-93.829h-13v-14h13zm0-26h-15.673a9.2 9.2 0 0 0 -9.327 9.315v19.472a9.116 9.116 0 0 0 9.327 9.213h15.673v39.56a11.369 11.369 0 0 1 -11.435 11.44h-16.438c-2.874-17-18.018-30.717-36.22-30.717s-33.345 13.717-36.219 30.717h-26.688v-102h127z"/></g></svg>