<svg id="Layer_1" height="512" viewBox="0 0 512 512" width="512" xmlns="http://www.w3.org/2000/svg" data-name="Layer 1"><path d="m405.72 50h-293.03c-9.79 0-17.69 8.38-17.69 18.17v265.18l.074.4 60.436 97.01.33.24h249.88c9.78 0 17.28-8.18 17.28-17.97v-344.86c0-9.79-7.5-18.17-17.28-18.17z" fill="#c79a83"/><path d="m379.39 89h-240.37a9.227 9.227 0 0 0 -9.02 9.12l.06 297.49 206.845-.35.1-.5 51-51.13v-245.51c-.005-4.89-3.725-9.12-8.615-9.12z" fill="#cae6ee"/><path d="m387.11 344.82h-32.82a17.716 17.716 0 0 0 -17.72 17.72v32.22l.12.37 50.65-50.21z" fill="#b6ccd1"/><path d="m499.23 155.49a14.816 14.816 0 0 1 -4.25 20.53l-4.93 3.24-20.7-31.5 4.94-3.24a14.833 14.833 0 0 1 20.53 4.25z" fill="#6addc7"/><path d="m469.35 147.76-161.16 105.9 20.69 31.5 161.17-105.9z" fill="#fb6771"/><path d="m309.88 67.03h-101.36a20.007 20.007 0 0 0 -20 20v21.54h141.36v-21.54a20 20 0 0 0 -20-20z" fill="#eadf53"/><path d="m282.67 50.45v16.58h-46.67v-20.44a23.335 23.335 0 0 1 46.67 0z" fill="#edb740"/><path d="m308.19 253.66 20.69 31.5-41.84 4.95z" fill="#b0b5ca"/><path d="m421.5 148.46v-.01h-.526c.176 0 .346 0 .526.01z" fill="#b3d1e7"/><path d="m169.02 89h-30a9.227 9.227 0 0 0 -9.02 9.12l.06 297.49 30-.051-.06-297.439a9.227 9.227 0 0 1 9.02-9.12z" fill="#aeccd3"/><path d="m228.01 379.9a109.742 109.742 0 0 1 -1.14 15.8 108.847 108.847 0 0 1 -216.54-15.8 108.771 108.771 0 0 1 108.84-108.84 107.581 107.581 0 0 1 10.97.55 108.847 108.847 0 0 1 97.87 108.29z" fill="#80aaff"/><path d="m167.21 337h-95.23l-8.46 95h111.3z" fill="#81c83d"/><path d="m174.82 431.78-6.96 18.77h-96.53l-7.81-18.77z" fill="#49c160"/><path d="m94.78 390.03h49.63v17.29h-49.63z" fill="#d8ff33"/><path d="m40.33 379.9a108.864 108.864 0 0 1 84.73-106.15q4.482-1.017 9.1-1.655c-1.332-.184-2.669-.35-4.016-.485a107.581 107.581 0 0 0 -10.97-.55 108.84 108.84 0 1 0 15.007 216.647 108.857 108.857 0 0 1 -93.851-107.807z" fill="#608ccc"/><g fill="#284268"><path d="m173.186 336.764a6.221 6.221 0 0 0 -5.981-5.764h-20.205v-2.586a27 27 0 0 0 -54 0v2.586h-21.017a6.194 6.194 0 0 0 -5.975 5.683l-8.464 94.451a6.229 6.229 0 0 0 .435 2.9l7.808 19.021a6.244 6.244 0 0 0 5.54 3.945h96.535a6.215 6.215 0 0 0 5.626-4.14l6.96-18.881a6.25 6.25 0 0 0 .356-2.625zm-68.186-8.35a15 15 0 0 1 30 0v2.586h-30zm58.688 116.586h-88.359l-2.815-7h93.686zm-93.606-19 7.387-83h15.531v18.826a6 6 0 0 0 12 0v-18.826h30v18.826a6 6 0 0 0 12 0v-18.826h14.67l6.648 83z"/><path d="m145 384h-50a6 6 0 0 0 -6 6v17a6 6 0 0 0 6 6h50a6 6 0 0 0 6-6v-17a6 6 0 0 0 -6-6zm-7 17h-37v-5h37z"/><path d="m335.934 172h6.666a6 6 0 0 0 0-12h-6.662a6 6 0 0 0 0 12z"/><path d="m228.452 172h85.848a6 6 0 0 0 0-12h-85.848a6 6 0 0 0 0 12z"/><path d="m174.812 172h24.588a6 6 0 0 0 0-12h-24.588a6 6 0 0 0 0 12z"/><path d="m334.868 219h8.732a6 6 0 0 0 0-12h-8.728a6 6 0 1 0 0 12z"/><path d="m310.709 207h-25.444a6 6 0 0 0 0 12h25.444a6 6 0 1 0 0-12z"/><path d="m174.812 219h88.745a6 6 0 0 0 0-12h-88.745a6 6 0 0 0 0 12z"/><path d="m291.759 264a6 6 0 0 0 -6-6h-110.947a6 6 0 0 0 0 12h110.947a6 6 0 0 0 6-6z"/><path d="m235.6 311a6 6 0 0 0 6 6h102a6 6 0 0 0 0-12h-102a6 6 0 0 0 -6 6z"/><path d="m499.835 145.479a20.687 20.687 0 0 0 -13.186-8.959 21.231 21.231 0 0 0 -15.878 2.989l-41.771 27.302v-98.64c0-13.081-10.2-24.171-23.284-24.171h-117.136a29.325 29.325 0 0 0 -58.493 0h-117.4c-13.078 0-23.687 11.09-23.687 24.171v200.929c-48.186 13.186-83.881 57.172-84.657 109.05a114.825 114.825 0 0 0 214.441 58.85h186.932c13.084 0 23.284-10.888 23.284-23.969v-186.764l69.058-45.231a20.88 20.88 0 0 0 6.079-28.844zm-210.835-89.479h116.716c6.465 0 11.284 5.707 11.284 12.171v106.529l-23 15.239v-91.817c0-8.195-6.419-15.122-14.614-15.122h-43.781a26.339 26.339 0 0 0 -25.722-22h-20.883zm-47-9.406a17.5 17.5 0 0 1 35 0v14.406h-35zm67.883 26.406a14.144 14.144 0 0 1 14.117 14.033v15.967h-129v-15.967c0-7.72 5.8-14.033 13.523-14.033zm-208.883-4.829c0-6.464 5.227-12.171 11.691-12.171h117.309v5h-21.477a26.34 26.34 0 0 0 -25.723 22h-43.78a15.239 15.239 0 0 0 -15.02 15.122v167.037q-4.387-.181-8.854-.032a114.374 114.374 0 0 0 -14.146 1.373zm121.012 311.729a102.952 102.952 0 0 1 -106.9 102.762c-53.374-2.067-96.63-45.322-98.7-98.7a102.835 102.835 0 0 1 196.212-46.962 6 6 0 1 0 10.938-4.931 114.832 114.832 0 0 0 -8.691-15.547 6 6 0 0 0 -2.355-11.522h-6.383a114.765 114.765 0 0 0 -70.133-38.7v-168.178a3.237 3.237 0 0 1 3.021-3.122h43.979v13.571c0 3.314 2.21 6.429 5.523 6.429h141.36a6.481 6.481 0 0 0 6.117-6.429v-13.571h43.386a2.9 2.9 0 0 1 2.614 3.122v99.7l-77.231 50.828c-.1.063-.124.135-.218.2-.049.037-.072.072-.12.111a5.83 5.83 0 0 0 -.98 1c-.032.041-.054.083-.085.125a5.737 5.737 0 0 0 -.316.479c-.018.028-.037.054-.054.082l-21.149 36.446a6 6 0 0 0 5.894 8.97l41.847-4.947c.029 0 .058-.012.087-.016.1-.013.2-.037.305-.056.17-.032.338-.065.5-.111.105-.029.206-.065.309-.1.159-.054.316-.111.47-.178.1-.043.2-.09.3-.139.15-.076.3-.158.44-.246.059-.035 0-.061.054-.1l49.947-32.895v81.725h-27.708a23.228 23.228 0 0 0 -23.292 23.539v27.461h-97.438c.292-3.33.45-6.7.45-10.1q0-3.486-.209-6.922a6 6 0 0 0 -7.476-5.438 5.975 5.975 0 0 0 -4.5 6.136q.183 3.088.185 6.224zm86.488-114.832 10.034 15.272-20.288 2.4zm65.481 85.932-30.981 31.229v-19.69a11.218 11.218 0 0 1 11.292-11.539zm43.019 62.031c0 6.469-4.819 11.969-11.284 11.969h-180.938a113.817 113.817 0 0 0 7.091-23h101.269a16.644 16.644 0 0 0 11.761-5l44.351-44.54a16.55 16.55 0 0 0 4.75-11.83v-91.24l23-15.238zm-86.4-136.182-13.36-20.332-.747-1.137 151.138-99.307 14.106 21.47zm161.164-105.9-14.1-21.462a8.821 8.821 0 0 1 12.139 2.58l4.412 6.714a8.836 8.836 0 0 1 -2.447 12.168z"/><path d="m156 117.763a6 6 0 0 0 -6 6v6.295a6 6 0 0 0 12 0v-6.295a6 6 0 0 0 -6-6z"/><path d="m156 143.058a6 6 0 0 0 -6 6v46a6 6 0 0 0 12 0v-46a6 6 0 0 0 -6-6z"/></g></svg>