<svg id="Layer_1" height="512" viewBox="0 0 512 512" width="512" xmlns="http://www.w3.org/2000/svg" data-name="Layer 1"><path d="m430.25 410.7v84.11h-46.94v-71.73a89.993 89.993 0 0 1 21.81-58.73l.12-.18a55.738 55.738 0 0 1 25.01 46.53z" fill="#e75163"/><path d="m215 317.96v57.77l8.98 24.08.045-.03.023.03a82.533 82.533 0 0 0 63.971.055l.181.135h.01l8.79-24.27v-60.15z" fill="#efc597"/><path d="m128.31 424.25v70.56h-46.56v-84.11a55.67 55.67 0 0 1 24.11-45.91 89.961 89.961 0 0 1 22.45 59.46z" fill="#e75163"/><rect fill="#6d7486" height="27.43" rx="2.68" width="45.13" x="247.32" y="333.81"/><path d="m352.22 303.78c-.28-.06-.56-.13-.84-.2l-2.28-.6 29.42-112.59 2.28.59a29.859 29.859 0 0 1 21.34 36.45l-14.31 54.8a29.865 29.865 0 0 1 -35.61 21.55z" fill="#5fa8ed"/><path d="m358.24 185.09 20.28 5.3-29.42 112.59-22.34-5.83 14.93-57.16 14.49-55.44z" fill="#4689d3"/><path d="m237.9 159.59-.02.01a91.542 91.542 0 0 0 -37.48 14.68 50.8 50.8 0 0 0 -16.68 18.55 52.023 52.023 0 0 0 -5.99 24.25h-3.82a14.134 14.134 0 0 0 -6.93 1.8l-.01-.01a67.6 67.6 0 0 1 -5.86-27.56v-13.28a98.635 98.635 0 1 1 197.27 0v6.52l-.14.54-2.06-.54-14.49 55.44q-5.685-2.355-11.03-4.82c-49.9-22.95-77.56-52.12-92.76-75.58z" fill="#6d7486"/><path d="m330.66 235.17-.11.24v17.19a76.41 76.41 0 1 1 -152.82 0v-6.87h-3.82a13.863 13.863 0 0 1 -2.15-.16l-6.7-25.65.44-.11a12.658 12.658 0 0 1 1.48-.93 14.134 14.134 0 0 1 6.93-1.8h3.82a52.023 52.023 0 0 1 5.99-24.25 50.8 50.8 0 0 1 16.68-18.55 91.542 91.542 0 0 1 37.48-14.68l.02-.01c15.2 23.46 42.86 52.63 92.76 75.58z" fill="#ffd8b7"/><path d="m307.5 80.35a48.439 48.439 0 0 1 -.97 9.62l-.49.94a98.789 98.789 0 0 0 -92.8.11l-.09-.16a47.76 47.76 0 1 1 94.35-10.51z" fill="#4a5160"/><path d="m178.69 272.08 6.55 25.07-22.34 5.83-29.42-112.59 22.34-5.84 9.24 35.37 6.7 25.65z" fill="#4689d3"/><path d="m133.48 190.39 29.42 112.59-2.28.6a29.871 29.871 0 0 1 -36.45-21.35l-14.31-54.8a29.859 29.859 0 0 1 21.34-36.45z" fill="#5fa8ed"/><path d="m374.49 355h-77.49v1l-29 139h115v-71.92a90.135 90.135 0 0 1 21.965-58.73l.2-.15a55.257 55.257 0 0 0 -30.675-9.2z" fill="#fb6771"/><path d="m288.2 399.83-19.93 94.98h-24.66l-19.86-95 .16-.03.08.03a82.6 82.6 0 0 0 64-.03z" fill="#d4e1f4"/><path d="m243.61 495-28.61-139.27v-.73h-77.49a55.952 55.952 0 0 0 -31.8 9.82 89.747 89.747 0 0 1 22.29 59.43v70.75z" fill="#fb6771"/><path d="m230.11 306.63a76.2 76.2 0 0 1 -22.38-54.03v-35.52a52.023 52.023 0 0 1 5.99-24.25 50.8 50.8 0 0 1 16.68-18.55 96.047 96.047 0 0 1 12.688-7.167q-2.805-3.84-5.188-7.523l-.02.01a91.542 91.542 0 0 0 -37.48 14.68 50.8 50.8 0 0 0 -16.68 18.55 52.023 52.023 0 0 0 -5.99 24.25v35.52a76.454 76.454 0 0 0 91.424 74.93 76.207 76.207 0 0 1 -39.044-20.9z" fill="#e8bfa0"/><g fill="#284268"><path d="m281.263 161.193a6 6 0 0 0 9.164-7.747c-18.093-21.4-25.338-41.02-25.408-41.216a6 6 0 0 0 -11.288 4.075c.316.877 7.959 21.735 27.532 44.888z"/><path d="m374.5 349h-28.4a25.445 25.445 0 0 0 11.9-21.693v-16.776s.579.022.812.022a36 36 0 0 0 34.764-26.8l14.563-54.8a36.327 36.327 0 0 0 -16.139-39.899v-42.3c0-74.754-61.249-135.568-136-135.568s-136 60.814-136 135.564v42.3a36.342 36.342 0 0 0 -16.166 39.9l14.426 54.8a35.939 35.939 0 0 0 43.85 25.635l24.63-6.431a6.021 6.021 0 0 0 1.694-.737 80.339 80.339 0 0 0 20.566 18.983v27.8h-71.495a61.558 61.558 0 0 0 -61.505 61.7v84.118a5.951 5.951 0 0 0 5.746 6.182h348.508a5.951 5.951 0 0 0 5.746-6.186v-84.114a61.558 61.558 0 0 0 -61.5-61.7zm-29.683-53.338-10.727-2.8 13.232-50.648a5.951 5.951 0 0 0 .367-1.4l12.785-48.935 10.727 2.8zm-130.789-176.441c.11.719 2.5 15.632 14.283 36.167a98.3 98.3 0 0 0 -31.249 13.912 57.168 57.168 0 0 0 -25.032 41.868c-.524.047-1.095.121-1.61.208a61.293 61.293 0 0 1 -3.42-20.063v-13.284a92.5 92.5 0 1 1 185 0l-14.3 53.706c-51.053-22.508-78.576-51.6-92.763-72.421-15.877-23.3-18.977-41.543-19.037-41.913a6 6 0 0 0 -11.867 1.82zm3.959-38.873a41.755 41.755 0 1 1 83.51 0c0 .576-.019 1.152-.043 1.728a104.53 104.53 0 0 0 -83.419 0c-.023-.576-.048-1.152-.048-1.728zm128.013 228.085v18.874a13.589 13.589 0 0 1 -13.9 13.693h-29.1v-22.418a82.23 82.23 0 0 0 18.568-18.374 5.772 5.772 0 0 0 3.581 2.745zm50.34-82.517-14.318 54.8a23.9 23.9 0 0 1 -25.531 17.711l26.244-100.447a23.907 23.907 0 0 1 13.605 27.936zm-264.34-79.166c0-68.133 55.866-123.564 124-123.564s124 55.431 124 123.564v37.712l-16-4.14v-2.293a104.512 104.512 0 0 0 -51.24-90.064 54.382 54.382 0 0 0 .642-7.617 53.719 53.719 0 1 0 -107.438 0 54.332 54.332 0 0 0 .515 7.612 104.719 104.719 0 0 0 -51.479 90.069v.563a6.069 6.069 0 0 0 -.915.156l-22.085 5.714zm-2.022 133.965-14.318-54.8a23.907 23.907 0 0 1 13.6-27.936l26.244 100.447a23.9 23.9 0 0 1 -25.526-17.711zm37.21 14.947-26.388-100.984 10.727-2.8 26.384 100.984zm16.812-43.062v-6.87c0-3.313-2.954-5.73-6.268-5.73h-1.232l-4.382-16.773a8.009 8.009 0 0 1 1.791-.227h3.821a5.967 5.967 0 0 0 6-5.961 45.281 45.281 0 0 1 20-37.789 86.8 86.8 0 0 1 31.573-13.081c14.412 21.104 40.697 49.769 89.697 72.751v13.68a70.5 70.5 0 0 1 -141 0zm66.007 114.4h38.564l-5.771 28.281a76.165 76.165 0 0 1 -53.742.023l-8.058-40.199v-27.285a78.05 78.05 0 0 0 20.4 6.18 7.965 7.965 0 0 0 -.4 2.485v22.068c0 4.792 4.219 8.447 9.007 8.447zm2.993-12v-15h33v15zm-119 134v-17a6 6 0 0 0 -12 0v17h-34v-78.3a49.534 49.534 0 0 1 16.918-37.446 83.792 83.792 0 0 1 17.082 51v7.746a6 6 0 0 0 12 0v-7.747a95.842 95.842 0 0 0 -19.225-57.767 49.409 49.409 0 0 1 22.73-5.486h72l26.723 128zm114.483 0-16.712-80.065a90.214 90.214 0 0 0 48.415.009l-16.786 80.056zm128.517 0h-101.338l26.838-128h72a48.769 48.769 0 0 1 21.556 4.964 96.088 96.088 0 0 0 -19.056 57.118zm47 0h-35v-65.918a84.048 84.048 0 0 1 17.021-50.616 49.7 49.7 0 0 1 17.979 38.234z"/><path d="m158 384.763a6 6 0 0 0 -6 6v6.3a6 6 0 0 0 12 0v-6.3a6 6 0 0 0 -6-6z"/><path d="m158 410.058a6 6 0 0 0 -6 6v46a6 6 0 0 0 12 0v-46a6 6 0 0 0 -6-6z"/></g></svg>