<svg id="Layer_1" height="512" viewBox="0 0 512 512" width="512" xmlns="http://www.w3.org/2000/svg" data-name="Layer 1"><path d="m495 120h-479v301.82a36.157 36.157 0 0 0 36 36.18h408a36.264 36.264 0 0 0 36.125-36.18z" fill="#5fa8ed"/><path d="m496 90.18v29.96h-206.53a27.271 27.271 0 0 0 27.27-27.27v-38.69h143.26a36 36 0 0 1 36 36z" fill="#dce7f4"/><path d="m316.74 54.18v38.69a27.271 27.271 0 0 1 -27.27 27.27h-142.56a27.271 27.271 0 0 0 27.27-27.27v-38.69z" fill="#bfcddd"/><path d="m174.18 54.18v38.69a27.271 27.271 0 0 1 -27.27 27.27h-130.91v-29.96a36 36 0 0 1 36-36z" fill="#dce7f4"/><path d="m216.91 221h-129.47l-11.51 138h151.34z" fill="#eadf53"/><path d="m227.27 359.46-9.46 25.51h-131.27l-10.61-25.51z" fill="#edb740"/><path d="m118.43 298.98h67.49v23.52h-67.49z" fill="#55d8d8"/><path d="m46 421.82v-301.82h-30v301.82a36.157 36.157 0 0 0 36 36.18h30a36.157 36.157 0 0 1 -36-36.18z" fill="#4e86ad"/><path d="m82 54.18h-30a36 36 0 0 0 -36 36v29.96h30v-29.96a36 36 0 0 1 36-36z" fill="#a9b9c9"/><g fill="#284268"><path d="m81.456 220.529-11.509 138.416a6.063 6.063 0 0 0 .44 2.815l10.613 25.532a6.012 6.012 0 0 0 5.543 3.708h131.263a6.01 6.01 0 0 0 5.625-3.927l9.466-25.525a6.02 6.02 0 0 0 .358-2.537l-10.355-138.431a6.024 6.024 0 0 0 -5.983-5.58h-29.917v-7.452a34.5 34.5 0 1 0 -69 0v7.452h-30.564a6.024 6.024 0 0 0 -5.98 5.529zm132.176 158.471h-123.087l-5.624-14h133.725zm-83.632-171.452a22.5 22.5 0 1 1 45 0v7.452h-45zm-12 19.452v29.681a6 6 0 0 0 12 0v-29.681h45v29.681a6 6 0 0 0 12 0v-29.681h24.345l9.46 126h-138.359l10.511-126z"/><path d="m118 329h67a6 6 0 0 0 6-6v-24a6 6 0 0 0 -6-6h-67a6 6 0 0 0 -6 6v24a6 6 0 0 0 6 6zm6-24h56v11h-56z"/><path d="m380.125 268h55.948a6 6 0 0 0 0-12h-55.948a6 6 0 0 0 0 12z"/><path d="m279.67 268h69.937a6 6 0 0 0 0-12h-69.937a6 6 0 0 0 0 12z"/><path d="m436.073 283h-111.9a6 6 0 1 0 0 12h111.9a6 6 0 0 0 0-12z"/><path d="m279.67 295h13.988a6 6 0 0 0 0-12h-13.988a6 6 0 0 0 0 12z"/><path d="m436.073 311h-61.035a6 6 0 0 0 0 12h61.035a6 6 0 0 0 0-12z"/><path d="m279.67 323h64.851a6 6 0 0 0 0-12h-64.851a6 6 0 0 0 0 12z"/><path d="m436.073 339h-98.7a6 6 0 0 0 0 12h98.7a6 6 0 0 0 0-12z"/><path d="m279.67 351h27.186a6 6 0 0 0 0-12h-27.186a6 6 0 0 0 0 12z"/><path d="m460 48h-408a42 42 0 0 0 -42 42v332a42 42 0 0 0 42 42h408a42 42 0 0 0 42-42v-332a42 42 0 0 0 -42-42zm-280 44.909v-32.909h131v32.868a21.4 21.4 0 0 1 -21.531 21.132h-117.184a33.083 33.083 0 0 0 7.715-21.091zm310 328.909a30.19 30.19 0 0 1 -30 30.182h-408a30.19 30.19 0 0 1 -30-30.182v-295.818h47a6 6 0 0 0 0-12h-47v-23.818a30.19 30.19 0 0 1 30-30.182h116v32.868a21.132 21.132 0 0 1 -21.132 21.132h-37.868a6 6 0 0 0 0 12h381zm0-307.818h-174.97c4.812-6 7.97-13.048 7.97-21.132v-32.868h137a30.19 30.19 0 0 1 30 30.182z"/><path d="m62.364 78.979a8.182 8.182 0 1 0 8.181 8.182 8.191 8.191 0 0 0 -8.181-8.182z"/><path d="m95.091 95.343a8.182 8.182 0 1 0 -8.182-8.182 8.191 8.191 0 0 0 8.182 8.182z"/><path d="m127.818 95.343a8.182 8.182 0 1 0 -8.182-8.182 8.191 8.191 0 0 0 8.182 8.182z"/><path d="m211.106 78.979a8.182 8.182 0 1 0 8.181 8.182 8.191 8.191 0 0 0 -8.181-8.182z"/><path d="m243.833 78.979a8.182 8.182 0 1 0 8.182 8.182 8.192 8.192 0 0 0 -8.182-8.182z"/><path d="m276.56 78.979a8.182 8.182 0 1 0 8.182 8.182 8.192 8.192 0 0 0 -8.182-8.182z"/><path d="m50 150.1a6 6 0 0 0 -6 6v6.3a6 6 0 0 0 12 0v-6.3a6 6 0 0 0 -6-6z"/><path d="m50 175.391a6 6 0 0 0 -6 6v66a6 6 0 0 0 12 0v-66a6 6 0 0 0 -6-6z"/></g></svg>