<svg id="Layer_1" height="512" viewBox="0 0 512 512" width="512" xmlns="http://www.w3.org/2000/svg" data-name="Layer 1"><path d="m33 142v302.47a39.289 39.289 0 0 0 39.63 39.53h366.74a39.289 39.289 0 0 0 39.63-39.53v-302.47z" fill="#d4e1f4"/><path d="m33 61v81h446v-81zm43 57.95a16.8 16.8 0 1 1 16.79-16.8 16.789 16.789 0 0 1 -16.79 16.8zm70 0a16.8 16.8 0 1 1 16.79-16.8 16.789 16.789 0 0 1 -16.79 16.8zm70 0a16.8 16.8 0 1 1 16.79-16.8 16.789 16.789 0 0 1 -16.79 16.8zm70 0a16.8 16.8 0 1 1 16.79-16.8 16.789 16.789 0 0 1 -16.79 16.8zm70 0a16.8 16.8 0 1 1 16.79-16.8 16.789 16.789 0 0 1 -16.79 16.8zm70 0a16.8 16.8 0 1 1 16.79-16.8 16.789 16.789 0 0 1 -16.79 16.8z" fill="#fb6771"/><path d="m354.87 249.91-15.47 48.21a24.833 24.833 0 0 1 -23.64 17.24h-109.16l-.49.08-11.1-65.41.68-.12z" fill="#80aaff"/><path d="m315.34 362.28a14.905 14.905 0 1 1 -14.91 14.91 14.9 14.9 0 0 1 14.91-14.91z" fill="#80aaff"/><path d="m235.25 362.28a14.905 14.905 0 1 1 -14.9 14.91 14.9 14.9 0 0 1 14.9-14.91z" fill="#80aaff"/><path d="m479.37 365.5-118.97 118.97v-89.23a29.74 29.74 0 0 1 29.74-29.74z" fill="#b0b5ca"/><path d="m63 444.47v-302.47h-30v302.47a39.289 39.289 0 0 0 39.63 39.53h30a39.289 39.289 0 0 1 -39.63-39.53z" fill="#b6c7db"/><path d="m63 112.781v-21.259a16.8 16.8 0 0 0 0 21.259z" fill="none"/><path d="m59.21 102.15a16.725 16.725 0 0 1 3.79-10.628v-30.522h-30v81h30v-29.219a16.735 16.735 0 0 1 -3.79-10.631z" fill="#dd5b68"/><g fill="#284268"><path d="m235.253 356.281a20.906 20.906 0 1 0 20.906 20.906 20.93 20.93 0 0 0 -20.906-20.906zm0 29.812a8.906 8.906 0 1 1 8.906-8.906 8.916 8.916 0 0 1 -8.906 8.906z"/><path d="m315.339 356.281a20.906 20.906 0 1 0 20.906 20.906 20.929 20.929 0 0 0 -20.906-20.906zm0 29.812a8.906 8.906 0 1 1 8.906-8.906 8.916 8.916 0 0 1 -8.906 8.906z"/><path d="m157.128 215h14.2a13.982 13.982 0 0 1 13.672 11.718l17.975 105.832a25.72 25.72 0 0 0 25.5 21.45h105.84a6 6 0 1 0 0-12h-105.844a13.832 13.832 0 0 1 -13.665-11.55l-1.606-9.45h102.562a30.569 30.569 0 0 0 29.351-21.225l15.472-48.121a5.814 5.814 0 0 0 -.865-5.279 5.916 5.916 0 0 0 -4.848-2.375h-154.816l-3.229-19.245a25.989 25.989 0 0 0 -25.495-21.755h-14.2a6 6 0 0 0 0 12zm189.517 41-12.958 40.152a18.567 18.567 0 0 1 -17.925 12.848h-104.6l-9.073-53z"/><path d="m479.365 55h-19.588c-1.665-19-13.932-33.061-28.777-33.061s-27.112 14.061-28.777 33.061h-12.446c-1.665-19-13.932-33.061-28.777-33.061s-27.112 14.061-28.777 33.061h-12.446c-1.665-19-13.932-33.061-28.777-33.061s-27.112 14.061-28.777 33.061h-12.446c-1.665-19-13.932-33.061-28.777-33.061s-27.112 14.061-28.777 33.061h-12.446c-1.665-19-13.932-33.061-28.777-33.061s-27.112 14.061-28.777 33.061h-12.446c-1.665-19-13.932-33.061-28.777-33.061s-27.112 14.061-28.777 33.061h-19.588a5.36 5.36 0 0 0 -5.635 5.591v383.879a45.342 45.342 0 0 0 45.635 45.53h366.73a45.342 45.342 0 0 0 45.635-45.53v-383.879a5.36 5.36 0 0 0 -5.635-5.591zm-48.365-21.061c8.22 0 15.3 9.061 16.713 21.061h-33.426c1.413-12 8.493-21.061 16.713-21.061zm-70 0c8.22 0 15.3 9.061 16.713 21.061h-33.426c1.413-12 8.493-21.061 16.713-21.061zm-70 0c8.22 0 15.3 9.061 16.713 21.061h-33.426c1.413-12 8.493-21.061 16.713-21.061zm-70 0c8.22 0 15.3 9.061 16.713 21.061h-33.426c1.413-12 8.493-21.061 16.713-21.061zm-70 0c8.22 0 15.3 9.061 16.713 21.061h-33.426c1.413-12 8.493-21.061 16.713-21.061zm-70 0c8.22 0 15.3 9.061 16.713 21.061h-33.426c1.413-12 8.493-21.061 16.713-21.061zm392 410.531a33.329 33.329 0 0 1 -33.635 33.53h-64.484l98.119-98.015zm-107 25.514v-74.742c0-13.092 11.047-23.242 24.138-23.242h74.742zm107-333.984h-335a6 6 0 0 0 0 12h335v212h-82.862c-19.708 0-36.138 15.534-36.138 35.242v82.758h-281.365a33.329 33.329 0 0 1 -33.635-33.53v-296.47h59a6 6 0 0 0 0-12h-59v-69h13.643a41.892 41.892 0 0 0 7.932 18.594 22.507 22.507 0 0 0 -7.369 16.661 22.794 22.794 0 1 0 22.794-22.884 22.877 22.877 0 0 0 -4.486.644 28.717 28.717 0 0 1 -6.658-13.015h57.787a41.892 41.892 0 0 0 7.932 18.594 22.507 22.507 0 0 0 -7.369 16.661 23.964 23.964 0 1 0 18.308-22.24 28.717 28.717 0 0 1 -6.658-13.015h57.787a41.892 41.892 0 0 0 7.932 18.594 22.507 22.507 0 0 0 -7.369 16.661 23.964 23.964 0 1 0 18.308-22.24 28.717 28.717 0 0 1 -6.658-13.015h57.787a41.892 41.892 0 0 0 7.932 18.594 22.507 22.507 0 0 0 -7.369 16.661 23.964 23.964 0 1 0 18.308-22.24 28.717 28.717 0 0 1 -6.658-13.015h57.787a41.9 41.9 0 0 0 7.931 18.594 22.51 22.51 0 0 0 -7.368 16.661 23.964 23.964 0 1 0 18.308-22.24 28.717 28.717 0 0 1 -6.658-13.015h57.787a41.9 41.9 0 0 0 7.931 18.594 22.51 22.51 0 0 0 -7.368 16.661 23.964 23.964 0 1 0 18.308-22.24 28.717 28.717 0 0 1 -6.658-13.015h58.144zm-407.794-33.848a10.78 10.78 0 0 1 4.559-8.8 23.352 23.352 0 0 0 11.235 2.93 23.032 23.032 0 0 0 3.827-.323 10.79 10.79 0 1 1 -19.621 6.193zm70 0a10.78 10.78 0 0 1 4.559-8.8 23.352 23.352 0 0 0 11.235 2.93 23.032 23.032 0 0 0 3.827-.323 10.79 10.79 0 1 1 -19.621 6.193zm70 0a10.78 10.78 0 0 1 4.559-8.8 23.352 23.352 0 0 0 11.235 2.93 23.032 23.032 0 0 0 3.827-.323 10.79 10.79 0 1 1 -19.621 6.193zm70 0a10.78 10.78 0 0 1 4.559-8.8 23.352 23.352 0 0 0 11.235 2.93 23.032 23.032 0 0 0 3.827-.323 10.79 10.79 0 1 1 -19.621 6.193zm70 0a10.78 10.78 0 0 1 4.559-8.8 23.352 23.352 0 0 0 11.235 2.93 23.032 23.032 0 0 0 3.827-.323 10.79 10.79 0 1 1 -19.621 6.193zm70 0a10.78 10.78 0 0 1 4.559-8.8 23.352 23.352 0 0 0 11.235 2.93 23.032 23.032 0 0 0 3.827-.323 10.79 10.79 0 1 1 -19.621 6.193z"/><path d="m73 176.729a6 6 0 0 0 -6 6v4.781a6 6 0 0 0 12 0v-4.781a6 6 0 0 0 -6-6z"/><path d="m73 202.15a6 6 0 0 0 -6 6v91.077a6 6 0 0 0 12 0v-91.077a6 6 0 0 0 -6-6z"/></g></svg>