<svg id="Layer_1" height="512" viewBox="0 0 512 512" width="512" xmlns="http://www.w3.org/2000/svg" data-name="Layer 1"><path d="m455.75 173h-87.93l-173.82 122.44v48.01a28.61 28.61 0 0 0 20.425 27.36 28.924 28.924 0 0 0 8.265 1.19h134.29a4.639 4.639 0 0 1 4.58 4.91c-2.4 56.53 45.41 69.435 45.41 69.435s-18.49-74.345 31.83-74.345h16.95a28.286 28.286 0 0 0 28.25-28.55v-142.04a28.173 28.173 0 0 0 -28.25-28.41z" fill="#6cd371"/><path d="m349.26 66h-293.01a28 28 0 0 0 -28.25 28.2v182.68a27.928 27.928 0 0 0 28.25 28.12h26.09c50.33 0 31.84 74.57 31.84 74.57s47.8-13.02 45.41-69.55a4.721 4.721 0 0 1 4.57-5.02h185.1a29.325 29.325 0 0 0 8.28-.97 28.386 28.386 0 0 0 20.46-27.15v-182.68c0-15.77-12.97-28.2-28.74-28.2z" fill="#deef7d"/><path d="m284.65 142.3-13.34 41.55a21.383 21.383 0 0 1 -20.37 14.86h-94.1l-.42.07-9.57-56.38.59-.1z" fill="#5fa8ed"/><path d="m250.57 239.16a12.845 12.845 0 1 1 -12.85 12.84 12.844 12.844 0 0 1 12.85-12.84z" fill="#5fa8ed"/><path d="m181.54 239.16a12.845 12.845 0 1 1 -12.85 12.84 12.844 12.844 0 0 1 12.85-12.84z" fill="#5fa8ed"/><path d="m112.34 305h-26.09a27.928 27.928 0 0 1 -28.25-28.12v-182.68a28 28 0 0 1 28.25-28.2h-30a28 28 0 0 0 -28.25 28.2v182.68a27.928 27.928 0 0 0 28.25 28.12h26.09c50.33 0 31.84 74.57 31.84 74.57a66.758 66.758 0 0 0 33.22-24.235c.876-21.772-3.909-50.335-35.06-50.335z" fill="#bfc45c"/><g fill="#284268"><path d="m455.75 167h-71.75v-72.8a34.2 34.2 0 0 0 -34.2-34.2h-293.55a34.25 34.25 0 0 0 -34.25 34.25v182.63a34.12 34.12 0 0 0 34.12 34.12h26.219c9.549 0 16.514 3.188 21.291 9.29 14.29 18.254 4.819 57.547 4.723 57.937a6.1 6.1 0 0 0 1.623 5.788 6.04 6.04 0 0 0 5.764 1.549 74 74 0 0 0 26.011-15.029c11.443-10.108 24.78-28.535 23.88-59.535h22.369v32.455a34.578 34.578 0 0 0 34.686 34.545h132.827c-.9 31 12.436 49.221 23.88 59.329a71.5 71.5 0 0 0 26.007 14.819 6 6 0 0 0 7.387-7.237 128.208 128.208 0 0 1 -3.032-22.484c-.487-10.975.46-26.02 7.744-35.337 4.778-6.112 11.746-9.09 21.3-9.09h16.951a34.322 34.322 0 0 0 34.25-34.545v-142.04a34.21 34.21 0 0 0 -34.25-34.415zm22.25 176.455a22.309 22.309 0 0 1 -22.25 22.545h-16.95c-13.3 0-23.652 4.614-30.755 13.7-12.5 16-11.119 42.027-9 56.863-12.6-6.736-33.026-23.282-31.5-59.388a10.84 10.84 0 0 0 -2.971-7.927 10.437 10.437 0 0 0 -7.6-3.247h-134.3a23.013 23.013 0 0 1 -6.539-.934 22.747 22.747 0 0 1 -16.135-21.612v-32.455h68a6 6 0 0 0 0-12h-103.839a10.65 10.65 0 0 0 -7.6 3.461 11.086 11.086 0 0 0 -2.972 8.03c1.528 36.113-18.9 52.716-31.5 59.447 2.12-14.835 3.505-41.057-9-57.053-7.097-9.085-17.445-13.885-30.75-13.885h-26.089a22.25 22.25 0 0 1 -22.25-22.25v-182.55a22.2 22.2 0 0 1 22.2-22.2h293.056a22.811 22.811 0 0 1 22.744 22.744v182.136a22.517 22.517 0 0 1 -16.176 21.4 23.067 23.067 0 0 1 -6.568.721h-41.256a6 6 0 0 0 0 12h41.256a35.024 35.024 0 0 0 10.006-1.225 34.59 34.59 0 0 0 24.738-32.896v-97.88h71.75a22.2 22.2 0 0 1 22.25 22.415z"/><path d="m181.541 233.156a18.849 18.849 0 1 0 18.848 18.849 18.869 18.869 0 0 0 -18.848-18.849zm0 25.7a6.849 6.849 0 1 1 6.848-6.848 6.856 6.856 0 0 1 -6.848 6.845z"/><path d="m250.572 233.156a18.849 18.849 0 1 0 18.848 18.849 18.869 18.869 0 0 0 -18.848-18.849zm0 25.7a6.849 6.849 0 1 1 6.848-6.848 6.856 6.856 0 0 1 -6.848 6.845z"/><path d="m284.648 136h-132.748l-2.666-15.729a23.078 23.078 0 0 0 -22.791-19.271h-12.243a6 6 0 1 0 0 12h12.243a11.242 11.242 0 0 1 10.962 9.428l15.5 91.309a23.07 23.07 0 0 0 22.795 19.263h91.234a6 6 0 0 0 0-12h-91.234a10.9 10.9 0 0 1 -10.962-9.043l-1.223-6.957h87.422a27.443 27.443 0 0 0 26.088-19.169l13.336-41.631a6.381 6.381 0 0 0 -.865-5.552 6.183 6.183 0 0 0 -4.848-2.648zm-19.048 46.016a15.619 15.619 0 0 1 -14.663 10.984h-89.459l-7.539-45h122.482z"/><path d="m61 100.763a6 6 0 0 0 -6 6v6.3a6 6 0 0 0 12 0v-6.3a6 6 0 0 0 -6-6z"/><path d="m61 126.058a6 6 0 0 0 -6 6v66a6 6 0 0 0 12 0v-66a6 6 0 0 0 -6-6z"/></g></svg>