<svg id="Layer_1" height="512" viewBox="0 0 512 512" width="512" xmlns="http://www.w3.org/2000/svg" data-name="Layer 1"><path d="m494.35 235.87v202.59l-40.95 40.95v-202.59z" fill="#d9b089"/><path d="m494.35 235.87-40.95 40.95h-44.89v-.69l40.26-40.26z" fill="#f8d3ac"/><path d="m236 277h218v202h-218z" fill="#ebc59d"/><path d="m449.77 235.87-40.26 40.26v-202.59l40.95-40.95v202.59z" fill="#967669"/><path d="m192.09 74-1.09.54v202.46h219v-.87-202.13z" fill="#af8977"/><path d="m17 277h219v202h-219z" fill="#7f5d4a"/><path d="m341.26 33.59-40.95 40.95h109.2l40.95-40.95z" fill="#c79a83"/><path d="m232.06 33.59-39.97 40.95h108.22l40.95-40.95z" fill="#e1b7a3"/><path d="m191 236.87h-24.2l-40.95 40.95h65.26v-40.95z" fill="#926d56"/><path d="m57.6 236.87-40.95 40.95h109.2l40.95-40.95z" fill="#a07b67"/><path d="m314.56 276.82v.21 37.59h61.53v-37.59-.21z" fill="#cae6ee"/><path d="m374.06 479.31v.1h-57.47v-.1-54.94l9.4 9.91 9.72-9.91 9.62 9.91 9.61-9.91 9.72 9.91 9.4-9.91z" fill="#d8ff33"/><path d="m269.67 73.54v.21 37.59h61.52v-37.59-.21z" fill="#cae6ee"/><path d="m319.76 231-9.71-9.91-9.62 9.91-9.61-9.91-9.72 9.91-9.41-9.91v55.73h57.48v-55.73z" fill="#fb6771"/><path d="m95.21 276.82v.21 37.59h61.52v-37.59-.21z" fill="#cae6ee"/><path d="m154.71 479.31v.1h-57.48v-.1-54.94l9.41 9.91 9.72-9.91 9.61 9.91 9.61-9.91 9.72 9.91 9.41-9.91z" fill="#5fa8ed"/><path d="m222.09 74h-30l-1.09.54v202.46h30v-202.46z" fill="#c6a599"/><path d="m17 277h30v202h-30z" fill="#997462"/><path d="m232.06 33.59-39.97 40.95h30l39.97-40.95z" fill="#efccbf"/><path d="m57.6 236.87-40.95 40.95h30l40.95-40.95z" fill="#af8c7d"/><g fill="#284268"><path d="m44 296.763a6 6 0 0 0 -6 6v6.3a6 6 0 0 0 12 0v-6.3a6 6 0 0 0 -6-6z"/><path d="m44 322.058a6 6 0 0 0 -6 6v66a6 6 0 0 0 12 0v-66a6 6 0 0 0 -6-6z"/><path d="m495.13 230h-39.13v-197.408a5.286 5.286 0 0 0 -5.54-5.592h-218.4a5.82 5.82 0 0 0 -4.293 1.6l-41 41.849a5.816 5.816 0 0 0 -1.767 4.093v155.458h-127.4a5.935 5.935 0 0 0 -4.242 1.693l-40.778 40.917a5.768 5.768 0 0 0 -1.58 4.21v202.588a5.37 5.37 0 0 0 5.646 5.592h437.754a5.815 5.815 0 0 0 4.242-1.554l40.778-40.846a5.6 5.6 0 0 0 1.58-4.14v-202.59a5.87 5.87 0 0 0 -5.87-5.87zm-59.155-191-28.951 29h-92.231l28.95-29zm8.025 8.077v185.617l-28 28.951v-185.618zm-119 32.923v25h-49v-25zm-90.415-41h92.189l-28.951 29h-91.5zm-37.585 41h67v31.338a5.445 5.445 0 0 0 5.668 5.662h61.526a5.558 5.558 0 0 0 5.806-5.662v-31.338h67v191h-69v-49.906a5.909 5.909 0 0 0 -10.224-4.131l-5.1 5.4-5.355-5.515a6.014 6.014 0 0 0 -4.275-1.848h-.016a6.03 6.03 0 0 0 -4.29 1.868l-5.309 5.494-5.308-5.506a6.018 6.018 0 0 0 -4.29-1.856h-.016a6.047 6.047 0 0 0 -4.284 1.846l-5.365 5.492-5.124-5.387a5.751 5.751 0 0 0 -6.422-1.435 5.87 5.87 0 0 0 -3.622 5.578v49.906h-69zm124 203h49v26h-49zm-43-12v-35.059a5.568 5.568 0 0 0 3.2 1.059 6.023 6.023 0 0 0 4.255-1.8l5.374-5.517 5.313 5.5a5.984 5.984 0 0 0 8.6 0l5.329-5.5 5.411 5.517a5.97 5.97 0 0 0 4.247 1.8 5.778 5.778 0 0 0 3.271-1.059v35.059zm-93-29v29h-44.668l28.95-29zm-34 41v26h-50v-26zm-90.918-41h92.231l-28.951 29h-92.231zm88.918 231h-46v-33.78a6.416 6.416 0 0 0 3.472 1.06 6.239 6.239 0 0 0 4.39-1.8l5.442-5.517 5.346 5.5a6.013 6.013 0 0 0 8.622 0l5.334-5.5 5.413 5.517a6.317 6.317 0 0 0 4.479 1.8 6.516 6.516 0 0 0 3.5-1.06zm219 0h-45v-33.78a5.4 5.4 0 0 0 3.15 1.06 5.883 5.883 0 0 0 4.229-1.8l5.361-5.517 5.305 5.5a5.979 5.979 0 0 0 8.593 0l5.328-5.5 5.411 5.517a5.867 5.867 0 0 0 4.3 1.8 5.935 5.935 0 0 0 3.323-1.06zm80 0h-68v-48.628a5.966 5.966 0 0 0 -10.3-4.131l-5.117 5.4-5.361-5.655a6.175 6.175 0 0 0 -4.282-1.986h-.016a6.176 6.176 0 0 0 -4.29 2.007l-5.309 5.564-5.308-5.61a6.126 6.126 0 0 0 -4.29-1.961h-.016a6.193 6.193 0 0 0 -4.284 1.985l-5.364 5.562-5.125-5.352a5.661 5.661 0 0 0 -6.369-1.418 5.847 5.847 0 0 0 -3.569 5.6v48.623h-69v-115a6 6 0 0 0 -12 0v115h-69v-48.628a6.16 6.16 0 0 0 -10.57-4.131l-5.161 5.4-5.383-5.655a6.225 6.225 0 0 0 -4.3-1.985h-.016a6.176 6.176 0 0 0 -4.29 2.007l-5.309 5.564-5.308-5.61a6.126 6.126 0 0 0 -4.29-1.961h-.016a6.193 6.193 0 0 0 -4.284 1.985l-5.364 5.562-5.125-5.352a6.174 6.174 0 0 0 -10.584 4.176v48.628h-68v-190h66v31.616a6.519 6.519 0 0 0 6.208 6.384h61.525a6.572 6.572 0 0 0 6.267-6.384v-31.616h67v35a6 6 0 0 0 12 0v-35h67v31.616c0 3.314 2.249 6.384 5.563 6.384h61.525c3.314 0 5.912-3.07 5.912-6.384v-31.616h66zm3.918-202-29.867-.033 29.741-28.967h28.948zm37.082 164.973-29 28.554v-185.221l29-28.6z"/></g></svg>