<svg id="Layer_1" height="512" viewBox="0 0 512 512" width="512" xmlns="http://www.w3.org/2000/svg" data-name="Layer 1"><path d="m325.91 73.9a71.7 71.7 0 0 1 1.31 19.5l-1.76 25.55c-25.42-2.69-31.98-29.28-31.98-29.28-33.6-2.06-51.23-8.72-62.3-21.67-7.82-9.16-12.37-21.47-16.95-37.52a1.323 1.323 0 0 0 -.15-.29c0-.01 38.43-24.9 72.33-6.49 9.67 5.25 18.74 11.74 25.56 20.37a71.511 71.511 0 0 1 13.94 29.83z" fill="#6d7486"/><path d="m326.99 209.305-1.99-25.875v-33.45a1.629 1.629 0 0 1 -.4.02h-1.17l-34.5 56 .07.07v39.93h31.07a72.078 72.078 0 0 0 6.92-36.695z" fill="#6d7486"/><path d="m288.93 205.855-65.93.145v42h66v-41.93z" fill="#efc597"/><path d="m188.07 150h-1.22c-.27 0-.85-.01-.85-.02v33.54l-1.74 25.785a72.193 72.193 0 0 0 7.16 36.695h31.58v-39.71z" fill="#6d7486"/><path d="m214.23 30.48c4.58 16.05 9.13 28.36 16.95 37.52-14.43 5.72-35.15 19.26-45.13 51l-1.77-25.6a71.55 71.55 0 0 1 29.8-63.21 1.323 1.323 0 0 1 .15.29z" fill="#585e6b"/><path d="m431.86 347.97a86.606 86.606 0 0 0 -62.67-80.94l-8.025-2.27-210.33.17-7.958 2.185a86.4 86.4 0 0 0 -62.729 80.866l-.938 131.864a15.036 15.036 0 0 0 15 15.155h323.58a14.963 14.963 0 0 0 15-15.07z" fill="#5fa8ed"/><path d="m432.69 466.14c-1.01-11.1-10.7-19.79-22.03-20.61l-33.31-2.45-10.35 25.48v26.44h50.79a14.963 14.963 0 0 0 15-15.07z" fill="#efc597"/><path d="m432.28 407.66.41 58.48c-1.01-11.1-10.7-19.79-22.03-20.61l-33.39-2.45v-35.42z" fill="#ffd8b7"/><path d="m134.65 443.08-28.54 2.535c-14.76 1.35-26.58 12.385-26.58 27.385h-.27l-.05 6.845a15.036 15.036 0 0 0 15 15.155h50.79v-26.44z" fill="#efc597"/><path d="m134.73 407.66v35.42l-28.58 2.62c-14.76 1.35-26.62 12.65-26.62 27.47h-.27l.46-65.51z" fill="#ffd8b7"/><path d="m223.04 212.29c-20.26-13.25-34.17-37.7-34.97-62.29h-1.22c-.27 0-.54-.01-.81-.02a17.276 17.276 0 0 1 -15.93-21.34c1.79-7.31 8.9-10.81 15.4-9.58h.54v-.06c9.98-31.74 30.7-45.28 45.13-51 11.07 12.95 28.7 19.61 62.3 21.67 0 0 6.56 26.59 31.98 29.28v.01h.49a13.151 13.151 0 0 1 15.39 9.68 16.966 16.966 0 0 1 .5 4.12 17.243 17.243 0 0 1 -16.4 17.22c-.28.01-.56.02-.84.02h-1.17c-.79 24.41-14.5 48.68-34.52 62a57.925 57.925 0 0 1 -65.87.29z" fill="#ffd8b7"/><path d="m134.73 297.03h242.54v171.53h-242.54z" fill="#cae6ee"/><path d="m351.8 245.57h-95.8v51.46h121.27z" fill="#a5bfce"/><path d="m224.21 297.03v.17 38.55h66.46v-38.55-.17z" fill="#c6e02d"/><path d="m288.49 468.39v.17h-62.1v-.17-55.23l10.16 10.7 10.5-10.7 10.39 10.7 10.39-10.7 10.5 10.7 10.16-10.7z" fill="#fb6771"/><path d="m160.2 245.57-25.47 51.46h121.27v-51.46z" fill="#b3d1e7"/><path d="m253.04 212.29c-20.26-13.25-34.17-37.7-34.97-62.29l-1.128-17.31a58.379 58.379 0 0 1 8.525-34.542 74.986 74.986 0 0 1 17.926-20.02 46.712 46.712 0 0 1 -12.213-10.128c-14.43 5.72-35.15 19.26-45.13 51v.06h-.54c-6.5-1.23-13.61 2.27-15.4 9.58a17.276 17.276 0 0 0 15.93 21.34c.27.01.54.02.81.02h1.22c.8 24.59 14.71 49.04 34.97 62.29a59.5 59.5 0 0 0 32.71 10.13 56.376 56.376 0 0 0 14.991-2.045 62.683 62.683 0 0 1 -17.701-8.085z" fill="#e0b899"/><path d="m134.73 297.03h30v171.53h-30z" fill="#aacad1"/><path d="m160.2 245.57-25.47 51.46h30l25.47-51.46z" fill="#9bbbce"/><g fill="#284268"><path d="m437.862 347.8a92.6 92.6 0 0 0 -67.02-86.535l-5.424-1.557-8.242-16.579a5.811 5.811 0 0 0 -5.376-3.129h-22.913a78.7 78.7 0 0 0 4.091-31.323l-1.978-25.45v-28.274a22.841 22.841 0 0 0 16.617-22.194 23.241 23.241 0 0 0 -.555-5.541 19.01 19.01 0 0 0 -15.237-14.2l1.352-19.206a77.212 77.212 0 0 0 -16.509-53.467c-6.566-8.3-15.526-15.474-27.4-21.919-35.021-19.01-73.716 3.784-78.653 6.93l-.032-.045a77.215 77.215 0 0 0 -32.287 68.5l1.33 19.279a18.994 18.994 0 0 0 -15.345 14.126 23.294 23.294 0 0 0 -.687 5.542c0 10.441 7.405 19.282 16.405 22.2v28.356l-1.729 25.36a77.728 77.728 0 0 0 4.292 31.326h-22.362a5.811 5.811 0 0 0 -5.377 3.124l-8.223 16.586-5.437 1.558a92.6 92.6 0 0 0 -67.021 86.539v.118l-.928 132a20.93 20.93 0 0 0 21 21.076h323.578a20.933 20.933 0 0 0 21-21.135l-.928-131.966c0-.036-.001-.066-.002-.1zm-11.316 97.436a30.7 30.7 0 0 0 -15.449-5.6l-28.097-2.1v-23.536h43.325zm-78.472-193.236 19.517 39h-105.591v-39zm-63.074 51v27h-55v-27zm-56-63v-17.529c9 3.893 17.551 5.949 26.751 5.949a65.357 65.357 0 0 0 27.249-6.17v17.75zm66 0v-24.906a104.3 104.3 0 0 0 12.373-11.239 87.4 87.4 0 0 0 12.256-17.645l1.6 23.293a65.629 65.629 0 0 1 -5.2 30.5zm-11.453-211.027c10.418 5.655 18.176 11.81 23.716 18.815a65.311 65.311 0 0 1 13.97 45.2l-1.288 18.679c-15.827-5.266-20.435-22.632-20.64-23.436a6 6 0 0 0 -5.459-4.551c-52.041-3.19-62.467-16.59-72.626-50.658 10.035-5.284 37.849-17.338 62.327-4.049zm-72.587 11.5c3.093 9.751 6.462 18.1 10.96 25.149a79.234 79.234 0 0 0 -31.52 29.264l-.131-1.9a65.2 65.2 0 0 1 20.691-52.514zm-35.345 92.289a11.359 11.359 0 0 1 .322-2.689 6.958 6.958 0 0 1 7.007-5.255 7.783 7.783 0 0 1 1.446.107 6.036 6.036 0 0 0 1.116.076h.546a5.95 5.95 0 0 0 5.841-4.595c8.354-26.187 24.417-38.967 37.718-45.2 11.534 11.389 29.144 17.877 59.433 20.169 3.239 8.512 12.77 26.895 35.348 29.51a5.984 5.984 0 0 0 1.064.115h.492a5.985 5.985 0 0 0 1.115-.123 7.149 7.149 0 0 1 8.454 5.2 11.248 11.248 0 0 1 -10.917 13.923h-1.167a6 6 0 0 0 -6 5.8c-.534 16.413-7.461 33.189-19.006 46.031-11.935 13.275-27.093 20.586-42.68 20.586s-30.745-7.311-42.681-20.587c-11.545-12.842-18.472-29.617-19-46.029a6 6 0 0 0 -6-5.8h-1.215a11.252 11.252 0 0 1 -11.236-11.24zm41.385 82.69v24.548h-21.549a65.639 65.639 0 0 1 -5.191-30.5l1.609-23.315a87.345 87.345 0 0 0 12.259 17.667 65.645 65.645 0 0 0 12.872 11.6zm-131.325 198.548h43.325v23.563l-23.4 2.15a36.608 36.608 0 0 0 -20.171 8.466zm53.325 75h-44.792a8.9 8.9 0 0 1 -6.388-2.619 9.092 9.092 0 0 1 -2.612-6.476l.048-6.9h.27c0-11 8.9-20.289 21.172-21.412l22.302-2.013v19.691a5.746 5.746 0 0 0 5.729 5.729h4.271zm-9.648-194.526a5.7 5.7 0 0 0 -.352 4.319v103.207h-43.241l.376-53.76a80.739 80.739 0 0 1 53.1-73.7zm231.648 194.526h-210v-14h210zm-129-26v-34.818a6.85 6.85 0 0 0 4.5 1.818h.049a6.066 6.066 0 0 0 4.283-1.869l6.194-6.349 6.1 6.274a6.006 6.006 0 0 0 8.612-.014l6.1-6.293 6.194 6.383a6.067 6.067 0 0 0 4.295 1.868h.049a4.824 4.824 0 0 0 3.624-1.818v34.818zm139 0h-77v-49.845a5.742 5.742 0 0 0 -9.985-4.131l-5.82 6.195-6.115-6.343a6.007 6.007 0 0 0 -4.253-1.876h-.016a6.061 6.061 0 0 0 -4.29 1.9l-6.081 6.3-6.081-6.324a6.036 6.036 0 0 0 -4.29-1.88h-.016a6.077 6.077 0 0 0 -4.283 1.876l-6.146 6.3-5.88-6.175a6.311 6.311 0 0 0 -6.771-1.432 6.2 6.2 0 0 0 -3.973 5.59v49.845h-79v-160h25a6 6 0 0 0 0-12h-21.591l19.517-39h86.074v39h-44a6 6 0 0 0 0 12h12v32.747a6.4 6.4 0 0 0 6.206 6.253h66.468a6.506 6.506 0 0 0 6.326-6.253v-32.747h74zm32.1-168.9a80.83 80.83 0 0 1 22.77 54.141l.376 53.76h-43.246v-103.208a5.976 5.976 0 0 0 -.352-4.426l-9.874-19.867a80.761 80.761 0 0 1 30.326 19.6zm21.08 192.283a8.9 8.9 0 0 1 -6.388 2.617h-44.792v-14h4.271a5.729 5.729 0 0 0 5.729-5.729v-19.733l27.221 1.984c8.543.626 15.594 7.16 16.475 14.93l.1 13.564a8.848 8.848 0 0 1 -2.616 6.367z"/><path d="m169 314.763a6 6 0 0 0 -6 6v6.3a6 6 0 0 0 12 0v-6.3a6 6 0 0 0 -6-6z"/><path d="m169 340.058a6 6 0 0 0 -6 6v66a6 6 0 0 0 12 0v-66a6 6 0 0 0 -6-6z"/></g></svg>