<svg id="Layer_1" height="512" viewBox="0 0 512 512" width="512" xmlns="http://www.w3.org/2000/svg" data-name="Layer 1"><path d="m473.34 197h-434.68c-7.04 0-12.66 6.13-12.66 13.18v38.82h460v-38.82c0-7.05-5.62-13.18-12.66-13.18z" fill="#d8738b"/><path d="m440.88 150h-368.7a27.413 27.413 0 0 0 -27.18 27.45v19.55h423v-19.55a27.362 27.362 0 0 0 -27.12-27.45z" fill="#fc8193"/><path d="m425.39 148.91v1.36h-46.69v-103.26a4.246 4.246 0 0 1 4.25-4.25h38.19a4.246 4.246 0 0 1 4.25 4.25z" fill="#ccd3df"/><path d="m134.37 148.91v1.36h-46.7v-103.26a4.246 4.246 0 0 1 4.25-4.25h38.19a4.255 4.255 0 0 1 4.26 4.25z" fill="#ccd3df"/><path d="m468.9 248.82v177.9a42.524 42.524 0 0 1 -42.52 42.52h-339.7a42.524 42.524 0 0 1 -42.52-42.52v-177.9z" fill="#98e2e0"/><path d="m387.28 310.59v88.34a12.76 12.76 0 0 1 -25.52 0v-88.34a12.76 12.76 0 0 1 25.52 0z" fill="#79c6cc"/><path d="m308.62 310.59v88.34a12.755 12.755 0 1 1 -25.51 0v-88.34a12.755 12.755 0 0 1 25.51 0z" fill="#79c6cc"/><path d="m229.96 310.59v88.34a12.755 12.755 0 1 1 -25.51 0v-88.34a12.755 12.755 0 0 1 25.51 0z" fill="#79c6cc"/><path d="m151.3 310.59v88.34a12.755 12.755 0 1 1 -25.51 0v-88.34a12.755 12.755 0 0 1 25.51 0z" fill="#79c6cc"/><path d="m68.66 197h-30c-7.04 0-12.66 6.13-12.66 13.18v38.82h30v-38.82c0-7.05 5.62-13.18 12.66-13.18z" fill="#ff97b0"/><path d="m74.16 426.72v-177.9h-30v177.9a42.524 42.524 0 0 0 42.52 42.52h30a42.524 42.524 0 0 1 -42.52-42.52z" fill="#d2fffd"/><path d="m102.18 150h-30a27.413 27.413 0 0 0 -27.18 27.45v19.55h30v-19.55a27.413 27.413 0 0 1 27.18-27.45z" fill="#ffb6c4"/><g fill="#284268"><path d="m217 417.687a18.987 18.987 0 0 0 19-18.755v-88.341a19 19 0 0 0 -38 0v88.341a18.987 18.987 0 0 0 19 18.755zm-7-107.1a7 7 0 0 1 14 0v88.341a7 7 0 0 1 -14 0z"/><path d="m120 310.591v88.341a18.5 18.5 0 1 0 37 0v-88.341a18.5 18.5 0 1 0 -37 0zm12 0a6.5 6.5 0 1 1 13 0v88.341a6.5 6.5 0 1 1 -13 0z"/><path d="m296 417.687a18.987 18.987 0 0 0 19-18.755v-88.341a19 19 0 0 0 -38 0v88.341a18.987 18.987 0 0 0 19 18.755zm-7-107.1a7 7 0 0 1 14 0v88.341a7 7 0 0 1 -14 0z"/><path d="m374.5 417.687a18.56 18.56 0 0 0 18.5-18.755v-88.341a18.5 18.5 0 1 0 -37 0v88.341a18.56 18.56 0 0 0 18.5 18.755zm-6.5-107.1a6.5 6.5 0 1 1 13 0v88.341a6.5 6.5 0 1 1 -13 0z"/><path d="m76 268.1a6 6 0 0 0 -6 6v6.3a6 6 0 0 0 12 0v-6.3a6 6 0 0 0 -6-6z"/><path d="m76 293.391a6 6 0 0 0 -6 6v76a6 6 0 0 0 12 0v-76a6 6 0 0 0 -6-6z"/><path d="m26.176 255h11.824v171.721c0 26.754 21.93 48.279 48.683 48.279h339.7a48.456 48.456 0 0 0 48.617-48.279v-171.721h11.1a5.9 5.9 0 0 0 5.9-5.9v-39.44a18.677 18.677 0 0 0 -18-18.624v-13.582c0-18.3-14.822-33.454-33.119-33.454h-9.881v-96.988a9.731 9.731 0 0 0 -9.858-10.012h-38.193a9.806 9.806 0 0 0 -9.949 10.012v96.988h-233v-96.988a9.754 9.754 0 0 0 -9.886-10.012h-38.193a9.782 9.782 0 0 0 -9.921 10.012v96.988h-9.818a33.453 33.453 0 0 0 -33.182 33.454v13.555a19.229 19.229 0 0 0 -19 19.169v38.646a6.194 6.194 0 0 0 6.176 6.176zm358.824-206h34v95h-34zm-291 0h34v95h-34zm-43 128.454a21.44 21.44 0 0 1 21.182-21.454h368.7a21.386 21.386 0 0 1 21.118 21.454v13.546h-411zm-19 32.724a7.2 7.2 0 0 1 7.178-7.178h434.162a6.66 6.66 0 0 1 6.66 6.66v33.34h-320a6 6 0 0 0 0 12h303v171.721a36.443 36.443 0 0 1 -36.62 36.279h-339.697a36.5 36.5 0 0 1 -36.683-36.279v-171.721h70a6 6 0 0 0 0-12h-88z"/></g></svg>