<svg id="Layer_1" height="512" viewBox="0 0 512 512" width="512" xmlns="http://www.w3.org/2000/svg" data-name="Layer 1"><path d="m471.24 53.89v336.25l-67.97 67.97v-336.25z" fill="#a5bfce"/><path d="m289.98 54-67.96 68h181.25l67.97-68z" fill="#c2e0f2"/><path d="m41 122h362v336h-362z" fill="#b3d1e7"/><path d="m108.73 54-67.97 68h181.26l67.96-68z" fill="#d4e1f4"/><path d="m273.28 122.21v62.38h-102.12v-62.38-.35h50.86 51.26z" fill="#aaef68"/><path d="m269.92 457.94v.17h-95.4v-.17-91.18l15.61 16.45 16.13-16.45 15.96 16.45 15.96-16.45 16.13 16.45 15.61-16.45z" fill="#aaef68"/><path d="m41 122h30v336h-30z" fill="#94b1bf"/><path d="m108.73 54-67.97 68h30l67.97-68z" fill="#c3cedb"/><g fill="#284268"><path d="m234.733 282h75.267a6 6 0 0 0 0-12h-75.267a6 6 0 0 0 0 12z"/><path d="m219.461 276a6 6 0 0 0 -6-6h-37.561a6 6 0 1 0 0 12h37.566a6 6 0 0 0 5.995-6z"/><path d="m130.014 282h25.147a6 6 0 0 0 0-12h-25.147a6 6 0 0 0 0 12z"/><path d="m294.9 246h15.1a6 6 0 0 0 0-12h-15.1a6 6 0 0 0 0 12z"/><path d="m240.217 246h34.107a6 6 0 1 0 0-12h-34.107a6 6 0 1 0 0 12z"/><path d="m130.014 246h89.411a6 6 0 0 0 0-12h-89.411a6 6 0 0 0 0 12z"/><path d="m310 306h-44.241a6 6 0 0 0 0 12h44.241a6 6 0 0 0 0-12z"/><path d="m245.142 306h-33.271a6 6 0 1 0 0 12h33.271a6 6 0 1 0 0-12z"/><path d="m196.423 312a6 6 0 0 0 -6-6h-60.409a6 6 0 0 0 0 12h60.409a6 6 0 0 0 6-6z"/><path d="m40.763 464h362.5a5.951 5.951 0 0 0 4.243-1.7l67.851-67.941a5.828 5.828 0 0 0 1.643-4.217v-336.253a5.708 5.708 0 0 0 -5.763-5.889h-362.5a5.951 5.951 0 0 0 -4.243 1.7l-67.855 67.943a5.828 5.828 0 0 0 -1.639 4.215v336.253a5.708 5.708 0 0 0 5.763 5.889zm223.237-12h-83v-70.2l5.019 5.541a5.736 5.736 0 0 0 4.182 1.869 5.91 5.91 0 0 0 4.272-1.8l11.8-12.055 11.66 12.031a5.985 5.985 0 0 0 8.6 0l11.667-12.031 11.824 11.951a5.9 5.9 0 0 0 4.285 1.694h.049a5.94 5.94 0 0 0 4.342-1.765l5.3-5.435zm201-64.343-56 55.969v-319.212l56-55.969zm-8.167-327.657-56.051 56h-164.424l56.112-56zm-189.833 68v51h-90v-51zm-220 0h54a6 6 0 0 0 0-12h-45.894l56.112-56h164.282l-56.112 56h-78.388a6 6 0 0 0 0 12h24v56.591a6.5 6.5 0 0 0 6.16 6.409h102.119c3.313 0 5.721-3.095 5.721-6.409v-56.591h118v324h-121v-85.237a6.043 6.043 0 0 0 -10.411-4.131l-11.341 11.936-11.782-11.888a5.9 5.9 0 0 0 -4.288-1.68h-.016a5.874 5.874 0 0 0 -4.29 1.7l-11.652 11.951-11.653-12.036a6.009 6.009 0 0 0 -4.289-1.837 6.109 6.109 0 0 0 -4.3 1.791l-11.778 12-11.331-11.94a5.627 5.627 0 0 0 -6.334-1.442 5.79 5.79 0 0 0 -3.535 5.576v85.237h-122z"/><path d="m71 154.1a6 6 0 0 0 -6 6v6.3a6 6 0 0 0 12 0v-6.3a6 6 0 0 0 -6-6z"/><path d="m71 179.391a6 6 0 0 0 -6 6v76a6 6 0 0 0 12 0v-76a6 6 0 0 0 -6-6z"/></g></svg>