<?xml version="1.0" encoding="UTF-8"?>
<svg xmlns="http://www.w3.org/2000/svg" id="Layer_1" data-name="Layer 1" viewBox="0 0 512 512" width="512" height="512"><path d="M256,180.291A75.709,75.709,0,1,0,331.709,256,75.795,75.795,0,0,0,256,180.291Zm0,139.418A63.709,63.709,0,1,1,319.709,256,63.781,63.781,0,0,1,256,319.709Z"/><path d="M256,225.766a11.778,11.778,0,0,1,11.766,11.765,6,6,0,0,0,12,0,23.808,23.808,0,0,0-17.766-23v-5.46a6,6,0,0,0-12,0v5.46a23.766,23.766,0,0,0,6,46.763,11.766,11.766,0,1,1-11.766,11.766,6,6,0,0,0-12,0,23.806,23.806,0,0,0,17.766,23v6.866a6,6,0,0,0,12,0V296.06a23.766,23.766,0,0,0-6-46.763,11.766,11.766,0,1,1,0-23.531Z"/><path d="M16,391H496a6,6,0,0,0,6-6V128a6,6,0,0,0-6-6H16a6,6,0,0,0-6,6V385A6,6,0,0,0,16,391Zm6-257H490V378H22Z"/><path d="M72.585,256A26.418,26.418,0,1,0,99,229.583,26.448,26.448,0,0,0,72.585,256Zm40.835,0A14.418,14.418,0,1,1,99,241.583,14.433,14.433,0,0,1,113.42,256Z"/><path d="M413,229.583A26.417,26.417,0,1,0,439.415,256,26.447,26.447,0,0,0,413,229.583Zm0,40.834A14.417,14.417,0,1,1,427.415,256,14.433,14.433,0,0,1,413,270.417Z"/><path d="M464.244,184.887c-14-.382-24.565-11.551-24.538-25.942a5.976,5.976,0,0,0-6-5.945H139a6,6,0,0,0,0,12h71.01a101.954,101.954,0,0,0,2.022,183H82.829A39.041,39.041,0,0,0,52,315.757V196.276A37.829,37.829,0,0,0,82.825,165H99a6,6,0,0,0,0-12H77.294a5.986,5.986,0,0,0-6,5.969,25.95,25.95,0,0,1-25.565,25.919,5.958,5.958,0,0,0-5.729,6V321.117a6.028,6.028,0,0,0,5.719,5.994c14.111.363,25.6,12.478,25.575,26.944a5.975,5.975,0,0,0,6,5.945H433.706a5.966,5.966,0,0,0,6-5.921c-.039-14.72,10.747-26.58,24.515-26.966a5.98,5.98,0,0,0,5.779-6V190.883A5.971,5.971,0,0,0,464.244,184.887ZM166.024,256A89.976,89.976,0,1,1,256,345.976,90.078,90.078,0,0,1,166.024,256ZM458,315.761c-15.532,2.993-27.487,15.892-29.863,32.239H299.968a101.954,101.954,0,0,0,2.022-183H428.14A36.674,36.674,0,0,0,458,196.273Z"/></svg>
