<?xml version="1.0" encoding="UTF-8"?>
<svg xmlns="http://www.w3.org/2000/svg" id="Layer_1" data-name="Layer 1" viewBox="0 0 512 512" width="512" height="512"><path d="M282.14,93.959a19.594,19.594,0,1,0,19.592,19.594A19.616,19.616,0,0,0,282.14,93.959Zm0,27.187a7.594,7.594,0,1,1,7.592-7.593A7.6,7.6,0,0,1,282.14,121.146Z"/><path d="M306.044,157.05a19.593,19.593,0,1,0,19.593-19.593A19.615,19.615,0,0,0,306.044,157.05Zm27.186,0a7.593,7.593,0,1,1-7.593-7.593A7.6,7.6,0,0,1,333.23,157.05Z"/><path d="M329.961,100.744l-60.63,60.63a6,6,0,1,0,8.484,8.485l60.63-60.63a6,6,0,0,0-8.484-8.485Z"/><path d="M393.237,132.29a89.638,89.638,0,0,0-84.1-86.342c-46.525-2.7-86,30.846-93.392,74.308A5.8,5.8,0,0,0,221.484,127h.362a5.773,5.773,0,0,0,5.717-4.774,77.516,77.516,0,1,1,2.755,36.854A5.859,5.859,0,0,0,224.77,155h-.421a5.829,5.829,0,0,0-5.515,7.658,89.386,89.386,0,0,0,174.4-30.368Z"/><path d="M85.724,505h70.288a6.059,6.059,0,0,0,5.96-5.379L165.038,473h16.509a99.016,99.016,0,0,1,52.211,14.944C251.61,499.019,271.634,500,292.3,500h54.919a24.7,24.7,0,0,0,19.472-39.974,24.809,24.809,0,0,0,5.107-41.328,25.378,25.378,0,0,0,.332-38.257,23.225,23.225,0,0,0,8.536-17.987A23.507,23.507,0,0,0,357.028,339H338.651C354.226,334,364,318.616,364,297.3v-.721c0-3.314-2.91-5.583-6.224-5.583H329V251.963l1.184-.625a14.49,14.49,0,0,1,8.594-2.29l14.838.813a26,26,0,0,0,24.666-14.237l6.632-13.1a13.92,13.92,0,0,1,6.19-6.184l13.1-6.616a26,26,0,0,0,14.239-24.637l-.812-14.778a14.1,14.1,0,0,1,2.29-8.477l8.058-12.22a25.969,25.969,0,0,0,0-28.624l-8.056-12.219a14.092,14.092,0,0,1-2.291-8.477l.813-14.779a26,26,0,0,0-14.237-24.636l-13.1-6.617a14.094,14.094,0,0,1-6.183-6.183l-6.617-13.1a25.984,25.984,0,0,0-24.637-14.237l-14.779.813a14.072,14.072,0,0,1-8.475-2.291L318.2,11.207a25.971,25.971,0,0,0-28.624,0l-12.22,8.057a14.126,14.126,0,0,1-8.475,2.291l-14.78-.813a25.991,25.991,0,0,0-24.636,14.237l-6.617,13.1a13.908,13.908,0,0,1-6.183,6.183l-13.1,6.617a26,26,0,0,0-14.236,24.636l.813,14.778a14.1,14.1,0,0,1-2.291,8.477l-8.058,12.22a25.973,25.973,0,0,0,0,28.624l8.058,12.22a14.1,14.1,0,0,1,2.291,8.477l-.813,14.778a26,26,0,0,0,14.237,24.637l13.1,6.616a13.91,13.91,0,0,1,6.183,6.184l6.617,13.1A26,26,0,0,0,254.1,249.861l14.78-.813a13.992,13.992,0,0,1,8.432,2.291l2.687,1.8V291H246.047c-14.539,0-25.166,5.884-31.588,17.9a52.729,52.729,0,0,1-30.084,25.63l-.23.024a14.7,14.7,0,0,1-3.166.629l.926-8.025a6.537,6.537,0,0,0-1.481-4.914,6.243,6.243,0,0,0-4.48-2.243H105.656a6.2,6.2,0,0,0-5.96,5.54L79.763,498.285A6.023,6.023,0,0,0,85.724,505ZM351.547,303c-1.956,20.839-15.928,24.439-22.547,24.931V303Zm-81.926-65.972q-.7,0-1.4.038l-14.779.814a13.984,13.984,0,0,1-13.266-7.667l-6.617-13.1a25.822,25.822,0,0,0-11.484-11.485l-13.1-6.616a14,14,0,0,1-7.667-13.266l.814-14.78a26.179,26.179,0,0,0-4.254-15.74l-8.058-12.22a13.983,13.983,0,0,1,0-15.413l8.058-12.22a26.18,26.18,0,0,0,4.254-15.741l-.814-14.78a14,14,0,0,1,7.667-13.265l13.1-6.617a25.821,25.821,0,0,0,11.483-11.483l6.617-13.1a14,14,0,0,1,13.266-7.667l14.779.814a26.121,26.121,0,0,0,15.741-4.254l12.22-8.058a13.985,13.985,0,0,1,15.413,0l12.22,8.057a26.132,26.132,0,0,0,15.742,4.255l14.778-.814A14.031,14.031,0,0,1,367.6,40.39l6.617,13.1A25.83,25.83,0,0,0,385.7,64.972l13.1,6.617a14,14,0,0,1,7.665,13.266l-.814,14.779a26.184,26.184,0,0,0,4.255,15.741l8.057,12.219a13.987,13.987,0,0,1,0,15.414l-8.059,12.221a26.185,26.185,0,0,0-4.254,15.74l.814,14.779a14,14,0,0,1-7.665,13.266l-13.1,6.616a25.835,25.835,0,0,0-11.482,11.484l-6.617,13.1a14.02,14.02,0,0,1-13.266,7.667l-14.778-.814a26.144,26.144,0,0,0-15.742,4.254l-12.22,8.057a13.982,13.982,0,0,1-15.413,0l-12.22-8.057A26.2,26.2,0,0,0,269.621,237.028ZM317,259.837V339H292V260.838a26.053,26.053,0,0,0,11.609,2.857A24.863,24.863,0,0,0,317,259.837ZM179.585,347.122a26.713,26.713,0,0,0,8.3-1.274l.232-.049a64.461,64.461,0,0,0,36.928-31.257c2.928-5.477,7.96-11.542,21-11.542H280v26.533a6.052,6.052,0,0,0-6.185-3.737,6.128,6.128,0,0,0-5.314,6.749A20.637,20.637,0,0,0,288.93,351h68.1a11.5,11.5,0,0,1,11.633,11.455A11.667,11.667,0,0,1,356.915,374l-37.153,0a6,6,0,1,0,0,12h35.465a13.5,13.5,0,0,1,0,27h-25.96a6,6,0,0,0,0,12h26.545a13,13,0,0,1,0,26H329.9a6,6,0,1,0,0,12h17.317a12.5,12.5,0,1,1,0,25H292.3c-18.858,0-37.043-.843-52.211-10.253A111.011,111.011,0,0,0,181.547,461H166.424ZM111,332h58.209L150.665,493H92.456Z"/><path d="M124.5,450.649A14.391,14.391,0,1,0,138.9,465.04,14.407,14.407,0,0,0,124.5,450.649Zm0,16.781a2.391,2.391,0,1,1,2.391-2.39A2.393,2.393,0,0,1,124.5,467.43Z"/><path d="M123.791,362.938a6,6,0,0,0,6.648-5.272l1.14-9.874a6,6,0,1,0-11.921-1.375l-1.14,9.873A6,6,0,0,0,123.791,362.938Z"/><path d="M116.343,433.1a6.3,6.3,0,0,0,.695.04,6,6,0,0,0,5.953-5.313l5.678-49.176a6,6,0,0,0-11.921-1.376l-5.678,49.176A6,6,0,0,0,116.343,433.1Z"/></svg>
