<?xml version="1.0" encoding="UTF-8"?>
<svg xmlns="http://www.w3.org/2000/svg" id="Layer_1" data-name="Layer 1" viewBox="0 0 512 512" width="512" height="512"><path d="M197.711,288.5a5.825,5.825,0,0,0,5.539,3.5H309.683a5.826,5.826,0,0,0,5.625-3.718l7.675-20.594a5.786,5.786,0,0,0,.357-2.5l-8.4-107.832A5.846,5.846,0,0,0,308.959,152H286v-5.264c0-16.061-13.439-29.127-29.5-29.127S227,130.675,227,146.736V152H203.974A5.865,5.865,0,0,0,198,157.326l-9.332,107.936a5.453,5.453,0,0,0,.438,2.684Zm107.8-8.5H207.253l-3.616-8h105.1ZM239,146.736c0-9.444,8.056-17.127,17.5-17.127s17.5,7.683,17.5,17.127V152H239ZM209.478,164H227v22.574a6,6,0,0,0,12,0V164h35v22.574a6,6,0,0,0,12,0V164h17.407l7.466,96H201.183Z"/><path d="M284,211H229a6,6,0,0,0-6,6v19a6,6,0,0,0,6,6h55a6,6,0,0,0,6-6V217A6,6,0,0,0,284,211Zm-6,19H235v-7h43Z"/><path d="M430,307V102a6,6,0,0,0-6-6H87a6,6,0,0,0-6,6V307a6,6,0,0,0,6,6H424A6,6,0,0,0,430,307Zm-12-6H93V108H418Z"/><path d="M117,142.392a6,6,0,0,0,6-6v-6.3a6,6,0,0,0-12,0v6.3A6,6,0,0,0,117,142.392Z"/><path d="M117,217.392a6,6,0,0,0,6-6v-56a6,6,0,1,0-12,0v56A6,6,0,0,0,117,217.392Z"/><path d="M497.361,402.5l-33.069-65.589c-.078-.157-.292-.208-.292-.355V100.6A35.637,35.637,0,0,0,428.077,65H83.923A35.637,35.637,0,0,0,48,100.6V336.559c0,.147-.215.3-.293.456L14.658,402.533A9.346,9.346,0,0,0,14.024,405H14v6.4A35.7,35.7,0,0,0,50,447H462a35.7,35.7,0,0,0,36-35.6l-.01-6.4A4.964,4.964,0,0,0,497.361,402.5ZM56.729,346H108a6,6,0,0,0,0-12H60V100.6A23.6,23.6,0,0,1,83.6,77H428.077A23.923,23.923,0,0,1,452,100.923V334H148a6,6,0,0,0,0,12H455.271l27,53.545-154.426-.119-6-18.349A10.185,10.185,0,0,0,312.348,374h-112.7c-4.321,0-7.651,2.974-9.651,7.076v-.1L184.156,399H29.731ZM486,411.4A23.69,23.69,0,0,1,462,435H50a23.69,23.69,0,0,1-24-23.6V411H188.49a6.005,6.005,0,0,0,5.7-4.12L201.1,386H310.9l6.909,21.093a6.1,6.1,0,0,0,5.7,4.224L486,411.343Z"/></svg>
