<svg id="Layer_1" height="512" viewBox="0 0 512 512" width="512" xmlns="http://www.w3.org/2000/svg" data-name="Layer 1"><path d="m158.939 259h15.061v14.1a6 6 0 0 0 12 0v-14.1h14.682a6 6 0 1 0 0-12h-14.682v-14.573a6 6 0 0 0 -12 0v14.573h-15.061a6 6 0 1 0 0 12z"/><path d="m124.28 252.762a55.53 55.53 0 1 0 55.531-55.531 55.594 55.594 0 0 0 -55.531 55.531zm55.531-43.531a43.531 43.531 0 1 1 -43.531 43.531 43.58 43.58 0 0 1 43.531-43.531z"/><path d="m313.584 270.418a6 6 0 0 0 8.482.222l10.123-9.607 10.124 9.607a6 6 0 1 0 8.26-8.7l-9.667-9.175 9.667-9.174a6 6 0 1 0 -8.26-8.7l-10.124 9.607-10.123-9.607a6 6 0 1 0 -8.259 8.7l9.667 9.174-9.667 9.175a6 6 0 0 0 -.223 8.478z"/><path d="m332.189 308.292a55.531 55.531 0 1 0 -55.529-55.53 55.594 55.594 0 0 0 55.529 55.53zm0-99.061a43.531 43.531 0 1 1 -43.529 43.531 43.58 43.58 0 0 1 43.529-43.531z"/><path d="m198.233 363.555a6 6 0 0 0 -8.484 0l-28.758 28.757a6 6 0 0 0 8.485 8.486l28.757-28.757a6 6 0 0 0 0-8.486z"/><path d="m179.811 326.168a55.53 55.53 0 1 0 55.529 55.532 55.594 55.594 0 0 0 -55.529-55.532zm0 99.06a43.53 43.53 0 1 1 43.529-43.528 43.58 43.58 0 0 1 -43.529 43.528z"/><path d="m311.318 388h41.743a6 6 0 0 0 0-12h-41.743a6 6 0 0 0 0 12z"/><path d="m332.189 437.228a55.53 55.53 0 1 0 -55.529-55.528 55.594 55.594 0 0 0 55.529 55.528zm0-99.06a43.53 43.53 0 1 1 -43.529 43.532 43.58 43.58 0 0 1 43.529-43.532z"/><path d="m174.11 376.249a13.976 13.976 0 1 0 -9.882 4.093 13.883 13.883 0 0 0 9.883-4.094zm-11.277-11.28a1.975 1.975 0 1 1 2.793 2.793 1.975 1.975 0 1 1 -2.792-2.794z"/><path d="m184.583 386.721a13.975 13.975 0 1 0 19.764 0 13.99 13.99 0 0 0 -19.764 0zm11.279 11.279a1.974 1.974 0 1 1 0-2.794 1.965 1.965 0 0 1 -.001 2.794z"/><path d="m390 31h-267a46 46 0 0 0 -46 46v358a46 46 0 0 0 46 46h267a46 46 0 0 0 46-46v-358a46 46 0 0 0 -46-46zm33 133h-239a6 6 0 0 0 0 12h239v258.914a33.824 33.824 0 0 1 -33.661 34.086h-266.678a33.824 33.824 0 0 1 -33.661-34.086v-258.914h55a6 6 0 0 0 0-12h-55v-86.914a33.824 33.824 0 0 1 33.661-34.086h266.678a33.824 33.824 0 0 1 33.661 34.086z"/><path d="m382 73h-253a6 6 0 0 0 -6 6v57a6 6 0 0 0 6 6h253a6 6 0 0 0 6-6v-57a6 6 0 0 0 -6-6zm-5 57h-242v-45h242z"/><path d="m112 191.1a6 6 0 0 0 -6 6v6.3a6 6 0 0 0 12 0v-6.3a6 6 0 0 0 -6-6z"/><path d="m112 216.391a6 6 0 0 0 -6 6v81a6 6 0 0 0 12 0v-81a6 6 0 0 0 -6-6z"/></svg>