<svg id="Layer_1" height="512" viewBox="0 0 512 512" width="512" xmlns="http://www.w3.org/2000/svg" data-name="Layer 1"><path d="m213 269.349a6 6 0 0 0 -6 6v28.065a6 6 0 0 0 12 0v-28.065a6 6 0 0 0 -6-6z"/><path d="m213 243.507a6 6 0 0 0 6-6v-18.668a6 6 0 0 0 -12 0v18.668a6 6 0 0 0 6 6z"/><path d="m195 269.349a6 6 0 0 0 -6 6v39.812a6 6 0 0 0 12 0v-39.812a6 6 0 0 0 -6-6z"/><path d="m189 218.839v18.668a6 6 0 0 0 12 0v-18.668a6 6 0 0 0 -12 0z"/><path d="m172 275.349v16.318a6 6 0 0 0 12 0v-16.318a6 6 0 0 0 -12 0z"/><path d="m184 237.507v-18.668a6 6 0 0 0 -12 0v18.668a6 6 0 0 0 12 0z"/><path d="m230 269.349a6 6 0 0 0 -6 6v39.812a6 6 0 1 0 12 0v-39.812a6 6 0 0 0 -6-6z"/><path d="m230 243.507a6 6 0 0 0 6-6v-18.668a6 6 0 0 0 -12 0v18.668a6 6 0 0 0 6 6z"/><path d="m247 269.349a6 6 0 0 0 -6 6v33.938a6 6 0 1 0 12 0v-33.938a6 6 0 0 0 -6-6z"/><path d="m247 243.507a6 6 0 0 0 6-6v-18.668a6 6 0 0 0 -12 0v18.668a6 6 0 0 0 6 6z"/><path d="m265 269.349a6 6 0 0 0 -6 6v33.938a6 6 0 1 0 12 0v-33.938a6 6 0 0 0 -6-6z"/><path d="m265 243.507a6 6 0 0 0 6-6v-18.668a6 6 0 0 0 -12 0v18.668a6 6 0 0 0 6 6z"/><path d="m282 269.349a6 6 0 0 0 -6 6v39.812a6 6 0 1 0 12 0v-39.812a6 6 0 0 0 -6-6z"/><path d="m282 243.507a6 6 0 0 0 6-6v-18.668a6 6 0 0 0 -12 0v18.668a6 6 0 0 0 6 6z"/><path d="m299 269.349a6 6 0 0 0 -6 6v12.572a6 6 0 1 0 12 0v-12.572a6 6 0 0 0 -6-6z"/><path d="m299 243.507a6 6 0 0 0 6-6v-18.668a6 6 0 1 0 -12 0v18.668a6 6 0 0 0 6 6z"/><path d="m323 315.161v-39.812a6 6 0 1 0 -12 0v39.812a6 6 0 1 0 12 0z"/><path d="m317 243.507a6 6 0 0 0 6-6v-18.668a6 6 0 1 0 -12 0v18.668a6 6 0 0 0 6 6z"/><path d="m328 275.349v28.065a6 6 0 0 0 12 0v-28.065a6 6 0 1 0 -12 0z"/><path d="m340 237.507v-18.668a6 6 0 1 0 -12 0v18.668a6 6 0 1 0 12 0z"/><path d="m154 229.512a6 6 0 0 0 6-6v-24.512h25.272a6 6 0 0 0 0-12h-31c-3.313 0-6.275 2.2-6.275 5.515v31a6 6 0 0 0 6.003 5.997z"/><path d="m357.725 187h-31a6 6 0 0 0 0 12h25.275v24.512a6 6 0 0 0 12 0v-31c0-3.312-2.962-5.512-6.275-5.512z"/><path d="m358 304.488a6 6 0 0 0 -6 6v24.512h-25.272a6 6 0 0 0 0 12h31c3.313 0 6.275-2.2 6.275-5.515v-31a6 6 0 0 0 -6.003-5.997z"/><path d="m185.272 335h-25.272v-24.512a6 6 0 0 0 -12 0v31c0 3.314 2.962 5.515 6.275 5.515h31a6 6 0 0 0 0-12z"/><path d="m161.771 256a6 6 0 0 0 6 6h175.458a6 6 0 1 0 0-12h-175.458a6 6 0 0 0 -6 6z"/><path d="m166 493h180a42 42 0 0 0 42-42v-389a42 42 0 0 0 -42-42h-180a42 42 0 0 0 -42 42v389a42 42 0 0 0 42 42zm-30-398h171.365a6 6 0 0 0 0-12h-171.365v-21.377c0-16.542 13.666-29.623 30.208-29.623h179.584c16.542 0 30.208 13.081 30.208 29.623v21.377h-15.174a6 6 0 0 0 0 12h15.174v310h-240zm0 322h240v33.377c0 16.542-13.666 29.623-30.208 29.623h-179.584c-16.542 0-30.208-13.081-30.208-29.623z"/><path d="m328.01 95h11.652a6 6 0 0 0 0-12h-11.652a6 6 0 0 0 0 12z"/><path d="m256 470.363a21.724 21.724 0 1 0 -21.724-21.723 21.748 21.748 0 0 0 21.724 21.723zm0-31.447a9.724 9.724 0 1 1 -9.724 9.724 9.735 9.735 0 0 1 9.724-9.724z"/><path d="m157 118.392a6 6 0 0 0 6-6v-4.3a6 6 0 0 0 -12 0v4.3a6 6 0 0 0 6 6z"/><path d="m157 175.392a6 6 0 0 0 6-6v-38a6 6 0 0 0 -12 0v38a6 6 0 0 0 6 6z"/></svg>