<svg id="Layer_1" height="512" viewBox="0 0 512 512" width="512" xmlns="http://www.w3.org/2000/svg" data-name="Layer 1"><path d="m283 207a6 6 0 0 0 6-6v-18a6 6 0 0 0 -6-6h-53a6 6 0 0 0 -6 6v18a6 6 0 0 0 6 6zm-47-18h41v7h-41z"/><path d="m312.909 132.4a5.9 5.9 0 0 0 -5.979-5.4h-21.93v-5.778a28.5 28.5 0 0 0 -57 0v5.778h-22.032a5.783 5.783 0 0 0 -5.975 5.2l-1.417 15.25a6 6 0 0 0 5.973 6.55h.012a6 6 0 0 0 5.972-5.432l.909-9.568h16.558v15.4a6 6 0 0 0 12 0v-15.4h33v15.4a6 6 0 0 0 12 0v-15.4h16.406l7.091 85h-104.96l3.307-35.7a5.8 5.8 0 0 0 -5.974-6.3 6 6 0 0 0 -5.974 5.452l-3.878 42.348a6.308 6.308 0 0 0 .4 2.828l8.278 20.75a5.844 5.844 0 0 0 5.575 3.622h102.355a5.815 5.815 0 0 0 5.658-3.793l7.381-20.819a5.524 5.524 0 0 0 .322-2.385zm-39.909-5.4h-33v-5.778a16.5 16.5 0 0 1 33 0zm30.38 118h-94.03l-3.378-9h100.47z"/><path d="m352.161 85.816a135.993 135.993 0 0 0 -192.322 0c-53.023 53.023-53.05 139.3-.027 192.322a134.14 134.14 0 0 0 78.188 38.578v13.284h-12.454c-3.314 0-5.546 2.583-5.546 5.9v137.775a36 36 0 1 0 72 0v-137.775a5.749 5.749 0 0 0 -5.8-5.9h-12.2v-13.284a134.14 134.14 0 0 0 78.188-38.578c53.023-53.024 52.996-139.299-.027-192.322zm-72.161 387.859a24 24 0 1 1 -48 0v-.675h48zm0-12.675h-48v-9h48zm0-119v98h-48v-98zm-30-12v-12.23c2 .086 4.018.135 6 .135s4-.049 6-.135v12.23zm93.675-60.348a123.992 123.992 0 1 1 0-175.35 123.581 123.581 0 0 1 0 175.35z"/><path d="m337.462 100.515a115.151 115.151 0 1 0 0 162.923 115.336 115.336 0 0 0 0-162.923zm-8.486 154.438a103.156 103.156 0 1 1 0-145.953 103.321 103.321 0 0 1 0 145.953z"/><path d="m261 28v-20a6 6 0 0 0 -12 0v20a6 6 0 0 0 12 0z"/><path d="m411 177a6 6 0 0 0 0 12h19a6 6 0 0 0 0-12z"/><path d="m82 177a6 6 0 0 0 0 12h19a6 6 0 0 0 0-12z"/><path d="m369.343 77.588 14.078-14.077a6 6 0 0 0 -8.485-8.485l-14.078 14.074a6 6 0 1 0 8.485 8.485z"/><path d="m142.657 287.3-14.078 14.078a6 6 0 1 0 8.485 8.485l14.078-14.077a6 6 0 0 0 -8.485-8.486z"/><path d="m360.858 287.3a6 6 0 0 0 0 8.486l14.078 14.077a6 6 0 0 0 8.485-8.485l-14.078-14.078a6 6 0 0 0 -8.485 0z"/><path d="m146.9 79.346a6 6 0 0 0 4.242-10.246l-14.078-14.074a6 6 0 0 0 -8.485 8.485l14.078 14.077a5.979 5.979 0 0 0 4.243 1.758z"/><path d="m247 369a6 6 0 0 0 6-6v-7a6 6 0 0 0 -12 0v7a6 6 0 0 0 6 6z"/><path d="m247 429a6 6 0 0 0 6-6v-41a6 6 0 0 0 -12 0v41a6 6 0 0 0 6 6z"/></svg>