<?xml version="1.0" encoding="UTF-8"?>
<svg xmlns="http://www.w3.org/2000/svg" id="Layer_1" data-name="Layer 1" viewBox="0 0 512 512" width="512" height="512"><path d="M323.094,192.518A5.969,5.969,0,0,0,317.111,187H289v-6.661a32.5,32.5,0,1,0-65,0V187H195.966a5.99,5.99,0,0,0-5.98,5.49L179.218,321.981a5.63,5.63,0,0,0,.439,2.711l9.933,23.787A5.847,5.847,0,0,0,195.13,352H317.947a5.844,5.844,0,0,0,5.625-3.74l8.856-23.789a5.782,5.782,0,0,0,.358-2.491ZM236,180.339a20.5,20.5,0,1,1,41,0V187H236ZM313.773,340H199.133l-4.941-12H318.178ZM191.717,316l9.77-117H224v27.31a6,6,0,0,0,12,0V199h41v27.31a6,6,0,0,0,12,0V199h22.544l8.793,117Z"/><path d="M288,260H225a6,6,0,0,0-6,6v22a6,6,0,0,0,6,6h63a6,6,0,0,0,6-6V266A6,6,0,0,0,288,260Zm-6,22H231V272h51Z"/><path d="M166,488H346a42,42,0,0,0,42-42V67a42,42,0,0,0-42-42H166a42,42,0,0,0-42,42V446A42,42,0,0,0,166,488ZM136,100H307.365a6,6,0,0,0,0-12H136V66.623C136,50.081,149.666,37,166.208,37H345.792C362.334,37,376,50.081,376,66.623V88H360.827a6,6,0,0,0,0,12H376V400H136Zm0,312H376v33.377C376,461.919,362.334,475,345.792,475H166.208C149.666,475,136,461.919,136,445.377Z"/><path d="M339.662,88H328.01a6,6,0,0,0,0,12h11.652a6,6,0,0,0,0-12Z"/><path d="M256,465.363a21.724,21.724,0,1,0-21.724-21.723A21.748,21.748,0,0,0,256,465.363Zm0-31.447a9.724,9.724,0,1,1-9.724,9.724A9.735,9.735,0,0,1,256,433.916Z"/><path d="M161,111.1a6,6,0,0,0-6,6v6.3a6,6,0,0,0,12,0v-6.3A6,6,0,0,0,161,111.1Z"/><path d="M161,136.391a6,6,0,0,0-6,6v46a6,6,0,0,0,12,0v-46A6,6,0,0,0,161,136.391Z"/></svg>
