<?xml version="1.0" encoding="UTF-8"?>
<svg xmlns="http://www.w3.org/2000/svg" id="Layer_1" data-name="Layer 1" viewBox="0 0 512 512" width="512" height="512"><path d="M331.709,256A75.709,75.709,0,1,0,256,331.709,75.795,75.795,0,0,0,331.709,256Zm-139.418,0A63.709,63.709,0,1,1,256,319.709,63.781,63.781,0,0,1,192.291,256Z"/><path d="M266.4,301.056a5.984,5.984,0,0,0,4.122-10.341L246.9,268.547A27.181,27.181,0,0,0,271.712,248h8.449a6,6,0,1,0,0-12h-8.45a34.045,34.045,0,0,0-3.753-9h12.2a6,6,0,0,0,0-12H231.839a6,6,0,0,0,0,12h13.827c5.986,0,11.14,4,13.442,9H231.839a6,6,0,0,0,0,12h27.269c-2.3,5-7.456,8-13.442,8H231.839a6.234,6.234,0,0,0-4.121,10.679l34.56,32.711A6,6,0,0,0,266.4,301.056Z"/><path d="M496,122H16a6,6,0,0,0-6,6V385a6,6,0,0,0,6,6H496a6,6,0,0,0,6-6V128A6,6,0,0,0,496,122Zm-6,256H22V134H490Z"/><path d="M72.585,256A26.418,26.418,0,1,0,99,229.583,26.448,26.448,0,0,0,72.585,256Zm40.835,0A14.418,14.418,0,1,1,99,241.583,14.433,14.433,0,0,1,113.42,256Z"/><path d="M413,282.417A26.417,26.417,0,1,0,386.58,256,26.448,26.448,0,0,0,413,282.417Zm0-40.834A14.417,14.417,0,1,1,398.58,256,14.434,14.434,0,0,1,413,241.583Z"/><path d="M45.719,327.111c14.111.363,25.6,12.478,25.575,26.944a5.975,5.975,0,0,0,6,5.945H433.706a5.966,5.966,0,0,0,6-5.921c-.039-14.72,10.747-26.58,24.515-26.966a5.98,5.98,0,0,0,5.779-6V190.883a5.971,5.971,0,0,0-5.756-6c-14-.382-24.565-11.551-24.538-25.942a5.976,5.976,0,0,0-6-5.945H139a6,6,0,0,0,0,12h71.01a101.954,101.954,0,0,0,2.022,183H82.829A39.041,39.041,0,0,0,52,315.757V196.276A37.829,37.829,0,0,0,82.825,165H99a6,6,0,0,0,0-12H77.294a5.986,5.986,0,0,0-6,5.969A25.95,25.95,0,0,1,45.73,184.888a5.959,5.959,0,0,0-5.73,6V321.117A6.028,6.028,0,0,0,45.719,327.111ZM428.14,165A36.674,36.674,0,0,0,458,196.273V315.761c-15.532,2.993-27.487,15.892-29.863,32.239H299.968a101.954,101.954,0,0,0,2.022-183ZM166.024,256A89.976,89.976,0,1,1,256,345.976,90.078,90.078,0,0,1,166.024,256Z"/></svg>
