<?xml version="1.0" encoding="UTF-8"?>
<svg xmlns="http://www.w3.org/2000/svg" id="Layer_1" data-name="Layer 1" viewBox="0 0 512 512" width="512" height="512"><path d="M490.286,493h-1.78C479.033,492,472,483.766,472,474.061v-99.9c0-28.274-23.4-51.16-51.679-51.16H345V142h87.714c3.314,0,6.286-2.436,6.286-5.75v-123A6.467,6.467,0,0,0,432.714,7h-411C18.4,7,16,9.936,16,13.25v123A5.552,5.552,0,0,0,21.714,142H118V389.158a47.71,47.71,0,0,0,47.667,47.595c1.413,0,2.844.146,4.226.025.018,0,.071.222.089.222H281v16.391C281,481.664,304.136,505,332.409,505H488c.754,0,1.515-.083,2.283-.083a6,6,0,0,0,6-6A5.93,5.93,0,0,0,490.286,493ZM118,77.75V94H87V58h17a6,6,0,0,0,0-12H81a6,6,0,0,0-6,6v48a6,6,0,0,0,6,6h37v24H28V19H427V130H345V106h26a6,6,0,0,0,6-6V52a6,6,0,0,0-6-6H144a6,6,0,0,0,0,12H365V94H345V77.75A5.623,5.623,0,0,0,339.2,72H124.143A5.916,5.916,0,0,0,118,77.75Zm47.5,347A35.554,35.554,0,0,1,130,389.158V84H333V323H249v-.094c-1-.014-1.284-.022-1.758-.022-25.309,0-46.242,20.591-46.242,45.9v20.374A35.553,35.553,0,0,1,165.5,424.753ZM281,425H197.509A48.614,48.614,0,0,0,213,389.158V368.784a34,34,0,0,1,68,0Zm51.409,68A39.721,39.721,0,0,1,293,453.391V368.784C293,355.371,287.352,343,278.148,335H420.321C441.978,335,460,352.5,460,374.16v99.9c0,6.989,1.945,13.939,5.894,18.939Z"/><path d="M195.954,269a6,6,0,0,0,6,6H301.6a6,6,0,0,0,0-12H201.954A6,6,0,0,0,195.954,269Z"/><path d="M176.212,263H161.749a6,6,0,0,0,0,12h14.463a6,6,0,0,0,0-12Z"/><path d="M301.6,307a6,6,0,0,0,0-12H201.954a6,6,0,0,0,0,12Z"/><path d="M176.212,295H161.749a6,6,0,0,0,0,12h14.463a6,6,0,0,0,0-12Z"/><path d="M342.214,381.731a11.508,11.508,0,0,1,11.5,11.5,6,6,0,0,0,6,6,5.91,5.91,0,0,0,5.893-6A23.7,23.7,0,0,0,348,370.51v-4.391a6,6,0,0,0-12,0v4.391a23.511,23.511,0,0,0,6.161,46.211,11.492,11.492,0,0,1,.16,22.983c-.04,0-.073-.006-.113-.006s-.077,0-.118.006a11.5,11.5,0,0,1-11.372-11.489,6,6,0,0,0-6-6,6.093,6.093,0,0,0-6.107,6A23.506,23.506,0,0,0,336,450.931v5.188a6,6,0,0,0,12,0v-5.188a23.479,23.479,0,0,0-5.839-46.21,11.5,11.5,0,0,1,.053-22.99Z"/><path d="M424.18,440H395.214a6,6,0,1,0,0,12H424.18a6,6,0,1,0,0-12Z"/><path d="M424.18,405H395.214a6,6,0,1,0,0,12H424.18a6,6,0,1,0,0-12Z"/><path d="M424.18,370H395.214a6,6,0,1,0,0,12H424.18a6,6,0,1,0,0-12Z"/><path d="M198.231,223.9a15.609,15.609,0,1,0,31.218-.157A16.087,16.087,0,0,0,223.025,211h33.257a16.079,16.079,0,0,0-6.425,12.734,15.609,15.609,0,1,0,31.218-.035A16.011,16.011,0,0,0,274.65,211H277.7a6,6,0,0,0,0-12H209.468a6.671,6.671,0,0,1-6.706-5.533L202.151,190h63.588a21.926,21.926,0,0,0,20.95-15.269l9.975-31.073a5.818,5.818,0,0,0-.866-5.281A5.916,5.916,0,0,0,290.951,136h-98l-1.78-10.415A18.692,18.692,0,0,0,172.634,110h-9.156a6,6,0,0,0,0,12h9.156a6.65,6.65,0,0,1,6.707,5.508l11.59,68.2a18.689,18.689,0,0,0,14.4,15.144A15.565,15.565,0,0,0,198.231,223.9Zm67.235-3.629a3.609,3.609,0,1,1-3.609,3.609A3.613,3.613,0,0,1,265.466,220.267Zm-51.626,0a3.609,3.609,0,1,1-3.609,3.609A3.613,3.613,0,0,1,213.84,220.267ZM194.989,148h87.735l-7.46,23.149A9.888,9.888,0,0,1,265.739,178H200.114Z"/><path d="M150,153.058a6,6,0,0,0,6-6v-6.295a6,6,0,0,0-12,0v6.295A6,6,0,0,0,150,153.058Z"/><path d="M156,166.058a6,6,0,0,0-12,0v62a6,6,0,0,0,12,0Z"/></svg>
