<?xml version="1.0" encoding="UTF-8"?>
<svg xmlns="http://www.w3.org/2000/svg" id="Layer_1" data-name="Layer 1" viewBox="0 0 512 512" width="512" height="512"><path d="M89,219.058a6,6,0,0,0,6-6v-6.295a6,6,0,0,0-12,0v6.295A6,6,0,0,0,89,219.058Z"/><path d="M89,297.058a6,6,0,0,0,6-6v-59a6,6,0,0,0-12,0v59A6,6,0,0,0,89,297.058Z"/><path d="M503.67,268.753,452.153,212.52A26.166,26.166,0,0,0,433,204h-92.27A5.951,5.951,0,0,0,335,210.2V330H286.876A30.5,30.5,0,0,0,293,311.613V190h12.294A5.706,5.706,0,0,0,311,184.294V156.337A30.338,30.338,0,0,0,280.663,126H242.7a44.487,44.487,0,1,0-68.752-54.66,44.487,44.487,0,1,0-68.8,54.66H67.031A30.031,30.031,0,0,0,37,156.031v28.14A5.829,5.829,0,0,0,42.829,190H55V311.613A30.177,30.177,0,0,0,61.246,330H12.75C9.436,330,7,333.062,7,336.376v86A5.48,5.48,0,0,0,12.75,428H52.693a41,41,0,0,0,81.114,0H378.693a41,41,0,0,0,81.114,0H479.25A25.5,25.5,0,0,0,505,402.376V272.811a5.874,5.874,0,0,0-1.459-4.053ZM180,93.187a33.81,33.81,0,0,1,1.469-9.268A32.6,32.6,0,1,1,212.6,126H180Zm-77.287,0A32.644,32.644,0,0,1,168,93.314V126H135.276a33.911,33.911,0,0,1-9.268-1.514A32.585,32.585,0,0,1,102.713,93.188ZM49,178V156.337A18.391,18.391,0,0,1,67.337,138H280.969A18.031,18.031,0,0,1,299,156.031V178H111a6,6,0,0,0,0,12h30v42.914c-6,7.645-10.8,17.655-10.8,28.607s4.8,20.962,10.8,28.607V330H85.408A18.471,18.471,0,0,1,67,311.613V190h4a6,6,0,0,0,0-12Zm158,55.293V190h74V311.613A18.192,18.192,0,0,1,262.92,330H207V289.749c6-7.6,10.476-17.456,10.476-28.228S213,240.888,207,233.293Zm-33,59.625a31.4,31.4,0,1,1,31.4-31.4A31.433,31.433,0,0,1,174,292.918Zm21,6.609V330H153V299.711c7,3.32,13.388,5.207,20.836,5.207A43.459,43.459,0,0,0,195,299.527Zm-42-76.2V190h42v33.515a43.459,43.459,0,0,0-21.164-5.391C166.388,218.124,160,220.011,153,223.331ZM93.25,451.376a29,29,0,1,1,29-29A29.032,29.032,0,0,1,93.25,451.376ZM335,416H133.807c-2.913-19-19.988-35-40.557-35s-37.644,16-40.557,35H19V367H335Zm0-61H19V342H335Zm86-139h12a14.23,14.23,0,0,1,10.314,4.729L485.6,267H421Zm-24,0h12v51H397Zm-50,0h38v51H347Zm72.25,235.376a29,29,0,1,1,29-29A29.032,29.032,0,0,1,419.25,451.376ZM493,325H476V307h17Zm0-30H474.421c-5.514,0-10.421,4.1-10.421,9.616V326.8A10.549,10.549,0,0,0,474.421,337H493v65.376A13.487,13.487,0,0,1,479.25,416H459.807c-2.913-19-19.988-35-40.557-35s-37.644,16-40.557,35H347V279H493Z"/></svg>
