<?xml version="1.0" encoding="UTF-8"?>
<svg xmlns="http://www.w3.org/2000/svg" id="Layer_1" data-name="Layer 1" viewBox="0 0 512 512" width="512" height="512"><path d="M283.748,298.384a5.979,5.979,0,1,0-4.312-11.153,33.611,33.611,0,0,1-35.731-7.8,26.647,26.647,0,0,1-5.466-7.43h27.313a6,6,0,0,0,0-12H234.218a28.683,28.683,0,0,1-.157-7h40.552a6,6,0,1,0,0-12h-37.1a35.154,35.154,0,0,1,6.191-8.614,33.545,33.545,0,0,1,35.732-7.631,6,6,0,1,0,4.313-11.2A45.563,45.563,0,0,0,235.219,223.9,47.243,47.243,0,0,0,224.491,241H214.406a6,6,0,0,0,0,12h7.633a38.98,38.98,0,0,0,.1,7h-7.735a6,6,0,0,0,0,12H225a43.638,43.638,0,0,0,10.218,15.922,45.586,45.586,0,0,0,48.529,10.462Z"/><path d="M331.709,256A75.709,75.709,0,1,0,256,331.709,75.795,75.795,0,0,0,331.709,256Zm-139.418,0A63.709,63.709,0,1,1,256,319.709,63.781,63.781,0,0,1,192.291,256Z"/><path d="M496,122H16a6,6,0,0,0-6,6V385a6,6,0,0,0,6,6H496a6,6,0,0,0,6-6V128A6,6,0,0,0,496,122Zm-6,256H22V134H490Z"/><path d="M72.585,256A26.418,26.418,0,1,0,99,229.583,26.448,26.448,0,0,0,72.585,256Zm40.835,0A14.418,14.418,0,1,1,99,241.583,14.433,14.433,0,0,1,113.42,256Z"/><path d="M413,282.417A26.417,26.417,0,1,0,386.58,256,26.448,26.448,0,0,0,413,282.417Zm0-40.834A14.417,14.417,0,1,1,398.58,256,14.434,14.434,0,0,1,413,241.583Z"/><path d="M45.719,327.111c14.111.363,25.6,12.478,25.575,26.944a5.975,5.975,0,0,0,6,5.945H433.706a5.966,5.966,0,0,0,6-5.921c-.039-14.72,10.747-26.58,24.515-26.966a5.98,5.98,0,0,0,5.779-6V190.883a5.971,5.971,0,0,0-5.756-6c-14-.382-24.565-11.551-24.538-25.942a5.976,5.976,0,0,0-6-5.945H139a6,6,0,0,0,0,12h71.01a101.954,101.954,0,0,0,2.022,183H82.829A39.041,39.041,0,0,0,52,315.757V196.276A37.829,37.829,0,0,0,82.825,165H99a6,6,0,0,0,0-12H77.294a5.986,5.986,0,0,0-6,5.969,25.95,25.95,0,0,1-25.565,25.919,5.958,5.958,0,0,0-5.729,6V321.117A6.028,6.028,0,0,0,45.719,327.111ZM428.14,165A36.674,36.674,0,0,0,458,196.273V315.761c-15.532,2.993-27.487,15.892-29.863,32.239H299.968a101.954,101.954,0,0,0,2.022-183ZM166.024,256A89.976,89.976,0,1,1,256,345.976,90.078,90.078,0,0,1,166.024,256Z"/></svg>
