<?xml version="1.0" encoding="UTF-8"?>
<svg xmlns="http://www.w3.org/2000/svg" id="Layer_1" data-name="Layer 1" viewBox="0 0 512 512" width="512" height="512"><path d="M340,244H172a6,6,0,0,0-6,6V404a6,6,0,0,0,6,6H340a6,6,0,0,0,6-6V250A6,6,0,0,0,340,244Zm-6,153H178V256H334Z"/><path d="M275.532,296h39.879a6,6,0,1,0,0-12H275.532a6,6,0,1,0,0,12Z"/><path d="M196.589,296h52.157a6,6,0,0,0,0-12H196.589a6,6,0,0,0,0,12Z"/><path d="M315.411,308H230.653a6,6,0,0,0,0,12h84.758a6,6,0,1,0,0-12Z"/><path d="M196.589,320h7.277a6,6,0,0,0,0-12h-7.277a6,6,0,0,0,0,12Z"/><path d="M315.411,332H271.067a6,6,0,0,0,0,12h44.344a6,6,0,1,0,0-12Z"/><path d="M196.589,344h47.692a6,6,0,0,0,0-12H196.589a6,6,0,1,0,0,12Z"/><path d="M315.411,357H241.18a6,6,0,0,0,0,12h74.231a6,6,0,1,0,0-12Z"/><path d="M196.589,369h18.862a6,6,0,1,0,0-12H196.589a6,6,0,1,0,0,12Z"/><path d="M325.167,98.071A35.957,35.957,0,0,0,296.433,84H262V16.511a6,6,0,0,0-12,0V84H215.567a35.956,35.956,0,0,0-28.734,14.072L128.1,175.994A35.71,35.71,0,0,0,121,197.56V465.489A35.342,35.342,0,0,0,156.667,501H355.333A35.342,35.342,0,0,0,391,465.489V197.56a35.7,35.7,0,0,0-7.1-21.566ZM254.841,128.66a5.949,5.949,0,0,0,2.318,0,11.307,11.307,0,1,1-2.318,0ZM379,440H208a6,6,0,0,0,0,12H379v13.489A23.33,23.33,0,0,1,355.333,489H156.667A23.33,23.33,0,0,1,133,465.489V452h35a6,6,0,0,0,0-12H133V197.56a23.987,23.987,0,0,1,4.677-14.458l58.817-77.8A23.737,23.737,0,0,1,215.567,96H250v21.388a23.307,23.307,0,1,0,12,0V96h34.433a23.9,23.9,0,0,1,19.156,9.3l58.734,77.923A23.633,23.633,0,0,1,379,197.56Z"/><path d="M153,202.763a6,6,0,0,0-6,6v6.295a6,6,0,0,0,12,0v-6.295A6,6,0,0,0,153,202.763Z"/><path d="M153,228.058a6,6,0,0,0-6,6v72a6,6,0,0,0,12,0v-72A6,6,0,0,0,153,228.058Z"/></svg>
