<?xml version="1.0" encoding="UTF-8"?>
<svg xmlns="http://www.w3.org/2000/svg" id="Layer_1" data-name="Layer 1" viewBox="0 0 512 512" width="512" height="512"><path d="M497.36,402.5l-33.068-65.589c-.079-.156-.292-.208-.292-.354V208.352a57.544,57.544,0,0,0,31.34-27.962c.013-.024.028-.028.04-.053a5.755,5.755,0,0,0,.62-2.629V156h.018a6.9,6.9,0,0,0-2.2-4.432L464,127.2V100.6A35.636,35.636,0,0,0,428.077,65H83.923A35.636,35.636,0,0,0,48,100.6v26.251l-29.864,24.9A6.222,6.222,0,0,0,16,157h0v20.708a5.643,5.643,0,0,0,.664,2.67A57.553,57.553,0,0,0,48,208.351V336.558c0,.148-.215.3-.293.457L14.658,402.533A4.959,4.959,0,0,0,14.011,405H14v6.4A35.7,35.7,0,0,0,50,447H462a35.7,35.7,0,0,0,36-35.6V405h-.011A4.974,4.974,0,0,0,497.36,402.5ZM60,100.6A23.624,23.624,0,0,1,83.923,77H428.077A23.624,23.624,0,0,1,452,100.6v16.8L427.631,97.488A6.139,6.139,0,0,0,423.841,96H86.875a6.273,6.273,0,0,0-3.835,1.634L60,116.847ZM89.043,108H421.705l51.465,42H38.577ZM28,176.205V162H484v14.208c-8,15.063-23.472,24.01-40.8,24.01a45.829,45.829,0,0,1-41.5-25.176A5.861,5.861,0,0,0,396.4,172h-.028a5.871,5.871,0,0,0-5.306,3.112,46.7,46.7,0,0,1-82.935-.1c-.014-.027-.039.05-.053.024a5.871,5.871,0,0,0-5.27-3.031h-.021a5.886,5.886,0,0,0-5.272,2.993c-.021.039-.041.007-.062.046a46.7,46.7,0,0,1-82.936-.054c-.022-.043-.053-.11-.077-.152a6,6,0,0,0-10.589.121,46.689,46.689,0,0,1-82.939,0,6.006,6.006,0,0,0-10.666.013A45.909,45.909,0,0,1,68.79,200.2C51.473,200.2,36,191.266,28,176.205ZM86.772,313H140a6,6,0,0,0,0-12H93V206.919A56.82,56.82,0,0,0,115.4,188.9,57.191,57.191,0,0,0,162,212.14v.025c19,0,36.022-8.5,46.987-23.183a58.945,58.945,0,0,0,93.755.011,58.755,58.755,0,0,0,93.649-.1A56.822,56.822,0,0,0,418,206.505V301H180a6,6,0,0,0,0,12H424.229A5.771,5.771,0,0,0,430,307.229V210.568A61.362,61.362,0,0,0,443.21,212h0a62.042,62.042,0,0,0,8.786-.626V334H60V211.374a61.957,61.957,0,0,0,8.78.626A61.093,61.093,0,0,0,81,210.76v96.468A5.772,5.772,0,0,0,86.772,313ZM56.729,346H455.271l27,53.545L327.842,399.5l-6-18.385A10.22,10.22,0,0,0,312.348,374H199.65a9.989,9.989,0,0,0-9.493,6.863l-6,18.137H29.731ZM462,435H50a23.563,23.563,0,0,1-24-24H188.49a6.006,6.006,0,0,0,5.7-4.12L201.1,386H310.9l6.91,21.093a6.1,6.1,0,0,0,5.7,4.224L486,411.146A23.9,23.9,0,0,1,462,435Z"/><path d="M120,209.763a6,6,0,0,0-6,6v5.295a6,6,0,0,0,12,0v-5.295A6,6,0,0,0,120,209.763Z"/><path d="M120,234.058a6,6,0,0,0-6,6v40a6,6,0,0,0,12,0v-40A6,6,0,0,0,120,234.058Z"/><polygon points="68.782 212 68.78 212 68.779 212 68.782 212"/></svg>
