<?xml version="1.0" encoding="UTF-8"?>
<svg xmlns="http://www.w3.org/2000/svg" id="Layer_1" data-name="Layer 1" viewBox="0 0 512 512" width="512" height="512"><path d="M276.881,300.151a6,6,0,1,0,4.724-11.029,55.519,55.519,0,0,0-29.907-3.9l-3.355.491A36.5,36.5,0,0,0,251.36,273.8l.015-.375a91.44,91.44,0,0,0,.168-11.42h12.013a6,6,0,1,0,0-12H250.175c-.3-1-.634-3.011-1.04-4.682a44.759,44.759,0,0,1-1.471-10.343,14,14,0,0,1,.993-5.227,13.05,13.05,0,0,1,7.233-7.3,14.711,14.711,0,0,1,5.755-1.085c4.806,0,11.409,1.017,13.256,9.808a6,6,0,0,0,11.745-2.467c-2.584-12.291-11.7-19.341-25-19.341a26.631,26.631,0,0,0-10.414,2.025,24.95,24.95,0,0,0-13.719,13.959,26.212,26.212,0,0,0-1.848,9.72,55.781,55.781,0,0,0,1.811,13.085c.168.691.315,1.849.462,1.849h-10.71a6,6,0,1,0,0,12H239.54a78.731,78.731,0,0,1-.129,10.482l-.015.283a24.6,24.6,0,0,1-4.654,12.58l-3.381,4.639a6.011,6.011,0,0,0,5.709,9.5l16.366-2.392A43.511,43.511,0,0,1,276.881,300.151Z"/><path d="M331.709,256A75.709,75.709,0,1,0,256,331.709,75.795,75.795,0,0,0,331.709,256Zm-139.418,0A63.709,63.709,0,1,1,256,319.709,63.781,63.781,0,0,1,192.291,256Z"/><path d="M496,122H16a6,6,0,0,0-6,6V385a6,6,0,0,0,6,6H496a6,6,0,0,0,6-6V128A6,6,0,0,0,496,122Zm-6,256H22V134H490Z"/><path d="M72.585,256A26.418,26.418,0,1,0,99,229.583,26.448,26.448,0,0,0,72.585,256Zm40.836,0A14.418,14.418,0,1,1,99,241.583,14.434,14.434,0,0,1,113.421,256Z"/><path d="M413,282.417A26.417,26.417,0,1,0,386.579,256,26.448,26.448,0,0,0,413,282.417Zm0-40.834A14.417,14.417,0,1,1,398.579,256,14.434,14.434,0,0,1,413,241.583Z"/><path d="M45.719,327.111c14.111.363,25.6,12.478,25.575,26.944a5.975,5.975,0,0,0,6,5.945H433.706a5.966,5.966,0,0,0,6-5.921c-.039-14.72,10.747-26.58,24.515-26.966a5.98,5.98,0,0,0,5.779-6V190.883a5.971,5.971,0,0,0-5.756-6c-14-.382-24.565-11.551-24.538-25.942a5.977,5.977,0,0,0-6-5.945H139a6,6,0,0,0,0,12h71.011a101.954,101.954,0,0,0,2.021,183H82.828A39.038,39.038,0,0,0,52,315.757V196.276A37.83,37.83,0,0,0,82.825,165H99a6,6,0,0,0,0-12H77.294a5.986,5.986,0,0,0-6,5.969,25.949,25.949,0,0,1-25.565,25.919,5.958,5.958,0,0,0-5.729,6V321.117A6.029,6.029,0,0,0,45.719,327.111ZM428.14,165A36.675,36.675,0,0,0,458,196.273V315.761c-15.532,2.993-27.486,15.892-29.862,32.239H299.968a101.954,101.954,0,0,0,2.021-183ZM166.024,256A89.976,89.976,0,1,1,256,345.976,90.078,90.078,0,0,1,166.024,256Z"/></svg>
