<?xml version="1.0" encoding="UTF-8"?>
<svg xmlns="http://www.w3.org/2000/svg" id="Layer_1" data-name="Layer 1" viewBox="0 0 512 512" width="512" height="512"><path d="M365.834,236.058c.057,0,.026-.007.083-.008s.068.008.125.008a5.965,5.965,0,0,0,5.958-6v-6.295a6,6,0,0,0-6-6c-.057,0-.11.007-.166.008s.057-.008,0-.008a5.86,5.86,0,0,0-5.834,6v6.295A5.86,5.86,0,0,0,365.834,236.058Z"/><path d="M365.834,292.058c.055,0,.023-.007.078-.009s.072.009.13.009a5.965,5.965,0,0,0,5.958-6v-37a6,6,0,0,0-6-6c-.057,0-.11.007-.166.009s.057-.009,0-.009a5.861,5.861,0,0,0-5.834,6v37A5.861,5.861,0,0,0,365.834,292.058Z"/><path d="M483.538,199.345l-45.213-49.263a23.621,23.621,0,0,0-12.525-7.124C395.374,66.859,318.453,16,233.118,16,119.4,16,26.882,104.566,26.882,213.428c0,34.942,10.792,71.569,32.076,108.863,16.868,29.556,40.345,59.619,69.777,89.355,49.952,50.463,100.645,83.085,101.152,83.409a6,6,0,0,0,6.463,0c.961-.614,94.817-61.18,154.093-146.222A36.768,36.768,0,0,0,445.127,323h16.438A23.382,23.382,0,0,0,485,299.56V203.4a5.925,5.925,0,0,0-1.525-4.053Zm-54.055-41.577L465.467,197H411V154h9.973A11.6,11.6,0,0,1,429.483,157.768ZM233.116,482.807a665.84,665.84,0,0,1-96.017-79.77c-28.655-28.973-51.459-58.177-67.781-86.8-20.2-35.421-30.436-70.01-30.436-102.807,0-102.245,87.134-185.655,194.236-185.655C311.693,27.773,382.652,74,412.578,142H364.839C337.628,96,287.5,66.283,233.118,66.283,175.183,66.283,124.706,98.939,99,146.7a6.069,6.069,0,0,0,3.209,8.557l.011.032a6.248,6.248,0,0,0,7.55-2.794C114.31,144.061,119,136.16,126,128.866V231H93.469c-.353-4-.543-8.149-.543-12.284a139.672,139.672,0,0,1,4.552-35.4,5.988,5.988,0,0,0-4.057-7.287L93.33,176a5.943,5.943,0,0,0-7.448,4.148A151.737,151.737,0,0,0,80.926,218.7c0,83.918,68.273,152.136,152.192,152.136,41.861,0,82.026-16.84,110.719-47.84h28.851a36.085,36.085,0,0,0,8.494,18.082C329.483,415.7,250.036,471.424,233.116,482.807ZM399,154v43h-9V154ZM218.006,323H326.663a139.971,139.971,0,0,1-135.281,29.468A37.171,37.171,0,0,0,218.006,323Zm-36.219,18.829A24.717,24.717,0,1,1,206.5,317.112,24.745,24.745,0,0,1,181.787,341.829ZM218.006,311c-2.873-17-18.017-30.717-36.219-30.717S148.441,294,145.568,311H127.787a134.033,134.033,0,0,1-23.5-37H334v37Zm-70.814,18.285C144.611,327.277,142.1,325,139.67,323h5.9A40.944,40.944,0,0,0,147.192,329.285ZM99.766,262a152.756,152.756,0,0,1-4.732-19H334v19ZM138,231V115.8a109.444,109.444,0,0,1,11.629-9.8H184V231Zm58,0V106h50V231Zm62,0V106h25.931A24.233,24.233,0,0,1,308,130.171V231Zm62,0V130.171A36.246,36.246,0,0,0,283.931,94H168.79a139.406,139.406,0,0,1,64.328-15.8c47.726,0,91.905,24.8,117.653,63.8H339.994c-3.313,0-5.994,3.141-5.994,6.455V231Zm26-77h32v43H346Zm62.907,187.829a24.717,24.717,0,1,1,24.718-24.717A24.745,24.745,0,0,1,408.907,341.829ZM473,248H460V234h13Zm0-26H457.327A9.2,9.2,0,0,0,448,231.315v19.472A9.116,9.116,0,0,0,457.327,260H473v39.56A11.369,11.369,0,0,1,461.565,311H445.127c-2.874-17-18.018-30.717-36.22-30.717S375.562,294,372.688,311H346V209H473Z"/></svg>
