<?xml version="1.0" encoding="UTF-8"?>
<svg xmlns="http://www.w3.org/2000/svg" id="Layer_1" data-name="Layer 1" viewBox="0 0 512 512" width="512" height="512"><path d="M156.592,266.774a6,6,0,0,0-7.918,3.049l-2.555,5.755a6,6,0,1,0,10.967,4.869l2.555-5.755A6,6,0,0,0,156.592,266.774Z"/><path d="M146.328,289.894a6,6,0,0,0-7.918,3.05l-22.718,51.185A6,6,0,1,0,126.661,349l22.718-51.185A6,6,0,0,0,146.328,289.894Z"/><path d="M388,98.072A35.956,35.956,0,0,0,359.266,84H325V16.511a6,6,0,0,0-12,0V84H278.4a35.956,35.956,0,0,0-28.735,14.072l-2.051,2.7L186.7,132.234a34.711,34.711,0,0,0-15.274,15.722L61.239,377.42a34.544,34.544,0,0,0,16.167,46.037L184.265,474.77C188.494,490.007,202.871,501,219.5,501H418.166A35.483,35.483,0,0,0,454,465.489V197.56a35.782,35.782,0,0,0-7.182-21.566ZM317.675,128.66a5.949,5.949,0,0,0,2.318,0,11.308,11.308,0,1,1-2.318,0ZM183,460.85,82.6,412.639a22.527,22.527,0,0,1-10.544-30.025L77.48,371.32,183,421.99Zm7.516-284.856A36.109,36.109,0,0,0,183,197.56V408.678L82.676,360.5l99.569-207.352a22.645,22.645,0,0,1,9.962-10.254l38.544-19.908ZM442,440H268a6,6,0,0,0,0,12H442v13.489A23.472,23.472,0,0,1,418.166,489H219.5c-13.233,0-24.5-10.277-24.5-23.511V452h33a6,6,0,0,0,0-12H195V197.56a24.4,24.4,0,0,1,5.094-14.458l59.025-77.8A24.138,24.138,0,0,1,278.4,96H313v21.388a23.244,23.244,0,1,0,12,0V96h34.266a23.9,23.9,0,0,1,19.157,9.3l58.817,77.923A23.712,23.712,0,0,1,442,197.56Z"/><path d="M410,241H228a6,6,0,0,0-6,6V401a6,6,0,0,0,6,6H410a6,6,0,0,0,6-6V247A6,6,0,0,0,410,241Zm-6,154H234V253H404Z"/><path d="M297.085,321.844a19.593,19.593,0,1,0-19.593-19.593A19.615,19.615,0,0,0,297.085,321.844Zm0-27.186a7.593,7.593,0,1,1-7.593,7.593A7.6,7.6,0,0,1,297.085,294.658Z"/><path d="M340.582,326.156a19.593,19.593,0,1,0,19.594,19.593A19.615,19.615,0,0,0,340.582,326.156Zm0,27.186a7.593,7.593,0,1,1,7.594-7.593A7.6,7.6,0,0,1,340.582,353.342Z"/><path d="M284.276,358.558a6,6,0,0,0,8.485,0l60.63-60.63a6,6,0,0,0-8.485-8.486l-60.63,60.63A6,6,0,0,0,284.276,358.558Z"/></svg>
