<?xml version="1.0" encoding="UTF-8"?>
<svg xmlns="http://www.w3.org/2000/svg" id="Layer_1" data-name="Layer 1" viewBox="0 0 512 512" width="512" height="512"><path d="M454.182,118H355.1a6,6,0,0,0,0,12h99.08a6,6,0,0,0,0-12Z"/><path d="M454.182,83H355.1a6,6,0,0,0,0,12h99.08a6,6,0,0,0,0-12Z"/><path d="M454.182,154H355.1a6,6,0,0,0,0,12h99.08a6,6,0,0,0,0-12Z"/><path d="M454.182,189H355.1a6,6,0,0,0,0,12h99.08a6,6,0,0,0,0-12Z"/><path d="M454.182,224H355.1a6,6,0,0,0,0,12h99.08a6,6,0,0,0,0-12Z"/><path d="M454.182,260H355.1a6,6,0,0,0,0,12h99.08a6,6,0,0,0,0-12Z"/><path d="M287.967,156.153a18.694,18.694,0,0,0-18.7,18.52A19.018,19.018,0,0,0,282,192.319v49.759a55.5,55.5,0,1,1-111,0V192.093a18.539,18.539,0,1,0-24.932-17.42A17.961,17.961,0,0,0,159,192.259v49.819c0,37.488,30.013,67.986,67.5,67.986s67.5-30.5,67.5-67.986V192.033c8-2.611,12.368-9.4,12.368-17.36A18.44,18.44,0,0,0,287.967,156.153Zm-123.689,25.04a6.52,6.52,0,1,1,6.52-6.52A6.528,6.528,0,0,1,164.278,181.193Zm123.808,0a6.52,6.52,0,1,1,6.52-6.52A6.528,6.528,0,0,1,288.086,181.193Z"/><path d="M278,395H175a6,6,0,0,0-6,6v34a6,6,0,0,0,6,6H278a6,6,0,0,0,6-6V401A6,6,0,0,0,278,395Zm-6,34H181V407h91Z"/><path d="M374.107,303.259a11.724,11.724,0,0,1,11.711,11.71,6,6,0,1,0,12,0A23.754,23.754,0,0,0,380,292v-4.472a6,6,0,0,0-12,0v4.532a23.709,23.709,0,0,0,6.107,46.619,11.708,11.708,0,0,1,.073,23.416c-.061,0-.119-.009-.18-.009-.024,0-.048,0-.071,0a11.719,11.719,0,0,1-11.532-11.7,6,6,0,0,0-12,0A23.751,23.751,0,0,0,368,373.3v5.338a6,6,0,0,0,12,0v-5.279a23.711,23.711,0,0,0-5.893-46.678,11.71,11.71,0,0,1,0-23.42Z"/><path d="M133,197.1a6,6,0,0,0-6,6v6.3a6,6,0,0,0,12,0v-6.3A6,6,0,0,0,133,197.1Z"/><path d="M133,222.391a6,6,0,0,0-6,6v86a6,6,0,0,0,12,0v-86A6,6,0,0,0,133,222.391Z"/><path d="M445.164,22H282v.327c0-.03-1.024-.045-1.709-.045A45.393,45.393,0,0,0,235,67.907V110H21.375A6.65,6.65,0,0,0,15,116.363V483.718A6.577,6.577,0,0,0,21.375,490H359.538A6.481,6.481,0,0,0,366,483.538V427.773a5.947,5.947,0,0,0,3.3-1.43l15.97-14,15.975,14a6,6,0,0,0,7.909,0l15.971-14,15.976,14a6,6,0,0,0,7.909,0l16.439-14.4,21.8,14.848a6,6,0,0,0,3.378,1.042,6.766,6.766,0,0,0,2.992-.7,6.181,6.181,0,0,0,3.383-5.3V73.836A51.988,51.988,0,0,0,445.164,22ZM247,68.405c0-18.363,14.516-33.783,32.876-34.117A33.554,33.554,0,0,1,314,67.907V110H247ZM27,122H55V444.266l-28,25.8Zm9.764,356L61.1,455.357,85.445,478ZM485,410.482l-16.442-11.073a6.139,6.139,0,0,0-7.426.445l-16.027,14-16-14a6.023,6.023,0,0,0-7.926,0l-15.975,14-15.976-14a6,6,0,0,0-7.911,0l-15.973,14-15.974-14a5.854,5.854,0,0,0-7.232-.444L326,410.479V198a6,6,0,0,0-12,0V421.741a6.058,6.058,0,0,0,3.045,5.367,5.909,5.909,0,0,0,6.184-.32l21.751-14.846,9.02,7.91V478H107V414a6,6,0,0,0-12,0v56.216l-28-25.95V122H95V374a6,6,0,0,0,12,0V122H314v36a6,6,0,0,0,12,0V67.907C326,54.613,320.083,43,310.98,34H445.071A40.046,40.046,0,0,1,485,73.929Z"/></svg>
