<?xml version="1.0" encoding="UTF-8"?>
<svg xmlns="http://www.w3.org/2000/svg" id="Layer_1" data-name="Layer 1" viewBox="0 0 512 512" width="512" height="512"><path d="M458.791,206H430L367.506,78.515a124.182,124.182,0,0,0-223.012,0L82,206H53.209a5.815,5.815,0,0,0-5.978,5.263L24.508,473.424a5.943,5.943,0,0,0,4.748,6.336l.117,0A1117.029,1117.029,0,0,0,256,503.022a1116.991,1116.991,0,0,0,226.636-23.288l.108-.026a6,6,0,0,0,4.748-6.392L464.769,211.264A5.815,5.815,0,0,0,458.791,206ZM337.438,56.035A112.087,112.087,0,0,1,356.731,83.8L416.636,206H396.589L340.569,91.72A92.94,92.94,0,0,0,329.1,73.872ZM383.225,206H128.775L182.206,97a82.183,82.183,0,0,1,147.588,0ZM196.647,37.979a112.165,112.165,0,0,1,131.6,9.378l-7.99,17.089a93.836,93.836,0,0,0-128.518,0l-7.99-17.089A112.363,112.363,0,0,1,196.647,37.979ZM155.269,83.8a112.087,112.087,0,0,1,19.293-27.761L182.9,73.872a92.94,92.94,0,0,0-11.47,17.848L115.411,206H95.364ZM256,491.009A1105.012,1105.012,0,0,1,36.924,469.028l20.508-236.7,47.365,89.2A45.966,45.966,0,0,0,145.419,346H155a6,6,0,0,0,0-12h-9.581A33.8,33.8,0,0,1,115.4,316.1L63.17,218H448.809l-52.2,98.1A33.8,33.8,0,0,1,366.581,334H290V310.714A9.93,9.93,0,0,0,279.817,301H232.183A9.93,9.93,0,0,0,222,310.714V334H195a6,6,0,0,0,0,12h27v68.417a34,34,0,0,0,68,0V346h76.581A45.971,45.971,0,0,0,407.2,321.512l47.364-89.175,20.51,236.709A1105.068,1105.068,0,0,1,256,491.009ZM278,313V414.417a22,22,0,0,1-44,0V313Z"/><path d="M256,353.19a12.167,12.167,0,1,0-12.167-12.167A12.181,12.181,0,0,0,256,353.19Zm0-12.334a.168.168,0,0,1,.167.167c0,.184-.334.184-.334,0A.168.168,0,0,1,256,340.856Z"/><path d="M256,384.19a12.167,12.167,0,1,0-12.167-12.167A12.181,12.181,0,0,0,256,384.19Zm0-12.334a.168.168,0,0,1,.167.167c0,.184-.334.184-.334,0A.168.168,0,0,1,256,371.856Z"/><path d="M256,415.19a12.167,12.167,0,1,0-12.167-12.167A12.181,12.181,0,0,0,256,415.19Zm0-12.334a.168.168,0,0,1,.167.167c0,.184-.334.184-.334,0A.168.168,0,0,1,256,402.856Z"/><path d="M67.089,420.572a17.419,17.419,0,1,0,17.419,17.419A17.439,17.439,0,0,0,67.089,420.572Zm0,22.838a5.419,5.419,0,1,1,5.419-5.419A5.425,5.425,0,0,1,67.089,443.41Z"/><path d="M427.492,437.991a17.419,17.419,0,1,0,17.419-17.419A17.439,17.439,0,0,0,427.492,437.991Zm22.838,0a5.419,5.419,0,1,1-5.419-5.419A5.425,5.425,0,0,1,450.33,437.991Z"/><path d="M126.449,239h-4.78a6,6,0,1,0,0,12h4.78a6,6,0,1,0,0-12Z"/><path d="M264.167,245a6,6,0,0,0-6-6H147.09a6,6,0,0,0,0,12H258.167A6,6,0,0,0,264.167,245Z"/></svg>
