<?xml version="1.0" encoding="UTF-8"?>
<svg xmlns="http://www.w3.org/2000/svg" id="Layer_1" data-name="Layer 1" viewBox="0 0 512 512" width="512" height="512"><path d="M455.75,167H384V94.2A34.2,34.2,0,0,0,349.8,60H56.25A34.25,34.25,0,0,0,22,94.25V276.88A34.12,34.12,0,0,0,56.12,311H82.339c9.549,0,16.514,3.188,21.291,9.29,14.29,18.254,4.819,57.547,4.723,57.937a6.1,6.1,0,0,0,1.623,5.788,6.04,6.04,0,0,0,5.764,1.549,74,74,0,0,0,26.011-15.029C153.194,360.427,166.531,342,165.631,311H188v32.455A34.578,34.578,0,0,0,222.686,378H355.513c-.9,31,12.436,49.221,23.88,59.329A71.5,71.5,0,0,0,405.4,452.148a6,6,0,0,0,7.387-7.237,128.208,128.208,0,0,1-3.032-22.484c-.487-10.975.46-26.02,7.744-35.337,4.778-6.112,11.746-9.09,21.3-9.09H455.75A34.322,34.322,0,0,0,490,343.455V201.415A34.21,34.21,0,0,0,455.75,167ZM478,343.455A22.309,22.309,0,0,1,455.75,366H438.8c-13.3,0-23.652,4.614-30.755,13.7-12.5,16-11.119,42.027-9,56.863-12.6-6.736-33.026-23.282-31.5-59.388a10.84,10.84,0,0,0-2.971-7.927,10.437,10.437,0,0,0-7.6-3.247h-134.3a23.013,23.013,0,0,1-6.539-.934A22.747,22.747,0,0,1,200,343.455V311h68a6,6,0,0,0,0-12H164.161a10.65,10.65,0,0,0-7.6,3.461,11.086,11.086,0,0,0-2.972,8.03c1.528,36.113-18.9,52.716-31.5,59.447,2.12-14.835,3.505-41.057-9-57.053C105.992,303.8,95.644,299,82.339,299H56.25A22.25,22.25,0,0,1,34,276.75V94.2A22.2,22.2,0,0,1,56.2,72H349.256A22.811,22.811,0,0,1,372,94.744V276.88a22.517,22.517,0,0,1-16.176,21.4,23.067,23.067,0,0,1-6.568.721H308a6,6,0,0,0,0,12h41.256a35.024,35.024,0,0,0,10.006-1.225A34.59,34.59,0,0,0,384,276.88V179h71.75A22.2,22.2,0,0,1,478,201.415Z"/><path d="M181.541,233.156a18.849,18.849,0,1,0,18.848,18.849A18.869,18.869,0,0,0,181.541,233.156Zm0,25.7a6.849,6.849,0,1,1,6.848-6.848A6.856,6.856,0,0,1,181.541,258.853Z"/><path d="M250.572,233.156a18.849,18.849,0,1,0,18.848,18.849A18.869,18.869,0,0,0,250.572,233.156Zm0,25.7a6.849,6.849,0,1,1,6.848-6.848A6.856,6.856,0,0,1,250.572,258.853Z"/><path d="M284.648,136H151.9l-2.666-15.729A23.078,23.078,0,0,0,126.443,101H114.2a6,6,0,1,0,0,12h12.243a11.242,11.242,0,0,1,10.962,9.428l15.5,91.309A23.07,23.07,0,0,0,175.7,233h91.234a6,6,0,0,0,0-12H175.7a10.9,10.9,0,0,1-10.962-9.043L163.515,205h87.422a27.443,27.443,0,0,0,26.088-19.169L290.361,144.2a6.381,6.381,0,0,0-.865-5.552A6.183,6.183,0,0,0,284.648,136ZM265.6,182.016A15.619,15.619,0,0,1,250.937,193H161.478l-7.539-45H276.421Z"/><path d="M61,100.763a6,6,0,0,0-6,6v6.3a6,6,0,0,0,12,0v-6.3A6,6,0,0,0,61,100.763Z"/><path d="M61,126.058a6,6,0,0,0-6,6v66a6,6,0,0,0,12,0v-66A6,6,0,0,0,61,126.058Z"/></svg>
