<?xml version="1.0" encoding="UTF-8"?>
<svg xmlns="http://www.w3.org/2000/svg" id="Layer_1" data-name="Layer 1" viewBox="0 0 512 512" width="512" height="512"><path d="M420.317,368.859a21.5,21.5,0,1,0-21.5-21.5A21.523,21.523,0,0,0,420.317,368.859Zm0-31a9.5,9.5,0,1,1-9.5,9.5A9.508,9.508,0,0,1,420.317,337.862Z"/><path d="M363.12,368.859a21.5,21.5,0,1,0-21.5-21.5A21.523,21.523,0,0,0,363.12,368.859Zm0-31a9.5,9.5,0,1,1-9.5,9.5A9.509,9.509,0,0,1,363.12,337.862Z"/><path d="M305.922,368.859a21.5,21.5,0,1,0-21.5-21.5A21.523,21.523,0,0,0,305.922,368.859Zm0-31a9.5,9.5,0,1,1-9.5,9.5A9.509,9.509,0,0,1,305.922,337.862Z"/><path d="M248.725,368.859a21.5,21.5,0,1,0-21.5-21.5A21.523,21.523,0,0,0,248.725,368.859Zm0-31a9.5,9.5,0,1,1-9.5,9.5A9.509,9.509,0,0,1,248.725,337.862Z"/><path d="M170.029,347.36a21.5,21.5,0,1,0,21.5-21.5A21.523,21.523,0,0,0,170.029,347.36Zm31,0a9.5,9.5,0,1,1-9.5-9.5A9.509,9.509,0,0,1,201.026,347.36Z"/><path d="M134.33,325.862a21.5,21.5,0,1,0,21.5,21.5A21.522,21.522,0,0,0,134.33,325.862Zm0,31a9.5,9.5,0,1,1,9.5-9.5A9.509,9.509,0,0,1,134.33,356.859Z"/><path d="M143.716,384H136.9a6,6,0,0,0,0,12h6.817a6,6,0,0,0,0-12Z"/><path d="M156.744,390a6,6,0,0,0,6,6H279.909a6,6,0,0,0,0-12H162.744A6,6,0,0,0,156.744,390Z"/><path d="M497.512,289.545a6.165,6.165,0,0,0-2.647-.545H487V261.178A6.251,6.251,0,0,0,480.887,255H472V180.372A6.666,6.666,0,0,0,465.616,174H426V99.24A6.548,6.548,0,0,0,419.616,93H230.27A6.445,6.445,0,0,0,224,99.24V174H181a6.328,6.328,0,0,0-6,6.372V255h-9V170.389A6.438,6.438,0,0,0,159.891,164H129.112A6.44,6.44,0,0,0,123,170.389V255h-9.742A6.379,6.379,0,0,0,107,261.178v17.184L96.079,264.385A5.865,5.865,0,0,0,91.51,262H17.415a6.565,6.565,0,0,0-2.855.6,6.042,6.042,0,0,0-2.765,8.338L89.808,415.713A6.13,6.13,0,0,0,95.089,419h364.8a6.11,6.11,0,0,0,5.752-4.41l35.039-117.9A6,6,0,0,0,497.512,289.545Zm-67.988-81.1a6.011,6.011,0,0,0,1.837.287,5.476,5.476,0,0,0,3.355-1.152A5.838,5.838,0,0,0,437,202.73V186h23v69H436V243.928A5.658,5.658,0,0,0,430.34,238h-24.2A6.063,6.063,0,0,0,400,243.928V255H377V186h22v16.73a6.084,6.084,0,0,0,7.922,5.713l11.3-3.622ZM424,250v5H412v-5Zm-52.981-76H366v-5h12v5ZM425,186v8.5l-5.108-1.7a5.89,5.89,0,0,0-3.634,0l-5.258,1.7V186Zm-60-81h14v8.374l-5.108-1.7a5.89,5.89,0,0,0-3.634,0l-5.258,1.7Zm-34,0h22v16.6a6.084,6.084,0,0,0,7.922,5.712l11.3-3.622,11.3,3.622a6.012,6.012,0,0,0,1.837.288,5.477,5.477,0,0,0,3.355-1.153A5.836,5.836,0,0,0,391,121.6V105h23v69H390V162.8a5.548,5.548,0,0,0-5.66-5.8h-24.2A5.955,5.955,0,0,0,354,162.8V174H331Zm4.742,133h-24.2c-3.314,0-5.546,2.614-5.546,5.928V255H282V186h23v16.73a5.674,5.674,0,0,0,7.474,5.713l11.23-3.622,11.26,3.622a5.886,5.886,0,0,0,1.817.287,6.333,6.333,0,0,0,3.646-1.152A6.106,6.106,0,0,0,343,202.73V186h22v69H342V243.928A6.165,6.165,0,0,0,335.742,238ZM330,250v5H318v-5Zm-53.73-76c-.089,0-.174.009-.262.013s-.173-.013-.261-.013H272v-5h12v5Zm54.73,20.5-5.406-1.7a5.429,5.429,0,0,0-3.485,0l-5.109,1.7V186h14ZM271,105h14v8.374l-5.406-1.7a5.429,5.429,0,0,0-3.485,0l-5.109,1.7Zm-35,0h23v16.6a5.674,5.674,0,0,0,7.474,5.712l11.23-3.622,11.26,3.622a5.887,5.887,0,0,0,1.817.288,6.334,6.334,0,0,0,3.646-1.153A6.1,6.1,0,0,0,297,121.6V105h22v69H296V162.8a6.056,6.056,0,0,0-6.258-5.8h-24.2A5.457,5.457,0,0,0,260,162.8V174H236Zm-15,81h14v8.5l-5.042-1.7a6,6,0,0,0-3.667,0l-5.291,1.7Zm-34,0h22v16.73a6.177,6.177,0,0,0,8.02,5.713l11.321-3.622,11.306,3.622a6.03,6.03,0,0,0,1.84.287,5.3,5.3,0,0,0,3.293-1.152A5.787,5.787,0,0,0,247,202.73V186h23v69H246V243.928c0-3.314-2.216-5.928-5.529-5.928h-24.2A6.18,6.18,0,0,0,210,243.928V255H187Zm47,64v5H222v-5Zm-99-74h19v15H135Zm0,27h19v52H135ZM455.408,407H98.67L27.129,274H88.614l19.459,24.615a6.114,6.114,0,0,0,4.7,2.385H158a6,6,0,0,0,0-12H119V267H475v22H198a6,6,0,0,0,0,12H486.881Z"/></svg>
