<?xml version="1.0" encoding="UTF-8"?>
<svg xmlns="http://www.w3.org/2000/svg" id="Layer_1" data-name="Layer 1" viewBox="0 0 512 512" width="512" height="512"><path d="M437.862,347.8a92.6,92.6,0,0,0-67.02-86.535l-5.424-1.557-8.242-16.579A5.811,5.811,0,0,0,351.8,240H328.887a78.7,78.7,0,0,0,4.091-31.323L331,183.227V154.953a22.841,22.841,0,0,0,16.617-22.194,23.241,23.241,0,0,0-.555-5.541,19.01,19.01,0,0,0-15.237-14.2l1.352-19.206a77.212,77.212,0,0,0-16.509-53.467c-6.566-8.3-15.526-15.474-27.4-21.919-35.021-19.01-73.716,3.784-78.653,6.93l-.032-.045a77.215,77.215,0,0,0-32.287,68.5l1.33,19.279a18.994,18.994,0,0,0-15.345,14.126,23.294,23.294,0,0,0-.687,5.542c0,10.441,7.405,19.282,16.405,22.2v28.356l-1.729,25.36A77.728,77.728,0,0,0,182.562,240H160.2a5.811,5.811,0,0,0-5.377,3.124L146.6,259.71l-5.437,1.558a92.6,92.6,0,0,0-67.021,86.539c0,.039,0,.078,0,.118l-.928,132a20.93,20.93,0,0,0,21,21.076H417.792a20.933,20.933,0,0,0,21-21.135L437.864,347.9C437.864,347.864,437.863,347.834,437.862,347.8Zm-11.316,97.436a30.7,30.7,0,0,0-15.449-5.6L383,437.536V414h43.325ZM348.074,252l19.517,39H262V252ZM285,303v27H230V303Zm-56-63V222.471c9,3.893,17.551,5.949,26.751,5.949A65.357,65.357,0,0,0,283,222.25V240Zm66,0V215.094a104.3,104.3,0,0,0,12.373-11.239,87.4,87.4,0,0,0,12.256-17.645l1.6,23.293a65.629,65.629,0,0,1-5.2,30.5ZM283.547,28.973c10.418,5.655,18.176,11.81,23.716,18.815a65.311,65.311,0,0,1,13.97,45.2l-1.288,18.679c-15.827-5.266-20.435-22.632-20.64-23.436a6,6,0,0,0-5.459-4.551C241.805,80.49,231.379,67.09,221.22,33.022,231.255,27.738,259.069,15.684,283.547,28.973Zm-72.587,11.5c3.093,9.751,6.462,18.1,10.96,25.149A79.234,79.234,0,0,0,190.4,94.886l-.131-1.9A65.2,65.2,0,0,1,210.96,40.472Zm-35.345,92.289a11.359,11.359,0,0,1,.322-2.689,6.958,6.958,0,0,1,7.007-5.255,7.783,7.783,0,0,1,1.446.107,6.036,6.036,0,0,0,1.116.076h.546a5.95,5.95,0,0,0,5.841-4.595c8.354-26.187,24.417-38.967,37.718-45.2,11.534,11.389,29.144,17.877,59.433,20.169,3.239,8.512,12.77,26.895,35.348,29.51a5.984,5.984,0,0,0,1.064.115h.492a5.985,5.985,0,0,0,1.115-.123,7.149,7.149,0,0,1,8.454,5.2A11.248,11.248,0,0,1,324.6,144h-1.167a6,6,0,0,0-6,5.8c-.534,16.413-7.461,33.189-19.006,46.031-11.935,13.275-27.093,20.586-42.68,20.586s-30.745-7.311-42.681-20.587c-11.545-12.842-18.472-29.617-19-46.029a6,6,0,0,0-6-5.8h-1.215A11.252,11.252,0,0,1,175.615,132.761ZM217,215.452V240H195.451a65.639,65.639,0,0,1-5.191-30.5l1.609-23.315a87.345,87.345,0,0,0,12.259,17.667A65.645,65.645,0,0,0,217,215.452ZM85.675,414H129v23.563l-23.4,2.15a36.608,36.608,0,0,0-20.171,8.466ZM139,489H94.208a8.9,8.9,0,0,1-6.388-2.619,9.092,9.092,0,0,1-2.612-6.476l.048-6.9h.27c0-11,8.9-20.289,21.172-21.412L129,449.58v19.691A5.746,5.746,0,0,0,134.729,475H139Zm-9.648-194.526a5.7,5.7,0,0,0-.352,4.319V402H85.759l.376-53.76a80.739,80.739,0,0,1,53.1-73.7ZM361,489H151V475H361ZM232,463V428.182A6.85,6.85,0,0,0,236.5,430h.049a6.066,6.066,0,0,0,4.283-1.869l6.194-6.349,6.1,6.274a6.006,6.006,0,0,0,8.612-.014l6.1-6.293,6.194,6.383A6.067,6.067,0,0,0,278.327,430h.049A4.824,4.824,0,0,0,282,428.182V463Zm139,0H294V413.155a5.742,5.742,0,0,0-9.985-4.131l-5.82,6.195-6.115-6.343A6.007,6.007,0,0,0,267.827,407h-.016a6.061,6.061,0,0,0-4.29,1.9L257.44,415.2l-6.081-6.324a6.036,6.036,0,0,0-4.29-1.88h-.016a6.077,6.077,0,0,0-4.283,1.876l-6.146,6.3-5.88-6.175a6.311,6.311,0,0,0-6.771-1.432A6.2,6.2,0,0,0,220,413.155V463H141V303h25a6,6,0,0,0,0-12H144.409l19.517-39H250v39H206a6,6,0,0,0,0,12h12v32.747A6.4,6.4,0,0,0,224.206,342h66.468A6.506,6.506,0,0,0,297,335.747V303h74Zm32.1-168.9a80.83,80.83,0,0,1,22.77,54.141l.376,53.76H383V298.793a5.976,5.976,0,0,0-.352-4.426L372.774,274.5A80.761,80.761,0,0,1,403.1,294.1ZM424.18,486.383A8.9,8.9,0,0,1,417.792,489H373V475h4.271A5.729,5.729,0,0,0,383,469.271V449.538l27.221,1.984c8.543.626,15.594,7.16,16.475,14.93l.1,13.564A8.848,8.848,0,0,1,424.18,486.383Z"/><path d="M169,314.763a6,6,0,0,0-6,6v6.3a6,6,0,0,0,12,0v-6.3A6,6,0,0,0,169,314.763Z"/><path d="M169,340.058a6,6,0,0,0-6,6v66a6,6,0,0,0,12,0v-66A6,6,0,0,0,169,340.058Z"/></svg>
