<svg id="Layer_1" height="512" viewBox="0 0 512 512" width="512" xmlns="http://www.w3.org/2000/svg" data-name="Layer 1"><path d="m93.278 497h325.444a6.3 6.3 0 0 0 6.278-6.278v-312.444a6.278 6.278 0 0 0 -6.278-6.278h-18.8l-76.422-154.062a6 6 0 0 0 -8.047-2.706l-48.567 24.153a5.79 5.79 0 0 0 -2.7 7.854l14.355 28.761h-43.881c-3.314 0-5.66 3.056-5.66 6.369v11.631h-43.246a5.928 5.928 0 0 0 -5.754 6.153v23.847h-59.151a5.825 5.825 0 0 0 -5.849 5.944v42.056h-21.722a6.126 6.126 0 0 0 -6.278 5.859v313.541c0 3.309 2.965 5.6 6.278 5.6zm15.384-12 22.852-21.257 22.851 21.257zm168.919-437.54 37.829-18.809 71.113 143.349h-47.178zm48.331 124.54h-32.912v-66.239zm-84.912-84h40v84h-40zm-49 18h37v66h-37zm221 78v301h-237v-67a6 6 0 0 0 -12 0v59.97l-26-24.639v-269.331h26v194a6 6 0 0 0 12 0v-194zm-286-48h53v36h-53zm-28 48h27v269.331l-27 24.4z"/><path d="m340 406h-99a6 6 0 0 0 -6 6v33a6 6 0 0 0 6 6h99a6 6 0 0 0 6-6v-33a6 6 0 0 0 -6-6zm-6 33h-87v-21h87z"/><path d="m225 251.058v47.788a65.5 65.5 0 1 0 131 0v-48.006a18 18 0 0 0 -6.126-34.913 18.067 18.067 0 0 0 -5.874 35.189v47.73a53.5 53.5 0 1 1 -107 0v-47.946a18.038 18.038 0 1 0 -24.257-16.922 18.222 18.222 0 0 0 12.257 17.08zm118.909-17.082a6.049 6.049 0 1 1 6.049 6.049 6.056 6.056 0 0 1 -6.049-6.049zm-113.1-6.049a6.049 6.049 0 1 1 -6.049 6.049 6.056 6.056 0 0 1 6.046-6.049z"/><path d="m199 226.392a6 6 0 0 0 6-6v-6.3a6 6 0 0 0 -12 0v6.3a6 6 0 0 0 6 6z"/><path d="m199 331.392a6 6 0 0 0 6-6v-86a6 6 0 1 0 -12 0v86a6 6 0 0 0 6 6z"/></svg>