<?xml version="1.0" encoding="UTF-8"?>
<svg xmlns="http://www.w3.org/2000/svg" id="Layer_1" data-name="Layer 1" viewBox="0 0 512 512" width="512" height="512"><path d="M217,417.687a18.987,18.987,0,0,0,19-18.755V310.591a19,19,0,0,0-38,0v88.341A18.987,18.987,0,0,0,217,417.687Zm-7-107.1a7,7,0,0,1,14,0v88.341a7,7,0,0,1-14,0Z"/><path d="M120,310.591v88.341a18.5,18.5,0,1,0,37,0V310.591a18.5,18.5,0,1,0-37,0Zm12,0a6.5,6.5,0,1,1,13,0v88.341a6.5,6.5,0,1,1-13,0Z"/><path d="M296,417.687a18.987,18.987,0,0,0,19-18.755V310.591a19,19,0,0,0-38,0v88.341A18.987,18.987,0,0,0,296,417.687Zm-7-107.1a7,7,0,0,1,14,0v88.341a7,7,0,0,1-14,0Z"/><path d="M374.5,417.687A18.56,18.56,0,0,0,393,398.932V310.591a18.5,18.5,0,1,0-37,0v88.341A18.56,18.56,0,0,0,374.5,417.687Zm-6.5-107.1a6.5,6.5,0,1,1,13,0v88.341a6.5,6.5,0,1,1-13,0Z"/><path d="M76,268.1a6,6,0,0,0-6,6v6.3a6,6,0,0,0,12,0v-6.3A6,6,0,0,0,76,268.1Z"/><path d="M76,293.391a6,6,0,0,0-6,6v76a6,6,0,0,0,12,0v-76A6,6,0,0,0,76,293.391Z"/><path d="M26.176,255H38V426.721C38,453.475,59.93,475,86.683,475h339.7A48.456,48.456,0,0,0,475,426.721V255h11.1a5.9,5.9,0,0,0,5.9-5.9V209.66a18.677,18.677,0,0,0-18-18.624V177.454c0-18.3-14.822-33.454-33.119-33.454H431V47.012A9.731,9.731,0,0,0,421.142,37H382.949A9.806,9.806,0,0,0,373,47.012V144H140V47.012A9.754,9.754,0,0,0,130.114,37H91.921A9.782,9.782,0,0,0,82,47.012V144H72.182A33.453,33.453,0,0,0,39,177.454v13.555a19.229,19.229,0,0,0-19,19.169v38.646A6.194,6.194,0,0,0,26.176,255ZM385,49h34v95H385ZM94,49h34v95H94ZM51,177.454A21.44,21.44,0,0,1,72.182,156h368.7A21.386,21.386,0,0,1,462,177.454V191H51ZM32,210.178A7.2,7.2,0,0,1,39.178,203H473.34a6.66,6.66,0,0,1,6.66,6.66V243H160a6,6,0,0,0,0,12H463V426.721A36.443,36.443,0,0,1,426.38,463H86.683A36.5,36.5,0,0,1,50,426.721V255h70a6,6,0,0,0,0-12H32Z"/></svg>
